<?xml version="1.0" encoding="UTF-8" standalone="no"?>
<?xml-stylesheet href="Xholon.css" type="text/css"?>
<!DOCTYPE svg PUBLIC "-//W3C//DTD SVG 1.1//EN"
 "http://www.w3.org/Graphics/SVG/1.1/DTD/svg11.dtd">
<!-- Generated by graphviz version 2.28.0 (20140111.2315)
 -->
<!-- Title: 0 Pages: 1 -->
<svg width="504pt" height="258pt"
 viewBox="0.00 0.00 504.00 257.59" xmlns="http://www.w3.org/2000/svg" xmlns:xlink="http://www.w3.org/1999/xlink">
<g id="Robot" class="graph" transform="scale(0.494603 0.494603) rotate(0) translate(4 516.8)">
<title>0</title>
<polygon fill="white" stroke="none" points="-4,4 -4,-516.8 1015,-516.8 1015,4 -4,4"/>
<text text-anchor="middle" x="505.5" y="-8.2" font-family="arial" font-size="14.00">robot_0</text>
<g id="Robot/Ctrnn" class="cluster"><title>cluster3</title>
<polygon fill="none" stroke="black" points="8,-32.8 8,-468.8 738,-468.8 738,-32.8 8,-32.8"/>
<text text-anchor="middle" x="373" y="-452.2" font-family="arial" font-size="14.00">ctrnn_3</text>
</g>
<!-- 1 -->
<g id="Robot/Photoreceptor[@roleName=&#39;SensorR&#39;]" class="node"><title>1</title>
<polygon fill="#3ab765" stroke="black" points="279.203,-512.8 102.797,-512.8 102.797,-476.8 279.203,-476.8 279.203,-512.8"/>
<text text-anchor="middle" x="191" y="-490.6" font-family="arial" font-size="14.00">SensorR:photoreceptor_1</text>
</g>
<!-- 4 -->
<g id="Robot/Ctrnn/SensorNeuron[@roleName=&#39;Neuron0&#39;]" class="node"><title>4</title>
<polygon fill="#3ab765" stroke="black" points="279.281,-436.8 102.719,-436.8 102.719,-400.8 279.281,-400.8 279.281,-436.8"/>
<text text-anchor="middle" x="191" y="-414.6" font-family="arial" font-size="14.00">Neuron0:sensorNeuron_4</text>
</g>
<!-- 1&#45;&gt;4 -->
<g id="Robot_edge19" class="edge"><title>1&#45;&gt;4</title>
<path fill="none" stroke="black" d="M191,-476.637C191,-467.858 191,-456.963 191,-447.067"/>
<polygon fill="black" stroke="black" points="191,-436.87 195.5,-446.87 191,-441.87 191,-446.87 191,-446.87 191,-446.87 191,-441.87 186.5,-446.87 191,-436.87 191,-436.87"/>
</g>
<!-- 2 -->
<g id="Robot/Photoreceptor[@roleName=&#39;SensorL&#39;]" class="node"><title>2</title>
<polygon fill="#3ab765" stroke="black" points="630.46,-512.8 457.54,-512.8 457.54,-476.8 630.46,-476.8 630.46,-512.8"/>
<text text-anchor="middle" x="544" y="-490.6" font-family="arial" font-size="14.00">SensorL:photoreceptor_2</text>
</g>
<!-- 5 -->
<g id="Robot/Ctrnn/SensorNeuron[@roleName=&#39;Neuron1&#39;]" class="node"><title>5</title>
<polygon fill="#3ab765" stroke="black" points="632.281,-436.8 455.719,-436.8 455.719,-400.8 632.281,-400.8 632.281,-436.8"/>
<text text-anchor="middle" x="544" y="-414.6" font-family="arial" font-size="14.00">Neuron1:sensorNeuron_5</text>
</g>
<!-- 2&#45;&gt;5 -->
<g id="Robot_edge20" class="edge"><title>2&#45;&gt;5</title>
<path fill="none" stroke="black" d="M544,-476.637C544,-467.858 544,-456.963 544,-447.067"/>
<polygon fill="black" stroke="black" points="544,-436.87 548.5,-446.87 544,-441.87 544,-446.87 544,-446.87 544,-446.87 544,-441.87 539.5,-446.87 544,-436.87 544,-436.87"/>
</g>
<!-- 9 -->
<g id="Robot/Ctrnn/Connection[@roleName=&#39;Connection_0_2&#39;]" class="node"><title>9</title>
<polygon fill="#3ab765" stroke="black" points="354.309,-364.8 149.691,-364.8 149.691,-328.8 354.309,-328.8 354.309,-364.8"/>
<text text-anchor="middle" x="252" y="-342.6" font-family="arial" font-size="14.00">Connection_0_2:connection_9</text>
</g>
<!-- 4&#45;&gt;9 -->
<g id="Robot_edge1" class="edge"><title>4&#45;&gt;9</title>
<path fill="none" stroke="black" d="M206.079,-400.497C213.392,-392.105 222.31,-381.87 230.335,-372.661"/>
<polygon fill="black" stroke="black" points="237.095,-364.904 233.918,-375.4 233.81,-368.674 230.525,-372.443 230.525,-372.443 230.525,-372.443 233.81,-368.674 227.132,-369.487 237.095,-364.904 237.095,-364.904"/>
</g>
<!-- 15 -->
<g id="Robot/Ctrnn/Connection[@roleName=&#39;Connection_0_4&#39;]" class="node"><title>15</title>
<polygon fill="#3ab765" stroke="black" points="228.146,-292.8 15.8541,-292.8 15.8541,-256.8 228.146,-256.8 228.146,-292.8"/>
<text text-anchor="middle" x="122" y="-270.6" font-family="arial" font-size="14.00">Connection_0_4:connection_15</text>
</g>
<!-- 4&#45;&gt;15 -->
<g id="Robot_edge2" class="edge"><title>4&#45;&gt;15</title>
<path fill="none" stroke="black" d="M169.654,-400.779C159.155,-391.281 147.234,-378.598 140,-364.8 129.904,-345.542 125.462,-321.2 123.512,-302.843"/>
<polygon fill="black" stroke="black" points="122.628,-292.81 127.989,-302.376 123.067,-297.79 123.506,-302.771 123.506,-302.771 123.506,-302.771 123.067,-297.79 119.023,-303.166 122.628,-292.81 122.628,-292.81"/>
</g>
<!-- 6 -->
<g id="Robot/Ctrnn/Neuron[@roleName=&#39;Neuron2&#39;]" class="node"><title>6</title>
<polygon fill="#3ab765" stroke="black" points="468.033,-292.8 335.967,-292.8 335.967,-256.8 468.033,-256.8 468.033,-292.8"/>
<text text-anchor="middle" x="402" y="-270.6" font-family="arial" font-size="14.00">Neuron2:neuron_6</text>
</g>
<!-- 9&#45;&gt;6 -->
<g id="Robot_edge10" class="edge"><title>9&#45;&gt;6</title>
<path fill="none" stroke="black" d="M288.694,-328.676C309.018,-319.192 334.471,-307.313 356.102,-297.219"/>
<polygon fill="black" stroke="black" points="365.425,-292.868 358.266,-301.175 360.894,-294.983 356.363,-297.097 356.363,-297.097 356.363,-297.097 360.894,-294.983 354.46,-293.019 365.425,-292.868 365.425,-292.868"/>
</g>
<!-- 8 -->
<g id="Robot/Ctrnn/Neuron[@roleName=&#39;Neuron4&#39;]" class="node"><title>8</title>
<polygon fill="#3ab765" stroke="black" points="208.033,-148.8 75.9671,-148.8 75.9671,-112.8 208.033,-112.8 208.033,-148.8"/>
<text text-anchor="middle" x="142" y="-126.6" font-family="arial" font-size="14.00">Neuron4:neuron_8</text>
</g>
<!-- 15&#45;&gt;8 -->
<g id="Robot_edge16" class="edge"><title>15&#45;&gt;8</title>
<path fill="none" stroke="black" d="M69.3162,-256.641C52.8199,-248.502 36.4675,-236.923 27,-220.8 18.8983,-207.003 18.373,-198.275 27,-184.8 36.3636,-170.174 50.8988,-159.528 66.5222,-151.799"/>
<polygon fill="black" stroke="black" points="75.816,-147.576 68.5728,-155.81 71.2637,-149.645 66.7115,-151.713 66.7115,-151.713 66.7115,-151.713 71.2637,-149.645 64.8501,-147.616 75.816,-147.576 75.816,-147.576"/>
</g>
<!-- 10 -->
<g id="Robot/Ctrnn/Connection[@roleName=&#39;Connection_1_2&#39;]" class="node"><title>10</title>
<polygon fill="#3ab765" stroke="black" points="588.146,-364.8 375.854,-364.8 375.854,-328.8 588.146,-328.8 588.146,-364.8"/>
<text text-anchor="middle" x="482" y="-342.6" font-family="arial" font-size="14.00">Connection_1_2:connection_10</text>
</g>
<!-- 5&#45;&gt;10 -->
<g id="Robot_edge3" class="edge"><title>5&#45;&gt;10</title>
<path fill="none" stroke="black" d="M528.674,-400.497C521.241,-392.105 512.177,-381.87 504.02,-372.661"/>
<polygon fill="black" stroke="black" points="497.15,-364.904 507.149,-369.407 500.465,-368.647 503.78,-372.39 503.78,-372.39 503.78,-372.39 500.465,-368.647 500.411,-375.374 497.15,-364.904 497.15,-364.904"/>
</g>
<!-- 12 -->
<g id="Robot/Ctrnn/Connection[@roleName=&#39;Connection_1_3&#39;]" class="node"><title>12</title>
<polygon fill="#3ab765" stroke="black" points="729.146,-292.8 516.854,-292.8 516.854,-256.8 729.146,-256.8 729.146,-292.8"/>
<text text-anchor="middle" x="623" y="-270.6" font-family="arial" font-size="14.00">Connection_1_3:connection_12</text>
</g>
<!-- 5&#45;&gt;12 -->
<g id="Robot_edge4" class="edge"><title>5&#45;&gt;12</title>
<path fill="none" stroke="black" d="M565.711,-400.665C576.492,-391.136 588.909,-378.459 597,-364.8 608.316,-345.697 614.986,-321.343 618.731,-302.942"/>
<polygon fill="black" stroke="black" points="620.611,-292.88 623.198,-303.536 619.693,-297.795 618.774,-302.71 618.774,-302.71 618.774,-302.71 619.693,-297.795 614.351,-301.883 620.611,-292.88 620.611,-292.88"/>
</g>
<!-- 10&#45;&gt;6 -->
<g id="Robot_edge11" class="edge"><title>10&#45;&gt;6</title>
<path fill="none" stroke="black" d="M462.225,-328.497C452.246,-319.765 439.989,-309.04 429.143,-299.55"/>
<polygon fill="black" stroke="black" points="421.548,-292.904 432.037,-296.103 425.311,-296.197 429.074,-299.489 429.074,-299.489 429.074,-299.489 425.311,-296.197 426.11,-302.876 421.548,-292.904 421.548,-292.904"/>
</g>
<!-- 7 -->
<g id="Robot/Ctrnn/Neuron[@roleName=&#39;Neuron3&#39;]" class="node"><title>7</title>
<polygon fill="#3ab765" stroke="black" points="687.033,-148.8 554.967,-148.8 554.967,-112.8 687.033,-112.8 687.033,-148.8"/>
<text text-anchor="middle" x="621" y="-126.6" font-family="arial" font-size="14.00">Neuron3:neuron_7</text>
</g>
<!-- 12&#45;&gt;7 -->
<g id="Robot_edge13" class="edge"><title>12&#45;&gt;7</title>
<path fill="none" stroke="black" d="M676.224,-256.763C692.893,-248.635 709.42,-237.031 719,-220.8 727.132,-207.021 727.192,-198.544 719,-184.8 711.039,-171.443 698.413,-161.249 684.838,-153.547"/>
<polygon fill="black" stroke="black" points="675.82,-148.839 686.767,-149.478 680.252,-151.153 684.685,-153.467 684.685,-153.467 684.685,-153.467 680.252,-151.153 682.602,-157.456 675.82,-148.839 675.82,-148.839"/>
</g>
<!-- 11 -->
<g id="Robot/Ctrnn/Connection[@roleName=&#39;Connection_2_2&#39;]" class="node"><title>11</title>
<polygon fill="#3ab765" stroke="black" points="710.146,-220.8 497.854,-220.8 497.854,-184.8 710.146,-184.8 710.146,-220.8"/>
<text text-anchor="middle" x="604" y="-198.6" font-family="arial" font-size="14.00">Connection_2_2:connection_11</text>
</g>
<!-- 6&#45;&gt;11 -->
<g id="Robot_edge5" class="edge"><title>6&#45;&gt;11</title>
<path fill="none" stroke="black" d="M445.518,-256.676C472.841,-246.851 508.506,-234.458 539.112,-224.14"/>
<polygon fill="black" stroke="black" points="548.854,-220.868 540.807,-228.317 544.115,-222.46 539.375,-224.052 539.375,-224.052 539.375,-224.052 544.115,-222.46 537.942,-219.786 548.854,-220.868 548.854,-220.868"/>
</g>
<!-- 13 -->
<g id="Robot/Ctrnn/Connection[@roleName=&#39;Connection_2_3&#39;]" class="node"><title>13</title>
<polygon fill="#3ab765" stroke="black" points="479.146,-220.8 266.854,-220.8 266.854,-184.8 479.146,-184.8 479.146,-220.8"/>
<text text-anchor="middle" x="373" y="-198.6" font-family="arial" font-size="14.00">Connection_2_3:connection_13</text>
</g>
<!-- 6&#45;&gt;13 -->
<g id="Robot_edge6" class="edge"><title>6&#45;&gt;13</title>
<path fill="none" stroke="black" d="M394.831,-256.497C391.565,-248.613 387.626,-239.104 383.998,-230.346"/>
<polygon fill="black" stroke="black" points="380.086,-220.904 388.071,-228.421 382,-225.524 383.914,-230.143 383.914,-230.143 383.914,-230.143 382,-225.524 379.756,-231.865 380.086,-220.904 380.086,-220.904"/>
</g>
<!-- 16 -->
<g id="Robot/Ctrnn/Connection[@roleName=&#39;Connection_2_4&#39;]" class="node"><title>16</title>
<polygon fill="#3ab765" stroke="black" points="248.146,-220.8 35.8541,-220.8 35.8541,-184.8 248.146,-184.8 248.146,-220.8"/>
<text text-anchor="middle" x="142" y="-198.6" font-family="arial" font-size="14.00">Connection_2_4:connection_16</text>
</g>
<!-- 6&#45;&gt;16 -->
<g id="Robot_edge7" class="edge"><title>6&#45;&gt;16</title>
<path fill="none" stroke="black" d="M338.729,-256.766C301.454,-246.73 254.136,-233.99 215.248,-223.521"/>
<polygon fill="black" stroke="black" points="205.554,-220.911 216.38,-219.165 210.383,-222.211 215.211,-223.511 215.211,-223.511 215.211,-223.511 210.383,-222.211 214.041,-227.856 205.554,-220.911 205.554,-220.911"/>
</g>
<!-- 11&#45;&gt;6 -->
<g id="Robot_edge12" class="edge"><title>11&#45;&gt;6</title>
<path fill="none" stroke="black" d="M560.519,-220.911C533.164,-230.747 497.437,-243.162 466.797,-253.491"/>
<polygon fill="black" stroke="black" points="457.044,-256.766 465.092,-249.317 461.784,-255.174 466.524,-253.583 466.524,-253.583 466.524,-253.583 461.784,-255.174 467.956,-257.849 457.044,-256.766 457.044,-256.766"/>
</g>
<!-- 13&#45;&gt;7 -->
<g id="Robot_edge14" class="edge"><title>13&#45;&gt;7</title>
<path fill="none" stroke="black" d="M433.351,-184.766C468.755,-174.772 513.657,-162.098 550.66,-151.654"/>
<polygon fill="black" stroke="black" points="560.379,-148.911 551.977,-155.958 555.567,-150.269 550.755,-151.627 550.755,-151.627 550.755,-151.627 555.567,-150.269 549.532,-147.297 560.379,-148.911 560.379,-148.911"/>
</g>
<!-- 16&#45;&gt;8 -->
<g id="Robot_edge17" class="edge"><title>16&#45;&gt;8</title>
<path fill="none" stroke="black" d="M142,-184.497C142,-176.783 142,-167.512 142,-158.912"/>
<polygon fill="black" stroke="black" points="142,-148.904 146.5,-158.904 142,-153.904 142,-158.904 142,-158.904 142,-158.904 142,-153.904 137.5,-158.904 142,-148.904 142,-148.904"/>
</g>
<!-- 14 -->
<g id="Robot/Ctrnn/Connection[@roleName=&#39;Connection_3_3&#39;]" class="node"><title>14</title>
<polygon fill="#3ab765" stroke="black" points="727.146,-76.8 514.854,-76.8 514.854,-40.8 727.146,-40.8 727.146,-76.8"/>
<text text-anchor="middle" x="621" y="-54.6" font-family="arial" font-size="14.00">Connection_3_3:connection_14</text>
</g>
<!-- 7&#45;&gt;14 -->
<g id="Robot_edge8" class="edge"><title>7&#45;&gt;14</title>
<path fill="none" stroke="black" d="M615.084,-112.497C614.289,-104.783 614.062,-95.5125 614.405,-86.9124"/>
<polygon fill="black" stroke="black" points="615.105,-76.9043 618.896,-87.1941 614.756,-81.8921 614.407,-86.8799 614.407,-86.8799 614.407,-86.8799 614.756,-81.8921 609.918,-86.5658 615.105,-76.9043 615.105,-76.9043"/>
</g>
<!-- 18 -->
<g id="Robot/Motor[@roleName=&#39;MotorR&#39;]" class="node"><title>18</title>
<polygon fill="#3ab765" stroke="black" points="1011.17,-76.8 886.826,-76.8 886.826,-40.8 1011.17,-40.8 1011.17,-76.8"/>
<text text-anchor="middle" x="949" y="-54.6" font-family="arial" font-size="14.00">MotorR:motor_18</text>
</g>
<!-- 7&#45;&gt;18 -->
<g id="Robot_edge21" class="edge"><title>7&#45;&gt;18</title>
<path fill="none" stroke="black" d="M687.143,-116.63C736.573,-106.667 806.055,-92.4091 876.621,-76.8524"/>
<polygon fill="black" stroke="black" points="886.583,-74.6489 877.791,-81.2024 881.701,-75.7288 876.819,-76.8086 876.819,-76.8086 876.819,-76.8086 881.701,-75.7288 875.848,-72.4148 886.583,-74.6489 886.583,-74.6489"/>
</g>
<!-- 14&#45;&gt;7 -->
<g id="Robot_edge15" class="edge"><title>14&#45;&gt;7</title>
<path fill="none" stroke="black" d="M626.895,-76.9043C627.701,-84.5913 627.937,-93.8537 627.604,-102.465"/>
<polygon fill="black" stroke="black" points="626.916,-112.497 623.111,-102.212 627.258,-107.508 627.6,-102.52 627.6,-102.52 627.6,-102.52 627.258,-107.508 632.09,-102.828 626.916,-112.497 626.916,-112.497"/>
</g>
<!-- 17 -->
<g id="Robot/Ctrnn/Connection[@roleName=&#39;Connection_4_4&#39;]" class="node"><title>17</title>
<polygon fill="#3ab765" stroke="black" points="248.146,-76.8 35.8541,-76.8 35.8541,-40.8 248.146,-40.8 248.146,-76.8"/>
<text text-anchor="middle" x="142" y="-54.6" font-family="arial" font-size="14.00">Connection_4_4:connection_17</text>
</g>
<!-- 8&#45;&gt;17 -->
<g id="Robot_edge9" class="edge"><title>8&#45;&gt;17</title>
<path fill="none" stroke="black" d="M136.084,-112.497C135.289,-104.783 135.062,-95.5125 135.405,-86.9124"/>
<polygon fill="black" stroke="black" points="136.105,-76.9043 139.896,-87.1941 135.756,-81.8921 135.407,-86.8799 135.407,-86.8799 135.407,-86.8799 135.756,-81.8921 130.918,-86.5658 136.105,-76.9043 136.105,-76.9043"/>
</g>
<!-- 19 -->
<g id="Robot/Motor[@roleName=&#39;MotorL&#39;]" class="node"><title>19</title>
<polygon fill="#3ab765" stroke="black" points="867.932,-76.8 746.068,-76.8 746.068,-40.8 867.932,-40.8 867.932,-76.8"/>
<text text-anchor="middle" x="807" y="-54.6" font-family="arial" font-size="14.00">MotorL:motor_19</text>
</g>
<!-- 8&#45;&gt;19 -->
<g id="Robot_edge22" class="edge"><title>8&#45;&gt;19</title>
<path fill="none" stroke="black" d="M208.169,-127.581C317.329,-123.126 542.001,-110.609 735.746,-77.8333"/>
<polygon fill="black" stroke="black" points="745.823,-76.1053 736.728,-82.2308 740.895,-76.9504 735.967,-77.7955 735.967,-77.7955 735.967,-77.7955 740.895,-76.9504 735.207,-73.3603 745.823,-76.1053 745.823,-76.1053"/>
</g>
<!-- 17&#45;&gt;8 -->
<g id="Robot_edge18" class="edge"><title>17&#45;&gt;8</title>
<path fill="none" stroke="black" d="M147.895,-76.9043C148.701,-84.5913 148.937,-93.8537 148.604,-102.465"/>
<polygon fill="black" stroke="black" points="147.916,-112.497 144.111,-102.212 148.258,-107.508 148.6,-102.52 148.6,-102.52 148.6,-102.52 148.258,-107.508 153.09,-102.828 147.916,-112.497 147.916,-112.497"/>
</g>
</g>
</svg>
