<?xml version="1.0" encoding="UTF-8" standalone="no"?>
<!-- Created with Inkscape (http://www.inkscape.org/) -->
<svg id="svg2" xmlns:rdf="http://www.w3.org/1999/02/22-rdf-syntax-ns#" xmlns="http://www.w3.org/2000/svg" height="607" width="940" version="1.1" xmlns:cc="http://creativecommons.org/ns#" xmlns:dc="http://purl.org/dc/elements/1.1/">
 <metadata id="metadata7">
  <rdf:RDF>
   <cc:Work rdf:about="">
    <dc:format>image/svg+xml</dc:format>
    <dc:type rdf:resource="http://purl.org/dc/dcmitype/StillImage"/>
    <dc:title/>
   </cc:Work>
  </rdf:RDF>
 </metadata>
 <g id="layer1" transform="translate(-27.142853,-343.14789)">
  <path id="path2991" style="fill:#ffffff;" d="m27.143,646.84,0-303.31,470-0.19094,470-0.19093,0,303.5,0,303.5-470,0-470,0,0-303.31z"/>
  <path id="path3428" style="fill:#bebebe;" d="m27.143,926.16,0-23.987,470-0.0151,470-0.0151,0,24.002,0,24.002-470,0-470,0,0-23.987z"/>
  <path id="path3906" style="stroke-linejoin:miter;stroke-dashoffset:0;stroke:#000000;stroke-linecap:butt;stroke-miterlimit:4;stroke-dasharray:6, 3;stroke-width:3;fill:none;" d="m308.74,526.56,654.36,0"/>
  <path id="path4676" d="m308.74,582.56,654.36,0" style="stroke-linejoin:miter;stroke-dashoffset:0;stroke:#000000;stroke-linecap:butt;stroke-miterlimit:4;stroke-dasharray:6, 3;stroke-width:3;fill:none;"/>
  <path id="path2993" style="stroke-linejoin:miter;stroke:#ff0000;stroke-linecap:butt;stroke-width:2.2843821px;fill:#ff0000;" d="m779.73,438.83,0,86.246m-7.0264-86.133-6.4405-0.29569,6.1905-8.2529c3.4048-4.5391,6.4949-8.3641,6.8669-8.5,0.37205-0.13589,3.6464,3.6904,7.2764,8.5029l6.6,8.75h-6.5472z"/>
  <path id="path3014" style="stroke-linejoin:miter;stroke:#ff0000;stroke-linecap:butt;stroke-width:2.27079153px;fill:#ff0000;" d="m779.73,584.29,0,85.223m-7.0637,8.9883-6.6798-8.8489,6.5788-0.29569,13.997-0.00046,6.4585,0.29615-5.9931,8c-3.2962,4.4-6.3731,8.382-6.8375,8.8489-0.46439,0.46691-3.8503-3.1331-7.5242-8z"/>
  <path id="path3018" d="m449.94,483.88,0,41.097m-7.0264-40.984-6.4405-0.29569,6.1905-8.2529c3.4048-4.5391,6.4949-8.3641,6.8669-8.5,0.37205-0.13589,3.6464,3.6904,7.2764,8.5029l6.6,8.75h-6.5472z" style="stroke-linejoin:miter;stroke:#ff0000;stroke-linecap:butt;stroke-width:2.2843821px;fill:#ff0000;"/>
  <path id="path3020" d="m451.39,650.48,0,252.07m-7.0264-251.96-6.4405-0.29784,6.1905-8.3131c3.4048-4.5722,6.4949-8.4251,6.8669-8.562,0.37205-0.13688,3.6464,3.7173,7.2764,8.5649l6.6,8.8138h-6.5472z" style="stroke-linejoin:miter;stroke:#ff0000;stroke-linecap:butt;stroke-width:2.29269481px;fill:#ff0000;"/>
  <path id="path3022" d="m120.28,671.16,0,213.22m-7.0637,8.9883-6.6798-8.8489,6.5788-0.29569,13.997-0.00046,6.4585,0.29615-5.9931,8c-3.2962,4.4-6.3731,8.382-6.8375,8.8489-0.46439,0.46691-3.8503-3.1331-7.5242-8z" style="stroke-linejoin:miter;stroke:#0000ff;stroke-linecap:butt;stroke-width:2.27079153px;fill:#0000ff;"/>
  <path id="path3024" d="m166.14,849.94,0,52.392m-7.0264-52.279-6.4405-0.29619,6.1905-8.2669c3.4048-4.5468,6.4949-8.3782,6.8669-8.5144,0.37205-0.13612,3.6464,3.6967,7.2764,8.5173l6.6,8.7648h-6.5472z" style="stroke-linejoin:miter;stroke:#0000ff;stroke-linecap:butt;stroke-width:2.2863121px;fill:#0000ff;"/>
  <text id="text2993" style="font-size:24px;font-family:Arial;writing-mode:lr-tb;fill:#000000;letter-spacing:0px;text-anchor:start;line-height:125%;word-spacing:0px;font-stretch:normal;font-variant:normal;font-weight:normal;font-style:normal;text-align:start;" y="717.44" x="125.65057" xml:space="preserve"><tspan id="tspan3603" x="125.65057" y="717.44">(100)</tspan></text>
  <text id="text3032" style="font-size:24px;font-family:Arial;writing-mode:lr-tb;fill:#000000;letter-spacing:0px;text-anchor:start;line-height:125%;word-spacing:0px;font-stretch:normal;font-variant:normal;font-weight:normal;font-style:normal;text-align:start;" xml:space="preserve" y="487.39203" x="798.57123"><tspan id="tspan3607" x="798.57123" y="487.39203">(45)</tspan></text>
  <text id="text3042" style="font-size:24px;font-family:Arial;writing-mode:lr-tb;fill:#000000;letter-spacing:0px;text-anchor:start;line-height:125%;word-spacing:0px;font-stretch:normal;font-variant:normal;font-weight:normal;font-style:normal;text-align:start;" y="676.39197" x="798.57123" xml:space="preserve"><tspan id="tspan3803" x="798.57123" y="676.39197">(45)</tspan></text>
  <text id="text3048" style="font-size:24px;font-family:Arial;writing-mode:lr-tb;fill:#000000;letter-spacing:0px;text-anchor:start;line-height:125%;word-spacing:0px;font-stretch:normal;font-variant:normal;font-weight:normal;font-style:normal;text-align:start;" xml:space="preserve" y="862.75653" x="461.39923"><tspan id="tspan3801" x="461.39923" y="862.75653">(115)</tspan></text>
  <text id="text3062" style="font-size:24px;font-family:Arial;writing-mode:lr-tb;fill:#000000;letter-spacing:0px;text-anchor:start;line-height:125%;word-spacing:0px;font-stretch:normal;font-variant:normal;font-weight:normal;font-style:normal;text-align:start;" xml:space="preserve" y="877.04272" x="181.4816"><tspan id="tspan3605" x="181.4816" y="877.04272">(30)</tspan></text>
  <text id="text3622" style="font-size:24px;font-family:Arial;writing-mode:lr-tb;fill:#000000;letter-spacing:0px;text-anchor:start;line-height:125%;word-spacing:0px;font-stretch:normal;font-variant:normal;font-weight:normal;font-style:normal;text-align:start;" y="490.95926" x="471.32892" xml:space="preserve"><tspan id="tspan3101" x="471.32892" y="490.95926">(25)</tspan></text>
<!-- formulas -->
  <g id="g83" transform="matrix(2.16,0,0,2.16,185.64069,838.1829)">
   <g id="g85" transform="translate(0,-3.990234)">
    <g id="g87" transform="translate(0.878906,-1.710938)">
     <text id="text89" y="0" x="3.3369141" style="font-size:12px;font-weight:normal;font-family:Arial;text-anchor:middle;fill:#000000;" font-size="12.000000">1</text>
    </g>
    <g id="g91" transform="translate(0.878906,9.966797)">
     <text id="text93" y="0" x="3.3369141" style="font-size:12px;font-weight:normal;font-family:Arial;text-anchor:middle;fill:#000000;" font-size="12.000000">4</text>
    </g>
    <line id="line95" style="stroke-dasharray:none;stroke:#000000;stroke-width:0.87890601;stroke-linecap:butt;fill:none;" x2="8.4316"/>
   </g>
   <g id="g97" transform="translate(9.310547,0)">
    <text id="text99" style="font-size:12px;font-weight:normal;text-anchor:middle;font-family:Arial;font-style:italic;fill:#000000;" font-size="12.000000" font-style="italic" y="0" x="4.0019531">S</text>
    <g id="g101" transform="translate(8.003906,3.169922)">
     <text id="text103" y="0" x="2.3692091" style="font-size:8.52000046px;font-weight:normal;font-family:Arial;text-anchor:middle;fill:#000000;" font-size="8.520000">0</text>
    </g>
   </g>
   <g id="g105" transform="translate(22.052871,0)">
    <text id="text107" style="font-size:12px;font-weight:normal;text-anchor:middle;font-family:Arial;font-style:italic;fill:#000000;" font-size="12.000000" font-style="italic" y="0" x="3.421875">α</text>
    <g id="g109" transform="translate(7.125,3.169922)">
     <text id="text111" style="font-size:8.52000046px;font-weight:normal;text-anchor:middle;font-family:Arial;font-style:italic;fill:#000000;" font-size="8.520000" font-style="italic" y="0" x="2.647939">ρ</text>
    </g>
   </g>
  </g>
  <g id="g113" transform="matrix(2.16,0,0,2.16,469.41437,459.76094)">
   <g id="g115" transform="translate(0,-3.990234)">
    <text id="text117" y="3.9902339" x="1.998047" style="font-size:12px;font-weight:normal;font-family:Arial;text-anchor:middle;fill:#000000;" font-size="12.000000">(</text>
   </g>
   <g id="g119" transform="translate(3.996094,0)">
    <text id="text121" y="0" x="3.3369141" style="font-size:12px;font-weight:normal;font-family:Arial;text-anchor:middle;fill:#000000;" font-size="12.000000">1</text>
   </g>
   <g id="g123" transform="translate(13.336586,-3.990234)">
    <text id="text125" y="3.9902339" x="3.503906" style="font-size:12px;font-weight:normal;font-family:Arial;text-anchor:middle;fill:#000000;" font-size="12.000000">−</text>
   </g>
   <g id="g127" transform="translate(23.011062,0)">
    <text id="text129" style="font-size:12px;font-weight:normal;text-anchor:middle;font-family:Arial;font-style:italic;fill:#000000;" font-size="12.000000" font-style="italic" y="0" x="2.636719">ε</text>
   </g>
   <g id="g131" transform="translate(28.425125,-3.990234)">
    <text id="text133" y="3.9902339" x="1.998047" style="font-size:12px;font-weight:normal;font-family:Arial;text-anchor:middle;fill:#000000;" font-size="12.000000">)</text>
   </g>
   <g id="g135" transform="translate(32.421219,0)">
    <text id="text137" style="font-size:12px;font-weight:normal;text-anchor:middle;font-family:Arial;font-style:italic;fill:#000000;" font-size="12.000000" font-style="italic" y="0" x="3.6181641">σ</text>
   </g>
   <g id="g139" transform="translate(40.032547,0)">
    <text id="text141" style="font-size:12px;font-weight:normal;text-anchor:middle;font-family:Arial;font-style:italic;fill:#000000;" font-size="12.000000" font-style="italic" y="0" x="3.6650391">T</text>
    <g id="g143" transform="translate(6.1872102,3.169922)">
     <text id="text145" style="font-size:8.52000046px;font-weight:normal;text-anchor:middle;font-family:Arial;font-style:italic;fill:#000000;" font-size="8.520000" font-style="italic" y="0" x="2.1300001">s</text>
    </g>
    <g id="g147" transform="translate(9.8909138,-6.339844)">
     <text id="text149" y="0" x="2.3692091" style="font-size:8.52000046px;font-weight:normal;font-family:Arial;text-anchor:middle;fill:#000000;" font-size="8.520000">4</text>
    </g>
   </g>
  </g>
  <g id="g151" transform="matrix(2.16,0,0,2.16,464.39695,824.93728)">
   <text id="text153" style="font-size:12px;font-weight:normal;text-anchor:middle;font-family:Arial;font-style:italic;fill:#000000;" font-size="12.000000" font-style="italic" y="0" x="3.6181641">σ</text>
   <g id="g155" transform="translate(7.611328,0)">
    <text id="text157" style="font-size:12px;font-weight:normal;text-anchor:middle;font-family:Arial;font-style:italic;fill:#000000;" font-size="12.000000" font-style="italic" y="0" x="3.6650391">T</text>
    <g id="g159" transform="translate(6.1872102,3.169922)">
     <text id="text161" style="font-size:8.52000046px;font-weight:normal;text-anchor:middle;font-family:Arial;font-style:italic;fill:#000000;" font-size="8.520000" font-style="italic" y="0" x="2.1300001">s</text>
    </g>
    <g id="g163" transform="translate(9.8909138,-6.339844)">
     <text id="text165" y="0" x="2.3692091" style="font-size:8.52000046px;font-weight:normal;font-family:Arial;text-anchor:middle;fill:#000000;" font-size="8.520000">4</text>
    </g>
   </g>
  </g>
  <g id="g167" transform="matrix(2.16,0,0,2.16,801.16514,454.76011)">
   <text id="text169" style="font-size:12px;font-weight:normal;text-anchor:middle;font-family:Arial;font-style:italic;fill:#000000;" font-size="12.000000" font-style="italic" y="0" x="2.636719">ε</text>
   <g id="g171" transform="translate(5.414062,0)">
    <text id="text173" style="font-size:12px;font-weight:normal;text-anchor:middle;font-family:Arial;font-style:italic;fill:#000000;" font-size="12.000000" font-style="italic" y="0" x="3.6181641">σ</text>
   </g>
   <g id="g175" transform="translate(13.025391,0)">
    <text id="text177" style="font-size:12px;font-weight:normal;text-anchor:middle;font-family:Arial;font-style:italic;fill:#000000;" font-size="12.000000" font-style="italic" y="0" x="3.6650391">T</text>
    <g id="g179" transform="translate(6.1872102,3.169922)">
     <text id="text181" style="font-size:8.52000046px;font-weight:normal;text-anchor:middle;font-family:Arial;font-style:italic;fill:#000000;" font-size="8.520000" font-style="italic" y="0" x="2.3692091">a</text>
    </g>
    <g id="g183" transform="translate(9.8909138,-6.339844)">
     <text id="text185" y="0" x="2.3692091" style="font-size:8.52000046px;font-weight:normal;font-family:Arial;text-anchor:middle;fill:#000000;" font-size="8.520000">4</text>
    </g>
   </g>
  </g>
  <g id="g187" transform="matrix(2.16,0,0,2.16,800.36771,644.45086)">
   <text id="text189" style="font-size:12px;font-weight:normal;text-anchor:middle;font-family:Arial;font-style:italic;fill:#000000;" font-size="12.000000" font-style="italic" y="0" x="2.636719">ε</text>
   <g id="g191" transform="translate(5.414062,0)">
    <text id="text193" style="font-size:12px;font-weight:normal;text-anchor:middle;font-family:Arial;font-style:italic;fill:#000000;" font-size="12.000000" font-style="italic" y="0" x="3.6181641">σ</text>
   </g>
   <g id="g195" transform="translate(13.025391,0)">
    <text id="text197" style="font-size:12px;font-weight:normal;text-anchor:middle;font-family:Arial;font-style:italic;fill:#000000;" font-size="12.000000" font-style="italic" y="0" x="3.6650391">T</text>
    <g id="g199" transform="translate(6.1872102,3.169922)">
     <text id="text201" style="font-size:8.52000046px;font-weight:normal;text-anchor:middle;font-family:Arial;font-style:italic;fill:#000000;" font-size="8.520000" font-style="italic" y="0" x="2.3692091">a</text>
    </g>
    <g id="g203" transform="translate(9.8909138,-6.339844)">
     <text id="text205" y="0" x="2.3692091" style="font-size:8.52000046px;font-weight:normal;font-family:Arial;text-anchor:middle;fill:#000000;" font-size="8.520000">4</text>
    </g>
   </g>
  </g>
  <g id="g207" transform="matrix(2.16,0,0,2.16,549.98401,559.83355)">
   <text id="text209" style="font-size:12px;font-weight:normal;text-anchor:middle;font-family:Arial;font-style:italic;fill:#000000;" font-size="12.000000" font-style="italic" y="0" x="3.6650391">T</text>
   <g id="g211" transform="translate(8.039062,3.169922)">
    <text id="text213" style="font-size:8.52000046px;font-weight:normal;text-anchor:middle;font-family:Arial;font-style:italic;fill:#000000;" font-size="8.520000" font-style="italic" y="0" x="2.3692091">a</text>
   </g>
   <g id="g215" transform="translate(16.110816,-3.990234)">
    <text id="text217" y="3.9902339" x="3.503906" style="font-size:12px;font-weight:normal;font-family:Arial;text-anchor:middle;fill:#000000;" font-size="12.000000">=</text>
   </g>
   <g id="g219" transform="translate(26.451965,0)">
    <text id="text221" y="0" x="11.677734" style="font-size:12px;font-weight:normal;font-family:Arial;text-anchor:middle;fill:#000000;" font-size="12.000000">0.95</text>
   </g>
   <g id="g223" transform="translate(49.807434,0)">
    <text id="text225" style="font-size:12px;font-weight:normal;text-anchor:middle;font-family:Arial;font-style:italic;fill:#000000;" font-size="12.000000" font-style="italic" y="0" x="3.6650391">T</text>
    <g id="g227" transform="translate(8.039062,3.169922)">
     <text id="text229" style="font-size:8.52000046px;font-weight:normal;text-anchor:middle;font-family:Arial;font-style:italic;fill:#000000;" font-size="8.520000" font-style="italic" y="0" x="2.3692091">e</text>
    </g>
   </g>
  </g>
  <g id="g231" transform="matrix(2.16,0,0,2.16,549.8317,889.47954)">
   <text id="text233" style="font-size:12px;font-weight:normal;text-anchor:middle;font-family:Arial;font-style:italic;fill:#000000;" font-size="12.000000" font-style="italic" y="0" x="3.6650391">T</text>
   <g id="g235" transform="translate(8.039062,3.169922)">
    <text id="text237" style="font-size:8.52000046px;font-weight:normal;text-anchor:middle;font-family:Arial;font-style:italic;fill:#000000;" font-size="8.520000" font-style="italic" y="0" x="2.1300001">s</text>
   </g>
   <g id="g239" transform="translate(15.632399,-3.990234)">
    <text id="text241" y="3.9902339" x="3.503906" style="font-size:12px;font-weight:normal;font-family:Arial;text-anchor:middle;fill:#000000;" font-size="12.000000">=</text>
   </g>
   <g id="g243" transform="translate(25.973547,0)">
    <text id="text245" y="0" x="11.677734" style="font-size:12px;font-weight:normal;font-family:Arial;text-anchor:middle;fill:#000000;" font-size="12.000000">1.13</text>
   </g>
   <g id="g247" transform="translate(49.329016,0)">
    <text id="text249" style="font-size:12px;font-weight:normal;text-anchor:middle;font-family:Arial;font-style:italic;fill:#000000;" font-size="12.000000" font-style="italic" y="0" x="3.6650391">T</text>
    <g id="g251" transform="translate(8.039062,3.169922)">
     <text id="text253" style="font-size:8.52000046px;font-weight:normal;text-anchor:middle;font-family:Arial;font-style:italic;fill:#000000;" font-size="8.520000" font-style="italic" y="0" x="2.3692091">e</text>
    </g>
   </g>
  </g>
  <g id="g3495" transform="matrix(2.1384,0,0,2.1384,-1294.3868,20.902932)">
   <g id="g299" transform="translate(666.1842,303.75206)">
    <g id="g65" transform="translate(0.878906,-1.710938)">
     <text id="text67" y="0" x="3.3369141" font-size="12.000000" style="font-size:12px;font-weight:normal;font-family:Arial;text-anchor:middle;fill:#000000;">1</text>
    </g>
    <g id="g69" transform="translate(0.878906,9.966797)">
     <text id="text71" y="0" x="3.3369141" font-size="12.000000" style="font-size:12px;font-weight:normal;font-family:Arial;text-anchor:middle;fill:#000000;">4</text>
    </g>
    <line id="line73" style="stroke-dasharray:none;stroke:#000000;stroke-width:0.87890601;stroke-linecap:butt;fill:none;" x2="8.4316"/>
   </g>
   <g id="g75" transform="translate(675.49474,306.68281)">
    <text id="text77" font-size="12.000000" style="font-size:12px;font-weight:normal;text-anchor:middle;font-family:Arial;font-style:italic;fill:#000000;" y="0" x="4.0019531" font-style="italic">S</text>
    <g id="g79" transform="translate(8.003906,3.169922)">
     <text id="text81" y="0" x="2.3692091" font-size="8.520000" style="font-size:8.52000046px;font-weight:normal;font-family:Arial;text-anchor:middle;fill:#000000;">0</text>
    </g>
   </g>
  </g>
 </g>
</svg>
