<?xml version="1.0" encoding="UTF-8" standalone="no"?>
<!-- Created with Inkscape (http://www.inkscape.org/) -->
<svg id="svg2" xmlns:rdf="http://www.w3.org/1999/02/22-rdf-syntax-ns#" xmlns="http://www.w3.org/2000/svg" height="607" width="940" version="1.1" xmlns:cc="http://creativecommons.org/ns#" xmlns:dc="http://purl.org/dc/elements/1.1/">
 <metadata id="metadata7">
  <rdf:RDF>
   <cc:Work rdf:about="">
    <dc:format>image/svg+xml</dc:format>
    <dc:type rdf:resource="http://purl.org/dc/dcmitype/StillImage"/>
    <dc:title/>
   </cc:Work>
  </rdf:RDF>
 </metadata>
 <g id="layer1" transform="translate(-27.142853,-343.14789)">
  <path id="path2991" style="fill:#ffffff;" d="m27.143,646.84,0-303.31,470-0.19094,470-0.19093,0,303.5,0,303.5-470,0-470,0,0-303.31z"/>
  <path id="path3428" style="fill:#bebebe;" d="m27.143,926.16,0-23.987,470-0.0151,470-0.0151,0,24.002,0,24.002-470,0-470,0,0-23.987z"/>
  <path id="path3906" style="stroke-linejoin:miter;stroke-dashoffset:0;stroke:#000000;stroke-linecap:butt;stroke-miterlimit:4;stroke-dasharray:6, 3;stroke-width:3;fill:none;" d="m308.74,526.56,654.36,0"/>
  <path id="path4676" d="m308.74,582.56,654.36,0" style="stroke-linejoin:miter;stroke-dashoffset:0;stroke:#000000;stroke-linecap:butt;stroke-miterlimit:4;stroke-dasharray:6, 3;stroke-width:3;fill:none;"/>
  <path id="path3018" d="m449.94,379.88,0,145.1m-7.0264-144.98-6.4405-0.29569,6.1905-8.2529c3.4048-4.5391,6.4949-8.3641,6.8669-8.5,0.37205-0.13589,3.6464,3.6904,7.2764,8.5029l6.6,8.75h-6.5472z" style="stroke-linejoin:miter;stroke:#ff0000;stroke-linecap:butt;stroke-width:2.2843821px;fill:#ff0000;"/>
  <path id="path3020" d="m451.39,756.48,0,146.07m-7.0264-145.96-6.4405-0.29784,6.1905-8.3131c3.4048-4.5722,6.4949-8.4251,6.8669-8.562,0.37205-0.13688,3.6464,3.7173,7.2764,8.5649l6.6,8.8138h-6.5472z" style="stroke-linejoin:miter;stroke:#ff0000;stroke-linecap:butt;stroke-width:2.29269481px;fill:#ff0000;"/>
  <path id="path3022" d="m120.28,671.16,0,213.22m-7.0637,8.9883-6.6798-8.8489,6.5788-0.29569,13.997-0.00046,6.4585,0.29615-5.9931,8c-3.2962,4.4-6.3731,8.382-6.8375,8.8489-0.46439,0.46691-3.8503-3.1331-7.5242-8z" style="stroke-linejoin:miter;stroke:#0000ff;stroke-linecap:butt;stroke-width:2.27079153px;fill:#0000ff;"/>
  <path id="path3024" d="m166.14,849.94,0,52.392m-7.0264-52.279-6.4405-0.29619,6.1905-8.2669c3.4048-4.5468,6.4949-8.3782,6.8669-8.5144,0.37205-0.13612,3.6464,3.6967,7.2764,8.5173l6.6,8.7648h-6.5472z" style="stroke-linejoin:miter;stroke:#0000ff;stroke-linecap:butt;stroke-width:2.2863121px;fill:#0000ff;"/>
  <text id="text2993" style="font-size:24px;font-family:Arial;writing-mode:lr-tb;fill:#000000;letter-spacing:0px;text-anchor:start;line-height:125%;word-spacing:0px;font-stretch:normal;font-variant:normal;font-weight:normal;font-style:normal;text-align:start;" y="717.44" x="125.65057" xml:space="preserve"><tspan id="tspan3603" x="125.65057" y="717.44">(100)</tspan></text>
  <text id="text3048" style="font-size:24px;font-family:Arial;writing-mode:lr-tb;fill:#000000;letter-spacing:0px;text-anchor:start;line-height:125%;word-spacing:0px;font-stretch:normal;font-variant:normal;font-weight:normal;font-style:normal;text-align:start;" xml:space="preserve" y="858.75653" x="467.39923"><tspan id="tspan3801" x="467.39923" y="858.75653">(70)</tspan></text>
  <text id="text3062" style="font-size:24px;font-family:Arial;writing-mode:lr-tb;fill:#000000;letter-spacing:0px;text-anchor:start;line-height:125%;word-spacing:0px;font-stretch:normal;font-variant:normal;font-weight:normal;font-style:normal;text-align:start;" xml:space="preserve" y="877.04272" x="181.4816"><tspan id="tspan3605" x="181.4816" y="877.04272">(30)</tspan></text>
  <text id="text3622" style="font-size:24px;font-family:Arial;writing-mode:lr-tb;fill:#000000;letter-spacing:0px;text-anchor:start;line-height:125%;word-spacing:0px;font-stretch:normal;font-variant:normal;font-weight:normal;font-style:normal;text-align:start;" y="494.95926" x="469.32892" xml:space="preserve"><tspan id="tspan3101" x="469.32892" y="494.95926">(70)</tspan></text>
<!-- formulas -->
  <g id="g83" transform="matrix(2.16,0,0,2.16,185.64069,838.1829)">
   <g id="g85" transform="translate(0,-3.990234)">
    <g id="g87" transform="translate(0.878906,-1.710938)">
     <text id="text89" y="0" x="3.3369141" style="font-size:12px;font-weight:normal;font-family:Arial;text-anchor:middle;fill:#000000;" font-size="12.000000">1</text>
    </g>
    <g id="g91" transform="translate(0.878906,9.966797)">
     <text id="text93" y="0" x="3.3369141" style="font-size:12px;font-weight:normal;font-family:Arial;text-anchor:middle;fill:#000000;" font-size="12.000000">4</text>
    </g>
    <line id="line95" style="stroke-dasharray:none;stroke:#000000;stroke-width:0.87890601;stroke-linecap:butt;fill:none;" x2="8.4316"/>
   </g>
   <g id="g97" transform="translate(9.310547,0)">
    <text id="text99" style="font-size:12px;font-weight:normal;text-anchor:middle;font-family:Arial;font-style:italic;fill:#000000;" font-size="12.000000" font-style="italic" y="0" x="4.0019531">S</text>
    <g id="g101" transform="translate(8.003906,3.169922)">
     <text id="text103" y="0" x="2.3692091" style="font-size:8.52000046px;font-weight:normal;font-family:Arial;text-anchor:middle;fill:#000000;" font-size="8.520000">0</text>
    </g>
   </g>
   <g id="g105" transform="translate(22.052871,0)">
    <text id="text107" style="font-size:12px;font-weight:normal;text-anchor:middle;font-family:Arial;font-style:italic;fill:#000000;" font-size="12.000000" font-style="italic" y="0" x="3.421875">α</text>
    <g id="g109" transform="translate(7.125,3.169922)">
     <text id="text111" style="font-size:8.52000046px;font-weight:normal;text-anchor:middle;font-family:Arial;font-style:italic;fill:#000000;" font-size="8.520000" font-style="italic" y="0" x="2.647939">ρ</text>
    </g>
   </g>
  </g>
  <g id="g151" transform="matrix(2.16,0,0,2.16,470.39695,824.93728)">
   <text id="text153" style="font-size:12px;font-weight:normal;text-anchor:middle;font-family:Arial;font-style:italic;fill:#000000;" font-size="12.000000" font-style="italic" y="0" x="3.6181641">σ</text>
   <g id="g155" transform="translate(7.611328,0)">
    <text id="text157" style="font-size:12px;font-weight:normal;text-anchor:middle;font-family:Arial;font-style:italic;fill:#000000;" font-size="12.000000" font-style="italic" y="0" x="3.6650391">T</text>
    <g id="g159" transform="translate(6.1872102,3.169922)">
     <text id="text161" style="font-size:8.52000046px;font-weight:normal;text-anchor:middle;font-family:Arial;font-style:italic;fill:#000000;" font-size="8.520000" font-style="italic" y="0" x="2.1300001">s</text>
    </g>
    <g id="g163" transform="translate(9.8909138,-6.339844)">
     <text id="text165" y="0" x="2.3692091" style="font-size:8.52000046px;font-weight:normal;font-family:Arial;text-anchor:middle;fill:#000000;" font-size="8.520000">4</text>
    </g>
   </g>
  </g>
  <text id="text233" font-size="12.000000" style="font-size:25.92000008px;font-weight:normal;text-anchor:middle;font-family:Arial;font-style:italic;fill:#000000;" y="889.47955" x="557.74817" font-style="italic">T</text>
  <g id="g235" transform="matrix(2.16,0,0,2.16,567.19607,896.32657)">
   <text id="text237" font-size="8.520000" style="font-size:8.52000046px;font-weight:normal;text-anchor:middle;font-family:Arial;font-style:italic;fill:#000000;" y="0" x="2.1300001" font-style="italic">s</text>
  </g>
  <g id="g239" transform="matrix(2.16,0,0,2.16,583.59768,880.86063)">
   <text id="text241" y="3.9902339" x="3.503906" font-size="12.000000" style="font-size:12px;font-weight:normal;font-family:Arial;text-anchor:middle;fill:#000000;">=</text>
  </g>
  <g id="g247" transform="matrix(2.16,0,0,2.16,606.38237,889.47954)">
   <text id="text249" font-size="12.000000" style="font-size:12px;font-weight:normal;text-anchor:middle;font-family:Arial;font-style:italic;fill:#000000;" y="0" x="3.6650391" font-style="italic">T</text>
   <g id="g251" transform="translate(8.039062,3.169922)">
    <text id="text253" font-size="8.520000" style="font-size:8.52000046px;font-weight:normal;text-anchor:middle;font-family:Arial;font-style:italic;fill:#000000;" y="0" x="2.3692091" font-style="italic">e</text>
   </g>
  </g>
  <g id="g3495" transform="matrix(2.1384,0,0,2.1384,-1294.3868,20.902932)">
   <g id="g299" transform="translate(666.1842,303.75206)">
    <g id="g65" transform="translate(0.878906,-1.710938)">
     <text id="text67" y="0" x="3.3369141" font-size="12.000000" style="font-size:12px;font-weight:normal;font-family:Arial;text-anchor:middle;fill:#000000;">1</text>
    </g>
    <g id="g69" transform="translate(0.878906,9.966797)">
     <text id="text71" y="0" x="3.3369141" font-size="12.000000" style="font-size:12px;font-weight:normal;font-family:Arial;text-anchor:middle;fill:#000000;">4</text>
    </g>
    <line id="line73" style="stroke-dasharray:none;stroke:#000000;stroke-width:0.87890601;stroke-linecap:butt;fill:none;" x2="8.4316"/>
   </g>
   <g id="g75" transform="translate(675.49474,306.68281)">
    <text id="text77" font-size="12.000000" style="font-size:12px;font-weight:normal;text-anchor:middle;font-family:Arial;font-style:italic;fill:#000000;" y="0" x="4.0019531" font-style="italic">S</text>
    <g id="g79" transform="translate(8.003906,3.169922)">
     <text id="text81" y="0" x="2.3692091" font-size="8.520000" style="font-size:8.52000046px;font-weight:normal;font-family:Arial;text-anchor:middle;fill:#000000;">0</text>
    </g>
   </g>
  </g>
  <g id="g3194" transform="matrix(2.16,0,0,2.16,470.39695,460.93728)">
   <text id="text3196" font-size="12.000000" style="font-size:12px;font-weight:normal;text-anchor:middle;font-family:Arial;font-style:italic;fill:#000000;" y="0" x="3.6181641" font-style="italic">σ</text>
   <g id="g3198" transform="translate(7.611328,0)">
    <text id="text3200" font-size="12.000000" style="font-size:12px;font-weight:normal;text-anchor:middle;font-family:Arial;font-style:italic;fill:#000000;" y="0" x="3.6650391" font-style="italic">T</text>
    <g id="g3202" transform="translate(6.1872102,3.169922)">
     <text id="text3204" font-size="8.520000" style="font-size:8.52000046px;font-weight:normal;text-anchor:middle;font-family:Arial;font-style:italic;fill:#000000;" y="0" x="2.1300001" font-style="italic">s</text>
    </g>
    <g id="g3206" transform="translate(9.8909138,-6.339844)">
     <text id="text3208" y="0" x="2.3692091" font-size="8.520000" style="font-size:8.52000046px;font-weight:normal;font-family:Arial;text-anchor:middle;fill:#000000;">4</text>
    </g>
   </g>
  </g>
 </g>
</svg>
