<svg xmlns:xlink="http://www.w3.org/1999/xlink" xmlns="http://www.w3.org/2000/svg" viewBox="0.00 0.00 306.44 648.00" height="648pt" width="306pt">
<g transform="scale(0.559199 0.559199) rotate(0) translate(4 1154.8)" class="graph" id="SolarSystem">
<title>1</title>
<polygon points="-4,5 -4,-1154.8 545,-1154.8 545,5 -4,5" stroke="white" fill="white"/>
<text font-size="14.00" font-family="arial" y="-8.2" x="270" text-anchor="middle">SolarSystem</text>
<g class="cluster" id="SolarSystem/Earth"><title>cluster4</title>
<polygon points="8,-32.8 8,-1106.8 532,-1106.8 532,-32.8 8,-32.8" stroke="black" fill="none"/>
<text font-size="14.00" font-family="arial" y="-1090.2" x="270" text-anchor="middle">Earth</text>
</g>
<g class="cluster" id="SolarSystem/Earth/TopOfAtmosphere"><title>cluster5</title>
<polygon points="16,-974.8 16,-1073.8 243,-1073.8 243,-974.8 16,-974.8" stroke="black" fill="none"/>
<text font-size="14.00" font-family="arial" y="-1057.2" x="129.5" text-anchor="middle">TopOfAtmosphere</text>
</g>
<g class="cluster" id="SolarSystem/Earth/Atmosphere"><title>cluster7</title>
<polygon points="146,-201.8 146,-966.8 422,-966.8 422,-201.8 146,-201.8" stroke="black" fill="none"/>
<text font-size="14.00" font-family="arial" y="-950.2" x="284" text-anchor="middle">Atmosphere</text>
</g>
<g class="cluster" id="SolarSystem/Earth/Atmosphere/AtmosphericGases"><title>cluster11</title>
<polygon points="159,-437.8 159,-933.8 308,-933.8 308,-437.8 159,-437.8" stroke="black" fill="none"/>
<text font-size="14.00" font-family="arial" y="-917.2" x="233.5" text-anchor="middle">AtmosphericGases</text>
</g>
<g class="cluster" id="SolarSystem/Earth/Atmosphere/AtmosphericGases/GreenhouseGases"><title>cluster12</title>
<polygon points="167,-445.8 167,-900.8 300,-900.8 300,-445.8 167,-445.8" stroke="black" fill="none"/>
<text font-size="14.00" font-family="arial" y="-884.2" x="233.5" text-anchor="middle">GreenhouseGases</text>
</g>
<g class="cluster" id="SolarSystem/Earth/Surface"><title>cluster22</title>
<polygon points="340,-40.8 340,-193.8 524,-193.8 524,-40.8 340,-40.8" stroke="black" fill="none"/>
<text font-size="14.00" font-family="arial" y="-177.2" x="432" text-anchor="middle">Surface</text>
</g>
<!-- 2 -->
<g class="node" id="SolarSystem/Sun"><title>2</title>
<polygon points="260,-1150.8 206,-1150.8 206,-1114.8 260,-1114.8 260,-1150.8" stroke="black" fill="#487dac"/>
<text font-size="14.00" font-family="arial" y="-1128.6" x="233" text-anchor="middle">Sun</text>
</g>
<!-- 3 -->
<g class="node" id="SolarSystem/Space"><title>3</title>
<polygon points="439.685,-1150.8 384.315,-1150.8 384.315,-1114.8 439.685,-1114.8 439.685,-1150.8" stroke="black" fill="#487dac"/>
<text font-size="14.00" font-family="arial" y="-1128.6" x="412" text-anchor="middle">Space</text>
</g>
<!-- 2&#45;&gt;3 -->
<g class="edge" id="SolarSystem_edge2"><title>2-&gt;3</title>
<path d="M260.117,-1132.8C290.27,-1132.8 340.081,-1132.8 374.163,-1132.8" stroke="black" fill="none"/>
<polygon points="384.196,-1132.8 374.196,-1137.3 379.196,-1132.8 374.196,-1132.8 374.196,-1132.8 374.196,-1132.8 379.196,-1132.8 374.196,-1128.3 384.196,-1132.8 384.196,-1132.8" stroke="black" fill="black"/>
</g>
<!-- 5 -->
<!-- 3&#45;&gt;5 -->
<g class="edge" id="SolarSystem_edge16"><title>3-&gt;5</title>
<path d="M400.011,-1114.76C384.936,-1087.46 354.756,-1037.41 312,-1014.8 290.182,-1003.26 259.996,-1005.6 244.344,-1004.69" stroke="black" fill="none"/>
<polygon points="243,-1004.26 253.891,-1002.98 247.768,-1005.77 252.536,-1007.27 252.536,-1007.27 252.536,-1007.27 247.768,-1005.77 251.181,-1011.56 243,-1004.26 243,-1004.26" stroke="black" fill="black"/>
</g>
<!-- 5&#45;&gt;3 -->
<g class="edge" id="SolarSystem_edge18"><title>5-&gt;3</title>
<path d="M242.64,-993.78C257.712,-987.791 289.361,-984.831 312,-996.8 355.899,-1020.01 386.541,-1072.15 401.188,-1104.91" stroke="black" fill="none"/>
<polygon points="405.217,-1114.4 397.167,-1106.95 403.263,-1109.8 401.309,-1105.2 401.309,-1105.2 401.309,-1105.2 403.263,-1109.8 405.452,-1103.44 405.217,-1114.4 405.217,-1114.4" stroke="black" fill="black"/>
</g>
<!-- 7 -->
<!-- 5&#45;&gt;7 -->
<g class="edge" id="SolarSystem_edge10"><title>5-&gt;7</title>
<path d="M242.552,-998.645C249.494,-994.208 259.892,-985.556 270.81,-974.19" stroke="black" fill="none"/>
<polygon points="277.637,-966.789 274.165,-977.19 274.247,-970.464 270.857,-974.139 270.857,-974.139 270.857,-974.139 274.247,-970.464 267.549,-971.088 277.637,-966.789 277.637,-966.789" stroke="black" fill="black"/>
</g>
<!-- cluster5 -->
<!-- 6 -->
<g class="node" id="SolarSystem/Earth/TopOfAtmosphere/AveragerAO"><title>6</title>
<polygon points="117.515,-1018.8 24.4846,-1018.8 24.4846,-982.8 117.515,-982.8 117.515,-1018.8" stroke="black" fill="#487dac"/>
<text font-size="14.00" font-family="arial" y="-996.6" x="71" text-anchor="middle">AveragerAO</text>
</g>
<!-- 6&#45;&gt;5 -->
<g class="edge" id="SolarSystem_edge12"><title>6-&gt;5</title>
<path d="M117.85,-1000.8C153.392,-1000.8 200.005,-1000.8 220.959,-1000.8" stroke="black" fill="none"/>
<polygon points="231.038,-1000.8 221.038,-1005.3 226.038,-1000.8 221.038,-1000.8 221.038,-1000.8 221.038,-1000.8 226.038,-1000.8 221.038,-996.3 231.038,-1000.8 231.038,-1000.8" stroke="black" fill="black"/>
</g>
<!-- 7&#45;&gt;5 -->
<g class="edge" id="SolarSystem_edge24"><title>7-&gt;5</title>
<path d="M263.1,-966.417C258.23,-971.76 253.623,-976.643 249.572,-980.97" stroke="black" fill="none"/>
<polygon points="242.651,-988.464 246.13,-978.065 246.043,-984.791 249.436,-981.117 249.436,-981.117 249.436,-981.117 246.043,-984.791 252.742,-984.17 242.651,-988.464 242.651,-988.464" stroke="black" fill="black"/>
</g>
<!-- 22 -->
<!-- 7&#45;&gt;22 -->
<g class="edge" id="SolarSystem_edge14"><title>7-&gt;22</title>
<path d="M421.748,-545.331C439.273,-471.585 478.784,-297.989 499.596,-203.556" stroke="black" fill="none"/>
<polygon points="501.771,-193.661 504.019,-204.394 500.698,-198.545 499.624,-203.428 499.624,-203.428 499.624,-203.428 500.698,-198.545 495.229,-202.461 501.771,-193.661 501.771,-193.661" stroke="black" fill="black"/>
</g>
<!-- cluster7 -->
<!-- 8 -->
<g class="node" id="SolarSystem/Earth/Atmosphere/AtmosphericAlbedoAO"><title>8</title>
<polygon points="311.587,-407.8 154.413,-407.8 154.413,-371.8 311.587,-371.8 311.587,-407.8" stroke="black" fill="#487dac"/>
<text font-size="14.00" font-family="arial" y="-385.6" x="233" text-anchor="middle">AtmosphericAlbedoAO</text>
</g>
<!-- 8&#45;&gt;7 -->
<g class="edge" id="SolarSystem_edge26"><title>8-&gt;7</title>
<path d="M298.525,-407.959C303.312,-410.538 307.874,-413.47 312,-416.8 365.378,-459.887 397.202,-539.997 407.397,-568.981" stroke="black" fill="none"/>
<polygon points="410.613,-578.554 403.162,-570.508 409.02,-573.815 407.428,-569.075 407.428,-569.075 407.428,-569.075 409.02,-573.815 411.694,-567.642 410.613,-578.554 410.613,-578.554" stroke="black" fill="black"/>
</g>
<!-- 9 -->
<g class="node" id="SolarSystem/Earth/Atmosphere/Clouds"><title>9</title>
<polygon points="262.563,-353.8 203.437,-353.8 203.437,-317.8 262.563,-317.8 262.563,-353.8" stroke="black" fill="#487dac"/>
<text font-size="14.00" font-family="arial" y="-331.6" x="233" text-anchor="middle">Clouds</text>
</g>
<!-- 10 -->
<g class="node" id="SolarSystem/Earth/Atmosphere/Aerosols"><title>10</title>
<polygon points="268.453,-299.8 197.547,-299.8 197.547,-263.8 268.453,-263.8 268.453,-299.8" stroke="black" fill="#487dac"/>
<text font-size="14.00" font-family="arial" y="-277.6" x="233" text-anchor="middle">Aerosols</text>
</g>
<!-- 13 -->
<g class="node" id="SolarSystem/Earth/Atmosphere/AtmosphericGases/GreenhouseGases/CarbonDioxide"><title>13</title>
<polygon points="287.066,-867.8 178.934,-867.8 178.934,-831.8 287.066,-831.8 287.066,-867.8" stroke="black" fill="#487dac"/>
<text font-size="14.00" font-family="arial" y="-845.6" x="233" text-anchor="middle">CarbonDioxide</text>
</g>
<!-- 13&#45;&gt;7 -->
<g class="edge" id="SolarSystem_edge28"><title>13-&gt;7</title>
<path d="M287.339,-840.3C296.784,-836.336 305.624,-830.728 312,-822.8 378.75,-739.804 262.946,-658.329 340,-584.8 356.153,-569.386 384.874,-573.24 400.375,-576.841" stroke="black" fill="none"/>
<polygon points="410.154,-579.518 399.321,-581.218 405.331,-578.198 400.509,-576.878 400.509,-576.878 400.509,-576.878 405.331,-578.198 401.697,-572.538 410.154,-579.518 410.154,-579.518" stroke="black" fill="black"/>
</g>
<!-- 14 -->
<g class="node" id="SolarSystem/Earth/Atmosphere/AtmosphericGases/GreenhouseGases/Methane"><title>14</title>
<polygon points="268.466,-813.8 197.534,-813.8 197.534,-777.8 268.466,-777.8 268.466,-813.8" stroke="black" fill="#487dac"/>
<text font-size="14.00" font-family="arial" y="-791.6" x="233" text-anchor="middle">Methane</text>
</g>
<!-- 14&#45;&gt;7 -->
<g class="edge" id="SolarSystem_edge30"><title>14-&gt;7</title>
<path d="M268.527,-791.96C284.058,-788.432 301.272,-781.685 312,-768.8 364.927,-705.229 279.197,-640.884 340,-584.8 356.412,-569.662 385.026,-573.402 400.442,-576.913" stroke="black" fill="none"/>
<polygon points="410.16,-579.525 399.335,-581.275 405.331,-578.227 400.503,-576.929 400.503,-576.929 400.503,-576.929 405.331,-578.227 401.671,-572.584 410.16,-579.525 410.16,-579.525" stroke="black" fill="black"/>
</g>
<!-- 15 -->
<g class="node" id="SolarSystem/Earth/Atmosphere/AtmosphericGases/GreenhouseGases/NitrousOxide"><title>15</title>
<polygon points="281.392,-759.8 184.608,-759.8 184.608,-723.8 281.392,-723.8 281.392,-759.8" stroke="black" fill="#487dac"/>
<text font-size="14.00" font-family="arial" y="-737.6" x="233" text-anchor="middle">NitrousOxide</text>
</g>
<!-- 15&#45;&gt;7 -->
<g class="edge" id="SolarSystem_edge32"><title>15-&gt;7</title>
<path d="M281.509,-733.816C292.878,-729.816 304.019,-723.811 312,-714.8 351.186,-670.556 295.352,-623.526 340,-584.8 356.695,-570.32 384.715,-573.631 400.089,-576.943" stroke="black" fill="none"/>
<polygon points="410.171,-579.537 399.365,-581.403 405.329,-578.291 400.486,-577.045 400.486,-577.045 400.486,-577.045 405.329,-578.291 401.608,-572.687 410.171,-579.537 410.171,-579.537" stroke="black" fill="black"/>
</g>
<!-- 16 -->
<g class="node" id="SolarSystem/Earth/Atmosphere/AtmosphericGases/GreenhouseGases/Ozone"><title>16</title>
<polygon points="261.739,-705.8 204.261,-705.8 204.261,-669.8 261.739,-669.8 261.739,-705.8" stroke="black" fill="#487dac"/>
<text font-size="14.00" font-family="arial" y="-683.6" x="233" text-anchor="middle">Ozone</text>
</g>
<!-- 17 -->
<g class="node" id="SolarSystem/Earth/Atmosphere/AtmosphericGases/GreenhouseGases/WaterVapor"><title>17</title>
<polygon points="278.177,-651.8 187.823,-651.8 187.823,-615.8 278.177,-615.8 278.177,-651.8" stroke="black" fill="#487dac"/>
<text font-size="14.00" font-family="arial" y="-629.6" x="233" text-anchor="middle">WaterVapor</text>
</g>
<!-- 18 -->
<g class="node" id="SolarSystem/Earth/Atmosphere/AtmosphericGases/GreenhouseGases/Cfc11"><title>18</title>
<polygon points="260,-597.8 206,-597.8 206,-561.8 260,-561.8 260,-597.8" stroke="black" fill="#487dac"/>
<text font-size="14.00" font-family="arial" y="-575.6" x="233" text-anchor="middle">Cfc11</text>
</g>
<!-- 18&#45;&gt;7 -->
<g class="edge" id="SolarSystem_edge34"><title>18-&gt;7</title>
<path d="M260.117,-579.8C299.243,-579.8 371.469,-579.8 399.478,-579.8" stroke="black" fill="none"/>
<polygon points="409.846,-579.8 399.846,-584.3 404.846,-579.8 399.846,-579.8 399.846,-579.8 399.846,-579.8 404.846,-579.8 399.846,-575.3 409.846,-579.8 409.846,-579.8" stroke="black" fill="black"/>
</g>
<!-- 19 -->
<g class="node" id="SolarSystem/Earth/Atmosphere/AtmosphericGases/GreenhouseGases/Cfc12"><title>19</title>
<polygon points="260,-543.8 206,-543.8 206,-507.8 260,-507.8 260,-543.8" stroke="black" fill="#487dac"/>
<text font-size="14.00" font-family="arial" y="-521.6" x="233" text-anchor="middle">Cfc12</text>
</g>
<!-- 19&#45;&gt;7 -->
<g class="edge" id="SolarSystem_edge36"><title>19-&gt;7</title>
<path d="M260.117,-533.768C299.604,-545.815 372.803,-568.147 400.241,-576.518" stroke="black" fill="none"/>
<polygon points="409.846,-579.448 398.968,-580.834 405.064,-577.989 400.282,-576.53 400.282,-576.53 400.282,-576.53 405.064,-577.989 401.595,-572.226 409.846,-579.448 409.846,-579.448" stroke="black" fill="black"/>
</g>
<!-- 20 -->
<g class="node" id="SolarSystem/Earth/Atmosphere/AtmosphericGases/GreenhouseGases/OtherGhg"><title>20</title>
<polygon points="271.964,-489.8 194.036,-489.8 194.036,-453.8 271.964,-453.8 271.964,-489.8" stroke="black" fill="#487dac"/>
<text font-size="14.00" font-family="arial" y="-467.6" x="233" text-anchor="middle">OtherGhg</text>
</g>
<!-- 20&#45;&gt;7 -->
<g class="edge" id="SolarSystem_edge38"><title>20-&gt;7</title>
<path d="M272.053,-482.002C285.144,-486.275 299.615,-491.881 312,-498.8 349.532,-519.768 386.914,-555.345 402.91,-571.445" stroke="black" fill="none"/>
<polygon points="410.119,-578.862 399.923,-574.828 406.635,-575.277 403.15,-571.691 403.15,-571.691 403.15,-571.691 406.635,-575.277 406.377,-568.555 410.119,-578.862 410.119,-578.862" stroke="black" fill="black"/>
</g>
<!-- 21 -->
<g class="node" id="SolarSystem/Earth/Atmosphere/Heat"><title>21</title>
<polygon points="260,-245.8 206,-245.8 206,-209.8 260,-209.8 260,-245.8" stroke="black" fill="#487dac"/>
<text font-size="14.00" font-family="arial" y="-223.6" x="233" text-anchor="middle">Heat</text>
</g>
<!-- 22&#45;&gt;7 -->
<g class="edge" id="SolarSystem_edge20"><title>22-&gt;7</title>
<path d="M499.737,-193.398C479.806,-278.333 442.496,-442.609 423.99,-527.029" stroke="black" fill="none"/>
<polygon points="421.784,-537.119 419.523,-526.389 422.852,-532.234 423.92,-527.349 423.92,-527.349 423.92,-527.349 422.852,-532.234 428.316,-528.31 421.784,-537.119 421.784,-537.119" stroke="black" fill="black"/>
</g>
<!-- cluster22 -->
<!-- 23 -->
<g class="node" id="SolarSystem/Earth/Surface/SurfaceAlbedoAO"><title>23</title>
<polygon points="476.036,-138.8 347.964,-138.8 347.964,-102.8 476.036,-102.8 476.036,-138.8" stroke="black" fill="#487dac"/>
<text font-size="14.00" font-family="arial" y="-116.6" x="412" text-anchor="middle">SurfaceAlbedoAO</text>
</g>
<!-- 23&#45;&gt;22 -->
<g class="edge" id="SolarSystem_edge22"><title>23-&gt;22</title>
<path d="M476.048,-132.779C486.103,-134.69 495.401,-136.456 502.155,-137.739" stroke="black" fill="none"/>
<polygon points="512.031,-139.616 501.367,-142.17 507.119,-138.683 502.207,-137.749 502.207,-137.749 502.207,-137.749 507.119,-138.683 503.047,-133.328 512.031,-139.616 512.031,-139.616" stroke="black" fill="black"/>
</g>
<!-- 24 -->
<g class="node" id="SolarSystem/Earth/Surface/Heat"><title>24</title>
<polygon points="439,-84.8 385,-84.8 385,-48.8 439,-48.8 439,-84.8" stroke="black" fill="#487dac"/>
<text font-size="14.00" font-family="arial" y="-62.6" x="412" text-anchor="middle">Heat</text>
</g>
</g>
</svg>
