<?xml version="1.0" encoding="UTF-8" standalone="no"?>
<?xml-stylesheet href="Xholon.css" type="text/css"?>
<!DOCTYPE svg PUBLIC "-//W3C//DTD SVG 1.1//EN"
 "http://www.w3.org/Graphics/SVG/1.1/DTD/svg11.dtd">
<!-- Generated by graphviz version 2.28.0 (20140111.2315)
 -->
<!-- Title: 0 Pages: 1 -->
<svg width="319pt" height="432pt"
 viewBox="0.00 0.00 319.13 432.00" xmlns="http://www.w3.org/2000/svg" xmlns:xlink="http://www.w3.org/1999/xlink">
<g id="ExtraCellularSpace" class="graph" transform="scale(0.470691 0.470691) rotate(0) translate(4 913.8)">
<title>0</title>
<polygon fill="white" stroke="none" points="-4,4 -4,-913.8 674,-913.8 674,4 -4,4"/>
<text text-anchor="middle" x="335" y="-8.2" font-family="Courier New" font-size="14.00">ExtraCellularSpace</text>
<g id="ExtraCellularSpace/ExtraCellularSolution" class="cluster"><title>cluster1</title>
<polygon fill="none" stroke="black" points="425,-32.8 425,-109.8 617,-109.8 617,-32.8 425,-32.8"/>
<text text-anchor="middle" x="521" y="-93.2" font-family="Courier New" font-size="14.00">ExtraCellularSolution</text>
</g>
<g id="ExtraCellularSpace/EukaryoticCell" class="cluster"><title>cluster3</title>
<polygon fill="none" stroke="black" points="8,-117.8 8,-901.8 662,-901.8 662,-117.8 8,-117.8"/>
<text text-anchor="middle" x="335" y="-885.2" font-family="Courier New" font-size="14.00">EukaryoticCell</text>
</g>
<g id="ExtraCellularSpace/EukaryoticCell/CellMembrane" class="cluster"><title>cluster4</title>
<polygon fill="none" stroke="black" points="134,-125.8 134,-202.8 258,-202.8 258,-125.8 134,-125.8"/>
<text text-anchor="middle" x="196" y="-186.2" font-family="Courier New" font-size="14.00">CellMembrane</text>
</g>
<g id="ExtraCellularSpace/EukaryoticCell/Cytoplasm" class="cluster"><title>cluster6</title>
<polygon fill="none" stroke="black" points="16,-210.8 16,-868.8 654,-868.8 654,-210.8 16,-210.8"/>
<text text-anchor="middle" x="335" y="-852.2" font-family="Courier New" font-size="14.00">Cytoplasm</text>
</g>
<g id="ExtraCellularSpace/EukaryoticCell/Cytoplasm/Cytosol" class="cluster"><title>cluster7</title>
<polygon fill="none" stroke="black" points="396,-218.8 396,-835.8 646,-835.8 646,-218.8 396,-218.8"/>
<text text-anchor="middle" x="521" y="-819.2" font-family="Courier New" font-size="14.00">Cytosol</text>
</g>
<!-- 2 -->
<g id="ExtraCellularSpace/ExtraCellularSolution/Glucose" class="node"><title>2</title>
<polygon fill="#37a744" stroke="black" points="558.29,-76.8 483.71,-76.8 483.71,-40.8 558.29,-40.8 558.29,-76.8"/>
<text text-anchor="middle" x="521" y="-54.6" font-family="Courier New" font-size="14.00">Glucose</text>
</g>
<!-- 5 -->
<g id="ExtraCellularSpace/EukaryoticCell/CellMembrane/CellBilayer" class="node"><title>5</title>
<polygon fill="#37a744" stroke="black" points="250.385,-169.8 141.615,-169.8 141.615,-133.8 250.385,-133.8 250.385,-169.8"/>
<text text-anchor="middle" x="196" y="-147.6" font-family="Courier New" font-size="14.00">CellBilayer</text>
</g>
<!-- 5&#45;&gt;2 -->
<g id="ExtraCellularSpace_edge23" class="edge"><title>5&#45;&gt;2</title>
<path fill="none" stroke="black" d="M250.337,-136.443C312.67,-118.496 414.787,-89.0934 473.851,-72.0874"/>
<polygon fill="black" stroke="black" points="483.654,-69.265 475.289,-76.3562 478.849,-70.6485 474.044,-72.0319 474.044,-72.0319 474.044,-72.0319 478.849,-70.6485 472.799,-67.7076 483.654,-69.265 483.654,-69.265"/>
</g>
<!-- 8 -->
<g id="ExtraCellularSpace/EukaryoticCell/Cytoplasm/Cytosol/Glucose" class="node"><title>8</title>
<polygon fill="#37a744" stroke="black" points="558.29,-262.8 483.71,-262.8 483.71,-226.8 558.29,-226.8 558.29,-262.8"/>
<text text-anchor="middle" x="521" y="-240.6" font-family="Courier New" font-size="14.00">Glucose</text>
</g>
<!-- 5&#45;&gt;8 -->
<g id="ExtraCellularSpace_edge22" class="edge"><title>5&#45;&gt;8</title>
<path fill="none" stroke="black" d="M250.337,-167.157C312.67,-185.104 414.787,-214.507 473.851,-231.513"/>
<polygon fill="black" stroke="black" points="483.654,-234.335 472.799,-235.892 478.849,-232.952 474.044,-231.568 474.044,-231.568 474.044,-231.568 478.849,-232.952 475.289,-227.244 483.654,-234.335 483.654,-234.335"/>
</g>
<!-- 9 -->
<g id="ExtraCellularSpace/EukaryoticCell/Cytoplasm/Cytosol/Glucose_6_Phosphate" class="node"><title>9</title>
<polygon fill="#37a744" stroke="black" points="608.574,-316.8 433.426,-316.8 433.426,-280.8 608.574,-280.8 608.574,-316.8"/>
<text text-anchor="middle" x="521" y="-294.6" font-family="Courier New" font-size="14.00">Glucose_6_Phosphate</text>
</g>
<!-- 10 -->
<g id="ExtraCellularSpace/EukaryoticCell/Cytoplasm/Cytosol/Fructose_6_Phosphate" class="node"><title>10</title>
<polygon fill="#37a744" stroke="black" points="612.972,-370.8 429.028,-370.8 429.028,-334.8 612.972,-334.8 612.972,-370.8"/>
<text text-anchor="middle" x="521" y="-348.6" font-family="Courier New" font-size="14.00">Fructose_6_Phosphate</text>
</g>
<!-- 11 -->
<g id="ExtraCellularSpace/EukaryoticCell/Cytoplasm/Cytosol/Fructose_1x6_Biphosphate" class="node"><title>11</title>
<polygon fill="#37a744" stroke="black" points="629.567,-586.8 412.433,-586.8 412.433,-550.8 629.567,-550.8 629.567,-586.8"/>
<text text-anchor="middle" x="521" y="-564.6" font-family="Courier New" font-size="14.00">Fructose_1x6_Biphosphate</text>
</g>
<!-- 12 -->
<g id="ExtraCellularSpace/EukaryoticCell/Cytoplasm/Cytosol/DihydroxyacetonePhosphate" class="node"><title>12</title>
<polygon fill="#37a744" stroke="black" points="633.965,-802.8 408.035,-802.8 408.035,-766.8 633.965,-766.8 633.965,-802.8"/>
<text text-anchor="middle" x="521" y="-780.6" font-family="Courier New" font-size="14.00">DihydroxyacetonePhosphate</text>
</g>
<!-- 13 -->
<g id="ExtraCellularSpace/EukaryoticCell/Cytoplasm/Cytosol/Glyceraldehyde_3_Phosphate" class="node"><title>13</title>
<polygon fill="#37a744" stroke="black" points="638.364,-748.8 403.636,-748.8 403.636,-712.8 638.364,-712.8 638.364,-748.8"/>
<text text-anchor="middle" x="521" y="-726.6" font-family="Courier New" font-size="14.00">Glyceraldehyde_3_Phosphate</text>
</g>
<!-- 14 -->
<g id="ExtraCellularSpace/EukaryoticCell/Cytoplasm/Cytosol/X1x3_BisphosphoGlycerate" class="node"><title>14</title>
<polygon fill="#37a744" stroke="black" points="629.567,-694.8 412.433,-694.8 412.433,-658.8 629.567,-658.8 629.567,-694.8"/>
<text text-anchor="middle" x="521" y="-672.6" font-family="Courier New" font-size="14.00">X1x3_BisphosphoGlycerate</text>
</g>
<!-- 15 -->
<g id="ExtraCellularSpace/EukaryoticCell/Cytoplasm/Cytosol/X3_PhosphoGlycerate" class="node"><title>15</title>
<polygon fill="#37a744" stroke="black" points="608.574,-640.8 433.426,-640.8 433.426,-604.8 608.574,-604.8 608.574,-640.8"/>
<text text-anchor="middle" x="521" y="-618.6" font-family="Courier New" font-size="14.00">X3_PhosphoGlycerate</text>
</g>
<!-- 16 -->
<g id="ExtraCellularSpace/EukaryoticCell/Cytoplasm/Cytosol/X2_PhosphoGlycerate" class="node"><title>16</title>
<polygon fill="#37a744" stroke="black" points="608.574,-532.8 433.426,-532.8 433.426,-496.8 608.574,-496.8 608.574,-532.8"/>
<text text-anchor="middle" x="521" y="-510.6" font-family="Courier New" font-size="14.00">X2_PhosphoGlycerate</text>
</g>
<!-- 17 -->
<g id="ExtraCellularSpace/EukaryoticCell/Cytoplasm/Cytosol/PhosphoEnolPyruvate" class="node"><title>17</title>
<polygon fill="#37a744" stroke="black" points="608.574,-478.8 433.426,-478.8 433.426,-442.8 608.574,-442.8 608.574,-478.8"/>
<text text-anchor="middle" x="521" y="-456.6" font-family="Courier New" font-size="14.00">PhosphoEnolPyruvate</text>
</g>
<!-- 18 -->
<g id="ExtraCellularSpace/EukaryoticCell/Cytoplasm/Cytosol/Pyruvate" class="node"><title>18</title>
<polygon fill="#37a744" stroke="black" points="562.689,-424.8 479.311,-424.8 479.311,-388.8 562.689,-388.8 562.689,-424.8"/>
<text text-anchor="middle" x="521" y="-402.6" font-family="Courier New" font-size="14.00">Pyruvate</text>
</g>
<!-- 19 -->
<g id="ExtraCellularSpace/EukaryoticCell/Cytoplasm/Hexokinase" class="node"><title>19</title>
<polygon fill="#37a744" stroke="black" points="245.986,-275.8 146.014,-275.8 146.014,-239.8 245.986,-239.8 245.986,-275.8"/>
<text text-anchor="middle" x="196" y="-253.6" font-family="Courier New" font-size="14.00">Hexokinase</text>
</g>
<!-- 19&#45;&gt;8 -->
<g id="ExtraCellularSpace_edge1" class="edge"><title>19&#45;&gt;8</title>
<path fill="none" stroke="black" d="M246.057,-255.826C307.784,-253.341 413.017,-249.106 473.509,-246.671"/>
<polygon fill="black" stroke="black" points="483.541,-246.267 473.731,-251.166 478.545,-246.468 473.55,-246.67 473.55,-246.67 473.55,-246.67 478.545,-246.468 473.369,-242.173 483.541,-246.267 483.541,-246.267"/>
</g>
<!-- 19&#45;&gt;9 -->
<g id="ExtraCellularSpace_edge2" class="edge"><title>19&#45;&gt;9</title>
<path fill="none" stroke="black" d="M246.057,-264.027C292.936,-269.978 364.909,-279.113 423.319,-286.528"/>
<polygon fill="black" stroke="black" points="433.313,-287.796 422.825,-291.001 428.352,-287.167 423.392,-286.537 423.392,-286.537 423.392,-286.537 428.352,-287.167 423.959,-282.073 433.313,-287.796 433.313,-287.796"/>
</g>
<!-- 20 -->
<g id="ExtraCellularSpace/EukaryoticCell/Cytoplasm/PhosphoGlucoIsomerase" class="node"><title>20</title>
<polygon fill="#37a744" stroke="black" points="292.371,-343.8 99.629,-343.8 99.629,-307.8 292.371,-307.8 292.371,-343.8"/>
<text text-anchor="middle" x="196" y="-321.6" font-family="Courier New" font-size="14.00">PhosphoGlucoIsomerase</text>
</g>
<!-- 20&#45;&gt;9 -->
<g id="ExtraCellularSpace_edge3" class="edge"><title>20&#45;&gt;9</title>
<path fill="none" stroke="black" d="M292.6,-317.809C333.759,-314.368 381.811,-310.351 423.113,-306.899"/>
<polygon fill="black" stroke="black" points="433.183,-306.057 423.593,-311.375 428.201,-306.474 423.218,-306.89 423.218,-306.89 423.218,-306.89 428.201,-306.474 422.843,-302.406 433.183,-306.057 433.183,-306.057"/>
</g>
<!-- 20&#45;&gt;10 -->
<g id="ExtraCellularSpace_edge4" class="edge"><title>20&#45;&gt;10</title>
<path fill="none" stroke="black" d="M292.6,-333.791C332.3,-337.11 378.413,-340.965 418.696,-344.332"/>
<polygon fill="black" stroke="black" points="428.804,-345.177 418.464,-348.828 423.821,-344.76 418.839,-344.344 418.839,-344.344 418.839,-344.344 423.821,-344.76 419.214,-339.859 428.804,-345.177 428.804,-345.177"/>
</g>
<!-- 21 -->
<g id="ExtraCellularSpace/EukaryoticCell/Cytoplasm/PhosphoFructokinase" class="node"><title>21</title>
<polygon fill="#37a744" stroke="black" points="283.574,-478.8 108.426,-478.8 108.426,-442.8 283.574,-442.8 283.574,-478.8"/>
<text text-anchor="middle" x="196" y="-456.6" font-family="Courier New" font-size="14.00">PhosphoFructokinase</text>
</g>
<!-- 21&#45;&gt;10 -->
<g id="ExtraCellularSpace_edge5" class="edge"><title>21&#45;&gt;10</title>
<path fill="none" stroke="black" d="M283.823,-462.421C312.82,-459.177 343.862,-451.198 368,-433.8 389.932,-417.993 374.534,-396.234 396,-379.8 403.054,-374.399 410.963,-370.03 419.281,-366.501"/>
<polygon fill="black" stroke="black" points="428.824,-362.864 421.082,-370.631 424.152,-364.645 419.48,-366.426 419.48,-366.426 419.48,-366.426 424.152,-364.645 417.877,-362.221 428.824,-362.864 428.824,-362.864"/>
</g>
<!-- 21&#45;&gt;11 -->
<g id="ExtraCellularSpace_edge6" class="edge"><title>21&#45;&gt;11</title>
<path fill="none" stroke="black" d="M283.823,-459.179C312.82,-462.423 343.862,-470.402 368,-487.8 389.932,-503.607 374.534,-525.366 396,-541.8 398.378,-543.621 400.853,-545.324 403.408,-546.918"/>
<polygon fill="black" stroke="black" points="412.38,-551.923 401.455,-550.981 408.013,-549.487 403.647,-547.051 403.647,-547.051 403.647,-547.051 408.013,-549.487 405.839,-543.121 412.38,-551.923 412.38,-551.923"/>
</g>
<!-- 22 -->
<g id="ExtraCellularSpace/EukaryoticCell/Cytoplasm/Aldolase" class="node"><title>22</title>
<polygon fill="#37a744" stroke="black" points="237.689,-748.8 154.311,-748.8 154.311,-712.8 237.689,-712.8 237.689,-748.8"/>
<text text-anchor="middle" x="196" y="-726.6" font-family="Courier New" font-size="14.00">Aldolase</text>
</g>
<!-- 22&#45;&gt;11 -->
<g id="ExtraCellularSpace_edge7" class="edge"><title>22&#45;&gt;11</title>
<path fill="none" stroke="black" d="M237.896,-736.012C276.297,-738.498 332.943,-735.609 368,-703.8 404.723,-670.479 360.255,-630.168 396,-595.8 398.462,-593.433 401.08,-591.254 403.827,-589.248"/>
<polygon fill="black" stroke="black" points="412.424,-583.738 406.433,-592.923 408.215,-586.436 404.005,-589.134 404.005,-589.134 404.005,-589.134 408.215,-586.436 401.577,-585.345 412.424,-583.738 412.424,-583.738"/>
</g>
<!-- 22&#45;&gt;12 -->
<g id="ExtraCellularSpace_edge9" class="edge"><title>22&#45;&gt;12</title>
<path fill="none" stroke="black" d="M237.806,-737.018C272.472,-742.354 323.538,-750.342 368,-757.8 381.506,-760.066 395.677,-762.503 409.708,-764.952"/>
<polygon fill="black" stroke="black" points="419.889,-766.736 409.262,-769.442 414.964,-765.873 410.039,-765.01 410.039,-765.01 410.039,-765.01 414.964,-765.873 410.815,-760.577 419.889,-766.736 419.889,-766.736"/>
</g>
<!-- 22&#45;&gt;13 -->
<g id="ExtraCellularSpace_edge8" class="edge"><title>22&#45;&gt;13</title>
<path fill="none" stroke="black" d="M237.908,-730.8C277.061,-730.8 338.184,-730.8 393.538,-730.8"/>
<polygon fill="black" stroke="black" points="403.8,-730.8 393.8,-735.3 398.8,-730.8 393.8,-730.8 393.8,-730.8 393.8,-730.8 398.8,-730.8 393.8,-726.3 403.8,-730.8 403.8,-730.8"/>
</g>
<!-- 23 -->
<g id="ExtraCellularSpace/EukaryoticCell/Cytoplasm/TriosePhosphateIsomerase" class="node"><title>23</title>
<polygon fill="#37a744" stroke="black" points="304.567,-802.8 87.4332,-802.8 87.4332,-766.8 304.567,-766.8 304.567,-802.8"/>
<text text-anchor="middle" x="196" y="-780.6" font-family="Courier New" font-size="14.00">TriosePhosphateIsomerase</text>
</g>
<!-- 23&#45;&gt;12 -->
<g id="ExtraCellularSpace_edge10" class="edge"><title>23&#45;&gt;12</title>
<path fill="none" stroke="black" d="M305.003,-784.8C334.744,-784.8 367.214,-784.8 397.7,-784.8"/>
<polygon fill="black" stroke="black" points="407.956,-784.8 397.956,-789.3 402.956,-784.8 397.956,-784.8 397.956,-784.8 397.956,-784.8 402.956,-784.8 397.956,-780.3 407.956,-784.8 407.956,-784.8"/>
</g>
<!-- 23&#45;&gt;13 -->
<g id="ExtraCellularSpace_edge11" class="edge"><title>23&#45;&gt;13</title>
<path fill="none" stroke="black" d="M304.689,-768.119C325.698,-764.774 347.548,-761.231 368,-757.8 381.506,-755.534 395.677,-753.097 409.708,-750.648"/>
<polygon fill="black" stroke="black" points="419.889,-748.864 410.815,-755.023 414.964,-749.727 410.039,-750.59 410.039,-750.59 410.039,-750.59 414.964,-749.727 409.262,-746.158 419.889,-748.864 419.889,-748.864"/>
</g>
<!-- 24 -->
<g id="ExtraCellularSpace/EukaryoticCell/Cytoplasm/Glyceraldehyde_3_phosphateDehydrogenase" class="node"><title>24</title>
<polygon fill="#37a744" stroke="black" points="367.546,-694.8 24.4543,-694.8 24.4543,-658.8 367.546,-658.8 367.546,-694.8"/>
<text text-anchor="middle" x="196" y="-672.6" font-family="Courier New" font-size="14.00">Glyceraldehyde_3_phosphateDehydrogenase</text>
</g>
<!-- 24&#45;&gt;13 -->
<g id="ExtraCellularSpace_edge12" class="edge"><title>24&#45;&gt;13</title>
<path fill="none" stroke="black" d="M313.409,-694.873C331.688,-697.8 350.364,-700.842 368,-703.8 381.506,-706.066 395.677,-708.503 409.708,-710.952"/>
<polygon fill="black" stroke="black" points="419.889,-712.736 409.262,-715.442 414.964,-711.873 410.039,-711.01 410.039,-711.01 410.039,-711.01 414.964,-711.873 410.815,-706.577 419.889,-712.736 419.889,-712.736"/>
</g>
<!-- 24&#45;&gt;14 -->
<g id="ExtraCellularSpace_edge13" class="edge"><title>24&#45;&gt;14</title>
<path fill="none" stroke="black" d="M367.958,-676.8C379.428,-676.8 390.834,-676.8 401.943,-676.8"/>
<polygon fill="black" stroke="black" points="412.056,-676.8 402.056,-681.3 407.056,-676.8 402.056,-676.8 402.056,-676.8 402.056,-676.8 407.056,-676.8 402.056,-672.3 412.056,-676.8 412.056,-676.8"/>
</g>
<!-- 25 -->
<g id="ExtraCellularSpace/EukaryoticCell/Cytoplasm/PhosphoGlycerokinase" class="node"><title>25</title>
<polygon fill="#37a744" stroke="black" points="287.972,-640.8 104.028,-640.8 104.028,-604.8 287.972,-604.8 287.972,-640.8"/>
<text text-anchor="middle" x="196" y="-618.6" font-family="Courier New" font-size="14.00">PhosphoGlycerokinase</text>
</g>
<!-- 25&#45;&gt;14 -->
<g id="ExtraCellularSpace_edge14" class="edge"><title>25&#45;&gt;14</title>
<path fill="none" stroke="black" d="M288.016,-636.839C313.881,-640.918 342.064,-645.449 368,-649.8 381.506,-652.066 395.677,-654.503 409.708,-656.952"/>
<polygon fill="black" stroke="black" points="419.889,-658.736 409.262,-661.442 414.964,-657.873 410.039,-657.01 410.039,-657.01 410.039,-657.01 414.964,-657.873 410.815,-652.577 419.889,-658.736 419.889,-658.736"/>
</g>
<!-- 25&#45;&gt;15 -->
<g id="ExtraCellularSpace_edge15" class="edge"><title>25&#45;&gt;15</title>
<path fill="none" stroke="black" d="M288.264,-622.8C330.404,-622.8 380.468,-622.8 423.261,-622.8"/>
<polygon fill="black" stroke="black" points="433.405,-622.8 423.405,-627.3 428.405,-622.8 423.405,-622.8 423.405,-622.8 423.405,-622.8 428.405,-622.8 423.405,-618.3 433.405,-622.8 433.405,-622.8"/>
</g>
<!-- 26 -->
<g id="ExtraCellularSpace/EukaryoticCell/Cytoplasm/PhosphoGlyceromutase" class="node"><title>26</title>
<polygon fill="#37a744" stroke="black" points="287.972,-586.8 104.028,-586.8 104.028,-550.8 287.972,-550.8 287.972,-586.8"/>
<text text-anchor="middle" x="196" y="-564.6" font-family="Courier New" font-size="14.00">PhosphoGlyceromutase</text>
</g>
<!-- 26&#45;&gt;15 -->
<g id="ExtraCellularSpace_edge16" class="edge"><title>26&#45;&gt;15</title>
<path fill="none" stroke="black" d="M288.016,-582.839C313.881,-586.918 342.064,-591.449 368,-595.8 385.842,-598.793 404.843,-602.085 423.15,-605.31"/>
<polygon fill="black" stroke="black" points="433.238,-607.092 422.608,-609.783 428.315,-606.222 423.391,-605.352 423.391,-605.352 423.391,-605.352 428.315,-606.222 424.174,-600.921 433.238,-607.092 433.238,-607.092"/>
</g>
<!-- 26&#45;&gt;16 -->
<g id="ExtraCellularSpace_edge17" class="edge"><title>26&#45;&gt;16</title>
<path fill="none" stroke="black" d="M288.016,-554.761C313.881,-550.682 342.064,-546.151 368,-541.8 385.842,-538.807 404.843,-535.515 423.15,-532.29"/>
<polygon fill="black" stroke="black" points="433.238,-530.508 424.174,-536.679 428.315,-531.378 423.391,-532.248 423.391,-532.248 423.391,-532.248 428.315,-531.378 422.608,-527.817 433.238,-530.508 433.238,-530.508"/>
</g>
<!-- 27 -->
<g id="ExtraCellularSpace/EukaryoticCell/Cytoplasm/Enolase" class="node"><title>27</title>
<polygon fill="#37a744" stroke="black" points="233.29,-532.8 158.71,-532.8 158.71,-496.8 233.29,-496.8 233.29,-532.8"/>
<text text-anchor="middle" x="196" y="-510.6" font-family="Courier New" font-size="14.00">Enolase</text>
</g>
<!-- 27&#45;&gt;16 -->
<g id="ExtraCellularSpace_edge18" class="edge"><title>27&#45;&gt;16</title>
<path fill="none" stroke="black" d="M233.424,-514.8C279.154,-514.8 359.356,-514.8 423.306,-514.8"/>
<polygon fill="black" stroke="black" points="433.422,-514.8 423.422,-519.3 428.422,-514.8 423.422,-514.8 423.422,-514.8 423.422,-514.8 428.422,-514.8 423.422,-510.3 433.422,-514.8 433.422,-514.8"/>
</g>
<!-- 27&#45;&gt;17 -->
<g id="ExtraCellularSpace_edge19" class="edge"><title>27&#45;&gt;17</title>
<path fill="none" stroke="black" d="M233.393,-509.261C268.034,-503.939 321.612,-495.582 368,-487.8 385.842,-484.807 404.843,-481.515 423.15,-478.29"/>
<polygon fill="black" stroke="black" points="433.238,-476.508 424.174,-482.679 428.315,-477.378 423.391,-478.248 423.391,-478.248 423.391,-478.248 428.315,-477.378 422.608,-473.817 433.238,-476.508 433.238,-476.508"/>
</g>
<!-- 28 -->
<g id="ExtraCellularSpace/EukaryoticCell/Cytoplasm/PyruvateKinase" class="node"><title>28</title>
<polygon fill="#37a744" stroke="black" points="262.581,-424.8 129.419,-424.8 129.419,-388.8 262.581,-388.8 262.581,-424.8"/>
<text text-anchor="middle" x="196" y="-402.6" font-family="Courier New" font-size="14.00">PyruvateKinase</text>
</g>
<!-- 28&#45;&gt;17 -->
<g id="ExtraCellularSpace_edge20" class="edge"><title>28&#45;&gt;17</title>
<path fill="none" stroke="black" d="M262.822,-416.891C294.621,-421.843 333.32,-427.983 368,-433.8 385.842,-436.793 404.843,-440.085 423.15,-443.31"/>
<polygon fill="black" stroke="black" points="433.238,-445.092 422.608,-447.783 428.315,-444.222 423.391,-443.352 423.391,-443.352 423.391,-443.352 428.315,-444.222 424.174,-438.921 433.238,-445.092 433.238,-445.092"/>
</g>
<!-- 28&#45;&gt;18 -->
<g id="ExtraCellularSpace_edge21" class="edge"><title>28&#45;&gt;18</title>
<path fill="none" stroke="black" d="M262.753,-406.8C323.75,-406.8 413.266,-406.8 469.016,-406.8"/>
<polygon fill="black" stroke="black" points="479.358,-406.8 469.358,-411.3 474.358,-406.8 469.358,-406.8 469.358,-406.8 469.358,-406.8 474.358,-406.8 469.358,-402.3 479.358,-406.8 479.358,-406.8"/>
</g>
</g>
</svg>
