<?xml version="1.0" standalone="no"?>
<!DOCTYPE svg PUBLIC "-//W3C//DTD SVG 20010904//EN"
 "http://www.w3.org/TR/2001/REC-SVG-20010904/DTD/svg10.dtd">
<svg version="1.0" xmlns="http://www.w3.org/2000/svg"
 width="1241.000000pt" height="687.000000pt" viewBox="0 0 1241.000000 687.000000"
 preserveAspectRatio="xMidYMid meet">
<metadata>
Created by potrace 1.13, written by Peter Selinger 2001-2015
</metadata>
<g transform="translate(0.000000,687.000000) scale(0.100000,-0.100000)"
fill="#000000" stroke="none">
<path d="M800 3570 l0 -2500 5580 0 5580 0 0 2500 0 2500 -5580 0 -5580 0 0
-2500z m11120 0 l0 -2460 -5540 0 -5540 0 0 2460 0 2460 5540 0 5540 0 0
-2460z"/>
<path d="M4671 5861 c-1 -38 1 -42 12 -29 6 9 22 18 34 20 17 2 20 7 13 18 -8
12 -13 13 -29 3 -17 -11 -20 -9 -24 10 -2 12 -5 2 -6 -22z"/>
<path d="M4748 5888 c-2 -7 -1 -26 3 -43 l7 -30 1 28 c1 34 21 36 21 2 0 -14
3 -25 8 -25 9 0 7 68 -2 77 -3 4 -6 1 -6 -5 0 -7 -5 -12 -11 -12 -5 0 -7 5 -4
10 3 6 2 10 -3 10 -6 0 -12 -6 -14 -12z"/>
<path d="M4819 5883 c-8 -10 -9 -14 -2 -10 8 5 13 -3 16 -25 3 -29 4 -28 5 10
2 47 0 49 -19 25z"/>
<path d="M1150 5660 l0 -200 200 0 200 0 0 200 0 200 -200 0 -200 0 0 -200z
m380 0 l0 -180 -180 0 -180 0 0 180 0 180 180 0 180 0 0 -180z"/>
<path d="M1301 5746 c-87 -48 -50 -186 49 -186 51 0 100 49 100 99 0 75 -83
124 -149 87z"/>
<path d="M2360 5845 c0 -8 -7 -15 -15 -15 -13 0 -15 -42 -15 -320 l0 -320 -45
0 c-33 0 -45 -4 -45 -15 0 -20 -2 -20 -63 15 -49 27 -53 33 -49 60 5 36 22 40
22 5 0 -14 3 -25 8 -25 9 0 7 68 -2 77 -3 4 -6 1 -6 -5 0 -7 -5 -12 -11 -12
-5 0 -7 5 -4 10 3 6 1 10 -4 10 -12 0 -14 -10 -11 -52 1 -16 -3 -28 -9 -28 -6
0 -11 5 -11 11 0 5 -4 8 -9 4 -5 -3 -12 -1 -15 4 -4 5 3 11 14 13 15 2 17 7
10 18 -8 12 -13 13 -30 2 -18 -11 -20 -10 -21 10 -1 17 -2 19 -6 6 -2 -10 -8
-18 -13 -18 -5 0 -112 60 -239 134 -127 74 -231 131 -231 128 0 -4 108 -69
240 -145 156 -91 240 -145 241 -155 0 -10 3 -12 5 -5 4 8 26 0 67 -23 34 -19
77 -42 95 -51 31 -16 32 -19 32 -77 l-1 -61 -339 -259 c-187 -143 -338 -262
-336 -264 2 -2 154 112 337 252 329 253 333 256 381 256 l48 0 0 -445 0 -445
645 0 c567 0 645 2 645 15 0 8 7 15 15 15 13 0 15 21 15 130 l0 130 30 0 30 0
0 90 0 90 -30 0 -30 0 0 335 0 335 30 0 30 0 0 90 0 90 -30 0 -30 0 0 210 0
210 -645 0 c-567 0 -645 -2 -645 -15z m1280 -200 c0 -130 -4 -205 -10 -205 -6
0 -10 72 -10 195 l0 195 -625 0 c-410 0 -625 3 -625 10 0 7 218 10 635 10
l635 0 0 -205z m-270 55 l0 -120 120 0 120 0 0 -70 0 -70 -40 0 -40 0 0 -90 0
-90 40 0 40 0 0 -335 0 -335 -40 0 -40 0 0 -90 0 -90 40 0 40 0 0 -140 0 -140
-635 0 -635 0 0 440 0 440 40 0 40 0 0 90 0 90 -40 0 -40 0 0 315 0 315 515 0
515 0 0 -120z m240 5 l0 -115 -115 0 -115 0 0 115 0 115 115 0 115 0 0 -115z
m90 -355 l0 -80 -80 0 -80 0 0 80 0 80 80 0 80 0 0 -80z m-60 -425 c0 -217 -4
-335 -10 -335 -6 0 -10 118 -10 335 0 217 4 335 10 335 6 0 10 -118 10 -335z
m60 -425 l0 -80 -80 0 -80 0 0 80 0 80 80 0 80 0 0 -80z m-60 -215 c0 -77 -4
-125 -10 -125 -6 0 -10 48 -10 125 0 77 4 125 10 125 6 0 10 -48 10 -125z"/>
<path d="M2630 5060 c-15 -28 4 -62 32 -58 12 2 24 10 26 18 5 13 3 13 -12 1
-12 -10 -20 -11 -27 -4 -18 18 -6 48 18 47 12 0 20 3 17 8 -10 15 -43 8 -54
-12z"/>
<path d="M2872 5040 c0 -25 2 -38 5 -30 3 8 13 24 22 34 15 18 15 19 -1 13
-11 -4 -18 0 -21 11 -3 9 -5 -3 -5 -28z"/>
<path d="M2930 5040 c0 -39 1 -40 33 -39 30 2 30 2 5 6 -34 5 -37 30 -5 36
l22 4 -22 2 c-32 2 -29 19 5 24 25 4 25 4 -5 6 -32 1 -33 0 -33 -39z"/>
<path d="M2711 5028 c2 -28 2 -29 6 -8 3 14 10 28 17 32 7 5 5 8 -6 8 -14 0
-18 -8 -17 -32z"/>
<path d="M2753 5045 c4 -8 2 -17 -4 -20 -15 -10 0 -25 25 -25 19 0 22 4 18 30
-3 22 -10 30 -24 30 -14 0 -18 -5 -15 -15z m27 -25 c0 -5 -5 -10 -11 -10 -5 0
-7 5 -4 10 3 6 8 10 11 10 2 0 4 -4 4 -10z"/>
<path d="M2806 5045 c-8 -23 4 -45 25 -45 10 0 19 4 19 10 0 5 -7 7 -15 4 -11
-4 -15 0 -15 16 0 16 4 20 15 16 8 -3 15 -1 15 4 0 16 -37 11 -44 -5z"/>
<path d="M2997 5047 c-3 -7 -3 -25 0 -40 7 -33 38 -36 48 -4 l8 22 4 -22 c3
-14 12 -23 23 -23 17 0 30 26 30 63 0 20 -45 24 -53 5 -4 -10 -6 -10 -6 0 -1
16 -47 16 -54 -1z m33 -17 c0 -11 -4 -20 -10 -20 -5 0 -10 9 -10 20 0 11 5 20
10 20 6 0 10 -9 10 -20z m60 0 c0 -11 -4 -20 -10 -20 -5 0 -10 9 -10 20 0 11
5 20 10 20 6 0 10 -9 10 -20z"/>
<path d="M2890 5021 c0 -5 5 -13 10 -16 6 -3 10 -2 10 4 0 5 -4 13 -10 16 -5
3 -10 2 -10 -4z"/>
<path d="M2637 4953 c-9 -9 -9 -81 1 -86 4 -3 7 17 7 44 0 27 0 49 -1 49 0 0
-4 -3 -7 -7z"/>
<path d="M2670 4940 c-16 -31 4 -62 38 -58 35 4 44 38 10 37 -22 0 -22 -1 -3
-9 19 -7 19 -8 2 -15 -23 -9 -40 7 -35 31 3 14 12 18 31 17 15 -1 25 2 22 8
-11 17 -54 10 -65 -11z"/>
<path d="M3038 4949 c-6 -17 3 -69 11 -69 7 0 6 69 -2 76 -3 3 -7 0 -9 -7z"/>
<path d="M3179 4943 c-8 -10 -9 -14 -2 -10 8 5 13 -3 16 -25 3 -29 4 -28 5 10
2 47 0 49 -19 25z"/>
<path d="M3230 4950 c0 -5 7 -7 15 -4 22 9 18 -16 -7 -43 l-21 -23 34 1 c29 1
30 2 11 8 l-24 6 20 19 c12 10 18 24 15 32 -6 16 -43 19 -43 4z"/>
<path d="M3295 4910 c0 -26 3 -43 7 -37 4 7 8 23 8 37 0 14 -4 30 -8 37 -4 6
-7 -11 -7 -37z"/>
<path d="M2757 4926 c-14 -35 30 -66 49 -35 4 8 0 9 -15 4 -12 -4 -21 -2 -21
4 0 6 9 11 21 11 26 0 20 24 -8 28 -11 2 -23 -4 -26 -12z"/>
<path d="M2821 4908 c2 -31 2 -31 6 -5 2 15 8 27 13 27 5 0 11 -12 13 -27 4
-26 4 -26 6 5 1 26 -3 32 -19 32 -16 0 -20 -6 -19 -32z"/>
<path d="M2877 4926 c-14 -35 30 -66 49 -35 4 8 0 9 -15 4 -12 -4 -21 -2 -21
4 0 6 9 11 21 11 26 0 20 24 -8 28 -11 2 -23 -4 -26 -12z"/>
<path d="M2941 4908 c2 -28 2 -29 6 -8 3 14 10 28 17 32 7 5 5 8 -6 8 -14 0
-18 -8 -17 -32z"/>
<path d="M2983 4925 c4 -8 2 -17 -4 -20 -15 -10 0 -25 25 -25 19 0 22 4 18 30
-3 22 -10 30 -24 30 -14 0 -18 -5 -15 -15z m27 -25 c0 -5 -5 -10 -11 -10 -5 0
-7 5 -4 10 3 6 8 10 11 10 2 0 4 -4 4 -10z"/>
<path d="M3067 4926 c-10 -26 4 -47 27 -44 15 2 21 10 21 28 0 29 -38 41 -48
16z m38 -16 c0 -7 -6 -15 -12 -17 -8 -3 -13 4 -13 17 0 13 5 20 13 18 6 -3 12
-11 12 -18z"/>
<path d="M3131 4908 c2 -28 2 -29 6 -8 3 14 10 28 17 32 7 5 5 8 -6 8 -14 0
-18 -8 -17 -32z"/>
<path d="M3470 5740 c0 -5 7 -7 15 -4 22 9 18 -16 -7 -43 l-21 -23 34 1 c29 1
30 2 11 8 l-24 6 20 19 c12 10 18 24 15 32 -6 16 -43 19 -43 4z"/>
<path d="M4960 5820 l0 -40 -45 0 -45 0 0 -55 0 -54 -47 -14 c-27 -7 -283 -74
-571 -148 -287 -74 -517 -135 -510 -137 7 -1 263 63 568 142 l555 143 3 -28
c3 -27 6 -29 48 -29 l44 0 0 -110 0 -110 -45 0 -45 0 0 -72 0 -73 -43 -24
c-23 -12 -66 -36 -94 -52 l-53 -29 -1 23 c-1 17 -3 15 -8 -8 -5 -26 -29 -43
-186 -137 -99 -59 -185 -107 -191 -108 -6 0 -96 59 -200 130 -179 124 -189
132 -194 167 -5 34 -6 35 -20 18 -9 -11 -10 -16 -2 -11 8 5 12 0 12 -13 0 -18
-3 -20 -19 -9 -11 7 -18 15 -16 18 2 3 0 12 -6 20 -5 8 -9 11 -9 5 0 -5 -12
-11 -27 -12 -15 0 -21 2 -14 6 8 5 -2 17 -29 35 -23 15 -43 26 -45 24 -2 -2 9
-12 26 -23 24 -17 29 -27 30 -65 1 -30 3 -36 6 -17 2 15 8 27 13 27 5 0 11
-12 13 -27 l4 -28 2 28 c1 34 21 36 21 2 0 -14 4 -25 10 -25 5 0 7 7 4 15 -4
8 -4 15 -1 15 5 0 88 -56 335 -227 l94 -65 -284 -170 c-156 -93 -275 -167
-266 -164 10 3 139 78 288 166 l272 162 56 -39 c372 -257 352 -242 352 -276 1
-27 2 -29 11 -14 11 19 39 23 39 6 0 -6 -7 -8 -16 -5 -9 3 -12 2 -8 -5 3 -6
15 -8 26 -6 13 4 43 -9 84 -36 l64 -42 0 -72 0 -73 45 0 45 0 0 -45 0 -45 -45
0 -45 0 0 -90 0 -90 45 0 c45 0 45 0 45 -35 0 -35 0 -35 -45 -35 l-45 0 0 -49
c0 -42 -3 -50 -22 -54 -13 -3 -759 -119 -1658 -259 -899 -139 -1628 -254
-1620 -256 13 -2 3192 487 3273 504 25 5 27 4 27 -30 0 -36 0 -36 45 -36 25 0
45 -4 45 -10 0 -7 195 -10 565 -10 l565 0 0 185 0 185 45 0 45 0 0 90 0 90
-45 0 -45 0 0 125 0 125 -565 0 -565 0 0 -40 0 -40 -44 0 c-24 0 -46 -4 -48
-10 -1 -5 -23 4 -48 20 -25 16 -40 30 -35 30 11 0 11 67 1 77 -3 4 -6 1 -6 -5
0 -7 -5 -12 -11 -12 -5 0 -7 5 -4 10 3 6 1 10 -4 10 -11 0 -14 -10 -12 -45 1
-18 0 -18 -11 3 -7 13 -20 22 -35 22 -12 0 -23 5 -23 10 0 6 -5 10 -10 10 -6
0 -98 60 -205 134 l-195 134 180 106 c99 59 184 104 189 101 5 -2 11 2 15 10
3 8 17 15 30 15 20 0 24 4 19 18 -4 12 -3 14 5 7 6 -5 12 -21 15 -35 4 -24 4
-24 6 3 1 34 21 36 21 2 0 -23 4 -25 43 -24 32 1 36 3 18 8 -21 6 -22 8 -7 20
20 17 21 51 2 51 -8 0 -18 -4 -21 -10 -3 -6 1 -7 9 -4 22 9 20 -19 -2 -39 -26
-24 -35 -21 -30 7 3 14 1 30 -3 37 -5 9 6 21 34 38 27 16 42 21 45 13 2 -7 23
-12 48 -12 l44 0 0 -70 0 -70 595 0 595 0 0 155 0 155 45 0 45 0 0 90 0 90
-45 0 -45 0 0 155 0 155 -595 0 -595 0 0 -40z m1180 -120 l0 -150 -40 0 -40 0
0 -90 0 -90 40 0 40 0 0 -150 0 -150 -585 0 -585 0 0 65 0 65 40 0 40 0 0 90
0 90 -40 0 -40 0 0 110 0 110 40 0 40 0 0 90 0 90 -40 0 c-39 0 -40 1 -40 35
l0 35 585 0 585 0 0 -150z m90 -240 l0 -80 -80 0 -80 0 0 80 0 80 80 0 80 0 0
-80z m-1450 -300 c0 -5 -5 -10 -11 -10 -5 0 -7 5 -4 10 3 6 8 10 11 10 2 0 4
-4 4 -10z m30 -596 c0 -14 -4 -23 -10 -19 -5 3 -10 15 -10 26 0 10 5 19 10 19
6 0 10 -12 10 -26z m1300 -114 l0 -120 -40 0 -40 0 0 -90 0 -90 40 0 40 0 0
-180 0 -180 -557 2 c-307 1 -539 3 -515 5 l42 4 0 90 0 89 -40 0 c-39 0 -40 1
-40 35 0 34 1 35 40 35 l40 0 0 90 0 90 -40 0 -40 0 0 45 0 45 40 0 40 0 0 90
0 90 -40 0 c-39 0 -40 1 -40 35 l0 35 555 0 555 0 0 -120z m90 -210 l0 -80
-80 0 -80 0 0 80 0 80 80 0 80 0 0 -80z"/>
<path d="M5203 5544 c3 -11 8 -29 12 -41 8 -28 25 -30 25 -4 0 30 17 34 24 6
8 -32 21 -25 31 17 l8 33 7 -40 c6 -31 7 -34 9 -12 1 34 21 36 21 2 0 -14 5
-25 10 -25 6 0 10 6 10 14 0 25 -12 46 -26 46 -8 0 -14 5 -14 10 0 22 -29 8
-37 -17 l-10 -28 -6 28 c-9 34 -20 34 -34 0 -10 -25 -11 -26 -12 -6 -1 12 -6
25 -12 29 -7 4 -9 0 -6 -12z"/>
<path d="M5452 5520 c0 -25 2 -38 5 -30 3 8 13 24 22 34 15 18 15 19 -1 13
-11 -4 -18 0 -21 11 -3 9 -5 -3 -5 -28z"/>
<path d="M5370 5511 c0 -23 5 -27 30 -29 28 -2 30 0 27 25 -3 22 -9 28 -30 29
-23 1 -27 -3 -27 -25z m47 -17 c-7 -7 -37 7 -37 17 0 6 9 5 21 -1 11 -7 19
-14 16 -16z"/>
<path d="M5470 5501 c0 -5 5 -13 10 -16 6 -3 10 -2 10 4 0 5 -4 13 -10 16 -5
3 -10 2 -10 -4z"/>
<path d="M5217 5433 c-9 -9 -9 -81 1 -86 4 -3 7 17 7 44 0 27 0 49 -1 49 0 0
-4 -3 -7 -7z"/>
<path d="M5250 5420 c-16 -31 4 -62 38 -58 35 4 44 38 10 37 -22 0 -22 -1 -3
-9 19 -7 19 -8 2 -15 -23 -9 -40 7 -35 31 3 14 12 18 31 17 15 -1 25 2 22 8
-11 17 -54 10 -65 -11z"/>
<path d="M5618 5429 c-6 -17 3 -69 11 -69 7 0 6 69 -2 76 -3 3 -7 0 -9 -7z"/>
<path d="M5750 5430 c0 -5 7 -7 15 -4 22 9 18 -16 -7 -43 l-21 -23 34 1 c29 1
30 2 11 8 l-24 6 20 19 c12 10 18 24 15 32 -6 16 -43 19 -43 4z"/>
<path d="M5819 5423 c-8 -10 -9 -14 -2 -10 8 5 13 -3 16 -25 3 -29 4 -28 5 10
2 47 0 49 -19 25z"/>
<path d="M5875 5390 c0 -26 3 -43 7 -37 4 7 8 23 8 37 0 14 -4 30 -8 37 -4 6
-7 -11 -7 -37z"/>
<path d="M5337 5406 c-14 -35 30 -66 49 -35 4 8 0 9 -15 4 -12 -4 -21 -2 -21
4 0 6 9 11 21 11 26 0 20 24 -8 28 -11 2 -23 -4 -26 -12z"/>
<path d="M5401 5388 c2 -31 2 -31 6 -5 2 15 8 27 13 27 5 0 11 -12 13 -27 4
-26 4 -26 6 5 1 26 -3 32 -19 32 -16 0 -20 -6 -19 -32z"/>
<path d="M5457 5406 c-14 -35 30 -66 49 -35 4 8 0 9 -15 4 -12 -4 -21 -2 -21
4 0 6 9 11 21 11 26 0 20 24 -8 28 -11 2 -23 -4 -26 -12z"/>
<path d="M5521 5388 c2 -28 2 -29 6 -8 3 14 10 28 17 32 7 5 5 8 -6 8 -14 0
-18 -8 -17 -32z"/>
<path d="M5563 5405 c4 -8 2 -17 -4 -20 -15 -10 0 -25 25 -25 19 0 22 4 18 30
-3 22 -10 30 -24 30 -14 0 -18 -5 -15 -15z m27 -25 c0 -5 -5 -10 -11 -10 -5 0
-7 5 -4 10 3 6 8 10 11 10 2 0 4 -4 4 -10z"/>
<path d="M5647 5406 c-10 -26 4 -47 27 -44 15 2 21 10 21 28 0 29 -38 41 -48
16z m38 -16 c0 -7 -6 -15 -12 -17 -8 -3 -13 4 -13 17 0 13 5 20 13 18 6 -3 12
-11 12 -18z"/>
<path d="M5711 5388 c2 -28 2 -29 6 -8 3 14 10 28 17 32 7 5 5 8 -6 8 -14 0
-18 -8 -17 -32z"/>
<path d="M5210 4240 c0 -35 3 -40 23 -40 13 0 28 5 35 12 8 8 12 8 12 1 0 -6
22 -11 53 -11 53 0 53 0 49 29 -3 21 -10 29 -24 29 -14 0 -18 -5 -14 -15 4
-11 -3 -19 -20 -25 -32 -12 -34 -12 -34 0 0 6 9 10 21 10 12 0 19 5 17 13 -6
15 -48 22 -48 8 0 -6 -4 -11 -10 -11 -5 0 -10 9 -10 20 0 15 -7 20 -25 20 -22
0 -25 -4 -25 -40z m40 20 c0 -5 -7 -10 -15 -10 -8 0 -15 5 -15 10 0 6 7 10 15
10 8 0 15 -4 15 -10z m0 -35 c0 -8 -7 -15 -15 -15 -8 0 -15 7 -15 15 0 8 7 15
15 15 8 0 15 -7 15 -15z m120 -5 c0 -5 -5 -10 -11 -10 -5 0 -7 5 -4 10 3 6 8
10 11 10 2 0 4 -4 4 -10z"/>
<path d="M5398 4269 c-6 -17 3 -69 11 -69 7 0 6 69 -2 76 -3 3 -7 0 -9 -7z"/>
<path d="M5217 4153 c-9 -9 -9 -81 1 -86 4 -3 7 17 7 44 0 27 0 49 -1 49 0 0
-4 -3 -7 -7z"/>
<path d="M5250 4140 c-16 -31 4 -62 38 -58 35 4 44 38 10 37 -22 0 -22 -1 -3
-9 19 -7 19 -8 2 -15 -23 -9 -40 7 -35 31 3 14 12 18 31 17 15 -1 25 2 22 8
-11 17 -54 10 -65 -11z"/>
<path d="M5618 4149 c-6 -17 3 -69 11 -69 7 0 6 69 -2 76 -3 3 -7 0 -9 -7z"/>
<path d="M5750 4150 c0 -5 7 -7 15 -4 8 4 15 2 15 -4 0 -6 -6 -13 -12 -15 -10
-4 -10 -6 0 -6 6 -1 12 -8 12 -17 0 -10 -6 -14 -15 -10 -8 3 -15 1 -15 -4 0
-15 37 -12 43 3 10 26 -5 67 -24 67 -11 0 -19 -4 -19 -10z"/>
<path d="M5819 4143 c-8 -10 -9 -14 -2 -10 8 5 13 -3 16 -25 3 -29 4 -28 5 10
2 47 0 49 -19 25z"/>
<path d="M5875 4110 c0 -26 3 -43 7 -37 4 7 8 23 8 37 0 14 -4 30 -8 37 -4 6
-7 -11 -7 -37z"/>
<path d="M5337 4126 c-14 -35 30 -66 49 -35 4 8 0 9 -15 4 -12 -4 -21 -2 -21
4 0 6 9 11 21 11 26 0 20 24 -8 28 -11 2 -23 -4 -26 -12z"/>
<path d="M5401 4108 c2 -31 2 -31 6 -5 2 15 8 27 13 27 5 0 11 -12 13 -27 4
-26 4 -26 6 5 1 26 -3 32 -19 32 -16 0 -20 -6 -19 -32z"/>
<path d="M5457 4126 c-14 -35 30 -66 49 -35 4 8 0 9 -15 4 -12 -4 -21 -2 -21
4 0 6 9 11 21 11 26 0 20 24 -8 28 -11 2 -23 -4 -26 -12z"/>
<path d="M5521 4108 c2 -28 2 -29 6 -8 3 14 10 28 17 32 7 5 5 8 -6 8 -14 0
-18 -8 -17 -32z"/>
<path d="M5563 4125 c4 -8 2 -17 -4 -20 -15 -10 0 -25 25 -25 19 0 22 4 18 30
-3 22 -10 30 -24 30 -14 0 -18 -5 -15 -15z m27 -25 c0 -5 -5 -10 -11 -10 -5 0
-7 5 -4 10 3 6 8 10 11 10 2 0 4 -4 4 -10z"/>
<path d="M5647 4126 c-10 -26 4 -47 27 -44 15 2 21 10 21 28 0 29 -38 41 -48
16z m38 -16 c0 -7 -6 -15 -12 -17 -8 -3 -13 4 -13 17 0 13 5 20 13 18 6 -3 12
-11 12 -18z"/>
<path d="M5711 4108 c2 -28 2 -29 6 -8 3 14 10 28 17 32 7 5 5 8 -6 8 -14 0
-18 -8 -17 -32z"/>
<path d="M4696 5828 c3 -4 12 -8 20 -8 8 0 14 4 14 8 0 4 -9 8 -19 8 -11 0
-17 -4 -15 -8z"/>
<path d="M8871 5661 c-1 -38 1 -42 12 -29 6 9 22 18 34 20 17 2 20 7 13 18 -8
12 -13 13 -29 3 -17 -11 -20 -9 -24 10 -2 12 -5 2 -6 -22z"/>
<path d="M8948 5688 c-2 -7 -1 -26 3 -43 l7 -30 1 28 c1 34 21 36 21 2 0 -14
3 -25 8 -25 9 0 7 68 -2 77 -3 4 -6 1 -6 -5 0 -7 -5 -12 -11 -12 -5 0 -7 5 -4
10 3 6 2 10 -3 10 -6 0 -12 -6 -14 -12z"/>
<path d="M9019 5683 c-8 -10 -9 -14 -2 -10 8 5 13 -3 16 -25 3 -29 4 -28 5 10
2 47 0 49 -19 25z"/>
<path d="M9160 5620 l0 -40 -45 0 -45 0 0 -45 0 -45 -222 -3 -223 -2 223 -3
222 -2 0 -40 0 -40 45 0 45 0 0 -95 0 -95 -45 0 -45 0 0 -90 0 -90 45 0 45 0
0 -85 0 -85 600 0 600 0 0 170 0 170 45 0 45 0 0 90 0 90 -45 0 -45 0 0 140 0
140 -600 0 -600 0 0 -40z m1190 -105 l0 -135 -40 0 -40 0 0 -90 0 -90 40 0 40
0 0 -165 0 -165 -590 0 -590 0 0 80 0 80 40 0 40 0 0 90 0 90 -40 0 -40 0 0
95 0 95 40 0 40 0 0 90 0 90 -40 0 c-39 0 -40 1 -40 35 l0 35 590 0 590 0 0
-135z m90 -225 l0 -80 -80 0 -80 0 0 80 0 80 80 0 80 0 0 -80z"/>
<path d="M9421 5318 c1 -24 4 -33 6 -21 2 13 13 24 26 26 l22 4 -22 2 c-13 0
-23 5 -23 10 0 5 10 12 23 14 19 4 18 4 -5 6 -27 1 -28 -1 -27 -41z"/>
<path d="M9551 5320 c0 -32 2 -41 9 -30 6 10 10 11 10 3 0 -7 9 -13 20 -13 17
0 20 6 19 43 0 23 -3 36 -6 30 -2 -7 -11 -13 -19 -13 -8 0 -14 -6 -15 -12 -1
-7 -5 -2 -9 12 -7 21 -8 17 -9 -20z m49 -10 c0 -11 -4 -20 -10 -20 -5 0 -10 9
-10 20 0 11 5 20 10 20 6 0 10 -9 10 -20z"/>
<path d="M9487 5326 c-10 -26 4 -47 27 -44 15 2 21 10 21 28 0 29 -38 41 -48
16z m38 -16 c0 -7 -6 -15 -12 -17 -8 -3 -13 4 -13 17 0 13 5 20 13 18 6 -3 12
-11 12 -18z"/>
<path d="M9427 5233 c-9 -9 -9 -81 1 -86 4 -3 7 17 7 44 0 27 0 49 -1 49 0 0
-4 -3 -7 -7z"/>
<path d="M9460 5220 c-16 -31 4 -62 38 -58 35 4 44 38 10 37 -22 0 -22 -1 -3
-9 19 -7 19 -8 2 -15 -23 -9 -40 7 -35 31 3 14 12 18 31 17 15 -1 25 2 22 8
-11 17 -54 10 -65 -11z"/>
<path d="M9828 5229 c-6 -17 3 -69 11 -69 7 0 6 69 -2 76 -3 3 -7 0 -9 -7z"/>
<path d="M9960 5230 c0 -5 7 -7 15 -4 22 9 18 -16 -7 -43 l-21 -23 34 1 c29 1
30 2 11 8 l-24 6 20 19 c12 10 18 24 15 32 -6 16 -43 19 -43 4z"/>
<path d="M10029 5223 c-8 -10 -9 -14 -2 -10 8 5 13 -3 16 -25 3 -29 4 -28 5
10 2 47 0 49 -19 25z"/>
<path d="M10085 5190 c0 -26 3 -43 7 -37 4 7 8 23 8 37 0 14 -4 30 -8 37 -4 6
-7 -11 -7 -37z"/>
<path d="M9547 5206 c-14 -35 30 -66 49 -35 4 8 0 9 -15 4 -12 -4 -21 -2 -21
4 0 6 9 11 21 11 26 0 20 24 -8 28 -11 2 -23 -4 -26 -12z"/>
<path d="M9611 5188 c2 -31 2 -31 6 -5 2 15 8 27 13 27 5 0 11 -12 13 -27 4
-26 4 -26 6 5 1 26 -3 32 -19 32 -16 0 -20 -6 -19 -32z"/>
<path d="M9667 5206 c-14 -35 30 -66 49 -35 4 8 0 9 -15 4 -12 -4 -21 -2 -21
4 0 6 9 11 21 11 26 0 20 24 -8 28 -11 2 -23 -4 -26 -12z"/>
<path d="M9731 5188 c2 -28 2 -29 6 -8 3 14 10 28 17 32 7 5 5 8 -6 8 -14 0
-18 -8 -17 -32z"/>
<path d="M9773 5205 c4 -8 2 -17 -4 -20 -15 -10 0 -25 25 -25 19 0 22 4 18 30
-3 22 -10 30 -24 30 -14 0 -18 -5 -15 -15z m27 -25 c0 -5 -5 -10 -11 -10 -5 0
-7 5 -4 10 3 6 8 10 11 10 2 0 4 -4 4 -10z"/>
<path d="M9857 5206 c-10 -26 4 -47 27 -44 15 2 21 10 21 28 0 29 -38 41 -48
16z m38 -16 c0 -7 -6 -15 -12 -17 -8 -3 -13 4 -13 17 0 13 5 20 13 18 6 -3 12
-11 12 -18z"/>
<path d="M9921 5188 c2 -28 2 -29 6 -8 3 14 10 28 17 32 7 5 5 8 -6 8 -14 0
-18 -8 -17 -32z"/>
<path d="M8896 5628 c3 -4 12 -8 20 -8 8 0 14 4 14 8 0 4 -9 8 -19 8 -11 0
-17 -4 -15 -8z"/>
<path d="M7908 5473 c122 -2 322 -2 445 0 122 1 22 2 -223 2 -245 0 -345 -1
-222 -2z"/>
<path d="M6963 5463 c126 -2 328 -2 450 0 122 1 20 2 -228 2 -247 0 -347 -1
-222 -2z"/>
<path d="M11300 5260 l0 -200 200 0 200 0 0 200 0 200 -200 0 -200 0 0 -200z
m249 86 c67 -35 65 -143 -4 -174 -51 -23 -107 -7 -131 39 -47 91 44 182 135
135z"/>
<path d="M1261 5361 c-1 -38 1 -42 12 -29 6 9 22 18 34 20 17 2 20 7 13 18 -8
12 -13 13 -29 3 -17 -11 -20 -9 -24 10 -2 12 -5 2 -6 -22z"/>
<path d="M1338 5388 c-2 -7 -1 -26 3 -43 l7 -30 1 28 c1 34 21 36 21 2 0 -14
3 -25 8 -25 9 0 7 68 -2 77 -3 4 -6 1 -6 -5 0 -7 -5 -12 -11 -12 -5 0 -7 5 -4
10 3 6 2 10 -3 10 -6 0 -12 -6 -14 -12z"/>
<path d="M1409 5383 c-8 -10 -9 -14 -2 -10 8 5 13 -3 16 -25 3 -29 4 -28 5 10
2 47 0 49 -19 25z"/>
<path d="M1286 5328 c3 -4 12 -8 20 -8 8 0 14 4 14 8 0 4 -9 8 -19 8 -11 0
-17 -4 -15 -8z"/>
<path d="M6312 5300 c1 -28 3 -34 5 -17 2 15 8 27 13 27 5 0 11 -12 13 -27 4
-26 4 -26 6 5 1 22 -4 32 -13 32 -8 0 -17 6 -19 13 -3 6 -5 -8 -5 -33z"/>
<path d="M6368 5329 c-6 -17 3 -69 11 -69 7 0 6 69 -2 76 -3 3 -7 0 -9 -7z"/>
<path d="M6409 5323 c-8 -10 -9 -14 -2 -10 8 5 13 -3 16 -25 3 -29 4 -28 5 10
2 47 0 49 -19 25z"/>
<path d="M6191 5288 c2 -28 2 -29 6 -8 3 14 10 28 17 32 7 5 5 8 -6 8 -14 0
-18 -8 -17 -32z"/>
<path d="M6231 5290 c0 -29 1 -32 10 -17 7 11 7 23 0 35 -9 14 -10 11 -10 -18z"/>
<path d="M6250 5310 c0 -5 7 -7 15 -4 11 4 15 0 15 -16 0 -16 -4 -20 -15 -16
-8 3 -15 1 -15 -4 0 -6 8 -10 18 -11 15 0 14 -2 -3 -10 l-20 -9 20 3 c15 2 21
11 23 40 3 32 0 37 -17 37 -12 0 -21 -4 -21 -10z"/>
<path d="M2189 5293 c-8 -10 -9 -14 -2 -10 8 5 13 -3 16 -25 3 -29 4 -28 5 10
2 47 0 49 -19 25z"/>
<path d="M10487 5283 c18 -2 50 -2 70 0 21 2 7 4 -32 4 -38 0 -55 -2 -38 -4z"/>
<path d="M10662 5273 c37 -2 100 -2 140 0 40 1 10 3 -67 3 -77 0 -110 -1 -73
-3z"/>
<path d="M10948 5263 c39 -2 105 -2 145 0 39 1 7 3 -73 3 -80 0 -112 -2 -72
-3z"/>
<path d="M3661 5178 c2 -28 2 -29 6 -8 3 14 10 28 17 32 7 5 5 8 -6 8 -14 0
-18 -8 -17 -32z"/>
<path d="M3701 5180 c0 -29 1 -32 10 -17 7 11 7 23 0 35 -9 14 -10 11 -10 -18z"/>
<path d="M3720 5200 c0 -5 7 -7 15 -4 11 4 15 0 15 -16 0 -16 -4 -20 -15 -16
-8 3 -15 1 -15 -4 0 -6 8 -10 18 -11 15 0 14 -2 -3 -10 l-20 -9 20 3 c15 2 21
11 23 40 3 32 0 37 -17 37 -12 0 -21 -4 -21 -10z"/>
<path d="M10522 5130 c1 -28 3 -34 5 -17 2 15 8 27 13 27 5 0 11 -12 13 -27 4
-26 4 -26 6 5 1 22 -4 32 -13 32 -8 0 -17 6 -19 13 -3 6 -5 -8 -5 -33z"/>
<path d="M10578 5159 c-6 -17 3 -69 11 -69 7 0 6 69 -2 76 -3 3 -7 0 -9 -7z"/>
<path d="M10619 5153 c-8 -10 -9 -14 -2 -10 8 5 13 -3 16 -25 3 -29 4 -28 5
10 2 47 0 49 -19 25z"/>
<path d="M10401 5118 c2 -28 2 -29 6 -8 3 14 10 28 17 32 7 5 5 8 -6 8 -14 0
-18 -8 -17 -32z"/>
<path d="M10441 5120 c0 -29 1 -32 10 -17 7 11 7 23 0 35 -9 14 -10 11 -10
-18z"/>
<path d="M10460 5140 c0 -5 7 -7 15 -4 11 4 15 0 15 -16 0 -16 -4 -20 -15 -16
-8 3 -15 1 -15 -4 0 -6 8 -10 18 -11 15 0 14 -2 -3 -10 l-20 -9 20 3 c15 2 21
11 23 40 3 32 0 37 -17 37 -12 0 -21 -4 -21 -10z"/>
<path d="M4696 5098 c3 -4 12 -8 20 -8 8 0 14 4 14 8 0 4 -9 8 -19 8 -11 0
-17 -4 -15 -8z"/>
<path d="M9075 4987 c-19 -30 -20 -31 -23 -9 -3 22 -26 30 -37 12 -3 -6 1 -7
9 -4 22 9 20 -19 -2 -39 -26 -24 -35 -21 -30 7 3 14 1 31 -3 38 -7 10 -9 10
-9 1 0 -7 -5 -13 -11 -13 -5 0 -7 5 -4 10 3 6 2 10 -3 10 -15 0 -19 -22 -11
-55 l7 -30 1 28 c1 33 21 36 21 3 0 -19 6 -25 25 -28 23 -3 7 -29 -238 -415
-144 -227 -267 -413 -274 -413 -7 0 -13 -4 -13 -10 0 -5 5 -9 12 -7 6 1 14 -6
16 -15 2 -10 -1 -18 -7 -18 -6 0 -7 7 -4 17 4 10 2 14 -5 9 -6 -3 -15 2 -21
11 -9 15 -10 11 -11 -19 0 -56 -8 -68 -46 -68 l-34 0 0 85 0 85 -565 0 -565 0
0 -85 0 -85 -45 0 -45 0 0 -90 0 -90 45 0 45 0 0 -90 0 -90 -45 0 -45 0 0 -49
c0 -39 -4 -51 -17 -54 -10 -3 -1266 -230 -2791 -504 -1526 -274 -2768 -499
-2760 -501 11 -2 5459 974 5546 993 20 5 22 2 22 -30 0 -35 0 -35 45 -35 l45
0 0 -45 0 -45 565 0 565 0 0 225 0 225 46 0 46 0 -3 98 c-3 103 2 122 29 121
14 0 13 -2 -3 -10 l-20 -9 20 3 c16 2 21 12 26 47 4 37 51 117 262 450 142
222 263 408 270 412 7 4 9 8 4 8 -4 0 5 18 19 40 15 22 25 42 22 45 -2 2 -13
-10 -23 -28z m-30 -46 c-3 -6 -11 -11 -17 -11 -6 0 -6 6 2 15 14 17 26 13 15
-4z m-675 -871 l0 -80 -40 0 -40 0 0 -90 0 -90 40 0 40 0 0 -220 0 -220 -555
0 -555 0 0 40 0 40 40 0 40 0 0 90 0 90 -40 0 -40 0 0 90 0 90 40 0 40 0 0 90
0 90 -40 0 -40 0 0 80 0 80 555 0 555 0 0 -80z m90 -170 l0 -80 -80 0 -80 0 0
80 0 80 80 0 80 0 0 -80z"/>
<path d="M7477 3853 c-14 -14 -6 -30 21 -40 24 -9 25 -11 8 -18 -12 -5 -21 -3
-28 6 -8 12 -9 11 -5 -1 2 -8 15 -15 28 -15 31 0 32 27 2 40 -28 12 -30 29 -3
22 11 -3 20 -1 20 4 0 10 -33 12 -43 2z"/>
<path d="M7538 3849 c-6 -17 3 -69 11 -69 7 0 6 69 -2 76 -3 3 -7 0 -9 -7z"/>
<path d="M7572 3810 c0 -19 2 -27 5 -17 2 9 2 25 0 35 -3 9 -5 1 -5 -18z"/>
<path d="M7591 3808 c2 -28 2 -29 6 -8 3 14 10 28 17 32 7 5 5 8 -6 8 -14 0
-18 -8 -17 -32z"/>
<path d="M7477 3733 c-9 -9 -9 -81 1 -86 4 -3 7 17 7 44 0 27 0 49 -1 49 0 0
-4 -3 -7 -7z"/>
<path d="M7510 3720 c-16 -31 4 -62 38 -58 35 4 44 38 10 37 -22 0 -22 -1 -3
-9 19 -7 19 -8 2 -15 -23 -9 -40 7 -35 31 3 14 12 18 31 17 15 -1 25 2 22 8
-11 17 -54 10 -65 -11z"/>
<path d="M7878 3729 c-6 -17 3 -69 11 -69 7 0 6 69 -2 76 -3 3 -7 0 -9 -7z"/>
<path d="M8010 3730 c0 -5 7 -7 15 -4 22 9 18 -16 -7 -43 l-21 -23 34 1 c29 1
30 2 11 8 l-24 6 20 19 c12 10 18 24 15 32 -6 16 -43 19 -43 4z"/>
<path d="M8079 3723 c-8 -10 -9 -14 -2 -10 8 5 13 -3 16 -25 3 -29 4 -28 5 10
2 47 0 49 -19 25z"/>
<path d="M8135 3690 c0 -26 3 -43 7 -37 4 7 8 23 8 37 0 14 -4 30 -8 37 -4 6
-7 -11 -7 -37z"/>
<path d="M7597 3706 c-14 -35 30 -66 49 -35 4 8 0 9 -15 4 -12 -4 -21 -2 -21
4 0 6 9 11 21 11 26 0 20 24 -8 28 -11 2 -23 -4 -26 -12z"/>
<path d="M7661 3688 c2 -31 2 -31 6 -5 2 15 8 27 13 27 5 0 11 -12 13 -27 4
-26 4 -26 6 5 1 26 -3 32 -19 32 -16 0 -20 -6 -19 -32z"/>
<path d="M7717 3706 c-14 -35 30 -66 49 -35 4 8 0 9 -15 4 -12 -4 -21 -2 -21
4 0 6 9 11 21 11 26 0 20 24 -8 28 -11 2 -23 -4 -26 -12z"/>
<path d="M7781 3688 c2 -28 2 -29 6 -8 3 14 10 28 17 32 7 5 5 8 -6 8 -14 0
-18 -8 -17 -32z"/>
<path d="M7823 3705 c4 -8 2 -17 -4 -20 -15 -10 0 -25 25 -25 19 0 22 4 18 30
-3 22 -10 30 -24 30 -14 0 -18 -5 -15 -15z m27 -25 c0 -5 -5 -10 -11 -10 -5 0
-7 5 -4 10 3 6 8 10 11 10 2 0 4 -4 4 -10z"/>
<path d="M7907 3706 c-10 -26 4 -47 27 -44 15 2 21 10 21 28 0 29 -38 41 -48
16z m38 -16 c0 -7 -6 -15 -12 -17 -8 -3 -13 4 -13 17 0 13 5 20 13 18 6 -3 12
-11 12 -18z"/>
<path d="M7971 3688 c2 -28 2 -29 6 -8 3 14 10 28 17 32 7 5 5 8 -6 8 -14 0
-18 -8 -17 -32z"/>
<path d="M8871 4961 c-1 -38 1 -42 12 -29 6 9 22 18 34 20 17 2 20 7 13 18 -8
12 -13 13 -29 3 -17 -11 -20 -9 -24 10 -2 12 -5 2 -6 -22z"/>
<path d="M11492 4960 c1 -28 3 -34 5 -17 2 15 8 27 13 27 5 0 11 -12 13 -27 4
-26 4 -26 6 5 1 22 -4 32 -13 32 -8 0 -17 6 -19 13 -3 6 -5 -8 -5 -33z"/>
<path d="M11548 4989 c-6 -17 3 -69 11 -69 7 0 6 69 -2 76 -3 3 -7 0 -9 -7z"/>
<path d="M11589 4983 c-8 -10 -9 -14 -2 -10 8 5 13 -3 16 -25 3 -29 4 -28 5
10 2 47 0 49 -19 25z"/>
<path d="M11371 4948 c2 -28 2 -29 6 -8 3 14 10 28 17 32 7 5 5 8 -6 8 -14 0
-18 -8 -17 -32z"/>
<path d="M11411 4950 c0 -29 1 -32 10 -17 7 11 7 23 0 35 -9 14 -10 11 -10
-18z"/>
<path d="M11430 4970 c0 -5 7 -7 15 -4 11 4 15 0 15 -16 0 -16 -4 -20 -15 -16
-8 3 -15 1 -15 -4 0 -6 8 -10 18 -11 15 0 14 -2 -3 -10 l-20 -9 20 3 c15 2 21
11 23 40 3 32 0 37 -17 37 -12 0 -21 -4 -21 -10z"/>
<path d="M8896 4928 c3 -4 12 -8 20 -8 8 0 14 4 14 8 0 4 -9 8 -19 8 -11 0
-17 -4 -15 -8z"/>
<path d="M4849 4603 c-8 -10 -9 -14 -2 -10 8 5 13 -3 16 -25 3 -29 4 -28 5 10
2 47 0 49 -19 25z"/>
<path d="M1150 4350 l0 -200 200 0 200 0 0 200 0 200 -200 0 -200 0 0 -200z
m380 0 l0 -180 -180 0 -180 0 0 180 0 180 180 0 180 0 0 -180z"/>
<path d="M1301 4436 c-87 -48 -50 -186 49 -186 51 0 100 49 100 99 0 75 -83
124 -149 87z"/>
<path d="M3726 4471 c12 -10 1143 -313 1154 -309 8 2 -390 111 -1039 284 -69
19 -120 30 -115 25z"/>
<path d="M3782 4340 c1 -28 3 -34 5 -17 2 15 8 27 13 27 5 0 11 -12 13 -27 4
-26 4 -26 6 5 1 22 -4 32 -13 32 -8 0 -17 6 -19 13 -3 6 -5 -8 -5 -33z"/>
<path d="M3838 4370 c-2 -7 -2 -26 0 -42 4 -26 8 -28 46 -27 32 1 36 3 17 8
-21 6 -22 8 -7 20 20 17 21 51 2 51 -8 0 -18 -4 -21 -10 -3 -6 1 -7 9 -4 22 9
20 -19 -2 -39 -26 -24 -35 -21 -30 7 6 28 -7 57 -14 36z"/>
<path d="M3661 4328 c2 -28 2 -29 6 -8 3 14 10 28 17 32 7 5 5 8 -6 8 -14 0
-18 -8 -17 -32z"/>
<path d="M3701 4330 c0 -29 1 -32 10 -17 7 11 7 23 0 35 -9 14 -10 11 -10 -18z"/>
<path d="M3720 4350 c0 -5 7 -7 15 -4 11 4 15 0 15 -16 0 -16 -4 -20 -15 -16
-8 3 -15 1 -15 -4 0 -6 8 -10 18 -11 15 0 14 -2 -3 -10 l-20 -9 20 3 c15 2 21
11 23 40 3 32 0 37 -17 37 -12 0 -21 -4 -21 -10z"/>
<path d="M6226 4211 c12 -11 914 -295 919 -289 2 2 -172 60 -388 128 -545 172
-542 171 -531 161z"/>
<path d="M6282 4080 c1 -28 3 -34 5 -17 2 15 8 27 13 27 5 0 11 -12 13 -27 4
-26 4 -26 6 5 1 22 -4 32 -13 32 -8 0 -17 6 -19 13 -3 6 -5 -8 -5 -33z"/>
<path d="M6338 4109 c-6 -17 3 -69 11 -69 7 0 6 69 -2 76 -3 3 -7 0 -9 -7z"/>
<path d="M6379 4103 c-8 -10 -9 -14 -2 -10 8 5 13 -3 16 -25 3 -29 4 -28 5 10
2 47 0 49 -19 25z"/>
<path d="M6961 4071 c-1 -38 1 -42 12 -29 6 9 22 18 34 20 17 2 20 7 13 18 -8
12 -13 13 -29 3 -17 -11 -20 -9 -24 10 -2 12 -5 2 -6 -22z"/>
<path d="M7038 4098 c-2 -7 -1 -26 3 -43 l7 -30 1 28 c1 34 21 36 21 2 0 -14
3 -25 8 -25 9 0 7 68 -2 77 -3 4 -6 1 -6 -5 0 -7 -5 -12 -11 -12 -5 0 -7 5 -4
10 3 6 2 10 -3 10 -6 0 -12 -6 -14 -12z"/>
<path d="M7109 4093 c-8 -10 -9 -14 -2 -10 8 5 13 -3 16 -25 3 -29 4 -28 5 10
2 47 0 49 -19 25z"/>
<path d="M8542 4070 c1 -28 3 -34 5 -17 2 15 8 27 13 27 5 0 11 -12 13 -27 4
-26 4 -26 6 5 1 22 -4 32 -13 32 -8 0 -17 6 -19 13 -3 6 -5 -8 -5 -33z"/>
<path d="M8598 4099 c-6 -17 3 -69 11 -69 7 0 6 69 -2 76 -3 3 -7 0 -9 -7z"/>
<path d="M8639 4093 c-8 -10 -9 -14 -2 -10 8 5 13 -3 16 -25 3 -29 4 -28 5 10
2 47 0 49 -19 25z"/>
<path d="M6161 4068 c2 -28 2 -29 6 -8 3 14 10 28 17 32 7 5 5 8 -6 8 -14 0
-18 -8 -17 -32z"/>
<path d="M6201 4070 c0 -29 1 -32 10 -17 7 11 7 23 0 35 -9 14 -10 11 -10 -18z"/>
<path d="M6220 4090 c0 -5 7 -7 15 -4 11 4 15 0 15 -16 0 -16 -4 -20 -15 -16
-8 3 -15 1 -15 -4 0 -6 8 -10 18 -11 15 0 14 -2 -3 -10 l-20 -9 20 3 c15 2 21
11 23 40 3 32 0 37 -17 37 -12 0 -21 -4 -21 -10z"/>
<path d="M1261 4051 c-1 -38 1 -42 12 -29 6 9 22 18 34 20 17 2 20 7 13 18 -8
12 -13 13 -29 3 -17 -11 -20 -9 -24 10 -2 12 -5 2 -6 -22z"/>
<path d="M1338 4078 c-2 -7 -1 -26 3 -43 l7 -30 1 28 c1 34 21 36 21 2 0 -23
4 -25 43 -24 32 1 36 3 18 8 -21 6 -22 8 -7 20 20 17 21 51 2 51 -8 0 -18 -4
-21 -10 -3 -6 1 -7 9 -4 22 9 20 -19 -2 -39 -26 -24 -35 -21 -30 7 3 14 1 31
-3 38 -7 10 -9 10 -9 1 0 -7 -5 -13 -11 -13 -5 0 -7 5 -4 10 3 6 2 10 -3 10
-6 0 -12 -6 -14 -12z"/>
<path d="M8421 4058 c2 -28 2 -29 6 -8 3 14 10 28 17 32 7 5 5 8 -6 8 -14 0
-18 -8 -17 -32z"/>
<path d="M6986 4038 c3 -4 12 -8 20 -8 8 0 14 4 14 8 0 4 -9 8 -19 8 -11 0
-17 -4 -15 -8z"/>
<path d="M1286 4018 c3 -4 12 -8 20 -8 8 0 14 4 14 8 0 4 -9 8 -19 8 -11 0
-17 -4 -15 -8z"/>
<path d="M4701 3981 c-1 -38 1 -42 12 -29 6 9 22 18 34 20 17 2 20 7 13 18 -8
12 -13 13 -29 3 -17 -11 -20 -9 -24 10 -2 12 -5 2 -6 -22z"/>
<path d="M4778 4008 c-2 -7 -1 -26 3 -43 l7 -30 1 28 c1 34 21 36 21 2 0 -23
4 -25 43 -24 32 1 36 3 18 8 -21 6 -22 8 -7 20 20 17 21 51 2 51 -8 0 -18 -4
-21 -10 -3 -6 1 -7 9 -4 22 9 20 -19 -2 -39 -26 -24 -35 -21 -30 7 3 14 1 31
-3 38 -7 10 -9 10 -9 1 0 -7 -5 -13 -11 -13 -5 0 -7 5 -4 10 3 6 2 10 -3 10
-6 0 -12 -6 -14 -12z"/>
<path d="M4726 3948 c3 -4 12 -8 20 -8 8 0 14 4 14 8 0 4 -9 8 -19 8 -11 0
-17 -4 -15 -8z"/>
<path d="M4701 3731 c-1 -38 1 -42 12 -29 6 9 22 18 34 20 17 2 20 7 13 18 -8
12 -13 13 -29 3 -17 -11 -20 -9 -24 10 -2 12 -5 2 -6 -22z"/>
<path d="M4778 3758 c-2 -7 -1 -26 3 -43 l7 -30 1 28 c1 34 21 36 21 2 0 -14
3 -25 8 -25 9 0 7 68 -2 77 -3 4 -6 1 -6 -5 0 -7 -5 -12 -11 -12 -5 0 -7 5 -4
10 3 6 2 10 -3 10 -6 0 -12 -6 -14 -12z"/>
<path d="M4840 3761 c0 -6 8 -7 17 -4 12 5 15 2 10 -10 -3 -9 -2 -19 4 -22 14
-9 -1 -27 -17 -21 -8 3 -14 1 -14 -4 0 -14 26 -12 37 3 14 17 0 61 -20 65 -9
2 -17 -1 -17 -7z"/>
<path d="M4726 3698 c3 -4 12 -8 20 -8 8 0 14 4 14 8 0 4 -9 8 -19 8 -11 0
-17 -4 -15 -8z"/>
<path d="M1150 3330 l0 -200 200 0 200 0 0 200 0 200 -200 0 -200 0 0 -200z
m380 0 l0 -180 -180 0 -180 0 0 180 0 180 180 0 180 0 0 -180z"/>
<path d="M1301 3416 c-87 -48 -50 -186 49 -186 51 0 100 49 100 99 0 75 -83
124 -149 87z"/>
<path d="M6961 3381 c-1 -38 1 -42 12 -29 6 9 22 18 34 20 17 2 20 7 13 18 -8
12 -13 13 -29 3 -17 -11 -20 -9 -24 10 -2 12 -5 2 -6 -22z"/>
<path d="M7038 3408 c-2 -7 -1 -26 3 -43 l7 -30 1 28 c1 34 21 36 21 2 0 -23
4 -25 43 -24 32 1 36 3 18 8 -21 6 -22 8 -7 20 20 17 21 51 2 51 -8 0 -18 -4
-21 -10 -3 -6 1 -7 9 -4 22 9 20 -19 -2 -39 -26 -24 -35 -21 -30 7 3 14 1 31
-3 38 -7 10 -9 10 -9 1 0 -7 -5 -13 -11 -13 -5 0 -7 5 -4 10 3 6 2 10 -3 10
-6 0 -12 -6 -14 -12z"/>
<path d="M6986 3348 c3 -4 12 -8 20 -8 8 0 14 4 14 8 0 4 -9 8 -19 8 -11 0
-17 -4 -15 -8z"/>
<path d="M1261 3031 c-1 -38 1 -42 12 -29 6 9 22 18 34 20 17 2 20 7 13 18 -8
12 -13 13 -29 3 -17 -11 -20 -9 -24 10 -2 12 -5 2 -6 -22z"/>
<path d="M1338 3058 c-2 -7 -1 -26 3 -43 l7 -30 1 28 c1 34 21 36 21 2 0 -14
3 -25 8 -25 9 0 7 68 -2 77 -3 4 -6 1 -6 -5 0 -7 -5 -12 -11 -12 -5 0 -7 5 -4
10 3 6 2 10 -3 10 -6 0 -12 -6 -14 -12z"/>
<path d="M1400 3061 c0 -6 8 -7 17 -4 12 5 15 2 10 -10 -3 -9 -2 -19 4 -22 14
-9 -1 -27 -17 -21 -8 3 -14 1 -14 -4 0 -14 26 -12 37 3 14 17 0 61 -20 65 -9
2 -17 -1 -17 -7z"/>
<path d="M1286 2998 c3 -4 12 -8 20 -8 8 0 14 4 14 8 0 4 -9 8 -19 8 -11 0
-17 -4 -15 -8z"/>
<path d="M1150 2490 l0 -200 200 0 200 0 0 200 0 200 -200 0 -200 0 0 -200z
m380 0 l0 -180 -180 0 -180 0 0 180 0 180 180 0 180 0 0 -180z"/>
<path d="M1301 2576 c-87 -48 -50 -186 49 -186 51 0 100 49 100 99 0 75 -83
124 -149 87z"/>
<path d="M7080 2210 l0 -200 200 0 200 0 0 200 0 200 -200 0 -200 0 0 -200z
m380 0 l0 -180 -180 0 -180 0 0 180 0 180 180 0 180 0 0 -180z"/>
<path d="M7231 2296 c-87 -48 -50 -186 49 -186 51 0 100 49 100 99 0 75 -83
124 -149 87z"/>
<path d="M10310 2306 l0 -104 -32 -5 c-18 -3 -112 -14 -208 -24 -96 -9 -167
-19 -157 -21 16 -3 226 17 355 34 l42 5 0 -90 0 -91 200 0 200 0 0 200 0 200
-200 0 -200 0 0 -104z m249 -10 c67 -35 65 -143 -4 -174 -51 -23 -107 -7 -131
39 -47 91 44 182 135 135z"/>
<path d="M8081 2301 c-1 -38 1 -42 12 -29 6 9 22 18 34 20 17 2 20 7 13 18 -8
12 -13 13 -29 3 -17 -11 -20 -9 -24 10 -2 12 -5 2 -6 -22z"/>
<path d="M8158 2328 c-2 -7 -1 -26 3 -43 l7 -30 1 28 c1 34 21 36 21 2 0 -14
3 -25 8 -25 9 0 7 68 -2 77 -3 4 -6 1 -6 -5 0 -7 -5 -12 -11 -12 -5 0 -7 5 -4
10 3 6 2 10 -3 10 -6 0 -12 -6 -14 -12z"/>
<path d="M8229 2323 c-8 -10 -9 -14 -2 -10 8 5 13 -3 16 -25 3 -29 4 -28 5 10
2 47 0 49 -19 25z"/>
<path d="M9732 2300 c1 -28 3 -34 5 -17 2 15 8 27 13 27 5 0 11 -12 13 -27 4
-26 4 -26 6 5 1 22 -4 32 -13 32 -8 0 -17 6 -19 13 -3 6 -5 -8 -5 -33z"/>
<path d="M9788 2329 c-6 -17 3 -69 11 -69 7 0 6 69 -2 76 -3 3 -7 0 -9 -7z"/>
<path d="M9829 2323 c-8 -10 -9 -14 -2 -10 8 5 13 -3 16 -25 3 -29 4 -28 5 10
2 47 0 49 -19 25z"/>
<path d="M9611 2288 c2 -28 2 -29 6 -8 3 14 10 28 17 32 7 5 5 8 -6 8 -14 0
-18 -8 -17 -32z"/>
<path d="M9651 2290 c0 -29 1 -32 10 -17 7 11 7 23 0 35 -9 14 -10 11 -10 -18z"/>
<path d="M9670 2310 c0 -5 7 -7 15 -4 11 4 15 0 15 -16 0 -16 -4 -20 -15 -16
-8 3 -15 1 -15 -4 0 -6 8 -10 18 -11 15 0 14 -2 -3 -10 l-20 -9 20 3 c15 2 21
11 23 40 3 32 0 37 -17 37 -12 0 -21 -4 -21 -10z"/>
<path d="M3710 2180 l0 -120 -45 0 -45 0 0 -45 0 -45 -202 -3 -203 -2 203 -3
202 -2 0 -40 0 -40 45 0 45 0 0 -190 0 -190 645 0 645 0 0 150 0 150 45 0 45
0 0 90 0 90 -45 0 -45 0 0 160 0 160 -645 0 -645 0 0 -120z m1280 -45 l0 -155
-40 0 -40 0 0 -90 0 -90 40 0 40 0 0 -145 0 -145 -635 0 -635 0 0 185 0 185
40 0 40 0 0 90 0 90 -40 0 -40 0 0 115 0 115 635 0 635 0 0 -155z m90 -245 l0
-80 -80 0 -80 0 0 80 0 80 80 0 80 0 0 -80z"/>
<path d="M4200 1990 c0 -5 -7 -10 -15 -10 -8 0 -15 -6 -15 -12 0 -9 -4 -8 -10
2 -7 11 -10 6 -10 -20 0 -26 3 -31 10 -20 6 10 10 11 10 3 0 -7 9 -13 20 -13
17 0 20 7 20 40 0 22 -2 40 -5 40 -3 0 -5 -4 -5 -10z m0 -40 c0 -11 -4 -20
-10 -20 -5 0 -10 9 -10 20 0 11 5 20 10 20 6 0 10 -9 10 -20z"/>
<path d="M4157 1873 c-9 -9 -9 -81 1 -86 4 -3 7 17 7 44 0 27 0 49 -1 49 0 0
-4 -3 -7 -7z"/>
<path d="M4193 1840 c0 -25 2 -35 4 -22 2 12 2 32 0 45 -2 12 -4 2 -4 -23z"/>
<path d="M4250 1870 c0 -5 -6 -10 -14 -10 -8 0 -16 -7 -20 -15 -8 -23 4 -45
25 -45 15 0 19 7 19 40 0 22 -2 40 -5 40 -3 0 -5 -4 -5 -10z m0 -40 c0 -11 -4
-20 -10 -20 -5 0 -10 9 -10 20 0 11 5 20 10 20 6 0 10 -9 10 -20z"/>
<path d="M4398 1869 c-6 -17 3 -69 11 -69 7 0 6 69 -2 76 -3 3 -7 0 -9 -7z"/>
<path d="M4443 1864 c-7 -7 -12 -26 -12 -41 l1 -28 8 30 8 30 1 -27 c0 -16 5
-28 10 -28 4 0 6 11 3 25 -2 14 0 25 6 25 12 0 25 -47 17 -60 -4 -6 -4 -10 -1
-10 8 0 36 56 36 71 0 7 -7 4 -15 -7 -13 -17 -14 -17 -15 -1 0 9 -6 17 -14 17
-8 0 -16 4 -18 9 -1 5 -9 3 -15 -5z"/>
<path d="M4545 1830 c0 -26 3 -43 7 -37 4 7 8 23 8 37 0 14 -4 30 -8 37 -4 6
-7 -11 -7 -37z"/>
<path d="M4277 1846 c-14 -35 30 -66 49 -35 4 8 0 9 -15 4 -12 -4 -21 -2 -21
4 0 6 9 11 21 11 26 0 20 24 -8 28 -11 2 -23 -4 -26 -12z"/>
<path d="M4341 1828 c2 -31 2 -31 6 -5 2 15 8 27 13 27 5 0 11 -12 13 -27 4
-26 4 -26 6 5 1 26 -3 32 -19 32 -16 0 -20 -6 -19 -32z"/>
<path d="M8370 2260 l0 -40 -45 0 -45 0 0 -90 0 -90 45 0 45 0 0 -100 0 -100
-45 0 -45 0 0 -50 c0 -27 -1 -50 -2 -50 -47 -6 -767 -138 -754 -139 16 -1 668
110 734 124 20 5 22 2 22 -30 0 -35 0 -35 45 -35 l45 0 0 -80 0 -80 600 0 600
0 0 80 0 80 45 0 45 0 0 90 0 90 -45 0 -45 0 0 100 0 100 45 0 45 0 0 90 0 90
-45 0 -45 0 0 40 0 40 -600 0 -600 0 0 -40z m1190 -5 c0 -34 -1 -35 -40 -35
l-40 0 0 -90 0 -90 40 0 40 0 0 -100 0 -100 -40 0 -40 0 0 -90 0 -90 40 0 40
0 0 -75 0 -75 -590 0 -590 0 0 75 0 75 40 0 40 0 0 90 0 90 -40 0 -40 0 0 100
0 100 40 0 40 0 0 90 0 90 -40 0 c-39 0 -40 1 -40 35 l0 35 590 0 590 0 0 -35z
m90 -125 l0 -80 -80 0 -80 0 0 80 0 80 80 0 80 0 0 -80z m0 -380 l0 -80 -80 0
-80 0 0 80 0 80 80 0 80 0 0 -80z"/>
<path d="M8808 1989 c-6 -18 3 -69 12 -69 4 0 5 12 2 26 -3 19 -1 25 7 20 6
-4 11 -16 11 -27 0 -21 16 -26 23 -6 4 9 8 8 16 -3 8 -12 12 -9 20 13 15 38
13 46 -4 23 -13 -17 -15 -18 -15 -3 0 9 -4 17 -10 17 -5 0 -10 -7 -10 -16 0
-11 -7 -8 -24 11 -15 16 -26 21 -28 14z"/>
<path d="M8998 1989 c-6 -17 3 -69 11 -69 7 0 6 69 -2 76 -3 3 -7 0 -9 -7z"/>
<path d="M8920 1951 c0 -23 5 -27 30 -29 28 -2 30 0 27 25 -3 22 -9 28 -30 29
-23 1 -27 -3 -27 -25z m47 -17 c-7 -7 -37 7 -37 17 0 6 9 5 21 -1 11 -7 19
-14 16 -16z"/>
<path d="M8817 1873 c-9 -9 -9 -81 1 -86 4 -3 7 17 7 44 0 27 0 49 -1 49 0 0
-4 -3 -7 -7z"/>
<path d="M8852 1873 c11 -3 18 -17 21 -41 l4 -37 1 37 c1 25 7 38 20 41 9 3
-1 5 -23 5 -22 0 -32 -2 -23 -5z"/>
<path d="M9078 1869 c-6 -17 3 -69 11 -69 7 0 6 69 -2 76 -3 3 -7 0 -9 -7z"/>
<path d="M9115 1830 c0 -26 3 -43 7 -37 4 7 8 23 8 37 0 14 -4 30 -8 37 -4 6
-7 -11 -7 -37z"/>
<path d="M8916 1835 c9 -38 13 -43 25 -25 8 13 10 13 18 0 8 -11 12 -9 20 13
15 38 13 46 -4 23 -13 -17 -15 -18 -15 -3 0 9 -4 17 -10 17 -5 0 -10 -8 -10
-17 0 -15 -2 -14 -15 3 -14 18 -15 17 -9 -11z"/>
<path d="M9000 1831 c0 -23 5 -27 30 -29 28 -2 30 0 27 25 -3 22 -9 28 -30 29
-23 1 -27 -3 -27 -25z m47 -17 c-7 -7 -37 7 -37 17 0 6 9 5 21 -1 11 -7 19
-14 16 -16z"/>
<path d="M8106 2268 c3 -4 12 -8 20 -8 8 0 14 4 14 8 0 4 -9 8 -19 8 -11 0
-17 -4 -15 -8z"/>
<path d="M1261 2191 c-1 -38 1 -42 12 -29 6 9 22 18 34 20 17 2 20 7 13 18 -8
12 -13 13 -29 3 -17 -11 -20 -9 -24 10 -2 12 -5 2 -6 -22z"/>
<path d="M1338 2218 c-2 -7 -1 -26 3 -43 l7 -30 1 28 c1 34 21 36 21 2 0 -14
3 -25 8 -25 9 0 7 68 -2 77 -3 4 -6 1 -6 -5 0 -7 -5 -12 -11 -12 -5 0 -7 5 -4
10 3 6 2 10 -3 10 -6 0 -12 -6 -14 -12z"/>
<path d="M1411 2208 c-13 -21 -13 -22 2 -9 15 11 17 11 17 -2 0 -9 -10 -18
-22 -20 l-23 -4 23 -2 c12 0 22 -7 22 -13 0 -10 2 -10 8 0 9 14 4 72 -7 72 -3
0 -12 -10 -20 -22z"/>
<path d="M7492 2195 c7 -7 646 -65 703 -64 22 1 -99 14 -270 29 -170 15 -339
31 -375 34 -35 4 -62 4 -58 1z"/>
<path d="M3421 2141 c-1 -38 1 -42 12 -29 6 9 22 18 34 20 17 2 20 7 13 18 -8
12 -13 13 -29 3 -17 -11 -20 -9 -24 10 -2 12 -5 2 -6 -22z"/>
<path d="M3498 2168 c-2 -7 -1 -26 3 -43 l7 -30 1 28 c1 34 21 36 21 2 0 -14
3 -25 8 -25 9 0 7 68 -2 77 -3 4 -6 1 -6 -5 0 -7 -5 -12 -11 -12 -5 0 -7 5 -4
10 3 6 2 10 -3 10 -6 0 -12 -6 -14 -12z"/>
<path d="M3569 2163 c-8 -10 -9 -14 -2 -10 8 5 13 -3 16 -25 3 -29 4 -28 5 10
2 47 0 49 -19 25z"/>
<path d="M1286 2158 c3 -4 12 -8 20 -8 8 0 14 4 14 8 0 4 -9 8 -19 8 -11 0
-17 -4 -15 -8z"/>
<path d="M2810 1960 l0 -200 200 0 200 0 0 200 0 200 -200 0 -200 0 0 -200z
m380 0 l0 -180 -180 0 -180 0 0 180 0 180 180 0 180 0 0 -180z"/>
<path d="M2961 2046 c-87 -48 -50 -186 49 -186 51 0 100 49 100 99 0 75 -83
124 -149 87z"/>
<path d="M9755 2140 c-48 -7 -48 -7 -10 -7 22 -1 65 2 95 7 54 7 54 7 10 7
-25 0 -67 -3 -95 -7z"/>
<path d="M3446 2108 c3 -4 12 -8 20 -8 8 0 14 4 14 8 0 4 -9 8 -19 8 -11 0
-17 -4 -15 -8z"/>
<path d="M5750 2000 l0 -100 -327 -3 -328 -2 328 -3 327 -2 0 -95 0 -95 200 0
200 0 0 200 0 200 -200 0 -200 0 0 -100z m249 -14 c67 -35 65 -143 -4 -174
-51 -23 -107 -7 -131 39 -47 91 44 182 135 135z"/>
<path d="M7168 1939 c-6 -17 3 -69 11 -69 7 0 6 69 -2 76 -3 3 -7 0 -9 -7z"/>
<path d="M7318 1940 c-2 -7 -2 -26 0 -42 4 -26 8 -28 46 -27 32 1 36 3 17 8
-21 6 -22 8 -7 20 20 17 21 51 2 51 -8 0 -18 -4 -21 -10 -3 -6 1 -7 9 -4 22 9
20 -19 -2 -39 -26 -24 -35 -21 -30 7 6 28 -7 57 -14 36z"/>
<path d="M10398 1939 c-6 -17 3 -69 11 -69 7 0 6 69 -2 76 -3 3 -7 0 -9 -7z"/>
<path d="M10548 1939 c-6 -17 3 -69 11 -69 7 0 6 69 -2 76 -3 3 -7 0 -9 -7z"/>
<path d="M10591 1928 c-13 -21 -13 -22 2 -9 15 11 17 11 17 -2 0 -9 -10 -18
-22 -20 l-23 -4 23 -2 c12 0 22 -7 22 -13 0 -10 2 -10 8 0 9 14 4 72 -7 72 -3
0 -12 -10 -20 -22z"/>
<path d="M7200 1915 c-10 -12 -10 -18 0 -30 14 -17 40 -20 40 -5 0 5 -6 7 -14
4 -8 -3 -17 -1 -21 5 -4 7 4 11 19 11 18 0 24 4 20 15 -4 8 -12 15 -19 15 -7
0 -18 -7 -25 -15z"/>
<path d="M7260 1916 c0 -8 8 -17 18 -21 16 -7 15 -8 -3 -15 -16 -7 -17 -9 -3
-9 26 -1 32 19 12 35 -18 15 -18 15 -1 10 11 -3 16 -2 12 4 -9 15 -35 12 -35
-4z"/>
<path d="M10430 1915 c-10 -12 -10 -18 0 -30 14 -17 40 -20 40 -5 0 5 -6 7
-14 4 -8 -3 -17 -1 -21 5 -4 7 4 11 19 11 18 0 24 4 20 15 -4 8 -12 15 -19 15
-7 0 -18 -7 -25 -15z"/>
<path d="M10490 1916 c0 -8 8 -17 18 -21 16 -7 15 -8 -3 -15 -16 -7 -17 -9 -3
-9 26 -1 32 19 12 35 -18 15 -18 15 -1 10 11 -3 16 -2 12 4 -9 15 -35 12 -35
-4z"/>
<path d="M5162 1730 c1 -28 3 -34 5 -17 2 15 8 27 13 27 5 0 11 -12 13 -27 4
-26 4 -26 6 5 1 22 -4 32 -13 32 -8 0 -17 6 -19 13 -3 6 -5 -8 -5 -33z"/>
<path d="M5218 1759 c-6 -17 3 -69 11 -69 7 0 6 69 -2 76 -3 3 -7 0 -9 -7z"/>
<path d="M5259 1753 c-8 -10 -9 -14 -2 -10 8 5 13 -3 16 -25 3 -29 4 -28 5 10
2 47 0 49 -19 25z"/>
<path d="M7080 1570 l0 -200 200 0 200 0 0 200 0 200 -200 0 -200 0 0 -200z
m380 0 l0 -180 -180 0 -180 0 0 180 0 180 180 0 180 0 0 -180z"/>
<path d="M7231 1656 c-87 -48 -50 -186 49 -186 51 0 100 49 100 99 0 75 -83
124 -149 87z"/>
<path d="M10310 1570 l0 -200 200 0 200 0 0 200 0 200 -200 0 -200 0 0 -200z
m249 86 c67 -35 65 -143 -4 -174 -51 -23 -107 -7 -131 39 -47 91 44 182 135
135z"/>
<path d="M5041 1718 c2 -28 2 -29 6 -8 3 14 10 28 17 32 7 5 5 8 -6 8 -14 0
-18 -8 -17 -32z"/>
<path d="M5081 1720 c0 -29 1 -32 10 -17 7 11 7 23 0 35 -9 14 -10 11 -10 -18z"/>
<path d="M5100 1740 c0 -5 7 -7 15 -4 11 4 15 0 15 -16 0 -16 -4 -20 -15 -16
-8 3 -15 1 -15 -4 0 -6 8 -10 18 -11 15 0 14 -2 -3 -10 l-20 -9 20 3 c15 2 21
11 23 40 3 32 0 37 -17 37 -12 0 -21 -4 -21 -10z"/>
<path d="M9685 1730 c25 -12 583 -132 597 -128 5 2 -125 32 -289 67 -164 35
-305 66 -313 68 -8 2 -6 -1 5 -7z"/>
<path d="M2898 1689 c-6 -17 3 -69 11 -69 7 0 6 69 -2 76 -3 3 -7 0 -9 -7z"/>
<path d="M3048 1689 c-6 -17 3 -69 11 -69 7 0 6 69 -2 76 -3 3 -7 0 -9 -7z"/>
<path d="M3080 1680 c-11 -21 2 -60 20 -60 5 0 14 9 20 20 11 21 -2 60 -20 60
-5 0 -14 -9 -20 -20z m34 -5 c6 -17 -2 -45 -14 -45 -4 0 -10 7 -14 15 -6 17 2
45 14 45 4 0 10 -7 14 -15z"/>
<path d="M2930 1665 c-10 -12 -10 -18 0 -30 14 -17 40 -20 40 -5 0 5 -6 7 -14
4 -8 -3 -17 -1 -21 5 -4 7 4 11 19 11 18 0 24 4 20 15 -4 8 -12 15 -19 15 -7
0 -18 -7 -25 -15z"/>
<path d="M2990 1666 c0 -8 8 -17 18 -21 16 -7 15 -8 -3 -15 -16 -7 -17 -9 -3
-9 26 -1 32 19 12 35 -18 15 -18 15 -1 10 11 -3 16 -2 12 4 -9 15 -35 12 -35
-4z"/>
<path d="M5838 1629 c-6 -17 3 -69 11 -69 7 0 6 69 -2 76 -3 3 -7 0 -9 -7z"/>
<path d="M5988 1629 c-6 -17 3 -69 11 -69 7 0 6 69 -2 76 -3 3 -7 0 -9 -7z"/>
<path d="M6029 1623 c-8 -10 -9 -14 -2 -10 8 5 13 -3 16 -25 3 -29 4 -28 5 10
2 47 0 49 -19 25z"/>
<path d="M8081 1591 c-1 -38 1 -42 12 -29 6 9 22 18 34 20 17 2 20 7 13 18 -8
12 -13 13 -29 3 -17 -11 -20 -9 -24 10 -2 12 -5 2 -6 -22z"/>
<path d="M8158 1618 c-2 -7 -1 -26 3 -43 l7 -30 1 28 c1 34 21 36 21 2 0 -23
4 -25 43 -24 32 1 36 3 18 8 -21 6 -22 8 -7 20 20 17 21 51 2 51 -8 0 -18 -4
-21 -10 -3 -6 1 -7 9 -4 22 9 20 -19 -2 -39 -26 -24 -35 -21 -30 7 3 14 1 31
-3 38 -7 10 -9 10 -9 1 0 -7 -5 -13 -11 -13 -5 0 -7 5 -4 10 3 6 2 10 -3 10
-6 0 -12 -6 -14 -12z"/>
<path d="M9732 1590 c1 -28 3 -34 5 -17 2 15 8 27 13 27 5 0 11 -12 13 -27 4
-26 4 -26 6 5 1 22 -4 32 -13 32 -8 0 -17 6 -19 13 -3 6 -5 -8 -5 -33z"/>
<path d="M9788 1620 c-2 -7 -2 -26 0 -42 4 -26 8 -28 46 -27 32 1 36 3 17 8
-21 6 -22 8 -7 20 20 17 21 51 2 51 -8 0 -18 -4 -21 -10 -3 -6 1 -7 9 -4 22 9
20 -19 -2 -39 -26 -24 -35 -21 -30 7 6 28 -7 57 -14 36z"/>
<path d="M5870 1605 c-10 -12 -10 -18 0 -30 14 -17 40 -20 40 -5 0 5 -6 7 -14
4 -8 -3 -17 -1 -21 5 -4 7 4 11 19 11 18 0 24 4 20 15 -4 8 -12 15 -19 15 -7
0 -18 -7 -25 -15z"/>
<path d="M5930 1606 c0 -8 8 -17 18 -21 16 -7 15 -8 -3 -15 -16 -7 -17 -9 -3
-9 26 -1 32 19 12 35 -18 15 -18 15 -1 10 11 -3 16 -2 12 4 -9 15 -35 12 -35
-4z"/>
<path d="M9611 1578 c2 -28 2 -29 6 -8 3 14 10 28 17 32 7 5 5 8 -6 8 -14 0
-18 -8 -17 -32z"/>
<path d="M9651 1580 c0 -29 1 -32 10 -17 7 11 7 23 0 35 -9 14 -10 11 -10 -18z"/>
<path d="M9670 1600 c0 -5 7 -7 15 -4 11 4 15 0 15 -16 0 -16 -4 -20 -15 -16
-8 3 -15 1 -15 -4 0 -6 8 -10 18 -11 15 0 14 -2 -3 -10 l-20 -9 20 3 c15 2 21
11 23 40 3 32 0 37 -17 37 -12 0 -21 -4 -21 -10z"/>
<path d="M8106 1558 c3 -4 12 -8 20 -8 8 0 14 4 14 8 0 4 -9 8 -19 8 -11 0
-17 -4 -15 -8z"/>
<path d="M7168 1299 c-6 -17 3 -69 11 -69 7 0 6 69 -2 76 -3 3 -7 0 -9 -7z"/>
<path d="M7318 1299 c-6 -17 3 -69 11 -69 7 0 6 69 -2 76 -3 3 -7 0 -9 -7z"/>
<path d="M7350 1301 c0 -6 8 -7 17 -4 12 5 15 2 10 -10 -3 -9 -2 -19 4 -22 14
-9 -1 -27 -17 -21 -8 3 -14 1 -14 -4 0 -14 26 -12 37 3 14 17 0 61 -20 65 -9
2 -17 -1 -17 -7z"/>
<path d="M10398 1299 c-6 -17 3 -69 11 -69 7 0 6 69 -2 76 -3 3 -7 0 -9 -7z"/>
<path d="M10548 1299 c-6 -17 3 -69 11 -69 7 0 6 69 -2 76 -3 3 -7 0 -9 -7z"/>
<path d="M10580 1291 c0 -12 7 -18 18 -17 9 0 17 -6 17 -14 0 -8 -8 -14 -17
-14 -10 1 -18 -2 -18 -7 0 -15 27 -10 41 7 11 14 10 19 -9 34 -20 17 -21 19
-5 23 14 4 13 5 -4 6 -16 1 -23 -5 -23 -18z"/>
<path d="M7200 1275 c-10 -12 -10 -18 0 -30 14 -17 40 -20 40 -5 0 5 -6 7 -14
4 -8 -3 -17 -1 -21 5 -4 7 4 11 19 11 18 0 24 4 20 15 -4 8 -12 15 -19 15 -7
0 -18 -7 -25 -15z"/>
<path d="M7260 1276 c0 -8 8 -17 18 -21 16 -7 15 -8 -3 -15 -16 -7 -17 -9 -3
-9 26 -1 32 19 12 35 -18 15 -18 15 -1 10 11 -3 16 -2 12 4 -9 15 -35 12 -35
-4z"/>
<path d="M10430 1275 c-10 -12 -10 -18 0 -30 14 -17 40 -20 40 -5 0 5 -6 7
-14 4 -8 -3 -17 -1 -21 5 -4 7 4 11 19 11 18 0 24 4 20 15 -4 8 -12 15 -19 15
-7 0 -18 -7 -25 -15z"/>
<path d="M10490 1276 c0 -8 8 -17 18 -21 16 -7 15 -8 -3 -15 -16 -7 -17 -9 -3
-9 26 -1 32 19 12 35 -18 15 -18 15 -1 10 11 -3 16 -2 12 4 -9 15 -35 12 -35
-4z"/>
</g>
</svg>
