<?xml version="1.0" encoding="UTF-8" standalone="no"?>
<?xml-stylesheet href="Xholon.css" type="text/css"?>
<!DOCTYPE svg PUBLIC "-//W3C//DTD SVG 1.1//EN"
 "http://www.w3.org/Graphics/SVG/1.1/DTD/svg11.dtd">
<!-- Generated by graphviz version 2.28.0 (20140111.2315)
 -->
<!-- Title: 0 Pages: 1 -->
<svg width="697pt" height="209pt"
 viewBox="0.00 0.00 697.00 208.80" xmlns="http://www.w3.org/2000/svg" xmlns:xlink="http://www.w3.org/1999/xlink">
<g id="SpringIdol" class="graph" transform="scale(1 1) rotate(0) translate(4 204.8)">
<title>0</title>
<polygon fill="white" stroke="none" points="-4,4 -4,-204.8 693,-204.8 693,4 -4,4"/>
<text text-anchor="middle" x="344.5" y="-8.2" font-family="arial" font-size="14.00">SpringIdol</text>
<g id="SpringIdol/Instruments" class="cluster"><title>cluster1</title>
<polygon fill="none" stroke="black" points="173,-32.8 173,-108.8 603,-108.8 603,-32.8 173,-32.8"/>
<text text-anchor="middle" x="388" y="-92.2" font-family="arial" font-size="14.00">Instruments</text>
</g>
<g id="SpringIdol/Performers" class="cluster"><title>cluster7</title>
<polygon fill="none" stroke="black" points="8,-116.8 8,-192.8 498,-192.8 498,-116.8 8,-116.8"/>
<text text-anchor="middle" x="253" y="-176.2" font-family="arial" font-size="14.00">Performers</text>
</g>
<g id="SpringIdol/Songs" class="cluster"><title>cluster11</title>
<polygon fill="none" stroke="black" points="611,-32.8 611,-108.8 681,-108.8 681,-32.8 611,-32.8"/>
<text text-anchor="middle" x="646" y="-92.2" font-family="arial" font-size="14.00">Songs</text>
</g>
<g id="SpringIdol/Poems" class="cluster"><title>cluster13</title>
<polygon fill="none" stroke="black" points="31,-32.8 31,-108.8 137,-108.8 137,-32.8 31,-32.8"/>
<text text-anchor="middle" x="84" y="-92.2" font-family="arial" font-size="14.00">Poems</text>
</g>
<!-- 2 -->
<g id="SpringIdol/Instruments/Cymbal" class="node"><title>2</title>
<polygon fill="#3b7fba" stroke="black" points="594.578,-76.8 531.422,-76.8 531.422,-40.8 594.578,-40.8 594.578,-76.8"/>
<text text-anchor="middle" x="563" y="-54.6" font-family="arial" font-size="14.00">Cymbal</text>
</g>
<!-- 3 -->
<g id="SpringIdol/Instruments/Guitar" class="node"><title>3</title>
<polygon fill="#3b7fba" stroke="black" points="513.085,-76.8 458.915,-76.8 458.915,-40.8 513.085,-40.8 513.085,-76.8"/>
<text text-anchor="middle" x="486" y="-54.6" font-family="arial" font-size="14.00">Guitar</text>
</g>
<!-- 4 -->
<g id="SpringIdol/Instruments/Harmonica" class="node"><title>4</title>
<polygon fill="#3b7fba" stroke="black" points="440.251,-76.8 357.749,-76.8 357.749,-40.8 440.251,-40.8 440.251,-76.8"/>
<text text-anchor="middle" x="399" y="-54.6" font-family="arial" font-size="14.00">Harmonica</text>
</g>
<!-- 5 -->
<g id="SpringIdol/Instruments/Piano" class="node"><title>5</title>
<polygon fill="#3b7fba" stroke="black" points="339,-76.8 285,-76.8 285,-40.8 339,-40.8 339,-76.8"/>
<text text-anchor="middle" x="312" y="-54.6" font-family="arial" font-size="14.00">Piano</text>
</g>
<!-- 6 -->
<g id="SpringIdol/Instruments/Saxophone" class="node"><title>6</title>
<polygon fill="#3b7fba" stroke="black" points="267.112,-76.8 180.888,-76.8 180.888,-40.8 267.112,-40.8 267.112,-76.8"/>
<text text-anchor="middle" x="224" y="-54.6" font-family="arial" font-size="14.00">Saxophone</text>
</g>
<!-- 8 -->
<g id="SpringIdol/Performers/OneManBand" class="node"><title>8</title>
<polygon fill="#3b7fba" stroke="black" points="489.954,-160.8 354.046,-160.8 354.046,-124.8 489.954,-124.8 489.954,-160.8"/>
<text text-anchor="middle" x="422" y="-138.6" font-family="arial" font-size="14.00">hank:OneManBand</text>
</g>
<!-- 9 -->
<g id="SpringIdol/Performers/PoeticJuggler" class="node"><title>9</title>
<polygon fill="#3b7fba" stroke="black" points="151.276,-160.8 16.7238,-160.8 16.7238,-124.8 151.276,-124.8 151.276,-160.8"/>
<text text-anchor="middle" x="84" y="-138.6" font-family="arial" font-size="14.00">duke:PoeticJuggler</text>
</g>
<!-- 14 -->
<g id="SpringIdol/Poems/Damoyselle" class="node"><title>14</title>
<polygon fill="#3b7fba" stroke="black" points="128.333,-76.8 39.6672,-76.8 39.6672,-40.8 128.333,-40.8 128.333,-76.8"/>
<text text-anchor="middle" x="84" y="-54.6" font-family="arial" font-size="14.00">Damoyselle</text>
</g>
<!-- 9&#45;&gt;14 -->
<g id="SpringIdol_edge1" class="edge"><title>9&#45;&gt;14</title>
<path fill="none" stroke="black" d="M84,-124.41C84,-113.574 84,-99.4012 84,-87.0913"/>
<polygon fill="black" stroke="black" points="84,-76.8838 88.5001,-86.8838 84,-81.8838 84.0001,-86.8838 84.0001,-86.8838 84.0001,-86.8838 84,-81.8838 79.5001,-86.8839 84,-76.8838 84,-76.8838"/>
</g>
<!-- 10 -->
<g id="SpringIdol/Performers/BaseSaxophonist" class="node"><title>10</title>
<polygon fill="#3b7fba" stroke="black" points="336.127,-160.8 169.873,-160.8 169.873,-124.8 336.127,-124.8 336.127,-160.8"/>
<text text-anchor="middle" x="253" y="-138.6" font-family="arial" font-size="14.00">kenny:BaseSaxophonist</text>
</g>
<!-- 10&#45;&gt;6 -->
<g id="SpringIdol_edge3" class="edge"><title>10&#45;&gt;6</title>
<path fill="none" stroke="black" d="M246.85,-124.41C242.94,-113.355 237.802,-98.8272 233.389,-86.3476"/>
<polygon fill="black" stroke="black" points="230.042,-76.8838 237.619,-84.8112 231.709,-81.5977 233.376,-86.3116 233.376,-86.3116 233.376,-86.3116 231.709,-81.5977 229.134,-87.8121 230.042,-76.8838 230.042,-76.8838"/>
</g>
<!-- 12 -->
<g id="SpringIdol/Songs/Song" class="node"><title>12</title>
<polygon fill="#3b7fba" stroke="black" points="673,-76.8 619,-76.8 619,-40.8 673,-40.8 673,-76.8"/>
<text text-anchor="middle" x="646" y="-54.6" font-family="arial" font-size="14.00">Song</text>
</g>
<!-- 10&#45;&gt;12 -->
<g id="SpringIdol_edge2" class="edge"><title>10&#45;&gt;12</title>
<path fill="none" stroke="black" d="M307.524,-124.724C319.742,-121.533 332.722,-118.63 345,-116.8 373.807,-112.507 580.962,-121.848 607,-108.8 617.165,-103.706 625.534,-94.5968 631.877,-85.603"/>
<polygon fill="black" stroke="black" points="637.331,-77.1502 635.69,-87.9928 634.62,-81.3517 631.909,-85.5531 631.909,-85.5531 631.909,-85.5531 634.62,-81.3517 628.128,-83.1135 637.331,-77.1502 637.331,-77.1502"/>
</g>
</g>
</svg>
