<?xml version="1.0" encoding="UTF-8"?>

<!DOCTYPE svg PUBLIC '-//W3C//DTD SVG 1.0//EN' 'http://www.w3.org/TR/2001/REC-SVG-20010904/DTD/svg10.dtd'>
<svg stroke-dasharray="none" shape-rendering="auto" xmlns="http://www.w3.org/2000/svg" font-family="&apos;Arial&apos;" text-rendering="auto" width="3.8541666666666665in" fill-opacity="1" color-interpolation="auto" color-rendering="auto" font-size="12" viewBox="25 20 370 242" fill="black" xmlns:xlink="http://www.w3.org/1999/xlink" stroke="black" image-rendering="auto" stroke-miterlimit="10" stroke-linecap="square" stroke-linejoin="miter" font-style="normal" stroke-width="1" height="2.5208333333333335in" stroke-dashoffset="0" font-weight="normal" stroke-opacity="1">
  <!--Generated by the Batik Graphics2D SVG Generator-->
  <defs id="genericDefs" />
  <g>
    <defs id="defs1">
      <clipPath clipPathUnits="userSpaceOnUse" id="clipPath1">
        <path d="M25 20 L395 20 L395 262 L25 262 L25 20 Z" />
      </clipPath>
    </defs>
    <g fill="white" stroke="white">
      <rect x="25" y="20" clip-path="url(#clipPath1)" width="370" height="242" stroke="none" />
    </g>
    <g fill="rgb(243,255,243)" text-rendering="optimizeLegibility" shape-rendering="geometricPrecision" stroke="rgb(243,255,243)">
      <rect x="35" y="35" clip-path="url(#clipPath1)" width="350" rx="5" ry="5" height="217" stroke="none" />
      <rect x="35" y="35" clip-path="url(#clipPath1)" fill="none" width="350" rx="5" ry="5" height="217" stroke="lime" />
      <path fill="black" d="M43.578125 67.7314453125 Q42.765625 66.7314453125 42.21875 65.3720703125 Q41.671875 64.0126953125 41.671875 62.5595703125 Q41.671875 61.2939453125 42.078125 60.1220703125 Q42.5625 58.7626953125 43.578125 57.4033203125 L44.265625 57.4033203125 Q43.609375 58.5283203125 43.40625 59.0126953125 Q43.078125 59.7470703125 42.890625 60.5595703125 Q42.65625 61.5595703125 42.65625 62.5751953125 Q42.65625 65.1533203125 44.265625 67.7314453125 L43.578125 67.7314453125 ZM45.859375 65.4189453125 L45.859375 57.5439453125 L49.359375 57.5439453125 Q50.40625 57.5439453125 50.953125 57.7548828125 Q51.5 57.9658203125 51.828125 58.5048828125 Q52.15625 59.0439453125 52.15625 59.7001953125 Q52.15625 60.5283203125 51.6171875 61.1064453125 Q51.078125 61.6845703125 49.9375 61.8408203125 Q50.359375 62.0283203125 50.5625 62.2314453125 Q51.03125 62.6533203125 51.4375 63.2783203125 L52.796875 65.4189453125 L51.5 65.4189453125 L50.453125 63.7783203125 Q50 63.0751953125 49.703125 62.7001953125 Q49.40625 62.3251953125 49.171875 62.1689453125 Q48.9375 62.0126953125 48.703125 61.9658203125 Q48.515625 61.9189453125 48.109375 61.9189453125 L46.90625 61.9189453125 L46.90625 65.4189453125 L45.859375 65.4189453125 ZM46.90625 61.0126953125 L49.140625 61.0126953125 Q49.859375 61.0126953125 50.265625 60.8720703125 Q50.671875 60.7314453125 50.875 60.4033203125 Q51.078125 60.0751953125 51.078125 59.7001953125 Q51.078125 59.1376953125 50.6796875 58.7783203125 Q50.28125 58.4189453125 49.40625 58.4189453125 L46.90625 58.4189453125 L46.90625 61.0126953125 ZM56.453125 63.3251953125 L57.390625 63.4501953125 Q57.25 64.4345703125 56.6015625 64.9892578125 Q55.953125 65.5439453125 55.03125 65.5439453125 Q53.859375 65.5439453125 53.1484375 64.7783203125 Q52.4375 64.0126953125 52.4375 62.5908203125 Q52.4375 61.6689453125 52.7421875 60.9736328125 Q53.046875 60.2783203125 53.671875 59.9345703125 Q54.296875 59.5908203125 55.03125 59.5908203125 Q55.953125 59.5908203125 56.546875 60.0595703125 Q57.140625 60.5283203125 57.3125 61.3876953125 L56.359375 61.5283203125 Q56.234375 60.9658203125 55.890625 60.6767578125 Q55.546875 60.3876953125 55.0625 60.3876953125 Q54.34375 60.3876953125 53.8828125 60.9111328125 Q53.421875 61.4345703125 53.421875 62.5595703125 Q53.421875 63.7158203125 53.859375 64.2314453125 Q54.296875 64.7470703125 55.015625 64.7470703125 Q55.578125 64.7470703125 55.9609375 64.4033203125 Q56.34375 64.0595703125 56.453125 63.3251953125 ZM58.34375 63.7158203125 L59.296875 63.5595703125 Q59.375 64.1376953125 59.7421875 64.4423828125 Q60.109375 64.7470703125 60.765625 64.7470703125 Q61.4375 64.7470703125 61.7578125 64.4814453125 Q62.078125 64.2158203125 62.078125 63.8408203125 Q62.078125 63.5126953125 61.796875 63.3251953125 Q61.59375 63.2001953125 60.8125 62.9970703125 Q59.75 62.7314453125 59.3359375 62.5361328125 Q58.921875 62.3408203125 58.7109375 61.9970703125 Q58.5 61.6533203125 58.5 61.2314453125 Q58.5 60.8408203125 58.671875 60.5205078125 Q58.84375 60.2001953125 59.15625 59.9814453125 Q59.375 59.8095703125 59.765625 59.7001953125 Q60.15625 59.5908203125 60.59375 59.5908203125 Q61.265625 59.5908203125 61.7734375 59.7783203125 Q62.28125 59.9658203125 62.5234375 60.3017578125 Q62.765625 60.6376953125 62.859375 61.1845703125 L61.921875 61.3095703125 Q61.84375 60.8720703125 61.5390625 60.6298828125 Q61.234375 60.3876953125 60.671875 60.3876953125 Q60 60.3876953125 59.71875 60.6064453125 Q59.4375 60.8251953125 59.4375 61.1220703125 Q59.4375 61.3095703125 59.546875 61.4501953125 Q59.671875 61.6064453125 59.921875 61.7158203125 Q60.0625 61.7626953125 60.78125 61.9658203125 Q61.796875 62.2314453125 62.203125 62.4033203125 Q62.609375 62.5751953125 62.84375 62.9111328125 Q63.078125 63.2470703125 63.078125 63.7470703125 Q63.078125 64.2314453125 62.796875 64.6533203125 Q62.515625 65.0751953125 61.984375 65.3095703125 Q61.453125 65.5439453125 60.78125 65.5439453125 Q59.671875 65.5439453125 59.0859375 65.0830078125 Q58.5 64.6220703125 58.34375 63.7158203125 ZM70.46875 62.6533203125 L71.515625 62.9189453125 Q71.1875 64.2001953125 70.3359375 64.8798828125 Q69.484375 65.5595703125 68.25 65.5595703125 Q66.96875 65.5595703125 66.171875 65.0361328125 Q65.375 64.5126953125 64.9609375 63.5283203125 Q64.546875 62.5439453125 64.546875 61.4189453125 Q64.546875 60.2001953125 65.015625 59.2783203125 Q65.484375 58.3564453125 66.3515625 57.8798828125 Q67.21875 57.4033203125 68.265625 57.4033203125 Q69.453125 57.4033203125 70.2578125 58.0048828125 Q71.0625 58.6064453125 71.375 59.7001953125 L70.34375 59.9501953125 Q70.078125 59.0908203125 69.5546875 58.7001953125 Q69.03125 58.3095703125 68.25 58.3095703125 Q67.328125 58.3095703125 66.71875 58.7392578125 Q66.109375 59.1689453125 65.8671875 59.9033203125 Q65.625 60.6376953125 65.625 61.4189453125 Q65.625 62.4189453125 65.9140625 63.1689453125 Q66.203125 63.9189453125 66.8203125 64.2939453125 Q67.4375 64.6689453125 68.15625 64.6689453125 Q69.03125 64.6689453125 69.640625 64.1611328125 Q70.25 63.6533203125 70.46875 62.6533203125 ZM71.703125 65.4189453125 L71.703125 57.5439453125 L72.671875 57.5439453125 L72.671875 65.4189453125 L71.703125 65.4189453125 ZM77.453125 64.7158203125 Q76.90625 65.1689453125 76.4140625 65.3564453125 Q75.921875 65.5439453125 75.34375 65.5439453125 Q74.40625 65.5439453125 73.8984375 65.0830078125 Q73.390625 64.6220703125 73.390625 63.9189453125 Q73.390625 63.4970703125 73.5859375 63.1533203125 Q73.78125 62.8095703125 74.0859375 62.5986328125 Q74.390625 62.3876953125 74.78125 62.2783203125 Q75.0625 62.2001953125 75.640625 62.1376953125 Q76.8125 61.9970703125 77.359375 61.7939453125 Q77.375 61.6064453125 77.375 61.5439453125 Q77.375 60.9501953125 77.09375 60.7158203125 Q76.734375 60.3876953125 76 60.3876953125 Q75.3125 60.3876953125 74.9921875 60.6220703125 Q74.671875 60.8564453125 74.515625 61.4658203125 L73.5625 61.3408203125 Q73.6875 60.7314453125 73.984375 60.3564453125 Q74.28125 59.9814453125 74.84375 59.7861328125 Q75.40625 59.5908203125 76.140625 59.5908203125 Q76.875 59.5908203125 77.328125 59.7626953125 Q77.78125 59.9345703125 77.9921875 60.1923828125 Q78.203125 60.4501953125 78.296875 60.8408203125 Q78.34375 61.0908203125 78.34375 61.7470703125 L78.34375 63.0283203125 Q78.34375 64.3720703125 78.40625 64.7314453125 Q78.46875 65.0908203125 78.65625 65.4189453125 L77.640625 65.4189453125 Q77.484375 65.1220703125 77.453125 64.7158203125 ZM77.359375 62.5595703125 Q76.84375 62.7783203125 75.78125 62.9189453125 Q75.1875 63.0126953125 74.9453125 63.1142578125 Q74.703125 63.2158203125 74.5625 63.4267578125 Q74.421875 63.6376953125 74.421875 63.8876953125 Q74.421875 64.2783203125 74.71875 64.5361328125 Q75.015625 64.7939453125 75.578125 64.7939453125 Q76.140625 64.7939453125 76.5703125 64.5439453125 Q77 64.2939453125 77.21875 63.8720703125 Q77.359375 63.5439453125 77.359375 62.9033203125 L77.359375 62.5595703125 ZM79.34375 63.7158203125 L80.296875 63.5595703125 Q80.375 64.1376953125 80.7421875 64.4423828125 Q81.109375 64.7470703125 81.765625 64.7470703125 Q82.4375 64.7470703125 82.7578125 64.4814453125 Q83.078125 64.2158203125 83.078125 63.8408203125 Q83.078125 63.5126953125 82.796875 63.3251953125 Q82.59375 63.2001953125 81.8125 62.9970703125 Q80.75 62.7314453125 80.3359375 62.5361328125 Q79.921875 62.3408203125 79.7109375 61.9970703125 Q79.5 61.6533203125 79.5 61.2314453125 Q79.5 60.8408203125 79.671875 60.5205078125 Q79.84375 60.2001953125 80.15625 59.9814453125 Q80.375 59.8095703125 80.765625 59.7001953125 Q81.15625 59.5908203125 81.59375 59.5908203125 Q82.265625 59.5908203125 82.7734375 59.7783203125 Q83.28125 59.9658203125 83.5234375 60.3017578125 Q83.765625 60.6376953125 83.859375 61.1845703125 L82.921875 61.3095703125 Q82.84375 60.8720703125 82.5390625 60.6298828125 Q82.234375 60.3876953125 81.671875 60.3876953125 Q81 60.3876953125 80.71875 60.6064453125 Q80.4375 60.8251953125 80.4375 61.1220703125 Q80.4375 61.3095703125 80.546875 61.4501953125 Q80.671875 61.6064453125 80.921875 61.7158203125 Q81.0625 61.7626953125 81.78125 61.9658203125 Q82.796875 62.2314453125 83.203125 62.4033203125 Q83.609375 62.5751953125 83.84375 62.9111328125 Q84.078125 63.2470703125 84.078125 63.7470703125 Q84.078125 64.2314453125 83.796875 64.6533203125 Q83.515625 65.0751953125 82.984375 65.3095703125 Q82.453125 65.5439453125 81.78125 65.5439453125 Q80.671875 65.5439453125 80.0859375 65.0830078125 Q79.5 64.6220703125 79.34375 63.7158203125 ZM85.34375 63.7158203125 L86.296875 63.5595703125 Q86.375 64.1376953125 86.7421875 64.4423828125 Q87.109375 64.7470703125 87.765625 64.7470703125 Q88.4375 64.7470703125 88.7578125 64.4814453125 Q89.078125 64.2158203125 89.078125 63.8408203125 Q89.078125 63.5126953125 88.796875 63.3251953125 Q88.59375 63.2001953125 87.8125 62.9970703125 Q86.75 62.7314453125 86.3359375 62.5361328125 Q85.921875 62.3408203125 85.7109375 61.9970703125 Q85.5 61.6533203125 85.5 61.2314453125 Q85.5 60.8408203125 85.671875 60.5205078125 Q85.84375 60.2001953125 86.15625 59.9814453125 Q86.375 59.8095703125 86.765625 59.7001953125 Q87.15625 59.5908203125 87.59375 59.5908203125 Q88.265625 59.5908203125 88.7734375 59.7783203125 Q89.28125 59.9658203125 89.5234375 60.3017578125 Q89.765625 60.6376953125 89.859375 61.1845703125 L88.921875 61.3095703125 Q88.84375 60.8720703125 88.5390625 60.6298828125 Q88.234375 60.3876953125 87.671875 60.3876953125 Q87 60.3876953125 86.71875 60.6064453125 Q86.4375 60.8251953125 86.4375 61.1220703125 Q86.4375 61.3095703125 86.546875 61.4501953125 Q86.671875 61.6064453125 86.921875 61.7158203125 Q87.0625 61.7626953125 87.78125 61.9658203125 Q88.796875 62.2314453125 89.203125 62.4033203125 Q89.609375 62.5751953125 89.84375 62.9111328125 Q90.078125 63.2470703125 90.078125 63.7470703125 Q90.078125 64.2314453125 89.796875 64.6533203125 Q89.515625 65.0751953125 88.984375 65.3095703125 Q88.453125 65.5439453125 87.78125 65.5439453125 Q86.671875 65.5439453125 86.0859375 65.0830078125 Q85.5 64.6220703125 85.34375 63.7158203125 ZM95.625 63.5751953125 L96.625 63.7001953125 Q96.390625 64.5751953125 95.75 65.0595703125 Q95.109375 65.5439453125 94.125 65.5439453125 Q92.875 65.5439453125 92.140625 64.7783203125 Q91.40625 64.0126953125 91.40625 62.6220703125 Q91.40625 61.1689453125 92.1484375 60.3798828125 Q92.890625 59.5908203125 94.0625 59.5908203125 Q95.21875 59.5908203125 95.9375 60.3642578125 Q96.65625 61.1376953125 96.65625 62.5595703125 Q96.65625 62.6376953125 96.65625 62.8095703125 L92.40625 62.8095703125 Q92.453125 63.7470703125 92.9296875 64.2470703125 Q93.40625 64.7470703125 94.125 64.7470703125 Q94.65625 64.7470703125 95.03125 64.4736328125 Q95.40625 64.2001953125 95.625 63.5751953125 ZM92.453125 62.0126953125 L95.640625 62.0126953125 Q95.578125 61.2939453125 95.28125 60.9345703125 Q94.8125 60.3876953125 94.078125 60.3876953125 Q93.40625 60.3876953125 92.953125 60.8330078125 Q92.5 61.2783203125 92.453125 62.0126953125 ZM97.34375 63.7158203125 L98.296875 63.5595703125 Q98.375 64.1376953125 98.7421875 64.4423828125 Q99.109375 64.7470703125 99.765625 64.7470703125 Q100.4375 64.7470703125 100.7578125 64.4814453125 Q101.078125 64.2158203125 101.078125 63.8408203125 Q101.078125 63.5126953125 100.796875 63.3251953125 Q100.59375 63.2001953125 99.8125 62.9970703125 Q98.75 62.7314453125 98.3359375 62.5361328125 Q97.921875 62.3408203125 97.7109375 61.9970703125 Q97.5 61.6533203125 97.5 61.2314453125 Q97.5 60.8408203125 97.671875 60.5205078125 Q97.84375 60.2001953125 98.15625 59.9814453125 Q98.375 59.8095703125 98.765625 59.7001953125 Q99.15625 59.5908203125 99.59375 59.5908203125 Q100.265625 59.5908203125 100.7734375 59.7783203125 Q101.28125 59.9658203125 101.5234375 60.3017578125 Q101.765625 60.6376953125 101.859375 61.1845703125 L100.921875 61.3095703125 Q100.84375 60.8720703125 100.5390625 60.6298828125 Q100.234375 60.3876953125 99.671875 60.3876953125 Q99 60.3876953125 98.71875 60.6064453125 Q98.4375 60.8251953125 98.4375 61.1220703125 Q98.4375 61.3095703125 98.546875 61.4501953125 Q98.671875 61.6064453125 98.921875 61.7158203125 Q99.0625 61.7626953125 99.78125 61.9658203125 Q100.796875 62.2314453125 101.203125 62.4033203125 Q101.609375 62.5751953125 101.84375 62.9111328125 Q102.078125 63.2470703125 102.078125 63.7470703125 Q102.078125 64.2314453125 101.796875 64.6533203125 Q101.515625 65.0751953125 100.984375 65.3095703125 Q100.453125 65.5439453125 99.78125 65.5439453125 Q98.671875 65.5439453125 98.0859375 65.0830078125 Q97.5 64.6220703125 97.34375 63.7158203125 ZM104 65.4189453125 L104 64.3251953125 L105.09375 64.3251953125 L105.09375 65.4189453125 L104 65.4189453125 ZM110.53125 62.3251953125 L110.53125 61.4033203125 L113.875 61.4033203125 L113.875 64.3251953125 Q113.09375 64.9345703125 112.28125 65.2470703125 Q111.46875 65.5595703125 110.609375 65.5595703125 Q109.453125 65.5595703125 108.5 65.0595703125 Q107.546875 64.5595703125 107.0625 63.6220703125 Q106.578125 62.6845703125 106.578125 61.5126953125 Q106.578125 60.3720703125 107.0625 59.3720703125 Q107.546875 58.3720703125 108.453125 57.8876953125 Q109.359375 57.4033203125 110.53125 57.4033203125 Q111.375 57.4033203125 112.0703125 57.6845703125 Q112.765625 57.9658203125 113.15625 58.4580078125 Q113.546875 58.9501953125 113.75 59.7470703125 L112.8125 59.9970703125 Q112.640625 59.4033203125 112.375 59.0595703125 Q112.109375 58.7158203125 111.6171875 58.5126953125 Q111.125 58.3095703125 110.53125 58.3095703125 Q109.8125 58.3095703125 109.296875 58.5205078125 Q108.78125 58.7314453125 108.4609375 59.0908203125 Q108.140625 59.4501953125 107.953125 59.8720703125 Q107.65625 60.6064453125 107.65625 61.4501953125 Q107.65625 62.5126953125 108.0234375 63.2158203125 Q108.390625 63.9189453125 109.078125 64.2626953125 Q109.765625 64.6064453125 110.546875 64.6064453125 Q111.21875 64.6064453125 111.8671875 64.3486328125 Q112.515625 64.0908203125 112.84375 63.7939453125 L112.84375 62.3251953125 L110.53125 62.3251953125 ZM114.703125 65.4189453125 L114.703125 57.5439453125 L115.671875 57.5439453125 L115.671875 65.4189453125 L114.703125 65.4189453125 ZM116.6875 67.6220703125 L116.578125 66.7158203125 Q116.890625 66.7939453125 117.125 66.7939453125 Q117.453125 66.7939453125 117.6484375 66.6845703125 Q117.84375 66.5751953125 117.953125 66.3876953125 Q118.046875 66.2470703125 118.25 65.6689453125 Q118.28125 65.5908203125 118.34375 65.4345703125 L116.171875 59.7158203125 L117.21875 59.7158203125 L118.40625 63.0126953125 Q118.640625 63.6533203125 118.8125 64.3408203125 Q118.984375 63.6689453125 119.21875 63.0439453125 L120.4375 59.7158203125 L121.40625 59.7158203125 L119.234375 65.5126953125 Q118.890625 66.4501953125 118.6875 66.8095703125 Q118.4375 67.2939453125 118.1015625 67.5126953125 Q117.765625 67.7314453125 117.3125 67.7314453125 Q117.03125 67.7314453125 116.6875 67.6220703125 ZM126.453125 63.3251953125 L127.390625 63.4501953125 Q127.25 64.4345703125 126.6015625 64.9892578125 Q125.953125 65.5439453125 125.03125 65.5439453125 Q123.859375 65.5439453125 123.1484375 64.7783203125 Q122.4375 64.0126953125 122.4375 62.5908203125 Q122.4375 61.6689453125 122.7421875 60.9736328125 Q123.046875 60.2783203125 123.671875 59.9345703125 Q124.296875 59.5908203125 125.03125 59.5908203125 Q125.953125 59.5908203125 126.546875 60.0595703125 Q127.140625 60.5283203125 127.3125 61.3876953125 L126.359375 61.5283203125 Q126.234375 60.9658203125 125.890625 60.6767578125 Q125.546875 60.3876953125 125.0625 60.3876953125 Q124.34375 60.3876953125 123.8828125 60.9111328125 Q123.421875 61.4345703125 123.421875 62.5595703125 Q123.421875 63.7158203125 123.859375 64.2314453125 Q124.296875 64.7470703125 125.015625 64.7470703125 Q125.578125 64.7470703125 125.9609375 64.4033203125 Q126.34375 64.0595703125 126.453125 63.3251953125 ZM128.359375 62.5595703125 Q128.359375 60.9814453125 129.25 60.2158203125 Q129.984375 59.5908203125 131.046875 59.5908203125 Q132.21875 59.5908203125 132.9609375 60.3564453125 Q133.703125 61.1220703125 133.703125 62.4814453125 Q133.703125 63.5908203125 133.375 64.2236328125 Q133.046875 64.8564453125 132.4140625 65.2001953125 Q131.78125 65.5439453125 131.046875 65.5439453125 Q129.84375 65.5439453125 129.1015625 64.7783203125 Q128.359375 64.0126953125 128.359375 62.5595703125 ZM129.359375 62.5595703125 Q129.359375 63.6689453125 129.8359375 64.2080078125 Q130.3125 64.7470703125 131.046875 64.7470703125 Q131.765625 64.7470703125 132.2421875 64.2001953125 Q132.71875 63.6533203125 132.71875 62.5283203125 Q132.71875 61.4814453125 132.234375 60.9345703125 Q131.75 60.3876953125 131.046875 60.3876953125 Q130.3125 60.3876953125 129.8359375 60.9267578125 Q129.359375 61.4658203125 129.359375 62.5595703125 ZM134.546875 65.8876953125 L135.484375 66.0283203125 Q135.546875 66.4658203125 135.8125 66.6689453125 Q136.171875 66.9345703125 136.796875 66.9345703125 Q137.46875 66.9345703125 137.8359375 66.6689453125 Q138.203125 66.4033203125 138.328125 65.9189453125 Q138.40625 65.6220703125 138.40625 64.6689453125 Q137.765625 65.4189453125 136.8125 65.4189453125 Q135.640625 65.4189453125 135 64.5673828125 Q134.359375 63.7158203125 134.359375 62.5283203125 Q134.359375 61.7158203125 134.65625 61.0283203125 Q134.953125 60.3408203125 135.5078125 59.9658203125 Q136.0625 59.5908203125 136.828125 59.5908203125 Q137.828125 59.5908203125 138.484375 60.4033203125 L138.484375 59.7158203125 L139.375 59.7158203125 L139.375 64.6376953125 Q139.375 65.9814453125 139.109375 66.5361328125 Q138.84375 67.0908203125 138.25 67.4111328125 Q137.65625 67.7314453125 136.796875 67.7314453125 Q135.78125 67.7314453125 135.15625 67.2705078125 Q134.53125 66.8095703125 134.546875 65.8876953125 ZM135.34375 62.4658203125 Q135.34375 63.5908203125 135.7890625 64.1064453125 Q136.234375 64.6220703125 136.90625 64.6220703125 Q137.578125 64.6220703125 138.03125 64.1064453125 Q138.484375 63.5908203125 138.484375 62.4970703125 Q138.484375 61.4501953125 138.015625 60.9189453125 Q137.546875 60.3876953125 136.890625 60.3876953125 Q136.25 60.3876953125 135.796875 60.9111328125 Q135.34375 61.4345703125 135.34375 62.4658203125 ZM144.625 63.5751953125 L145.625 63.7001953125 Q145.390625 64.5751953125 144.75 65.0595703125 Q144.109375 65.5439453125 143.125 65.5439453125 Q141.875 65.5439453125 141.140625 64.7783203125 Q140.40625 64.0126953125 140.40625 62.6220703125 Q140.40625 61.1689453125 141.1484375 60.3798828125 Q141.890625 59.5908203125 143.0625 59.5908203125 Q144.21875 59.5908203125 144.9375 60.3642578125 Q145.65625 61.1376953125 145.65625 62.5595703125 Q145.65625 62.6376953125 145.65625 62.8095703125 L141.40625 62.8095703125 Q141.453125 63.7470703125 141.9296875 64.2470703125 Q142.40625 64.7470703125 143.125 64.7470703125 Q143.65625 64.7470703125 144.03125 64.4736328125 Q144.40625 64.2001953125 144.625 63.5751953125 ZM141.453125 62.0126953125 L144.640625 62.0126953125 Q144.578125 61.2939453125 144.28125 60.9345703125 Q143.8125 60.3876953125 143.078125 60.3876953125 Q142.40625 60.3876953125 141.953125 60.8330078125 Q141.5 61.2783203125 141.453125 62.0126953125 ZM146.71875 65.4189453125 L146.71875 59.7158203125 L147.59375 59.7158203125 L147.59375 60.5283203125 Q148.21875 59.5908203125 149.40625 59.5908203125 Q149.921875 59.5908203125 150.359375 59.7705078125 Q150.796875 59.9501953125 151.0078125 60.2548828125 Q151.21875 60.5595703125 151.3125 60.9658203125 Q151.359375 61.2470703125 151.359375 61.9189453125 L151.359375 65.4189453125 L150.390625 65.4189453125 L150.390625 61.9501953125 Q150.390625 61.3564453125 150.28125 61.0673828125 Q150.171875 60.7783203125 149.8828125 60.5986328125 Q149.59375 60.4189453125 149.203125 60.4189453125 Q148.59375 60.4189453125 148.140625 60.8095703125 Q147.6875 61.2001953125 147.6875 62.3095703125 L147.6875 65.4189453125 L146.71875 65.4189453125 ZM152.84375 65.4189453125 L152.84375 57.5439453125 L155.8125 57.5439453125 Q156.609375 57.5439453125 157.015625 57.6220703125 Q157.59375 57.7158203125 157.984375 57.9892578125 Q158.375 58.2626953125 158.6171875 58.7470703125 Q158.859375 59.2314453125 158.859375 59.8251953125 Q158.859375 60.8251953125 158.21875 61.5205078125 Q157.578125 62.2158203125 155.90625 62.2158203125 L153.890625 62.2158203125 L153.890625 65.4189453125 L152.84375 65.4189453125 ZM153.890625 61.2939453125 L155.921875 61.2939453125 Q156.9375 61.2939453125 157.359375 60.9189453125 Q157.78125 60.5439453125 157.78125 59.8564453125 Q157.78125 59.3564453125 157.53125 59.0048828125 Q157.28125 58.6533203125 156.875 58.5439453125 Q156.609375 58.4814453125 155.90625 58.4814453125 L153.890625 58.4814453125 L153.890625 61.2939453125 ZM158.71875 65.4189453125 L158.71875 57.5439453125 L159.6875 57.5439453125 L159.6875 60.3720703125 Q160.375 59.5908203125 161.40625 59.5908203125 Q162.03125 59.5908203125 162.5 59.8408203125 Q162.96875 60.0908203125 163.171875 60.5283203125 Q163.375 60.9658203125 163.375 61.8095703125 L163.375 65.4189453125 L162.40625 65.4189453125 L162.40625 61.8095703125 Q162.40625 61.0751953125 162.09375 60.7470703125 Q161.78125 60.4189453125 161.203125 60.4189453125 Q160.765625 60.4189453125 160.390625 60.6376953125 Q160.015625 60.8564453125 159.8515625 61.2392578125 Q159.6875 61.6220703125 159.6875 62.2939453125 L159.6875 65.4189453125 L158.71875 65.4189453125 ZM164.359375 62.5595703125 Q164.359375 60.9814453125 165.25 60.2158203125 Q165.984375 59.5908203125 167.046875 59.5908203125 Q168.21875 59.5908203125 168.9609375 60.3564453125 Q169.703125 61.1220703125 169.703125 62.4814453125 Q169.703125 63.5908203125 169.375 64.2236328125 Q169.046875 64.8564453125 168.4140625 65.2001953125 Q167.78125 65.5439453125 167.046875 65.5439453125 Q165.84375 65.5439453125 165.1015625 64.7783203125 Q164.359375 64.0126953125 164.359375 62.5595703125 ZM165.359375 62.5595703125 Q165.359375 63.6689453125 165.8359375 64.2080078125 Q166.3125 64.7470703125 167.046875 64.7470703125 Q167.765625 64.7470703125 168.2421875 64.2001953125 Q168.71875 63.6533203125 168.71875 62.5283203125 Q168.71875 61.4814453125 168.234375 60.9345703125 Q167.75 60.3876953125 167.046875 60.3876953125 Q166.3125 60.3876953125 165.8359375 60.9267578125 Q165.359375 61.4658203125 165.359375 62.5595703125 ZM170.34375 63.7158203125 L171.296875 63.5595703125 Q171.375 64.1376953125 171.7421875 64.4423828125 Q172.109375 64.7470703125 172.765625 64.7470703125 Q173.4375 64.7470703125 173.7578125 64.4814453125 Q174.078125 64.2158203125 174.078125 63.8408203125 Q174.078125 63.5126953125 173.796875 63.3251953125 Q173.59375 63.2001953125 172.8125 62.9970703125 Q171.75 62.7314453125 171.3359375 62.5361328125 Q170.921875 62.3408203125 170.7109375 61.9970703125 Q170.5 61.6533203125 170.5 61.2314453125 Q170.5 60.8408203125 170.671875 60.5205078125 Q170.84375 60.2001953125 171.15625 59.9814453125 Q171.375 59.8095703125 171.765625 59.7001953125 Q172.15625 59.5908203125 172.59375 59.5908203125 Q173.265625 59.5908203125 173.7734375 59.7783203125 Q174.28125 59.9658203125 174.5234375 60.3017578125 Q174.765625 60.6376953125 174.859375 61.1845703125 L173.921875 61.3095703125 Q173.84375 60.8720703125 173.5390625 60.6298828125 Q173.234375 60.3876953125 172.671875 60.3876953125 Q172 60.3876953125 171.71875 60.6064453125 Q171.4375 60.8251953125 171.4375 61.1220703125 Q171.4375 61.3095703125 171.546875 61.4501953125 Q171.671875 61.6064453125 171.921875 61.7158203125 Q172.0625 61.7626953125 172.78125 61.9658203125 Q173.796875 62.2314453125 174.203125 62.4033203125 Q174.609375 62.5751953125 174.84375 62.9111328125 Q175.078125 63.2470703125 175.078125 63.7470703125 Q175.078125 64.2314453125 174.796875 64.6533203125 Q174.515625 65.0751953125 173.984375 65.3095703125 Q173.453125 65.5439453125 172.78125 65.5439453125 Q171.671875 65.5439453125 171.0859375 65.0830078125 Q170.5 64.6220703125 170.34375 63.7158203125 ZM176.71875 67.6064453125 L176.71875 59.7158203125 L177.609375 59.7158203125 L177.609375 60.4501953125 Q177.921875 60.0283203125 178.3125 59.8095703125 Q178.703125 59.5908203125 179.265625 59.5908203125 Q179.984375 59.5908203125 180.546875 59.9658203125 Q181.109375 60.3408203125 181.390625 61.0205078125 Q181.671875 61.7001953125 181.671875 62.5283203125 Q181.671875 63.4033203125 181.359375 64.0986328125 Q181.046875 64.7939453125 180.4453125 65.1689453125 Q179.84375 65.5439453125 179.1875 65.5439453125 Q178.703125 65.5439453125 178.3203125 65.3408203125 Q177.9375 65.1376953125 177.6875 64.8251953125 L177.6875 67.6064453125 L176.71875 67.6064453125 ZM177.59375 62.6064453125 Q177.59375 63.7001953125 178.046875 64.2236328125 Q178.5 64.7470703125 179.125 64.7470703125 Q179.765625 64.7470703125 180.2265625 64.2080078125 Q180.6875 63.6689453125 180.6875 62.5126953125 Q180.6875 61.4345703125 180.2421875 60.8876953125 Q179.796875 60.3408203125 179.171875 60.3408203125 Q178.546875 60.3408203125 178.0703125 60.9189453125 Q177.59375 61.4970703125 177.59375 62.6064453125 ZM182.71875 65.4189453125 L182.71875 57.5439453125 L183.6875 57.5439453125 L183.6875 60.3720703125 Q184.375 59.5908203125 185.40625 59.5908203125 Q186.03125 59.5908203125 186.5 59.8408203125 Q186.96875 60.0908203125 187.171875 60.5283203125 Q187.375 60.9658203125 187.375 61.8095703125 L187.375 65.4189453125 L186.40625 65.4189453125 L186.40625 61.8095703125 Q186.40625 61.0751953125 186.09375 60.7470703125 Q185.78125 60.4189453125 185.203125 60.4189453125 Q184.765625 60.4189453125 184.390625 60.6376953125 Q184.015625 60.8564453125 183.8515625 61.2392578125 Q183.6875 61.6220703125 183.6875 62.2939453125 L183.6875 65.4189453125 L182.71875 65.4189453125 ZM188.359375 62.5595703125 Q188.359375 60.9814453125 189.25 60.2158203125 Q189.984375 59.5908203125 191.046875 59.5908203125 Q192.21875 59.5908203125 192.9609375 60.3564453125 Q193.703125 61.1220703125 193.703125 62.4814453125 Q193.703125 63.5908203125 193.375 64.2236328125 Q193.046875 64.8564453125 192.4140625 65.2001953125 Q191.78125 65.5439453125 191.046875 65.5439453125 Q189.84375 65.5439453125 189.1015625 64.7783203125 Q188.359375 64.0126953125 188.359375 62.5595703125 ZM189.359375 62.5595703125 Q189.359375 63.6689453125 189.8359375 64.2080078125 Q190.3125 64.7470703125 191.046875 64.7470703125 Q191.765625 64.7470703125 192.2421875 64.2001953125 Q192.71875 63.6533203125 192.71875 62.5283203125 Q192.71875 61.4814453125 192.234375 60.9345703125 Q191.75 60.3876953125 191.046875 60.3876953125 Q190.3125 60.3876953125 189.8359375 60.9267578125 Q189.359375 61.4658203125 189.359375 62.5595703125 ZM194.71875 65.4189453125 L194.71875 59.7158203125 L195.578125 59.7158203125 L195.578125 60.5751953125 Q195.921875 59.9658203125 196.203125 59.7783203125 Q196.484375 59.5908203125 196.8125 59.5908203125 Q197.3125 59.5908203125 197.8125 59.9033203125 L197.484375 60.7939453125 Q197.125 60.5908203125 196.765625 60.5908203125 Q196.453125 60.5908203125 196.203125 60.7783203125 Q195.953125 60.9658203125 195.84375 61.3095703125 Q195.6875 61.8251953125 195.6875 62.4345703125 L195.6875 65.4189453125 L194.71875 65.4189453125 ZM198.6875 67.6220703125 L198.578125 66.7158203125 Q198.890625 66.7939453125 199.125 66.7939453125 Q199.453125 66.7939453125 199.6484375 66.6845703125 Q199.84375 66.5751953125 199.953125 66.3876953125 Q200.046875 66.2470703125 200.25 65.6689453125 Q200.28125 65.5908203125 200.34375 65.4345703125 L198.171875 59.7158203125 L199.21875 59.7158203125 L200.40625 63.0126953125 Q200.640625 63.6533203125 200.8125 64.3408203125 Q200.984375 63.6689453125 201.21875 63.0439453125 L202.4375 59.7158203125 L203.40625 59.7158203125 L201.234375 65.5126953125 Q200.890625 66.4501953125 200.6875 66.8095703125 Q200.4375 67.2939453125 200.1015625 67.5126953125 Q199.765625 67.7314453125 199.3125 67.7314453125 Q199.03125 67.7314453125 198.6875 67.6220703125 ZM204.703125 65.4189453125 L204.703125 57.5439453125 L205.671875 57.5439453125 L205.671875 65.4189453125 L204.703125 65.4189453125 ZM210.453125 64.7158203125 Q209.90625 65.1689453125 209.4140625 65.3564453125 Q208.921875 65.5439453125 208.34375 65.5439453125 Q207.40625 65.5439453125 206.8984375 65.0830078125 Q206.390625 64.6220703125 206.390625 63.9189453125 Q206.390625 63.4970703125 206.5859375 63.1533203125 Q206.78125 62.8095703125 207.0859375 62.5986328125 Q207.390625 62.3876953125 207.78125 62.2783203125 Q208.0625 62.2001953125 208.640625 62.1376953125 Q209.8125 61.9970703125 210.359375 61.7939453125 Q210.375 61.6064453125 210.375 61.5439453125 Q210.375 60.9501953125 210.09375 60.7158203125 Q209.734375 60.3876953125 209 60.3876953125 Q208.3125 60.3876953125 207.9921875 60.6220703125 Q207.671875 60.8564453125 207.515625 61.4658203125 L206.5625 61.3408203125 Q206.6875 60.7314453125 206.984375 60.3564453125 Q207.28125 59.9814453125 207.84375 59.7861328125 Q208.40625 59.5908203125 209.140625 59.5908203125 Q209.875 59.5908203125 210.328125 59.7626953125 Q210.78125 59.9345703125 210.9921875 60.1923828125 Q211.203125 60.4501953125 211.296875 60.8408203125 Q211.34375 61.0908203125 211.34375 61.7470703125 L211.34375 63.0283203125 Q211.34375 64.3720703125 211.40625 64.7314453125 Q211.46875 65.0908203125 211.65625 65.4189453125 L210.640625 65.4189453125 Q210.484375 65.1220703125 210.453125 64.7158203125 ZM210.359375 62.5595703125 Q209.84375 62.7783203125 208.78125 62.9189453125 Q208.1875 63.0126953125 207.9453125 63.1142578125 Q207.703125 63.2158203125 207.5625 63.4267578125 Q207.421875 63.6376953125 207.421875 63.8876953125 Q207.421875 64.2783203125 207.71875 64.5361328125 Q208.015625 64.7939453125 208.578125 64.7939453125 Q209.140625 64.7939453125 209.5703125 64.5439453125 Q210 64.2939453125 210.21875 63.8720703125 Q210.359375 63.5439453125 210.359375 62.9033203125 L210.359375 62.5595703125 ZM212.34375 63.7158203125 L213.296875 63.5595703125 Q213.375 64.1376953125 213.7421875 64.4423828125 Q214.109375 64.7470703125 214.765625 64.7470703125 Q215.4375 64.7470703125 215.7578125 64.4814453125 Q216.078125 64.2158203125 216.078125 63.8408203125 Q216.078125 63.5126953125 215.796875 63.3251953125 Q215.59375 63.2001953125 214.8125 62.9970703125 Q213.75 62.7314453125 213.3359375 62.5361328125 Q212.921875 62.3408203125 212.7109375 61.9970703125 Q212.5 61.6533203125 212.5 61.2314453125 Q212.5 60.8408203125 212.671875 60.5205078125 Q212.84375 60.2001953125 213.15625 59.9814453125 Q213.375 59.8095703125 213.765625 59.7001953125 Q214.15625 59.5908203125 214.59375 59.5908203125 Q215.265625 59.5908203125 215.7734375 59.7783203125 Q216.28125 59.9658203125 216.5234375 60.3017578125 Q216.765625 60.6376953125 216.859375 61.1845703125 L215.921875 61.3095703125 Q215.84375 60.8720703125 215.5390625 60.6298828125 Q215.234375 60.3876953125 214.671875 60.3876953125 Q214 60.3876953125 213.71875 60.6064453125 Q213.4375 60.8251953125 213.4375 61.1220703125 Q213.4375 61.3095703125 213.546875 61.4501953125 Q213.671875 61.6064453125 213.921875 61.7158203125 Q214.0625 61.7626953125 214.78125 61.9658203125 Q215.796875 62.2314453125 216.203125 62.4033203125 Q216.609375 62.5751953125 216.84375 62.9111328125 Q217.078125 63.2470703125 217.078125 63.7470703125 Q217.078125 64.2314453125 216.796875 64.6533203125 Q216.515625 65.0751953125 215.984375 65.3095703125 Q215.453125 65.5439453125 214.78125 65.5439453125 Q213.671875 65.5439453125 213.0859375 65.0830078125 Q212.5 64.6220703125 212.34375 63.7158203125 ZM222.625 63.5751953125 L223.625 63.7001953125 Q223.390625 64.5751953125 222.75 65.0595703125 Q222.109375 65.5439453125 221.125 65.5439453125 Q219.875 65.5439453125 219.140625 64.7783203125 Q218.40625 64.0126953125 218.40625 62.6220703125 Q218.40625 61.1689453125 219.1484375 60.3798828125 Q219.890625 59.5908203125 221.0625 59.5908203125 Q222.21875 59.5908203125 222.9375 60.3642578125 Q223.65625 61.1376953125 223.65625 62.5595703125 Q223.65625 62.6376953125 223.65625 62.8095703125 L219.40625 62.8095703125 Q219.453125 63.7470703125 219.9296875 64.2470703125 Q220.40625 64.7470703125 221.125 64.7470703125 Q221.65625 64.7470703125 222.03125 64.4736328125 Q222.40625 64.2001953125 222.625 63.5751953125 ZM219.453125 62.0126953125 L222.640625 62.0126953125 Q222.578125 61.2939453125 222.28125 60.9345703125 Q221.8125 60.3876953125 221.078125 60.3876953125 Q220.40625 60.3876953125 219.953125 60.8330078125 Q219.5 61.2783203125 219.453125 62.0126953125 ZM225 65.4189453125 L225 64.3251953125 L226.09375 64.3251953125 L226.09375 65.4189453125 L225 65.4189453125 ZM231.53125 62.3251953125 L231.53125 61.4033203125 L234.875 61.4033203125 L234.875 64.3251953125 Q234.09375 64.9345703125 233.28125 65.2470703125 Q232.46875 65.5595703125 231.609375 65.5595703125 Q230.453125 65.5595703125 229.5 65.0595703125 Q228.546875 64.5595703125 228.0625 63.6220703125 Q227.578125 62.6845703125 227.578125 61.5126953125 Q227.578125 60.3720703125 228.0625 59.3720703125 Q228.546875 58.3720703125 229.453125 57.8876953125 Q230.359375 57.4033203125 231.53125 57.4033203125 Q232.375 57.4033203125 233.0703125 57.6845703125 Q233.765625 57.9658203125 234.15625 58.4580078125 Q234.546875 58.9501953125 234.75 59.7470703125 L233.8125 59.9970703125 Q233.640625 59.4033203125 233.375 59.0595703125 Q233.109375 58.7158203125 232.6171875 58.5126953125 Q232.125 58.3095703125 231.53125 58.3095703125 Q230.8125 58.3095703125 230.296875 58.5205078125 Q229.78125 58.7314453125 229.4609375 59.0908203125 Q229.140625 59.4501953125 228.953125 59.8720703125 Q228.65625 60.6064453125 228.65625 61.4501953125 Q228.65625 62.5126953125 229.0234375 63.2158203125 Q229.390625 63.9189453125 230.078125 64.2626953125 Q230.765625 64.6064453125 231.546875 64.6064453125 Q232.21875 64.6064453125 232.8671875 64.3486328125 Q233.515625 64.0908203125 233.84375 63.7939453125 L233.84375 62.3251953125 L231.53125 62.3251953125 ZM235.703125 65.4189453125 L235.703125 57.5439453125 L236.671875 57.5439453125 L236.671875 65.4189453125 L235.703125 65.4189453125 ZM237.6875 67.6220703125 L237.578125 66.7158203125 Q237.890625 66.7939453125 238.125 66.7939453125 Q238.453125 66.7939453125 238.6484375 66.6845703125 Q238.84375 66.5751953125 238.953125 66.3876953125 Q239.046875 66.2470703125 239.25 65.6689453125 Q239.28125 65.5908203125 239.34375 65.4345703125 L237.171875 59.7158203125 L238.21875 59.7158203125 L239.40625 63.0126953125 Q239.640625 63.6533203125 239.8125 64.3408203125 Q239.984375 63.6689453125 240.21875 63.0439453125 L241.4375 59.7158203125 L242.40625 59.7158203125 L240.234375 65.5126953125 Q239.890625 66.4501953125 239.6875 66.8095703125 Q239.4375 67.2939453125 239.1015625 67.5126953125 Q238.765625 67.7314453125 238.3125 67.7314453125 Q238.03125 67.7314453125 237.6875 67.6220703125 ZM247.453125 63.3251953125 L248.390625 63.4501953125 Q248.25 64.4345703125 247.6015625 64.9892578125 Q246.953125 65.5439453125 246.03125 65.5439453125 Q244.859375 65.5439453125 244.1484375 64.7783203125 Q243.4375 64.0126953125 243.4375 62.5908203125 Q243.4375 61.6689453125 243.7421875 60.9736328125 Q244.046875 60.2783203125 244.671875 59.9345703125 Q245.296875 59.5908203125 246.03125 59.5908203125 Q246.953125 59.5908203125 247.546875 60.0595703125 Q248.140625 60.5283203125 248.3125 61.3876953125 L247.359375 61.5283203125 Q247.234375 60.9658203125 246.890625 60.6767578125 Q246.546875 60.3876953125 246.0625 60.3876953125 Q245.34375 60.3876953125 244.8828125 60.9111328125 Q244.421875 61.4345703125 244.421875 62.5595703125 Q244.421875 63.7158203125 244.859375 64.2314453125 Q245.296875 64.7470703125 246.015625 64.7470703125 Q246.578125 64.7470703125 246.9609375 64.4033203125 Q247.34375 64.0595703125 247.453125 63.3251953125 ZM249.359375 62.5595703125 Q249.359375 60.9814453125 250.25 60.2158203125 Q250.984375 59.5908203125 252.046875 59.5908203125 Q253.21875 59.5908203125 253.9609375 60.3564453125 Q254.703125 61.1220703125 254.703125 62.4814453125 Q254.703125 63.5908203125 254.375 64.2236328125 Q254.046875 64.8564453125 253.4140625 65.2001953125 Q252.78125 65.5439453125 252.046875 65.5439453125 Q250.84375 65.5439453125 250.1015625 64.7783203125 Q249.359375 64.0126953125 249.359375 62.5595703125 ZM250.359375 62.5595703125 Q250.359375 63.6689453125 250.8359375 64.2080078125 Q251.3125 64.7470703125 252.046875 64.7470703125 Q252.765625 64.7470703125 253.2421875 64.2001953125 Q253.71875 63.6533203125 253.71875 62.5283203125 Q253.71875 61.4814453125 253.234375 60.9345703125 Q252.75 60.3876953125 252.046875 60.3876953125 Q251.3125 60.3876953125 250.8359375 60.9267578125 Q250.359375 61.4658203125 250.359375 62.5595703125 ZM255.546875 65.8876953125 L256.484375 66.0283203125 Q256.546875 66.4658203125 256.8125 66.6689453125 Q257.171875 66.9345703125 257.796875 66.9345703125 Q258.46875 66.9345703125 258.8359375 66.6689453125 Q259.203125 66.4033203125 259.328125 65.9189453125 Q259.40625 65.6220703125 259.40625 64.6689453125 Q258.765625 65.4189453125 257.8125 65.4189453125 Q256.640625 65.4189453125 256 64.5673828125 Q255.359375 63.7158203125 255.359375 62.5283203125 Q255.359375 61.7158203125 255.65625 61.0283203125 Q255.953125 60.3408203125 256.5078125 59.9658203125 Q257.0625 59.5908203125 257.828125 59.5908203125 Q258.828125 59.5908203125 259.484375 60.4033203125 L259.484375 59.7158203125 L260.375 59.7158203125 L260.375 64.6376953125 Q260.375 65.9814453125 260.109375 66.5361328125 Q259.84375 67.0908203125 259.25 67.4111328125 Q258.65625 67.7314453125 257.796875 67.7314453125 Q256.78125 67.7314453125 256.15625 67.2705078125 Q255.53125 66.8095703125 255.546875 65.8876953125 ZM256.34375 62.4658203125 Q256.34375 63.5908203125 256.7890625 64.1064453125 Q257.234375 64.6220703125 257.90625 64.6220703125 Q258.578125 64.6220703125 259.03125 64.1064453125 Q259.484375 63.5908203125 259.484375 62.4970703125 Q259.484375 61.4501953125 259.015625 60.9189453125 Q258.546875 60.3876953125 257.890625 60.3876953125 Q257.25 60.3876953125 256.796875 60.9111328125 Q256.34375 61.4345703125 256.34375 62.4658203125 ZM265.625 63.5751953125 L266.625 63.7001953125 Q266.390625 64.5751953125 265.75 65.0595703125 Q265.109375 65.5439453125 264.125 65.5439453125 Q262.875 65.5439453125 262.140625 64.7783203125 Q261.40625 64.0126953125 261.40625 62.6220703125 Q261.40625 61.1689453125 262.1484375 60.3798828125 Q262.890625 59.5908203125 264.0625 59.5908203125 Q265.21875 59.5908203125 265.9375 60.3642578125 Q266.65625 61.1376953125 266.65625 62.5595703125 Q266.65625 62.6376953125 266.65625 62.8095703125 L262.40625 62.8095703125 Q262.453125 63.7470703125 262.9296875 64.2470703125 Q263.40625 64.7470703125 264.125 64.7470703125 Q264.65625 64.7470703125 265.03125 64.4736328125 Q265.40625 64.2001953125 265.625 63.5751953125 ZM262.453125 62.0126953125 L265.640625 62.0126953125 Q265.578125 61.2939453125 265.28125 60.9345703125 Q264.8125 60.3876953125 264.078125 60.3876953125 Q263.40625 60.3876953125 262.953125 60.8330078125 Q262.5 61.2783203125 262.453125 62.0126953125 ZM267.71875 65.4189453125 L267.71875 59.7158203125 L268.59375 59.7158203125 L268.59375 60.5283203125 Q269.21875 59.5908203125 270.40625 59.5908203125 Q270.921875 59.5908203125 271.359375 59.7705078125 Q271.796875 59.9501953125 272.0078125 60.2548828125 Q272.21875 60.5595703125 272.3125 60.9658203125 Q272.359375 61.2470703125 272.359375 61.9189453125 L272.359375 65.4189453125 L271.390625 65.4189453125 L271.390625 61.9501953125 Q271.390625 61.3564453125 271.28125 61.0673828125 Q271.171875 60.7783203125 270.8828125 60.5986328125 Q270.59375 60.4189453125 270.203125 60.4189453125 Q269.59375 60.4189453125 269.140625 60.8095703125 Q268.6875 61.2001953125 268.6875 62.3095703125 L268.6875 65.4189453125 L267.71875 65.4189453125 ZM273.84375 65.4189453125 L273.84375 57.5439453125 L276.8125 57.5439453125 Q277.609375 57.5439453125 278.015625 57.6220703125 Q278.59375 57.7158203125 278.984375 57.9892578125 Q279.375 58.2626953125 279.6171875 58.7470703125 Q279.859375 59.2314453125 279.859375 59.8251953125 Q279.859375 60.8251953125 279.21875 61.5205078125 Q278.578125 62.2158203125 276.90625 62.2158203125 L274.890625 62.2158203125 L274.890625 65.4189453125 L273.84375 65.4189453125 ZM274.890625 61.2939453125 L276.921875 61.2939453125 Q277.9375 61.2939453125 278.359375 60.9189453125 Q278.78125 60.5439453125 278.78125 59.8564453125 Q278.78125 59.3564453125 278.53125 59.0048828125 Q278.28125 58.6533203125 277.875 58.5439453125 Q277.609375 58.4814453125 276.90625 58.4814453125 L274.890625 58.4814453125 L274.890625 61.2939453125 ZM279.71875 65.4189453125 L279.71875 57.5439453125 L280.6875 57.5439453125 L280.6875 60.3720703125 Q281.375 59.5908203125 282.40625 59.5908203125 Q283.03125 59.5908203125 283.5 59.8408203125 Q283.96875 60.0908203125 284.171875 60.5283203125 Q284.375 60.9658203125 284.375 61.8095703125 L284.375 65.4189453125 L283.40625 65.4189453125 L283.40625 61.8095703125 Q283.40625 61.0751953125 283.09375 60.7470703125 Q282.78125 60.4189453125 282.203125 60.4189453125 Q281.765625 60.4189453125 281.390625 60.6376953125 Q281.015625 60.8564453125 280.8515625 61.2392578125 Q280.6875 61.6220703125 280.6875 62.2939453125 L280.6875 65.4189453125 L279.71875 65.4189453125 ZM285.359375 62.5595703125 Q285.359375 60.9814453125 286.25 60.2158203125 Q286.984375 59.5908203125 288.046875 59.5908203125 Q289.21875 59.5908203125 289.9609375 60.3564453125 Q290.703125 61.1220703125 290.703125 62.4814453125 Q290.703125 63.5908203125 290.375 64.2236328125 Q290.046875 64.8564453125 289.4140625 65.2001953125 Q288.78125 65.5439453125 288.046875 65.5439453125 Q286.84375 65.5439453125 286.1015625 64.7783203125 Q285.359375 64.0126953125 285.359375 62.5595703125 ZM286.359375 62.5595703125 Q286.359375 63.6689453125 286.8359375 64.2080078125 Q287.3125 64.7470703125 288.046875 64.7470703125 Q288.765625 64.7470703125 289.2421875 64.2001953125 Q289.71875 63.6533203125 289.71875 62.5283203125 Q289.71875 61.4814453125 289.234375 60.9345703125 Q288.75 60.3876953125 288.046875 60.3876953125 Q287.3125 60.3876953125 286.8359375 60.9267578125 Q286.359375 61.4658203125 286.359375 62.5595703125 ZM291.34375 63.7158203125 L292.296875 63.5595703125 Q292.375 64.1376953125 292.7421875 64.4423828125 Q293.109375 64.7470703125 293.765625 64.7470703125 Q294.4375 64.7470703125 294.7578125 64.4814453125 Q295.078125 64.2158203125 295.078125 63.8408203125 Q295.078125 63.5126953125 294.796875 63.3251953125 Q294.59375 63.2001953125 293.8125 62.9970703125 Q292.75 62.7314453125 292.3359375 62.5361328125 Q291.921875 62.3408203125 291.7109375 61.9970703125 Q291.5 61.6533203125 291.5 61.2314453125 Q291.5 60.8408203125 291.671875 60.5205078125 Q291.84375 60.2001953125 292.15625 59.9814453125 Q292.375 59.8095703125 292.765625 59.7001953125 Q293.15625 59.5908203125 293.59375 59.5908203125 Q294.265625 59.5908203125 294.7734375 59.7783203125 Q295.28125 59.9658203125 295.5234375 60.3017578125 Q295.765625 60.6376953125 295.859375 61.1845703125 L294.921875 61.3095703125 Q294.84375 60.8720703125 294.5390625 60.6298828125 Q294.234375 60.3876953125 293.671875 60.3876953125 Q293 60.3876953125 292.71875 60.6064453125 Q292.4375 60.8251953125 292.4375 61.1220703125 Q292.4375 61.3095703125 292.546875 61.4501953125 Q292.671875 61.6064453125 292.921875 61.7158203125 Q293.0625 61.7626953125 293.78125 61.9658203125 Q294.796875 62.2314453125 295.203125 62.4033203125 Q295.609375 62.5751953125 295.84375 62.9111328125 Q296.078125 63.2470703125 296.078125 63.7470703125 Q296.078125 64.2314453125 295.796875 64.6533203125 Q295.515625 65.0751953125 294.984375 65.3095703125 Q294.453125 65.5439453125 293.78125 65.5439453125 Q292.671875 65.5439453125 292.0859375 65.0830078125 Q291.5 64.6220703125 291.34375 63.7158203125 ZM297.71875 67.6064453125 L297.71875 59.7158203125 L298.609375 59.7158203125 L298.609375 60.4501953125 Q298.921875 60.0283203125 299.3125 59.8095703125 Q299.703125 59.5908203125 300.265625 59.5908203125 Q300.984375 59.5908203125 301.546875 59.9658203125 Q302.109375 60.3408203125 302.390625 61.0205078125 Q302.671875 61.7001953125 302.671875 62.5283203125 Q302.671875 63.4033203125 302.359375 64.0986328125 Q302.046875 64.7939453125 301.4453125 65.1689453125 Q300.84375 65.5439453125 300.1875 65.5439453125 Q299.703125 65.5439453125 299.3203125 65.3408203125 Q298.9375 65.1376953125 298.6875 64.8251953125 L298.6875 67.6064453125 L297.71875 67.6064453125 ZM298.59375 62.6064453125 Q298.59375 63.7001953125 299.046875 64.2236328125 Q299.5 64.7470703125 300.125 64.7470703125 Q300.765625 64.7470703125 301.2265625 64.2080078125 Q301.6875 63.6689453125 301.6875 62.5126953125 Q301.6875 61.4345703125 301.2421875 60.8876953125 Q300.796875 60.3408203125 300.171875 60.3408203125 Q299.546875 60.3408203125 299.0703125 60.9189453125 Q298.59375 61.4970703125 298.59375 62.6064453125 ZM303.71875 65.4189453125 L303.71875 57.5439453125 L304.6875 57.5439453125 L304.6875 60.3720703125 Q305.375 59.5908203125 306.40625 59.5908203125 Q307.03125 59.5908203125 307.5 59.8408203125 Q307.96875 60.0908203125 308.171875 60.5283203125 Q308.375 60.9658203125 308.375 61.8095703125 L308.375 65.4189453125 L307.40625 65.4189453125 L307.40625 61.8095703125 Q307.40625 61.0751953125 307.09375 60.7470703125 Q306.78125 60.4189453125 306.203125 60.4189453125 Q305.765625 60.4189453125 305.390625 60.6376953125 Q305.015625 60.8564453125 304.8515625 61.2392578125 Q304.6875 61.6220703125 304.6875 62.2939453125 L304.6875 65.4189453125 L303.71875 65.4189453125 ZM309.359375 62.5595703125 Q309.359375 60.9814453125 310.25 60.2158203125 Q310.984375 59.5908203125 312.046875 59.5908203125 Q313.21875 59.5908203125 313.9609375 60.3564453125 Q314.703125 61.1220703125 314.703125 62.4814453125 Q314.703125 63.5908203125 314.375 64.2236328125 Q314.046875 64.8564453125 313.4140625 65.2001953125 Q312.78125 65.5439453125 312.046875 65.5439453125 Q310.84375 65.5439453125 310.1015625 64.7783203125 Q309.359375 64.0126953125 309.359375 62.5595703125 ZM310.359375 62.5595703125 Q310.359375 63.6689453125 310.8359375 64.2080078125 Q311.3125 64.7470703125 312.046875 64.7470703125 Q312.765625 64.7470703125 313.2421875 64.2001953125 Q313.71875 63.6533203125 313.71875 62.5283203125 Q313.71875 61.4814453125 313.234375 60.9345703125 Q312.75 60.3876953125 312.046875 60.3876953125 Q311.3125 60.3876953125 310.8359375 60.9267578125 Q310.359375 61.4658203125 310.359375 62.5595703125 ZM315.71875 65.4189453125 L315.71875 59.7158203125 L316.578125 59.7158203125 L316.578125 60.5751953125 Q316.921875 59.9658203125 317.203125 59.7783203125 Q317.484375 59.5908203125 317.8125 59.5908203125 Q318.3125 59.5908203125 318.8125 59.9033203125 L318.484375 60.7939453125 Q318.125 60.5908203125 317.765625 60.5908203125 Q317.453125 60.5908203125 317.203125 60.7783203125 Q316.953125 60.9658203125 316.84375 61.3095703125 Q316.6875 61.8251953125 316.6875 62.4345703125 L316.6875 65.4189453125 L315.71875 65.4189453125 ZM319.6875 67.6220703125 L319.578125 66.7158203125 Q319.890625 66.7939453125 320.125 66.7939453125 Q320.453125 66.7939453125 320.6484375 66.6845703125 Q320.84375 66.5751953125 320.953125 66.3876953125 Q321.046875 66.2470703125 321.25 65.6689453125 Q321.28125 65.5908203125 321.34375 65.4345703125 L319.171875 59.7158203125 L320.21875 59.7158203125 L321.40625 63.0126953125 Q321.640625 63.6533203125 321.8125 64.3408203125 Q321.984375 63.6689453125 322.21875 63.0439453125 L323.4375 59.7158203125 L324.40625 59.7158203125 L322.234375 65.5126953125 Q321.890625 66.4501953125 321.6875 66.8095703125 Q321.4375 67.2939453125 321.1015625 67.5126953125 Q320.765625 67.7314453125 320.3125 67.7314453125 Q320.03125 67.7314453125 319.6875 67.6220703125 ZM325.703125 65.4189453125 L325.703125 57.5439453125 L326.671875 57.5439453125 L326.671875 65.4189453125 L325.703125 65.4189453125 ZM331.453125 64.7158203125 Q330.90625 65.1689453125 330.4140625 65.3564453125 Q329.921875 65.5439453125 329.34375 65.5439453125 Q328.40625 65.5439453125 327.8984375 65.0830078125 Q327.390625 64.6220703125 327.390625 63.9189453125 Q327.390625 63.4970703125 327.5859375 63.1533203125 Q327.78125 62.8095703125 328.0859375 62.5986328125 Q328.390625 62.3876953125 328.78125 62.2783203125 Q329.0625 62.2001953125 329.640625 62.1376953125 Q330.8125 61.9970703125 331.359375 61.7939453125 Q331.375 61.6064453125 331.375 61.5439453125 Q331.375 60.9501953125 331.09375 60.7158203125 Q330.734375 60.3876953125 330 60.3876953125 Q329.3125 60.3876953125 328.9921875 60.6220703125 Q328.671875 60.8564453125 328.515625 61.4658203125 L327.5625 61.3408203125 Q327.6875 60.7314453125 327.984375 60.3564453125 Q328.28125 59.9814453125 328.84375 59.7861328125 Q329.40625 59.5908203125 330.140625 59.5908203125 Q330.875 59.5908203125 331.328125 59.7626953125 Q331.78125 59.9345703125 331.9921875 60.1923828125 Q332.203125 60.4501953125 332.296875 60.8408203125 Q332.34375 61.0908203125 332.34375 61.7470703125 L332.34375 63.0283203125 Q332.34375 64.3720703125 332.40625 64.7314453125 Q332.46875 65.0908203125 332.65625 65.4189453125 L331.640625 65.4189453125 Q331.484375 65.1220703125 331.453125 64.7158203125 ZM331.359375 62.5595703125 Q330.84375 62.7783203125 329.78125 62.9189453125 Q329.1875 63.0126953125 328.9453125 63.1142578125 Q328.703125 63.2158203125 328.5625 63.4267578125 Q328.421875 63.6376953125 328.421875 63.8876953125 Q328.421875 64.2783203125 328.71875 64.5361328125 Q329.015625 64.7939453125 329.578125 64.7939453125 Q330.140625 64.7939453125 330.5703125 64.5439453125 Q331 64.2939453125 331.21875 63.8720703125 Q331.359375 63.5439453125 331.359375 62.9033203125 L331.359375 62.5595703125 ZM333.34375 63.7158203125 L334.296875 63.5595703125 Q334.375 64.1376953125 334.7421875 64.4423828125 Q335.109375 64.7470703125 335.765625 64.7470703125 Q336.4375 64.7470703125 336.7578125 64.4814453125 Q337.078125 64.2158203125 337.078125 63.8408203125 Q337.078125 63.5126953125 336.796875 63.3251953125 Q336.59375 63.2001953125 335.8125 62.9970703125 Q334.75 62.7314453125 334.3359375 62.5361328125 Q333.921875 62.3408203125 333.7109375 61.9970703125 Q333.5 61.6533203125 333.5 61.2314453125 Q333.5 60.8408203125 333.671875 60.5205078125 Q333.84375 60.2001953125 334.15625 59.9814453125 Q334.375 59.8095703125 334.765625 59.7001953125 Q335.15625 59.5908203125 335.59375 59.5908203125 Q336.265625 59.5908203125 336.7734375 59.7783203125 Q337.28125 59.9658203125 337.5234375 60.3017578125 Q337.765625 60.6376953125 337.859375 61.1845703125 L336.921875 61.3095703125 Q336.84375 60.8720703125 336.5390625 60.6298828125 Q336.234375 60.3876953125 335.671875 60.3876953125 Q335 60.3876953125 334.71875 60.6064453125 Q334.4375 60.8251953125 334.4375 61.1220703125 Q334.4375 61.3095703125 334.546875 61.4501953125 Q334.671875 61.6064453125 334.921875 61.7158203125 Q335.0625 61.7626953125 335.78125 61.9658203125 Q336.796875 62.2314453125 337.203125 62.4033203125 Q337.609375 62.5751953125 337.84375 62.9111328125 Q338.078125 63.2470703125 338.078125 63.7470703125 Q338.078125 64.2314453125 337.796875 64.6533203125 Q337.515625 65.0751953125 336.984375 65.3095703125 Q336.453125 65.5439453125 335.78125 65.5439453125 Q334.671875 65.5439453125 334.0859375 65.0830078125 Q333.5 64.6220703125 333.34375 63.7158203125 ZM343.625 63.5751953125 L344.625 63.7001953125 Q344.390625 64.5751953125 343.75 65.0595703125 Q343.109375 65.5439453125 342.125 65.5439453125 Q340.875 65.5439453125 340.140625 64.7783203125 Q339.40625 64.0126953125 339.40625 62.6220703125 Q339.40625 61.1689453125 340.1484375 60.3798828125 Q340.890625 59.5908203125 342.0625 59.5908203125 Q343.21875 59.5908203125 343.9375 60.3642578125 Q344.65625 61.1376953125 344.65625 62.5595703125 Q344.65625 62.6376953125 344.65625 62.8095703125 L340.40625 62.8095703125 Q340.453125 63.7470703125 340.9296875 64.2470703125 Q341.40625 64.7470703125 342.125 64.7470703125 Q342.65625 64.7470703125 343.03125 64.4736328125 Q343.40625 64.2001953125 343.625 63.5751953125 ZM340.453125 62.0126953125 L343.640625 62.0126953125 Q343.578125 61.2939453125 343.28125 60.9345703125 Q342.8125 60.3876953125 342.078125 60.3876953125 Q341.40625 60.3876953125 340.953125 60.8330078125 Q340.5 61.2783203125 340.453125 62.0126953125 ZM344.828125 67.6064453125 L344.828125 66.9033203125 L351.234375 66.9033203125 L351.234375 67.6064453125 L344.828125 67.6064453125 ZM351.90625 65.4189453125 L351.90625 57.5439453125 L357.21875 57.5439453125 L357.21875 58.4814453125 L352.9375 58.4814453125 L352.9375 60.9189453125 L356.640625 60.9189453125 L356.640625 61.8408203125 L352.9375 61.8408203125 L352.9375 65.4189453125 L351.90625 65.4189453125 ZM357.34375 63.7158203125 L358.296875 63.5595703125 Q358.375 64.1376953125 358.7421875 64.4423828125 Q359.109375 64.7470703125 359.765625 64.7470703125 Q360.4375 64.7470703125 360.7578125 64.4814453125 Q361.078125 64.2158203125 361.078125 63.8408203125 Q361.078125 63.5126953125 360.796875 63.3251953125 Q360.59375 63.2001953125 359.8125 62.9970703125 Q358.75 62.7314453125 358.3359375 62.5361328125 Q357.921875 62.3408203125 357.7109375 61.9970703125 Q357.5 61.6533203125 357.5 61.2314453125 Q357.5 60.8408203125 357.671875 60.5205078125 Q357.84375 60.2001953125 358.15625 59.9814453125 Q358.375 59.8095703125 358.765625 59.7001953125 Q359.15625 59.5908203125 359.59375 59.5908203125 Q360.265625 59.5908203125 360.7734375 59.7783203125 Q361.28125 59.9658203125 361.5234375 60.3017578125 Q361.765625 60.6376953125 361.859375 61.1845703125 L360.921875 61.3095703125 Q360.84375 60.8720703125 360.5390625 60.6298828125 Q360.234375 60.3876953125 359.671875 60.3876953125 Q359 60.3876953125 358.71875 60.6064453125 Q358.4375 60.8251953125 358.4375 61.1220703125 Q358.4375 61.3095703125 358.546875 61.4501953125 Q358.671875 61.6064453125 358.921875 61.7158203125 Q359.0625 61.7626953125 359.78125 61.9658203125 Q360.796875 62.2314453125 361.203125 62.4033203125 Q361.609375 62.5751953125 361.84375 62.9111328125 Q362.078125 63.2470703125 362.078125 63.7470703125 Q362.078125 64.2314453125 361.796875 64.6533203125 Q361.515625 65.0751953125 360.984375 65.3095703125 Q360.453125 65.5439453125 359.78125 65.5439453125 Q358.671875 65.5439453125 358.0859375 65.0830078125 Q357.5 64.6220703125 357.34375 63.7158203125 ZM363.71875 65.4189453125 L363.71875 59.7158203125 L364.59375 59.7158203125 L364.59375 60.5126953125 Q364.859375 60.0908203125 365.3046875 59.8408203125 Q365.75 59.5908203125 366.3125 59.5908203125 Q366.953125 59.5908203125 367.359375 59.8486328125 Q367.765625 60.1064453125 367.9375 60.5908203125 Q368.609375 59.5908203125 369.6875 59.5908203125 Q370.546875 59.5908203125 371 60.0595703125 Q371.453125 60.5283203125 371.453125 61.4970703125 L371.453125 65.4189453125 L370.5 65.4189453125 L370.5 61.8251953125 Q370.5 61.2470703125 370.40625 60.9892578125 Q370.3125 60.7314453125 370.0625 60.5751953125 Q369.8125 60.4189453125 369.484375 60.4189453125 Q368.875 60.4189453125 368.4765625 60.8251953125 Q368.078125 61.2314453125 368.078125 62.1064453125 L368.078125 65.4189453125 L367.109375 65.4189453125 L367.109375 61.7158203125 Q367.109375 61.0751953125 366.875 60.7470703125 Q366.640625 60.4189453125 366.109375 60.4189453125 Q365.703125 60.4189453125 365.3515625 60.6376953125 Q365 60.8564453125 364.84375 61.2705078125 Q364.6875 61.6845703125 364.6875 62.4658203125 L364.6875 65.4189453125 L363.71875 65.4189453125 ZM372 65.4189453125 L372 64.3251953125 L373.09375 64.3251953125 L373.09375 65.4189453125 L372 65.4189453125 ZM375.359375 67.7314453125 L374.671875 67.7314453125 Q376.265625 65.1533203125 376.265625 62.5751953125 Q376.265625 61.5595703125 376.046875 60.5751953125 Q375.859375 59.7626953125 375.53125 59.0283203125 Q375.328125 58.5439453125 374.671875 57.4033203125 L375.359375 57.4033203125 Q376.375 58.7626953125 376.859375 60.1220703125 Q377.265625 61.2939453125 377.265625 62.5595703125 Q377.265625 64.0126953125 376.7109375 65.3720703125 Q376.15625 66.7314453125 375.359375 67.7314453125 Z" clip-path="url(#clipPath1)" stroke="none" />
      <rect x="133" y="198" clip-path="url(#clipPath1)" fill="white" width="108" rx="5" ry="5" height="44" stroke="none" />
      <rect x="133" y="198" clip-path="url(#clipPath1)" fill="none" width="108" rx="5" ry="5" height="44" stroke="lime" />
      <line clip-path="url(#clipPath1)" fill="none" x1="133" x2="241" y1="217" y2="217" stroke="lime" />
      <path fill="black" d="M177.90625 212.4189453125 L176.171875 212.4189453125 L175.484375 210.6376953125 L172.34375 210.6376953125 L171.6875 212.4189453125 L170 212.4189453125 L173.0625 204.5439453125 L174.75 204.5439453125 L177.90625 212.4189453125 ZM174.96875 209.3095703125 L173.890625 206.3876953125 L172.828125 209.3095703125 L174.96875 209.3095703125 ZM183.765625 208.4033203125 L182.28125 208.6689453125 Q182.203125 208.2314453125 181.9375 208.0048828125 Q181.671875 207.7783203125 181.25 207.7783203125 Q180.6875 207.7783203125 180.3515625 208.1611328125 Q180.015625 208.5439453125 180.015625 209.4658203125 Q180.015625 210.4814453125 180.3515625 210.9033203125 Q180.6875 211.3251953125 181.265625 211.3251953125 Q181.703125 211.3251953125 181.9765625 211.0751953125 Q182.25 210.8251953125 182.359375 210.2314453125 L183.84375 210.4814453125 Q183.609375 211.5126953125 182.953125 212.0283203125 Q182.296875 212.5439453125 181.203125 212.5439453125 Q179.9375 212.5439453125 179.1953125 211.7548828125 Q178.453125 210.9658203125 178.453125 209.5751953125 Q178.453125 208.1533203125 179.203125 207.3720703125 Q179.953125 206.5908203125 181.21875 206.5908203125 Q182.265625 206.5908203125 182.8828125 207.0361328125 Q183.5 207.4814453125 183.765625 208.4033203125 ZM187.40625 206.7158203125 L187.40625 207.9189453125 L186.375 207.9189453125 L186.375 210.2158203125 Q186.375 210.9189453125 186.40625 211.0361328125 Q186.4375 211.1533203125 186.5390625 211.2236328125 Q186.640625 211.2939453125 186.796875 211.2939453125 Q187 211.2939453125 187.40625 211.1533203125 L187.53125 212.3251953125 Q187 212.5439453125 186.34375 212.5439453125 Q185.921875 212.5439453125 185.59375 212.4111328125 Q185.265625 212.2783203125 185.1171875 212.0595703125 Q184.96875 211.8408203125 184.90625 211.4658203125 Q184.859375 211.2001953125 184.859375 210.4033203125 L184.859375 207.9189453125 L184.171875 207.9189453125 L184.171875 206.7158203125 L184.859375 206.7158203125 L184.859375 205.5751953125 L186.375 204.7001953125 L186.375 206.7158203125 L187.40625 206.7158203125 ZM188.796875 205.9345703125 L188.796875 204.5439453125 L190.296875 204.5439453125 L190.296875 205.9345703125 L188.796875 205.9345703125 ZM188.796875 212.4189453125 L188.796875 206.7158203125 L190.296875 206.7158203125 L190.296875 212.4189453125 L188.796875 212.4189453125 ZM193.359375 212.4189453125 L191.0625 206.7158203125 L192.640625 206.7158203125 L193.71875 209.6220703125 L194.03125 210.5908203125 Q194.15625 210.2314453125 194.1875 210.1064453125 Q194.265625 209.8720703125 194.34375 209.6220703125 L195.4375 206.7158203125 L196.984375 206.7158203125 L194.71875 212.4189453125 L193.359375 212.4189453125 ZM201.09375 210.6064453125 L202.59375 210.8564453125 Q202.3125 211.6845703125 201.6875 212.1142578125 Q201.0625 212.5439453125 200.109375 212.5439453125 Q198.625 212.5439453125 197.90625 211.5751953125 Q197.34375 210.7939453125 197.34375 209.6064453125 Q197.34375 208.1845703125 198.0859375 207.3876953125 Q198.828125 206.5908203125 199.96875 206.5908203125 Q201.234375 206.5908203125 201.96875 207.4267578125 Q202.703125 208.2626953125 202.671875 209.9970703125 L198.890625 209.9970703125 Q198.90625 210.6689453125 199.2578125 211.0439453125 Q199.609375 211.4189453125 200.125 211.4189453125 Q200.484375 211.4189453125 200.7265625 211.2236328125 Q200.96875 211.0283203125 201.09375 210.6064453125 ZM201.171875 209.0751953125 Q201.15625 208.4189453125 200.8359375 208.0830078125 Q200.515625 207.7470703125 200.0625 207.7470703125 Q199.5625 207.7470703125 199.234375 208.1064453125 Q198.921875 208.4658203125 198.921875 209.0751953125 L201.171875 209.0751953125 Z" clip-path="url(#clipPath1)" stroke="none" />
      <path fill="black" d="M146.421875 231.4189453125 L146.421875 230.7001953125 Q145.890625 231.5439453125 144.828125 231.5439453125 Q144.15625 231.5439453125 143.578125 231.1689453125 Q143 230.7939453125 142.6875 230.1220703125 Q142.375 229.4501953125 142.375 228.5751953125 Q142.375 227.7158203125 142.6640625 227.0205078125 Q142.953125 226.3251953125 143.515625 225.9580078125 Q144.078125 225.5908203125 144.78125 225.5908203125 Q145.296875 225.5908203125 145.703125 225.8095703125 Q146.109375 226.0283203125 146.359375 226.3720703125 L146.359375 223.5439453125 L147.328125 223.5439453125 L147.328125 231.4189453125 L146.421875 231.4189453125 ZM143.375 228.5751953125 Q143.375 229.6689453125 143.8359375 230.2080078125 Q144.296875 230.7470703125 144.921875 230.7470703125 Q145.5625 230.7470703125 146 230.2314453125 Q146.4375 229.7158203125 146.4375 228.6533203125 Q146.4375 227.4814453125 145.9921875 226.9345703125 Q145.546875 226.3876953125 144.875 226.3876953125 Q144.234375 226.3876953125 143.8046875 226.9111328125 Q143.375 227.4345703125 143.375 228.5751953125 ZM148.359375 228.5595703125 Q148.359375 226.9814453125 149.25 226.2158203125 Q149.984375 225.5908203125 151.046875 225.5908203125 Q152.21875 225.5908203125 152.9609375 226.3564453125 Q153.703125 227.1220703125 153.703125 228.4814453125 Q153.703125 229.5908203125 153.375 230.2236328125 Q153.046875 230.8564453125 152.4140625 231.2001953125 Q151.78125 231.5439453125 151.046875 231.5439453125 Q149.84375 231.5439453125 149.1015625 230.7783203125 Q148.359375 230.0126953125 148.359375 228.5595703125 ZM149.359375 228.5595703125 Q149.359375 229.6689453125 149.8359375 230.2080078125 Q150.3125 230.7470703125 151.046875 230.7470703125 Q151.765625 230.7470703125 152.2421875 230.2001953125 Q152.71875 229.6533203125 152.71875 228.5283203125 Q152.71875 227.4814453125 152.234375 226.9345703125 Q151.75 226.3876953125 151.046875 226.3876953125 Q150.3125 226.3876953125 149.8359375 226.9267578125 Q149.359375 227.4658203125 149.359375 228.5595703125 ZM157 231.5595703125 L159.28125 223.4033203125 L160.0625 223.4033203125 L157.78125 231.5595703125 L157 231.5595703125 ZM163.34375 229.7158203125 L164.296875 229.5595703125 Q164.375 230.1376953125 164.7421875 230.4423828125 Q165.109375 230.7470703125 165.765625 230.7470703125 Q166.4375 230.7470703125 166.7578125 230.4814453125 Q167.078125 230.2158203125 167.078125 229.8408203125 Q167.078125 229.5126953125 166.796875 229.3251953125 Q166.59375 229.2001953125 165.8125 228.9970703125 Q164.75 228.7314453125 164.3359375 228.5361328125 Q163.921875 228.3408203125 163.7109375 227.9970703125 Q163.5 227.6533203125 163.5 227.2314453125 Q163.5 226.8408203125 163.671875 226.5205078125 Q163.84375 226.2001953125 164.15625 225.9814453125 Q164.375 225.8095703125 164.765625 225.7001953125 Q165.15625 225.5908203125 165.59375 225.5908203125 Q166.265625 225.5908203125 166.7734375 225.7783203125 Q167.28125 225.9658203125 167.5234375 226.3017578125 Q167.765625 226.6376953125 167.859375 227.1845703125 L166.921875 227.3095703125 Q166.84375 226.8720703125 166.5390625 226.6298828125 Q166.234375 226.3876953125 165.671875 226.3876953125 Q165 226.3876953125 164.71875 226.6064453125 Q164.4375 226.8251953125 164.4375 227.1220703125 Q164.4375 227.3095703125 164.546875 227.4501953125 Q164.671875 227.6064453125 164.921875 227.7158203125 Q165.0625 227.7626953125 165.78125 227.9658203125 Q166.796875 228.2314453125 167.203125 228.4033203125 Q167.609375 228.5751953125 167.84375 228.9111328125 Q168.078125 229.2470703125 168.078125 229.7470703125 Q168.078125 230.2314453125 167.796875 230.6533203125 Q167.515625 231.0751953125 166.984375 231.3095703125 Q166.453125 231.5439453125 165.78125 231.5439453125 Q164.671875 231.5439453125 164.0859375 231.0830078125 Q163.5 230.6220703125 163.34375 229.7158203125 ZM169.703125 231.4189453125 L169.703125 223.5439453125 L170.671875 223.5439453125 L170.671875 231.4189453125 L169.703125 231.4189453125 ZM171.734375 224.6533203125 L171.734375 223.5439453125 L172.703125 223.5439453125 L172.703125 224.6533203125 L171.734375 224.6533203125 ZM171.734375 231.4189453125 L171.734375 225.7158203125 L172.703125 225.7158203125 L172.703125 231.4189453125 L171.734375 231.4189453125 ZM177.453125 229.3251953125 L178.390625 229.4501953125 Q178.25 230.4345703125 177.6015625 230.9892578125 Q176.953125 231.5439453125 176.03125 231.5439453125 Q174.859375 231.5439453125 174.1484375 230.7783203125 Q173.4375 230.0126953125 173.4375 228.5908203125 Q173.4375 227.6689453125 173.7421875 226.9736328125 Q174.046875 226.2783203125 174.671875 225.9345703125 Q175.296875 225.5908203125 176.03125 225.5908203125 Q176.953125 225.5908203125 177.546875 226.0595703125 Q178.140625 226.5283203125 178.3125 227.3876953125 L177.359375 227.5283203125 Q177.234375 226.9658203125 176.890625 226.6767578125 Q176.546875 226.3876953125 176.0625 226.3876953125 Q175.34375 226.3876953125 174.8828125 226.9111328125 Q174.421875 227.4345703125 174.421875 228.5595703125 Q174.421875 229.7158203125 174.859375 230.2314453125 Q175.296875 230.7470703125 176.015625 230.7470703125 Q176.578125 230.7470703125 176.9609375 230.4033203125 Q177.34375 230.0595703125 177.453125 229.3251953125 ZM183.625 229.5751953125 L184.625 229.7001953125 Q184.390625 230.5751953125 183.75 231.0595703125 Q183.109375 231.5439453125 182.125 231.5439453125 Q180.875 231.5439453125 180.140625 230.7783203125 Q179.40625 230.0126953125 179.40625 228.6220703125 Q179.40625 227.1689453125 180.1484375 226.3798828125 Q180.890625 225.5908203125 182.0625 225.5908203125 Q183.21875 225.5908203125 183.9375 226.3642578125 Q184.65625 227.1376953125 184.65625 228.5595703125 Q184.65625 228.6376953125 184.65625 228.8095703125 L180.40625 228.8095703125 Q180.453125 229.7470703125 180.9296875 230.2470703125 Q181.40625 230.7470703125 182.125 230.7470703125 Q182.65625 230.7470703125 183.03125 230.4736328125 Q183.40625 230.2001953125 183.625 229.5751953125 ZM180.453125 228.0126953125 L183.640625 228.0126953125 Q183.578125 227.2939453125 183.28125 226.9345703125 Q182.8125 226.3876953125 182.078125 226.3876953125 Q181.40625 226.3876953125 180.953125 226.8330078125 Q180.5 227.2783203125 180.453125 228.0126953125 ZM188.546875 231.8876953125 L189.484375 232.0283203125 Q189.546875 232.4658203125 189.8125 232.6689453125 Q190.171875 232.9345703125 190.796875 232.9345703125 Q191.46875 232.9345703125 191.8359375 232.6689453125 Q192.203125 232.4033203125 192.328125 231.9189453125 Q192.40625 231.6220703125 192.40625 230.6689453125 Q191.765625 231.4189453125 190.8125 231.4189453125 Q189.640625 231.4189453125 189 230.5673828125 Q188.359375 229.7158203125 188.359375 228.5283203125 Q188.359375 227.7158203125 188.65625 227.0283203125 Q188.953125 226.3408203125 189.5078125 225.9658203125 Q190.0625 225.5908203125 190.828125 225.5908203125 Q191.828125 225.5908203125 192.484375 226.4033203125 L192.484375 225.7158203125 L193.375 225.7158203125 L193.375 230.6376953125 Q193.375 231.9814453125 193.109375 232.5361328125 Q192.84375 233.0908203125 192.25 233.4111328125 Q191.65625 233.7314453125 190.796875 233.7314453125 Q189.78125 233.7314453125 189.15625 233.2705078125 Q188.53125 232.8095703125 188.546875 231.8876953125 ZM189.34375 228.4658203125 Q189.34375 229.5908203125 189.7890625 230.1064453125 Q190.234375 230.6220703125 190.90625 230.6220703125 Q191.578125 230.6220703125 192.03125 230.1064453125 Q192.484375 229.5908203125 192.484375 228.4970703125 Q192.484375 227.4501953125 192.015625 226.9189453125 Q191.546875 226.3876953125 190.890625 226.3876953125 Q190.25 226.3876953125 189.796875 226.9111328125 Q189.34375 227.4345703125 189.34375 228.4658203125 ZM194.703125 231.4189453125 L194.703125 223.5439453125 L195.671875 223.5439453125 L195.671875 231.4189453125 L194.703125 231.4189453125 ZM196.6875 233.6220703125 L196.578125 232.7158203125 Q196.890625 232.7939453125 197.125 232.7939453125 Q197.453125 232.7939453125 197.6484375 232.6845703125 Q197.84375 232.5751953125 197.953125 232.3876953125 Q198.046875 232.2470703125 198.25 231.6689453125 Q198.28125 231.5908203125 198.34375 231.4345703125 L196.171875 225.7158203125 L197.21875 225.7158203125 L198.40625 229.0126953125 Q198.640625 229.6533203125 198.8125 230.3408203125 Q198.984375 229.6689453125 199.21875 229.0439453125 L200.4375 225.7158203125 L201.40625 225.7158203125 L199.234375 231.5126953125 Q198.890625 232.4501953125 198.6875 232.8095703125 Q198.4375 233.2939453125 198.1015625 233.5126953125 Q197.765625 233.7314453125 197.3125 233.7314453125 Q197.03125 233.7314453125 196.6875 233.6220703125 ZM206.453125 229.3251953125 L207.390625 229.4501953125 Q207.25 230.4345703125 206.6015625 230.9892578125 Q205.953125 231.5439453125 205.03125 231.5439453125 Q203.859375 231.5439453125 203.1484375 230.7783203125 Q202.4375 230.0126953125 202.4375 228.5908203125 Q202.4375 227.6689453125 202.7421875 226.9736328125 Q203.046875 226.2783203125 203.671875 225.9345703125 Q204.296875 225.5908203125 205.03125 225.5908203125 Q205.953125 225.5908203125 206.546875 226.0595703125 Q207.140625 226.5283203125 207.3125 227.3876953125 L206.359375 227.5283203125 Q206.234375 226.9658203125 205.890625 226.6767578125 Q205.546875 226.3876953125 205.0625 226.3876953125 Q204.34375 226.3876953125 203.8828125 226.9111328125 Q203.421875 227.4345703125 203.421875 228.5595703125 Q203.421875 229.7158203125 203.859375 230.2314453125 Q204.296875 230.7470703125 205.015625 230.7470703125 Q205.578125 230.7470703125 205.9609375 230.4033203125 Q206.34375 230.0595703125 206.453125 229.3251953125 ZM208.359375 228.5595703125 Q208.359375 226.9814453125 209.25 226.2158203125 Q209.984375 225.5908203125 211.046875 225.5908203125 Q212.21875 225.5908203125 212.9609375 226.3564453125 Q213.703125 227.1220703125 213.703125 228.4814453125 Q213.703125 229.5908203125 213.375 230.2236328125 Q213.046875 230.8564453125 212.4140625 231.2001953125 Q211.78125 231.5439453125 211.046875 231.5439453125 Q209.84375 231.5439453125 209.1015625 230.7783203125 Q208.359375 230.0126953125 208.359375 228.5595703125 ZM209.359375 228.5595703125 Q209.359375 229.6689453125 209.8359375 230.2080078125 Q210.3125 230.7470703125 211.046875 230.7470703125 Q211.765625 230.7470703125 212.2421875 230.2001953125 Q212.71875 229.6533203125 212.71875 228.5283203125 Q212.71875 227.4814453125 212.234375 226.9345703125 Q211.75 226.3876953125 211.046875 226.3876953125 Q210.3125 226.3876953125 209.8359375 226.9267578125 Q209.359375 227.4658203125 209.359375 228.5595703125 ZM214.546875 231.8876953125 L215.484375 232.0283203125 Q215.546875 232.4658203125 215.8125 232.6689453125 Q216.171875 232.9345703125 216.796875 232.9345703125 Q217.46875 232.9345703125 217.8359375 232.6689453125 Q218.203125 232.4033203125 218.328125 231.9189453125 Q218.40625 231.6220703125 218.40625 230.6689453125 Q217.765625 231.4189453125 216.8125 231.4189453125 Q215.640625 231.4189453125 215 230.5673828125 Q214.359375 229.7158203125 214.359375 228.5283203125 Q214.359375 227.7158203125 214.65625 227.0283203125 Q214.953125 226.3408203125 215.5078125 225.9658203125 Q216.0625 225.5908203125 216.828125 225.5908203125 Q217.828125 225.5908203125 218.484375 226.4033203125 L218.484375 225.7158203125 L219.375 225.7158203125 L219.375 230.6376953125 Q219.375 231.9814453125 219.109375 232.5361328125 Q218.84375 233.0908203125 218.25 233.4111328125 Q217.65625 233.7314453125 216.796875 233.7314453125 Q215.78125 233.7314453125 215.15625 233.2705078125 Q214.53125 232.8095703125 214.546875 231.8876953125 ZM215.34375 228.4658203125 Q215.34375 229.5908203125 215.7890625 230.1064453125 Q216.234375 230.6220703125 216.90625 230.6220703125 Q217.578125 230.6220703125 218.03125 230.1064453125 Q218.484375 229.5908203125 218.484375 228.4970703125 Q218.484375 227.4501953125 218.015625 226.9189453125 Q217.546875 226.3876953125 216.890625 226.3876953125 Q216.25 226.3876953125 215.796875 226.9111328125 Q215.34375 227.4345703125 215.34375 228.4658203125 ZM224.625 229.5751953125 L225.625 229.7001953125 Q225.390625 230.5751953125 224.75 231.0595703125 Q224.109375 231.5439453125 223.125 231.5439453125 Q221.875 231.5439453125 221.140625 230.7783203125 Q220.40625 230.0126953125 220.40625 228.6220703125 Q220.40625 227.1689453125 221.1484375 226.3798828125 Q221.890625 225.5908203125 223.0625 225.5908203125 Q224.21875 225.5908203125 224.9375 226.3642578125 Q225.65625 227.1376953125 225.65625 228.5595703125 Q225.65625 228.6376953125 225.65625 228.8095703125 L221.40625 228.8095703125 Q221.453125 229.7470703125 221.9296875 230.2470703125 Q222.40625 230.7470703125 223.125 230.7470703125 Q223.65625 230.7470703125 224.03125 230.4736328125 Q224.40625 230.2001953125 224.625 229.5751953125 ZM221.453125 228.0126953125 L224.640625 228.0126953125 Q224.578125 227.2939453125 224.28125 226.9345703125 Q223.8125 226.3876953125 223.078125 226.3876953125 Q222.40625 226.3876953125 221.953125 226.8330078125 Q221.5 227.2783203125 221.453125 228.0126953125 ZM226.71875 231.4189453125 L226.71875 225.7158203125 L227.59375 225.7158203125 L227.59375 226.5283203125 Q228.21875 225.5908203125 229.40625 225.5908203125 Q229.921875 225.5908203125 230.359375 225.7705078125 Q230.796875 225.9501953125 231.0078125 226.2548828125 Q231.21875 226.5595703125 231.3125 226.9658203125 Q231.359375 227.2470703125 231.359375 227.9189453125 L231.359375 231.4189453125 L230.390625 231.4189453125 L230.390625 227.9501953125 Q230.390625 227.3564453125 230.28125 227.0673828125 Q230.171875 226.7783203125 229.8828125 226.5986328125 Q229.59375 226.4189453125 229.203125 226.4189453125 Q228.59375 226.4189453125 228.140625 226.8095703125 Q227.6875 227.2001953125 227.6875 228.3095703125 L227.6875 231.4189453125 L226.71875 231.4189453125 Z" clip-path="url(#clipPath1)" stroke="none" />
      <rect x="133" y="114" clip-path="url(#clipPath1)" fill="white" width="105" rx="5" ry="5" height="22" stroke="none" />
      <rect x="133" y="114" clip-path="url(#clipPath1)" fill="none" width="105" rx="5" ry="5" height="22" stroke="lime" />
      <path fill="black" d="M164.75 128.4189453125 L164.75 120.5439453125 L166.34375 120.5439453125 L166.34375 128.4189453125 L164.75 128.4189453125 ZM172.984375 128.4189453125 L171.46875 128.4189453125 L171.46875 125.5126953125 Q171.46875 124.5908203125 171.375 124.3173828125 Q171.28125 124.0439453125 171.0625 123.8955078125 Q170.84375 123.7470703125 170.53125 123.7470703125 Q170.140625 123.7470703125 169.828125 123.9580078125 Q169.515625 124.1689453125 169.3984375 124.5205078125 Q169.28125 124.8720703125 169.28125 125.8408203125 L169.28125 128.4189453125 L167.78125 128.4189453125 L167.78125 122.7158203125 L169.1875 122.7158203125 L169.1875 123.5595703125 Q169.921875 122.5908203125 171.0625 122.5908203125 Q171.5625 122.5908203125 171.9765625 122.7705078125 Q172.390625 122.9501953125 172.6015625 123.2236328125 Q172.8125 123.4970703125 172.8984375 123.8564453125 Q172.984375 124.2158203125 172.984375 124.8720703125 L172.984375 128.4189453125 ZM175.921875 124.4501953125 L174.546875 124.2001953125 Q174.78125 123.3876953125 175.34375 122.9892578125 Q175.90625 122.5908203125 177.015625 122.5908203125 Q178.03125 122.5908203125 178.5234375 122.8251953125 Q179.015625 123.0595703125 179.21875 123.4267578125 Q179.421875 123.7939453125 179.421875 124.7783203125 L179.40625 126.5439453125 Q179.40625 127.2939453125 179.4765625 127.6533203125 Q179.546875 128.0126953125 179.75 128.4189453125 L178.25 128.4189453125 Q178.1875 128.2626953125 178.109375 127.9658203125 Q178.078125 127.8408203125 178.0625 127.7939453125 Q177.671875 128.1689453125 177.2265625 128.3564453125 Q176.78125 128.5439453125 176.28125 128.5439453125 Q175.40625 128.5439453125 174.8984375 128.0673828125 Q174.390625 127.5908203125 174.390625 126.8564453125 Q174.390625 126.3720703125 174.625 125.9970703125 Q174.859375 125.6220703125 175.2734375 125.4189453125 Q175.6875 125.2158203125 176.46875 125.0595703125 Q177.53125 124.8720703125 177.9375 124.7001953125 L177.9375 124.5439453125 Q177.9375 124.1064453125 177.71875 123.9267578125 Q177.5 123.7470703125 176.90625 123.7470703125 Q176.515625 123.7470703125 176.2890625 123.9033203125 Q176.0625 124.0595703125 175.921875 124.4501953125 ZM177.9375 125.6845703125 Q177.640625 125.7783203125 177.015625 125.9111328125 Q176.390625 126.0439453125 176.203125 126.1689453125 Q175.90625 126.3876953125 175.90625 126.7001953125 Q175.90625 127.0283203125 176.140625 127.2548828125 Q176.375 127.4814453125 176.734375 127.4814453125 Q177.140625 127.4814453125 177.515625 127.2158203125 Q177.796875 127.0126953125 177.875 126.7158203125 Q177.9375 126.5283203125 177.9375 125.9814453125 L177.9375 125.6845703125 ZM185.765625 124.4033203125 L184.28125 124.6689453125 Q184.203125 124.2314453125 183.9375 124.0048828125 Q183.671875 123.7783203125 183.25 123.7783203125 Q182.6875 123.7783203125 182.3515625 124.1611328125 Q182.015625 124.5439453125 182.015625 125.4658203125 Q182.015625 126.4814453125 182.3515625 126.9033203125 Q182.6875 127.3251953125 183.265625 127.3251953125 Q183.703125 127.3251953125 183.9765625 127.0751953125 Q184.25 126.8251953125 184.359375 126.2314453125 L185.84375 126.4814453125 Q185.609375 127.5126953125 184.953125 128.0283203125 Q184.296875 128.5439453125 183.203125 128.5439453125 Q181.9375 128.5439453125 181.1953125 127.7548828125 Q180.453125 126.9658203125 180.453125 125.5751953125 Q180.453125 124.1533203125 181.203125 123.3720703125 Q181.953125 122.5908203125 183.21875 122.5908203125 Q184.265625 122.5908203125 184.8828125 123.0361328125 Q185.5 123.4814453125 185.765625 124.4033203125 ZM189.40625 122.7158203125 L189.40625 123.9189453125 L188.375 123.9189453125 L188.375 126.2158203125 Q188.375 126.9189453125 188.40625 127.0361328125 Q188.4375 127.1533203125 188.5390625 127.2236328125 Q188.640625 127.2939453125 188.796875 127.2939453125 Q189 127.2939453125 189.40625 127.1533203125 L189.53125 128.3251953125 Q189 128.5439453125 188.34375 128.5439453125 Q187.921875 128.5439453125 187.59375 128.4111328125 Q187.265625 128.2783203125 187.1171875 128.0595703125 Q186.96875 127.8408203125 186.90625 127.4658203125 Q186.859375 127.2001953125 186.859375 126.4033203125 L186.859375 123.9189453125 L186.171875 123.9189453125 L186.171875 122.7158203125 L186.859375 122.7158203125 L186.859375 121.5751953125 L188.375 120.7001953125 L188.375 122.7158203125 L189.40625 122.7158203125 ZM190.796875 121.9345703125 L190.796875 120.5439453125 L192.296875 120.5439453125 L192.296875 121.9345703125 L190.796875 121.9345703125 ZM190.796875 128.4189453125 L190.796875 122.7158203125 L192.296875 122.7158203125 L192.296875 128.4189453125 L190.796875 128.4189453125 ZM195.359375 128.4189453125 L193.0625 122.7158203125 L194.640625 122.7158203125 L195.71875 125.6220703125 L196.03125 126.5908203125 Q196.15625 126.2314453125 196.1875 126.1064453125 Q196.265625 125.8720703125 196.34375 125.6220703125 L197.4375 122.7158203125 L198.984375 122.7158203125 L196.71875 128.4189453125 L195.359375 128.4189453125 ZM203.09375 126.6064453125 L204.59375 126.8564453125 Q204.3125 127.6845703125 203.6875 128.1142578125 Q203.0625 128.5439453125 202.109375 128.5439453125 Q200.625 128.5439453125 199.90625 127.5751953125 Q199.34375 126.7939453125 199.34375 125.6064453125 Q199.34375 124.1845703125 200.0859375 123.3876953125 Q200.828125 122.5908203125 201.96875 122.5908203125 Q203.234375 122.5908203125 203.96875 123.4267578125 Q204.703125 124.2626953125 204.671875 125.9970703125 L200.890625 125.9970703125 Q200.90625 126.6689453125 201.2578125 127.0439453125 Q201.609375 127.4189453125 202.125 127.4189453125 Q202.484375 127.4189453125 202.7265625 127.2236328125 Q202.96875 127.0283203125 203.09375 126.6064453125 ZM203.171875 125.0751953125 Q203.15625 124.4189453125 202.8359375 124.0830078125 Q202.515625 123.7470703125 202.0625 123.7470703125 Q201.5625 123.7470703125 201.234375 124.1064453125 Q200.921875 124.4658203125 200.921875 125.0751953125 L203.171875 125.0751953125 Z" clip-path="url(#clipPath1)" stroke="none" />
      <circle clip-path="url(#clipPath1)" fill="rgb(66,66,66)" r="9.5" cx="56.5" cy="84.5" stroke="none" />
      <circle clip-path="url(#clipPath1)" fill="none" r="9.5" cx="56.5" cy="84.5" stroke="rgb(66,66,66)" />
    </g>
    <g stroke-linecap="butt" fill="rgb(66,66,66)" text-rendering="optimizeLegibility" stroke-linejoin="round" shape-rendering="geometricPrecision" stroke="rgb(66,66,66)">
      <line clip-path="url(#clipPath1)" fill="none" x1="153" x2="66" y1="114" y2="84" />
      <line clip-path="url(#clipPath1)" fill="none" x1="153" x2="148" y1="114" y2="109" />
      <line clip-path="url(#clipPath1)" fill="none" x1="153" x2="146" y1="114" y2="115" />
      <path fill="black" d="M98 101.5595703125 L100.28125 93.4033203125 L101.0625 93.4033203125 L98.78125 101.5595703125 L98 101.5595703125 Z" clip-path="url(#clipPath1)" stroke="none" />
      <line clip-path="url(#clipPath1)" fill="none" x1="153" x2="153" y1="198" y2="136" />
      <line clip-path="url(#clipPath1)" fill="none" x1="153" x2="156" y1="198" y2="191" />
      <line clip-path="url(#clipPath1)" fill="none" x1="153" x2="150" y1="198" y2="191" />
      <path fill="black" d="M82.5 150.8876953125 L83.484375 150.8095703125 Q83.546875 151.3876953125 83.8046875 151.7705078125 Q84.0625 152.1533203125 84.59375 152.3876953125 Q85.125 152.6220703125 85.796875 152.6220703125 Q86.40625 152.6220703125 86.859375 152.4423828125 Q87.3125 152.2626953125 87.5390625 151.9580078125 Q87.765625 151.6533203125 87.765625 151.2783203125 Q87.765625 150.9033203125 87.546875 150.6298828125 Q87.328125 150.3564453125 86.828125 150.1689453125 Q86.515625 150.0439453125 85.4296875 149.7861328125 Q84.34375 149.5283203125 83.90625 149.2939453125 Q83.34375 148.9970703125 83.0703125 148.5595703125 Q82.796875 148.1220703125 82.796875 147.5751953125 Q82.796875 146.9814453125 83.1328125 146.4658203125 Q83.46875 145.9501953125 84.1171875 145.6767578125 Q84.765625 145.4033203125 85.5625 145.4033203125 Q86.4375 145.4033203125 87.109375 145.6923828125 Q87.78125 145.9814453125 88.140625 146.5283203125 Q88.5 147.0751953125 88.53125 147.7626953125 L87.53125 147.8408203125 Q87.453125 147.0908203125 86.984375 146.7080078125 Q86.515625 146.3251953125 85.609375 146.3251953125 Q84.671875 146.3251953125 84.234375 146.6767578125 Q83.796875 147.0283203125 83.796875 147.5126953125 Q83.796875 147.9345703125 84.109375 148.2158203125 Q84.40625 148.4814453125 85.6796875 148.7705078125 Q86.953125 149.0595703125 87.421875 149.2783203125 Q88.109375 149.5908203125 88.4375 150.0751953125 Q88.765625 150.5595703125 88.765625 151.2001953125 Q88.765625 151.8251953125 88.40625 152.3798828125 Q88.046875 152.9345703125 87.3671875 153.2470703125 Q86.6875 153.5595703125 85.84375 153.5595703125 Q84.78125 153.5595703125 84.0625 153.2470703125 Q83.34375 152.9345703125 82.9296875 152.3095703125 Q82.515625 151.6845703125 82.5 150.8876953125 ZM88.828125 155.6064453125 L88.828125 154.9033203125 L95.234375 154.9033203125 L95.234375 155.6064453125 L88.828125 155.6064453125 ZM94.984375 153.4189453125 L98.015625 145.5439453125 L99.125 145.5439453125 L102.359375 153.4189453125 L101.171875 153.4189453125 L100.25 151.0283203125 L96.953125 151.0283203125 L96.09375 153.4189453125 L94.984375 153.4189453125 ZM97.25 150.1845703125 L99.921875 150.1845703125 L99.109375 147.9970703125 Q98.734375 147.0126953125 98.546875 146.3720703125 Q98.390625 147.1220703125 98.125 147.8720703125 L97.25 150.1845703125 ZM109.46875 150.6533203125 L110.515625 150.9189453125 Q110.1875 152.2001953125 109.3359375 152.8798828125 Q108.484375 153.5595703125 107.25 153.5595703125 Q105.96875 153.5595703125 105.171875 153.0361328125 Q104.375 152.5126953125 103.9609375 151.5283203125 Q103.546875 150.5439453125 103.546875 149.4189453125 Q103.546875 148.2001953125 104.015625 147.2783203125 Q104.484375 146.3564453125 105.3515625 145.8798828125 Q106.21875 145.4033203125 107.265625 145.4033203125 Q108.453125 145.4033203125 109.2578125 146.0048828125 Q110.0625 146.6064453125 110.375 147.7001953125 L109.34375 147.9501953125 Q109.078125 147.0908203125 108.5546875 146.7001953125 Q108.03125 146.3095703125 107.25 146.3095703125 Q106.328125 146.3095703125 105.71875 146.7392578125 Q105.109375 147.1689453125 104.8671875 147.9033203125 Q104.625 148.6376953125 104.625 149.4189453125 Q104.625 150.4189453125 104.9140625 151.1689453125 Q105.203125 151.9189453125 105.8203125 152.2939453125 Q106.4375 152.6689453125 107.15625 152.6689453125 Q108.03125 152.6689453125 108.640625 152.1611328125 Q109.25 151.6533203125 109.46875 150.6533203125 ZM112.859375 153.4189453125 L112.859375 146.4814453125 L110.265625 146.4814453125 L110.265625 145.5439453125 L116.5 145.5439453125 L116.5 146.4814453125 L113.890625 146.4814453125 L113.890625 153.4189453125 L112.859375 153.4189453125 ZM117.03125 153.4189453125 L117.03125 145.5439453125 L118.0625 145.5439453125 L118.0625 153.4189453125 L117.03125 153.4189453125 ZM121.09375 153.4189453125 L118.046875 145.5439453125 L119.171875 145.5439453125 L121.21875 151.2626953125 Q121.46875 151.9501953125 121.640625 152.5595703125 Q121.8125 151.9033203125 122.0625 151.2626953125 L124.1875 145.5439453125 L125.25 145.5439453125 L122.171875 153.4189453125 L121.09375 153.4189453125 ZM125.984375 153.4189453125 L129.015625 145.5439453125 L130.125 145.5439453125 L133.359375 153.4189453125 L132.171875 153.4189453125 L131.25 151.0283203125 L127.953125 151.0283203125 L127.09375 153.4189453125 L125.984375 153.4189453125 ZM128.25 150.1845703125 L130.921875 150.1845703125 L130.109375 147.9970703125 Q129.734375 147.0126953125 129.546875 146.3720703125 Q129.390625 147.1220703125 129.125 147.8720703125 L128.25 150.1845703125 ZM136.859375 153.4189453125 L136.859375 146.4814453125 L134.265625 146.4814453125 L134.265625 145.5439453125 L140.5 145.5439453125 L140.5 146.4814453125 L137.890625 146.4814453125 L137.890625 153.4189453125 L136.859375 153.4189453125 ZM140.875 153.4189453125 L140.875 145.5439453125 L146.5625 145.5439453125 L146.5625 146.4814453125 L141.90625 146.4814453125 L141.90625 148.8876953125 L146.265625 148.8876953125 L146.265625 149.8095703125 L141.90625 149.8095703125 L141.90625 152.4970703125 L146.75 152.4970703125 L146.75 153.4189453125 L140.875 153.4189453125 Z" clip-path="url(#clipPath1)" stroke="none" />
      <line clip-path="url(#clipPath1)" fill="none" x1="219" x2="219" y1="136" y2="198" />
      <line clip-path="url(#clipPath1)" fill="none" x1="219" x2="216" y1="136" y2="143" />
      <line clip-path="url(#clipPath1)" fill="none" x1="219" x2="222" y1="136" y2="143" />
      <path fill="black" d="M228.5 185.8876953125 L229.484375 185.8095703125 Q229.546875 186.3876953125 229.8046875 186.7705078125 Q230.0625 187.1533203125 230.59375 187.3876953125 Q231.125 187.6220703125 231.796875 187.6220703125 Q232.40625 187.6220703125 232.859375 187.4423828125 Q233.3125 187.2626953125 233.5390625 186.9580078125 Q233.765625 186.6533203125 233.765625 186.2783203125 Q233.765625 185.9033203125 233.546875 185.6298828125 Q233.328125 185.3564453125 232.828125 185.1689453125 Q232.515625 185.0439453125 231.4296875 184.7861328125 Q230.34375 184.5283203125 229.90625 184.2939453125 Q229.34375 183.9970703125 229.0703125 183.5595703125 Q228.796875 183.1220703125 228.796875 182.5751953125 Q228.796875 181.9814453125 229.1328125 181.4658203125 Q229.46875 180.9501953125 230.1171875 180.6767578125 Q230.765625 180.4033203125 231.5625 180.4033203125 Q232.4375 180.4033203125 233.109375 180.6923828125 Q233.78125 180.9814453125 234.140625 181.5283203125 Q234.5 182.0751953125 234.53125 182.7626953125 L233.53125 182.8408203125 Q233.453125 182.0908203125 232.984375 181.7080078125 Q232.515625 181.3251953125 231.609375 181.3251953125 Q230.671875 181.3251953125 230.234375 181.6767578125 Q229.796875 182.0283203125 229.796875 182.5126953125 Q229.796875 182.9345703125 230.109375 183.2158203125 Q230.40625 183.4814453125 231.6796875 183.7705078125 Q232.953125 184.0595703125 233.421875 184.2783203125 Q234.109375 184.5908203125 234.4375 185.0751953125 Q234.765625 185.5595703125 234.765625 186.2001953125 Q234.765625 186.8251953125 234.40625 187.3798828125 Q234.046875 187.9345703125 233.3671875 188.2470703125 Q232.6875 188.5595703125 231.84375 188.5595703125 Q230.78125 188.5595703125 230.0625 188.2470703125 Q229.34375 187.9345703125 228.9296875 187.3095703125 Q228.515625 186.6845703125 228.5 185.8876953125 ZM234.828125 190.6064453125 L234.828125 189.9033203125 L241.234375 189.9033203125 L241.234375 190.6064453125 L234.828125 190.6064453125 ZM241.84375 188.4189453125 L241.84375 180.5439453125 L244.5625 180.5439453125 Q245.484375 180.5439453125 245.96875 180.6533203125 Q246.640625 180.8095703125 247.125 181.2158203125 Q247.734375 181.7470703125 248.046875 182.5673828125 Q248.359375 183.3876953125 248.359375 184.4345703125 Q248.359375 185.3408203125 248.1484375 186.0283203125 Q247.9375 186.7158203125 247.609375 187.1689453125 Q247.28125 187.6220703125 246.890625 187.8876953125 Q246.5 188.1533203125 245.953125 188.2861328125 Q245.40625 188.4189453125 244.6875 188.4189453125 L241.84375 188.4189453125 ZM242.890625 187.4970703125 L244.578125 187.4970703125 Q245.34375 187.4970703125 245.7890625 187.3486328125 Q246.234375 187.2001953125 246.5 186.9345703125 Q246.875 186.5595703125 247.078125 185.9345703125 Q247.28125 185.3095703125 247.28125 184.4189453125 Q247.28125 183.1845703125 246.875 182.5205078125 Q246.46875 181.8564453125 245.890625 181.6376953125 Q245.46875 181.4814453125 244.546875 181.4814453125 L242.890625 181.4814453125 L242.890625 187.4970703125 ZM248.875 188.4189453125 L248.875 180.5439453125 L254.5625 180.5439453125 L254.5625 181.4814453125 L249.90625 181.4814453125 L249.90625 183.8876953125 L254.265625 183.8876953125 L254.265625 184.8095703125 L249.90625 184.8095703125 L249.90625 187.4970703125 L254.75 187.4970703125 L254.75 188.4189453125 L248.875 188.4189453125 ZM253.984375 188.4189453125 L257.015625 180.5439453125 L258.125 180.5439453125 L261.359375 188.4189453125 L260.171875 188.4189453125 L259.25 186.0283203125 L255.953125 186.0283203125 L255.09375 188.4189453125 L253.984375 188.4189453125 ZM256.25 185.1845703125 L258.921875 185.1845703125 L258.109375 182.9970703125 Q257.734375 182.0126953125 257.546875 181.3720703125 Q257.390625 182.1220703125 257.125 182.8720703125 L256.25 185.1845703125 ZM268.46875 185.6533203125 L269.515625 185.9189453125 Q269.1875 187.2001953125 268.3359375 187.8798828125 Q267.484375 188.5595703125 266.25 188.5595703125 Q264.96875 188.5595703125 264.171875 188.0361328125 Q263.375 187.5126953125 262.9609375 186.5283203125 Q262.546875 185.5439453125 262.546875 184.4189453125 Q262.546875 183.2001953125 263.015625 182.2783203125 Q263.484375 181.3564453125 264.3515625 180.8798828125 Q265.21875 180.4033203125 266.265625 180.4033203125 Q267.453125 180.4033203125 268.2578125 181.0048828125 Q269.0625 181.6064453125 269.375 182.7001953125 L268.34375 182.9501953125 Q268.078125 182.0908203125 267.5546875 181.7001953125 Q267.03125 181.3095703125 266.25 181.3095703125 Q265.328125 181.3095703125 264.71875 181.7392578125 Q264.109375 182.1689453125 263.8671875 182.9033203125 Q263.625 183.6376953125 263.625 184.4189453125 Q263.625 185.4189453125 263.9140625 186.1689453125 Q264.203125 186.9189453125 264.8203125 187.2939453125 Q265.4375 187.6689453125 266.15625 187.6689453125 Q267.03125 187.6689453125 267.640625 187.1611328125 Q268.25 186.6533203125 268.46875 185.6533203125 ZM271.859375 188.4189453125 L271.859375 181.4814453125 L269.265625 181.4814453125 L269.265625 180.5439453125 L275.5 180.5439453125 L275.5 181.4814453125 L272.890625 181.4814453125 L272.890625 188.4189453125 L271.859375 188.4189453125 ZM276.03125 188.4189453125 L276.03125 180.5439453125 L277.0625 180.5439453125 L277.0625 188.4189453125 L276.03125 188.4189453125 ZM280.09375 188.4189453125 L277.046875 180.5439453125 L278.171875 180.5439453125 L280.21875 186.2626953125 Q280.46875 186.9501953125 280.640625 187.5595703125 Q280.8125 186.9033203125 281.0625 186.2626953125 L283.1875 180.5439453125 L284.25 180.5439453125 L281.171875 188.4189453125 L280.09375 188.4189453125 ZM284.984375 188.4189453125 L288.015625 180.5439453125 L289.125 180.5439453125 L292.359375 188.4189453125 L291.171875 188.4189453125 L290.25 186.0283203125 L286.953125 186.0283203125 L286.09375 188.4189453125 L284.984375 188.4189453125 ZM287.25 185.1845703125 L289.921875 185.1845703125 L289.109375 182.9970703125 Q288.734375 182.0126953125 288.546875 181.3720703125 Q288.390625 182.1220703125 288.125 182.8720703125 L287.25 185.1845703125 ZM295.859375 188.4189453125 L295.859375 181.4814453125 L293.265625 181.4814453125 L293.265625 180.5439453125 L299.5 180.5439453125 L299.5 181.4814453125 L296.890625 181.4814453125 L296.890625 188.4189453125 L295.859375 188.4189453125 ZM299.875 188.4189453125 L299.875 180.5439453125 L305.5625 180.5439453125 L305.5625 181.4814453125 L300.90625 181.4814453125 L300.90625 183.8876953125 L305.265625 183.8876953125 L305.265625 184.8095703125 L300.90625 184.8095703125 L300.90625 187.4970703125 L305.75 187.4970703125 L305.75 188.4189453125 L299.875 188.4189453125 Z" clip-path="url(#clipPath1)" stroke="none" />
    </g>
  </g>
</svg>
