<?xml version="1.0" encoding="UTF-8" standalone="no"?>
<!DOCTYPE svg PUBLIC "-//W3C//DTD SVG 1.1//EN"
 "http://www.w3.org/Graphics/SVG/1.1/DTD/svg11.dtd">
<!-- Generated by graphviz version 2.28.0 (20140111.2315)
 -->
<!-- Title: X Pages: 1 -->
<svg width="528pt" height="1006pt"
 viewBox="0.00 0.00 528.00 1006.00" xmlns="http://www.w3.org/2000/svg" xmlns:xlink="http://www.w3.org/1999/xlink">
<g id="graph0" class="graph" transform="scale(1 1) rotate(0) translate(4 1002)">
<title>X</title>
<polygon fill="white" stroke="none" points="-4,4 -4,-1002 524,-1002 524,4 -4,4"/>
<g id="clust1" class="cluster"><title>clusterB</title>
<polygon fill="none" stroke="indigo" stroke-dasharray="5,2" points="8,-697 8,-990 197,-990 197,-697 8,-697"/>
<text text-anchor="middle" x="102.5" y="-973.4" font-family="Times,serif" font-size="14.00">Blueprint</text>
</g>
<g id="clust2" class="cluster"><title>clusterH</title>
<polygon fill="none" stroke="indigo" points="106,-309 106,-689 512,-689 512,-309 106,-309"/>
<text text-anchor="middle" x="309" y="-672.4" font-family="Times,serif" font-size="14.00">Human</text>
</g>
<g id="clust3" class="cluster"><title>clusterX</title>
<polygon fill="none" stroke="indigo" points="127,-579 127,-656 498,-656 498,-579 127,-579"/>
<text text-anchor="middle" x="312.5" y="-639.4" font-family="Times,serif" font-size="14.00">Human</text>
</g>
<g id="clust4" class="cluster"><title>clusterD</title>
<polygon fill="none" stroke="indigo" points="240,-8 240,-301 502,-301 502,-8 240,-8"/>
<text text-anchor="middle" x="371" y="-284.4" font-family="Times,serif" font-size="14.00">Dog</text>
</g>
<!-- 0 -->
<g id="node1" class="node"><title>0</title>
<ellipse fill="none" stroke="black" cx="43" cy="-939" rx="27" ry="18"/>
<text text-anchor="middle" x="43" y="-934.8" font-family="Times,serif" font-size="14.00">0</text>
</g>
<!-- 1 -->
<g id="node2" class="node"><title>1</title>
<ellipse fill="none" stroke="black" cx="162" cy="-939" rx="27" ry="18"/>
<text text-anchor="middle" x="162" y="-934.8" font-family="Times,serif" font-size="14.00">1</text>
</g>
<!-- 0&#45;&gt;1 -->
<g id="edge1" class="edge"><title>0&#45;&gt;1</title>
<path fill="none" stroke="blue" d="M70.2571,-939C86.2142,-939 106.826,-939 124.371,-939"/>
<polygon fill="blue" stroke="blue" points="124.831,-942.5 134.831,-939 124.831,-935.5 124.831,-942.5"/>
</g>
<!-- hhead -->
<g id="node7" class="node"><title>hhead</title>
<ellipse fill="none" stroke="black" cx="162" cy="-551" rx="34.191" ry="18"/>
<text text-anchor="middle" x="162" y="-546.8" font-family="Times,serif" font-size="14.00">hhead</text>
</g>
<!-- 0&#45;&gt;hhead -->
<g id="edge8" class="edge"><title>0&#45;&gt;hhead</title>
<path fill="none" stroke="orange" d="M60.5797,-925.238C64.2658,-921.344 67.7441,-916.836 70,-912 133.679,-775.492 16.9069,-696.457 106,-575 109.882,-569.708 115.184,-565.567 120.973,-562.331"/>
<polygon fill="orange" stroke="orange" points="122.757,-565.361 130.335,-557.956 119.793,-559.019 122.757,-565.361"/>
<text text-anchor="middle" x="92" y="-854.2" font-family="Times,serif" font-size="14.00">F</text>
</g>
<!-- dhead -->
<g id="node18" class="node"><title>dhead</title>
<ellipse fill="none" stroke="black" cx="312" cy="-250" rx="34.191" ry="18"/>
<text text-anchor="middle" x="312" y="-245.8" font-family="Times,serif" font-size="14.00">dhead</text>
</g>
<!-- 0&#45;&gt;dhead -->
<g id="edge9" class="edge"><title>0&#45;&gt;dhead</title>
<path fill="none" stroke="orange" d="M60.7484,-925.314C64.4313,-921.419 67.8659,-916.891 70,-912 97.7663,-848.368 60.0765,-340.268 106,-288.2 146.074,-242.764 221.354,-240.407 268.689,-244.223"/>
<polygon fill="orange" stroke="orange" points="268.64,-247.734 278.922,-245.179 269.291,-240.764 268.64,-247.734"/>
<text text-anchor="middle" x="162" y="-293.2" font-family="Times,serif" font-size="14.00">G</text>
</g>
<!-- 2 -->
<g id="node3" class="node"><title>2</title>
<ellipse fill="none" stroke="black" cx="43" cy="-885" rx="27" ry="18"/>
<text text-anchor="middle" x="43" y="-880.8" font-family="Times,serif" font-size="14.00">2</text>
</g>
<!-- 3 -->
<g id="node4" class="node"><title>3</title>
<ellipse fill="none" stroke="black" cx="43" cy="-831" rx="27" ry="18"/>
<text text-anchor="middle" x="43" y="-826.8" font-family="Times,serif" font-size="14.00">3</text>
</g>
<!-- 4 -->
<g id="node5" class="node"><title>4</title>
<ellipse fill="none" stroke="black" cx="43" cy="-777" rx="27" ry="18"/>
<text text-anchor="middle" x="43" y="-772.8" font-family="Times,serif" font-size="14.00">4</text>
</g>
<!-- 5 -->
<g id="node6" class="node"><title>5</title>
<ellipse fill="none" stroke="black" cx="43" cy="-723" rx="27" ry="18"/>
<text text-anchor="middle" x="43" y="-718.8" font-family="Times,serif" font-size="14.00">5</text>
</g>
<!-- hbody -->
<g id="node8" class="node"><title>hbody</title>
<ellipse fill="none" stroke="black" cx="312" cy="-497" rx="35.3587" ry="18"/>
<text text-anchor="middle" x="312" y="-492.8" font-family="Times,serif" font-size="14.00">hbody</text>
</g>
<!-- hhead&#45;&gt;hbody -->
<g id="edge2" class="edge"><title>hhead&#45;&gt;hbody</title>
<path fill="none" stroke="blue" d="M190.491,-540.97C213.84,-532.45 247.579,-520.14 273.422,-510.711"/>
<polygon fill="blue" stroke="blue" points="274.707,-513.968 282.902,-507.252 272.308,-507.392 274.707,-513.968"/>
</g>
<!-- neck -->
<g id="node13" class="node"><title>neck</title>
<ellipse fill="none" stroke="black" cx="312" cy="-551" rx="29.0356" ry="18"/>
<text text-anchor="middle" x="312" y="-546.8" font-family="Times,serif" font-size="14.00">neck</text>
</g>
<!-- hhead&#45;&gt;neck -->
<g id="edge3" class="edge"><title>hhead&#45;&gt;neck</title>
<path fill="none" stroke="blue" d="M196.214,-551C218.783,-551 248.712,-551 272.351,-551"/>
<polygon fill="blue" stroke="blue" points="272.387,-554.5 282.387,-551 272.387,-547.5 272.387,-554.5"/>
</g>
<!-- hhead&#45;&gt;dhead -->
<g id="edge10" class="edge"><title>hhead&#45;&gt;dhead</title>
<path fill="none" stroke="red" d="M190.198,-540.796C197.733,-536.687 205.164,-531.181 210,-524 264.883,-442.517 190.851,-390.064 240,-305 248.979,-289.459 264.238,-276.774 278.314,-267.519"/>
<polygon fill="red" stroke="red" points="280.216,-270.458 286.859,-262.204 276.519,-264.514 280.216,-270.458"/>
</g>
<!-- lefthand -->
<g id="node9" class="node"><title>lefthand</title>
<ellipse fill="none" stroke="black" cx="162" cy="-497" rx="42.8557" ry="18"/>
<text text-anchor="middle" x="162" y="-492.8" font-family="Times,serif" font-size="14.00">lefthand</text>
</g>
<!-- righthand -->
<g id="node10" class="node"><title>righthand</title>
<ellipse fill="none" stroke="black" cx="162" cy="-443" rx="48.0955" ry="18"/>
<text text-anchor="middle" x="162" y="-438.8" font-family="Times,serif" font-size="14.00">righthand</text>
</g>
<!-- leftfoot -->
<g id="node11" class="node"><title>leftfoot</title>
<ellipse fill="none" stroke="black" cx="162" cy="-389" rx="39.4216" ry="18"/>
<text text-anchor="middle" x="162" y="-384.8" font-family="Times,serif" font-size="14.00">leftfoot</text>
</g>
<!-- rightfoot -->
<g id="node12" class="node"><title>rightfoot</title>
<ellipse fill="none" stroke="black" cx="162" cy="-335" rx="44.6626" ry="18"/>
<text text-anchor="middle" x="162" y="-330.8" font-family="Times,serif" font-size="14.00">rightfoot</text>
</g>
<!-- shoulder -->
<g id="node14" class="node"><title>shoulder</title>
<ellipse fill="none" stroke="black" cx="459" cy="-551" rx="44.0833" ry="18"/>
<text text-anchor="middle" x="459" y="-546.8" font-family="Times,serif" font-size="14.00">shoulder</text>
</g>
<!-- neck&#45;&gt;shoulder -->
<g id="edge4" class="edge"><title>neck&#45;&gt;shoulder</title>
<path fill="none" stroke="blue" d="M341.302,-551C359.221,-551 382.966,-551 404.356,-551"/>
<polygon fill="blue" stroke="blue" points="404.633,-554.5 414.633,-551 404.633,-547.5 404.633,-554.5"/>
</g>
<!-- one -->
<g id="node15" class="node"><title>one</title>
<ellipse fill="none" stroke="black" cx="162" cy="-605" rx="27" ry="18"/>
<text text-anchor="middle" x="162" y="-600.8" font-family="Times,serif" font-size="14.00">one</text>
</g>
<!-- two -->
<g id="node16" class="node"><title>two</title>
<ellipse fill="none" stroke="black" cx="312" cy="-605" rx="27" ry="18"/>
<text text-anchor="middle" x="312" y="-600.8" font-family="Times,serif" font-size="14.00">two</text>
</g>
<!-- one&#45;&gt;two -->
<g id="edge5" class="edge"><title>one&#45;&gt;two</title>
<path fill="none" stroke="black" d="M189.119,-605C212.855,-605 248.109,-605 274.604,-605"/>
<polygon fill="black" stroke="black" points="274.645,-608.5 284.645,-605 274.645,-601.5 274.645,-608.5"/>
</g>
<!-- three -->
<g id="node17" class="node"><title>three</title>
<ellipse fill="none" stroke="black" cx="459" cy="-605" rx="30.1746" ry="18"/>
<text text-anchor="middle" x="459" y="-600.8" font-family="Times,serif" font-size="14.00">three</text>
</g>
<!-- two&#45;&gt;three -->
<g id="edge6" class="edge"><title>two&#45;&gt;three</title>
<path fill="none" stroke="black" d="M339.258,-605C361.253,-605 392.992,-605 418.123,-605"/>
<polygon fill="black" stroke="black" points="418.441,-608.5 428.441,-605 418.441,-601.5 418.441,-608.5"/>
</g>
<!-- dbody -->
<g id="node19" class="node"><title>dbody</title>
<ellipse fill="none" stroke="black" cx="459" cy="-250" rx="35.3587" ry="18"/>
<text text-anchor="middle" x="459" y="-245.8" font-family="Times,serif" font-size="14.00">dbody</text>
</g>
<!-- dhead&#45;&gt;dbody -->
<g id="edge7" class="edge"><title>dhead&#45;&gt;dbody</title>
<path fill="none" stroke="blue" d="M346.266,-250C366.169,-250 391.718,-250 413.36,-250"/>
<polygon fill="blue" stroke="blue" points="413.629,-253.5 423.629,-250 413.629,-246.5 413.629,-253.5"/>
</g>
<!-- frontleftpaw -->
<g id="node20" class="node"><title>frontleftpaw</title>
<ellipse fill="none" stroke="black" cx="312" cy="-196" rx="58.5251" ry="18"/>
<text text-anchor="middle" x="312" y="-191.8" font-family="Times,serif" font-size="14.00">frontleftpaw</text>
</g>
<!-- frontrightpaw -->
<g id="node21" class="node"><title>frontrightpaw</title>
<ellipse fill="none" stroke="black" cx="312" cy="-142" rx="64.2649" ry="18"/>
<text text-anchor="middle" x="312" y="-137.8" font-family="Times,serif" font-size="14.00">frontrightpaw</text>
</g>
<!-- backleftpaw -->
<g id="node22" class="node"><title>backleftpaw</title>
<ellipse fill="none" stroke="black" cx="312" cy="-88" rx="58.4454" ry="18"/>
<text text-anchor="middle" x="312" y="-83.8" font-family="Times,serif" font-size="14.00">backleftpaw</text>
</g>
<!-- backrightpaw -->
<g id="node23" class="node"><title>backrightpaw</title>
<ellipse fill="none" stroke="black" cx="312" cy="-34" rx="63.6851" ry="18"/>
<text text-anchor="middle" x="312" y="-29.8" font-family="Times,serif" font-size="14.00">backrightpaw</text>
</g>
</g>
</svg>

