<?xml version="1.0" encoding="UTF-8" standalone="no"?>
<?xml-stylesheet href="Xholon.css" type="text/css"?>
<!DOCTYPE svg PUBLIC "-//W3C//DTD SVG 1.1//EN"
 "http://www.w3.org/Graphics/SVG/1.1/DTD/svg11.dtd">
<!-- Generated by graphviz version 2.38.0 (20140413.2041)
 -->
<!-- Title: 0 Pages: 1 -->
<svg width="295pt" height="354pt"
 viewBox="0.00 0.00 295.14 354.27" xmlns="http://www.w3.org/2000/svg" xmlns:xlink="http://www.w3.org/1999/xlink">
<g id="compartment" class="graph" transform="scale(1 1) rotate(0) translate(180.728 149.185)">
<title>0</title>
<polygon fill="white" stroke="none" points="-180.728,205.084 -180.728,-149.185 114.411,-149.185 114.411,205.084 -180.728,205.084"/>
<text text-anchor="middle" x="-33.1584" y="193.284" font-family="Courier New" font-size="14.00">compartment</text>
<!-- 1 -->
<g id="compartment/X" class="node"><title>1</title>
<ellipse fill="#000000" stroke="black" cx="-6.69218" cy="16.8343" rx="1.8" ry="1.8"/>
<text text-anchor="middle" x="-12.9922" y="11.2343" font-family="Courier New" font-size="14.00">X</text>
</g>
<!-- 2 -->
<g id="compartment/Y" class="node"><title>2</title>
<ellipse fill="#000000" stroke="black" cx="108.611" cy="-31.8455" rx="1.8" ry="1.8"/>
<text text-anchor="middle" x="102.311" y="-37.4455" font-family="Courier New" font-size="14.00">Y</text>
</g>
<!-- 3 -->
<g id="compartment/E" class="node"><title>3</title>
<ellipse fill="#000000" stroke="black" cx="-6.85618" cy="176.284" rx="1.8" ry="1.8"/>
<text text-anchor="middle" x="-13.1562" y="170.684" font-family="Courier New" font-size="14.00">E</text>
</g>
<!-- 4 -->
<g id="compartment/D" class="node"><title>4</title>
<ellipse fill="#000000" stroke="black" cx="-14.0596" cy="-128.385" rx="1.8" ry="1.8"/>
<text text-anchor="middle" x="-20.3596" y="-133.985" font-family="Courier New" font-size="14.00">D</text>
</g>
<!-- 5 -->
<g id="compartment/B" class="node"><title>5</title>
<ellipse fill="#000000" stroke="black" cx="78.8235" cy="-126.428" rx="1.8" ry="1.8"/>
<text text-anchor="middle" x="72.5235" y="-132.028" font-family="Courier New" font-size="14.00">B</text>
</g>
<!-- 6 -->
<g id="compartment/A" class="node"><title>6</title>
<ellipse fill="#000000" stroke="black" cx="-165.928" cy="7.53073" rx="1.8" ry="1.8"/>
<text text-anchor="middle" x="-172.228" y="1.93073" font-family="Courier New" font-size="14.00">A</text>
</g>
<!-- 7 -->
<g id="compartment/R1" class="node"><title>7</title>
<ellipse fill="#f0f8ff" stroke="black" cx="-89.2005" cy="11.832" rx="21.3963" ry="21.3963"/>
<text text-anchor="middle" x="-89.2005" y="15.532" font-family="Courier New" font-size="14.00">R1</text>
</g>
<!-- 7&#45;&#45;1 -->
<g id="compartment_edge2" class="edge"><title>7&#45;&#45;1</title>
<path fill="none" stroke="black" d="M-67.5224,13.1463C-46.5143,14.42 -16.6892,16.2282 -8.71635,16.7116"/>
</g>
<!-- 7&#45;&#45;6 -->
<g id="compartment_edge1" class="edge"><title>7&#45;&#45;6</title>
<path fill="none" stroke="black" d="M-110.982,10.6109C-130.476,9.5181 -157.044,8.02876 -164.13,7.6315"/>
</g>
<!-- 8 -->
<g id="compartment/R2" class="node"><title>8</title>
<ellipse fill="#f0f8ff" stroke="black" cx="73.4952" cy="35.2461" rx="21.3963" ry="21.3963"/>
<text text-anchor="middle" x="73.4952" y="38.9461" font-family="Courier New" font-size="14.00">R2</text>
</g>
<!-- 8&#45;&#45;1 -->
<g id="compartment_edge3" class="edge"><title>8&#45;&#45;1</title>
<path fill="none" stroke="black" d="M51.9284,36.4015C29.9791,33.2945 -1.44292,24.5889 -6.13444,18.5974"/>
</g>
<!-- 8&#45;&#45;1 -->
<g id="compartment_edge5" class="edge"><title>8&#45;&#45;1</title>
<path fill="none" stroke="black" d="M54.5926,24.7986C33.4863,18.0197 1.41402,12.1463 -5.42121,15.4911"/>
</g>
<!-- 8&#45;&#45;2 -->
<g id="compartment_edge4" class="edge"><title>8&#45;&#45;2</title>
<path fill="none" stroke="black" d="M83.4641,16.1998C92.2238,-0.536136 104.104,-23.2343 107.603,-29.9189"/>
</g>
<!-- 9 -->
<g id="compartment/R3" class="node"><title>9</title>
<ellipse fill="#f0f8ff" stroke="black" cx="31.0328" cy="-60.867" rx="21.3963" ry="21.3963"/>
<text text-anchor="middle" x="31.0328" y="-57.167" font-family="Courier New" font-size="14.00">R3</text>
</g>
<!-- 9&#45;&#45;1 -->
<g id="compartment_edge6" class="edge"><title>9&#45;&#45;1</title>
<path fill="none" stroke="black" d="M21.5132,-41.2597C11.9091,-21.4782 -2.01836,7.20777 -5.74552,14.8845"/>
</g>
<!-- 9&#45;&#45;2 -->
<g id="compartment_edge8" class="edge"><title>9&#45;&#45;2</title>
<path fill="none" stroke="black" d="M51.4156,-53.2419C71.1685,-45.8525 99.2116,-35.3618 106.708,-32.5575"/>
</g>
<!-- 9&#45;&#45;4 -->
<g id="compartment_edge9" class="edge"><title>9&#45;&#45;4</title>
<path fill="none" stroke="black" d="M18.9489,-78.9605C7.47028,-96.1476 -8.65705,-120.295 -12.9659,-126.747"/>
</g>
<!-- 9&#45;&#45;5 -->
<g id="compartment_edge7" class="edge"><title>9&#45;&#45;5</title>
<path fill="none" stroke="black" d="M43.8398,-78.436C56.0053,-95.1249 73.0977,-118.573 77.6644,-124.837"/>
</g>
<!-- 10 -->
<g id="compartment/R4" class="node"><title>10</title>
<ellipse fill="#f0f8ff" stroke="black" cx="-9.22625" cy="99.7977" rx="21.3963" ry="21.3963"/>
<text text-anchor="middle" x="-9.22625" y="103.498" font-family="Courier New" font-size="14.00">R4</text>
</g>
<!-- 10&#45;&#45;1 -->
<g id="compartment_edge10" class="edge"><title>10&#45;&#45;1</title>
<path fill="none" stroke="black" d="M-8.56045,78.0001C-7.91523,56.8761 -6.99922,26.8865 -6.75435,18.8697"/>
</g>
<!-- 10&#45;&#45;3 -->
<g id="compartment_edge11" class="edge"><title>10&#45;&#45;3</title>
<path fill="none" stroke="black" d="M-8.55342,121.511C-7.96221,140.59 -7.16037,166.467 -6.92423,174.087"/>
</g>
</g>
</svg>
