<?xml version="1.0" encoding="UTF-8" standalone="no"?>
<?xml-stylesheet href="Xholon.css" type="text/css"?>
<!DOCTYPE svg PUBLIC "-//W3C//DTD SVG 1.1//EN"
 "http://www.w3.org/Graphics/SVG/1.1/DTD/svg11.dtd">
<!-- Generated by graphviz version 2.38.0 (20140413.2041)
 -->
<!-- Title: 0 Pages: 1 -->
<svg width="234pt" height="113pt"
 viewBox="0.00 0.00 233.90 113.50" xmlns="http://www.w3.org/2000/svg" xmlns:xlink="http://www.w3.org/1999/xlink">
<g id="compartment" class="graph" transform="scale(1 1) rotate(0) translate(4 109.496)">
<title>0</title>
<polygon fill="white" stroke="none" points="-4,4 -4,-109.496 229.896,-109.496 229.896,4 -4,4"/>
<text text-anchor="middle" x="112.948" y="-7.8" font-family="Courier New" font-size="14.00">compartment</text>
<!-- 1 -->
<g id="compartment/X" class="node"><title>1</title>
<ellipse fill="#000000" stroke="black" cx="82.4481" cy="-24.8" rx="1.8" ry="1.8"/>
<text text-anchor="middle" x="76.1481" y="-30.4" font-family="Courier New" font-size="14.00">X</text>
</g>
<!-- 2 -->
<g id="compartment/Y" class="node"><title>2</title>
<ellipse fill="#000000" stroke="black" cx="108.448" cy="-24.8" rx="1.8" ry="1.8"/>
<text text-anchor="middle" x="102.148" y="-30.4" font-family="Courier New" font-size="14.00">Y</text>
</g>
<!-- 3 -->
<g id="compartment/E" class="node"><title>3</title>
<ellipse fill="#000000" stroke="black" cx="204.448" cy="-24.8" rx="1.8" ry="1.8"/>
<text text-anchor="middle" x="198.148" y="-30.4" font-family="Courier New" font-size="14.00">E</text>
</g>
<!-- 4 -->
<g id="compartment/D" class="node"><title>4</title>
<ellipse fill="#000000" stroke="black" cx="138.448" cy="-24.8" rx="1.8" ry="1.8"/>
<text text-anchor="middle" x="132.148" y="-30.4" font-family="Courier New" font-size="14.00">D</text>
</g>
<!-- 5 -->
<g id="compartment/B" class="node"><title>5</title>
<ellipse fill="#000000" stroke="black" cx="160.448" cy="-24.8" rx="1.8" ry="1.8"/>
<text text-anchor="middle" x="154.148" y="-30.4" font-family="Courier New" font-size="14.00">B</text>
</g>
<!-- 6 -->
<g id="compartment/A" class="node"><title>6</title>
<ellipse fill="#000000" stroke="black" cx="21.4481" cy="-24.8" rx="1.8" ry="1.8"/>
<text text-anchor="middle" x="15.1481" y="-30.4" font-family="Courier New" font-size="14.00">A</text>
</g>
<!-- 7 -->
<g id="compartment/R1" class="node"><title>7</title>
<ellipse fill="#f0f8ff" stroke="black" cx="21.4481" cy="-84.0481" rx="21.3963" ry="21.3963"/>
<text text-anchor="middle" x="21.4481" y="-80.3481" font-family="Courier New" font-size="14.00">R1</text>
</g>
<!-- 7&#45;&#45;1 -->
<g id="compartment_edge2" class="edge"><title>7&#45;&#45;1</title>
<path fill="none" stroke="black" d="M36.841,-68.602C52.6529,-53.7626 75.7119,-32.1219 81.2296,-26.9436"/>
</g>
<!-- 7&#45;&#45;6 -->
<g id="compartment_edge1" class="edge"><title>7&#45;&#45;6</title>
<path fill="none" stroke="black" d="M21.4481,-62.3802C21.4481,-48.0319 21.4481,-30.7864 21.4481,-26.6992"/>
</g>
<!-- 8 -->
<g id="compartment/R2" class="node"><title>8</title>
<ellipse fill="#f0f8ff" stroke="black" cx="82.4481" cy="-84.0481" rx="21.3963" ry="21.3963"/>
<text text-anchor="middle" x="82.4481" y="-80.3481" font-family="Courier New" font-size="14.00">R2</text>
</g>
<!-- 8&#45;&#45;1 -->
<g id="compartment_edge3" class="edge"><title>8&#45;&#45;1</title>
<path fill="none" stroke="black" d="M75.9984,-63.3465C74.9568,-48.3392 76.6248,-29.6961 81.0025,-26.3324"/>
</g>
<!-- 8&#45;&#45;1 -->
<g id="compartment_edge5" class="edge"><title>8&#45;&#45;1</title>
<path fill="none" stroke="black" d="M88.8978,-63.3465C89.9394,-48.3392 88.2714,-29.6961 83.8937,-26.3324"/>
</g>
<!-- 8&#45;&#45;2 -->
<g id="compartment_edge4" class="edge"><title>8&#45;&#45;2</title>
<path fill="none" stroke="black" d="M90.9615,-64.3029C97.5963,-49.694 106.008,-31.1719 108.008,-26.7696"/>
</g>
<!-- 9 -->
<g id="compartment/R3" class="node"><title>9</title>
<ellipse fill="#f0f8ff" stroke="black" cx="143.448" cy="-84.0481" rx="21.3963" ry="21.3963"/>
<text text-anchor="middle" x="143.448" y="-80.3481" font-family="Courier New" font-size="14.00">R3</text>
</g>
<!-- 9&#45;&#45;1 -->
<g id="compartment_edge6" class="edge"><title>9&#45;&#45;1</title>
<path fill="none" stroke="black" d="M128.055,-68.602C112.243,-53.7626 89.1843,-32.1219 83.6666,-26.9436"/>
</g>
<!-- 9&#45;&#45;2 -->
<g id="compartment_edge8" class="edge"><title>9&#45;&#45;2</title>
<path fill="none" stroke="black" d="M132.566,-65.2483C123.576,-50.5436 111.853,-31.3695 109.063,-26.8058"/>
</g>
<!-- 9&#45;&#45;4 -->
<g id="compartment_edge9" class="edge"><title>9&#45;&#45;4</title>
<path fill="none" stroke="black" d="M141.643,-62.3802C140.39,-48.0319 138.884,-30.7864 138.527,-26.6992"/>
</g>
<!-- 9&#45;&#45;5 -->
<g id="compartment_edge7" class="edge"><title>9&#45;&#45;5</title>
<path fill="none" stroke="black" d="M149.299,-63.3465C153.601,-48.8567 158.911,-30.9775 160.171,-26.7341"/>
</g>
<!-- 10 -->
<g id="compartment/R4" class="node"><title>10</title>
<ellipse fill="#f0f8ff" stroke="black" cx="204.448" cy="-84.0481" rx="21.3963" ry="21.3963"/>
<text text-anchor="middle" x="204.448" y="-80.3481" font-family="Courier New" font-size="14.00">R4</text>
</g>
<!-- 10&#45;&#45;1 -->
<g id="compartment_edge10" class="edge"><title>10&#45;&#45;1</title>
<path fill="none" stroke="black" d="M187.439,-70.9574C182.991,-68.0402 178.128,-65.0587 173.448,-62.6 138.447,-44.2134 92.1481,-28.9291 83.7747,-26.2249"/>
</g>
<!-- 10&#45;&#45;3 -->
<g id="compartment_edge11" class="edge"><title>10&#45;&#45;3</title>
<path fill="none" stroke="black" d="M204.448,-62.3802C204.448,-48.0319 204.448,-30.7864 204.448,-26.6992"/>
</g>
</g>
</svg>
