<?xml version="1.0" encoding="UTF-8" standalone="no"?>
<?xml-stylesheet href="Xholon.css" type="text/css"?>
<!DOCTYPE svg PUBLIC "-//W3C//DTD SVG 1.1//EN"
 "http://www.w3.org/Graphics/SVG/1.1/DTD/svg11.dtd">
<!-- Generated by graphviz version 2.28.0 (20140111.2315)
 -->
<!-- Title: 58 Pages: 1 -->
<svg width="558pt" height="193pt"
 viewBox="0.00 0.00 558.00 192.67" xmlns="http://www.w3.org/2000/svg" xmlns:xlink="http://www.w3.org/1999/xlink">
<g id="CatTheoryInstance" class="graph" transform="scale(1 1) rotate(0) translate(4 188.672)">
<title>58</title>
<polygon fill="white" stroke="none" points="-4,4 -4,-188.672 554,-188.672 554,4 -4,4"/>
<text text-anchor="middle" x="275" y="-8.2" font-family="Times,serif" font-size="14.00">CatTheoryInstance</text>
<!-- 52 -->
<g id="CatTheoryInstance/Employee[@roleName=&#39;a&#39;]" class="node"><title>52</title>
<ellipse fill="#f0f8ff" stroke="black" cx="57" cy="-68.8715" rx="56.7833" ry="18"/>
<text text-anchor="middle" x="57" y="-64.6715" font-family="Times,serif" font-size="14.00">a Employee</text>
</g>
<!-- 53 -->
<g id="CatTheoryInstance/Employee[@roleName=&#39;b&#39;]" class="node"><title>53</title>
<ellipse fill="#f0f8ff" stroke="black" cx="265" cy="-72.8715" rx="57.3667" ry="18"/>
<text text-anchor="middle" x="265" y="-68.6715" font-family="Times,serif" font-size="14.00">b Employee</text>
</g>
<!-- 52&#45;&gt;53 -->
<g id="CatTheoryInstance_edge1" class="edge"><title>52&#45;&gt;53</title>
<path fill="none" stroke="black" d="M114.018,-69.9592C139.796,-70.4598 170.57,-71.0573 197.514,-71.5805"/>
<polygon fill="black" stroke="black" points="207.635,-71.777 197.55,-76.082 202.636,-71.6799 197.637,-71.5828 197.637,-71.5828 197.637,-71.5828 202.636,-71.6799 197.724,-67.0837 207.635,-71.777 207.635,-71.777"/>
<text text-anchor="middle" x="158" y="-76.0715" font-family="Times,serif" font-size="14.00">manager</text>
</g>
<!-- 55 -->
<g id="CatTheoryInstance/Department[@roleName=&#39;m&#39;]" class="node"><title>55</title>
<ellipse fill="#f0f8ff" stroke="black" cx="483" cy="-52.8715" rx="66.5912" ry="18"/>
<text text-anchor="middle" x="483" y="-48.6715" font-family="Times,serif" font-size="14.00">m Department</text>
</g>
<!-- 52&#45;&gt;55 -->
<g id="CatTheoryInstance_edge2" class="edge"><title>52&#45;&gt;55</title>
<path fill="none" stroke="black" d="M95.318,-55.5662C124.053,-46.0575 164.989,-34.0921 202,-29.0715 276.907,-18.9103 363.713,-29.7683 420.572,-39.9239"/>
<polygon fill="black" stroke="black" points="430.481,-41.7408 419.833,-44.3633 425.563,-40.839 420.645,-39.9371 420.645,-39.9371 420.645,-39.9371 425.563,-40.839 421.457,-35.5109 430.481,-41.7408 430.481,-41.7408"/>
<text text-anchor="middle" x="265" y="-34.0715" font-family="Times,serif" font-size="14.00">worksIn</text>
</g>
<!-- 53&#45;&gt;53 -->
<g id="CatTheoryInstance_edge3" class="edge"><title>53&#45;&gt;53</title>
<path fill="none" stroke="black" d="M246.217,-89.9088C242.383,-99.7294 248.645,-108.872 265,-108.872 275.222,-108.872 281.501,-105.3 283.837,-100.224"/>
<polygon fill="black" stroke="black" points="283.783,-89.9088 288.336,-99.8851 283.809,-94.9087 283.836,-99.9087 283.836,-99.9087 283.836,-99.9087 283.809,-94.9087 279.336,-99.9322 283.783,-89.9088 283.783,-89.9088"/>
<text text-anchor="middle" x="265" y="-113.072" font-family="Times,serif" font-size="14.00">manager</text>
</g>
<!-- 53&#45;&gt;55 -->
<g id="CatTheoryInstance_edge4" class="edge"><title>53&#45;&gt;55</title>
<path fill="none" stroke="black" d="M322.358,-74.4404C345.816,-74.4655 373.292,-73.6786 398,-70.8715 406.308,-69.9277 415.006,-68.534 423.524,-66.9327"/>
<polygon fill="black" stroke="black" points="433.407,-64.9721 424.474,-71.332 428.503,-65.9451 423.598,-66.918 423.598,-66.918 423.598,-66.918 428.503,-65.9451 422.723,-62.5041 433.407,-64.9721 433.407,-64.9721"/>
<text text-anchor="middle" x="372" y="-79.0715" font-family="Times,serif" font-size="14.00">worksIn</text>
</g>
<!-- 55&#45;&gt;53 -->
<g id="CatTheoryInstance_edge7" class="edge"><title>55&#45;&gt;53</title>
<path fill="none" stroke="black" d="M419.466,-47.4322C396.293,-46.5057 369.857,-46.7383 346,-50.0715 335.486,-51.5405 324.414,-54.0457 313.972,-56.8709"/>
<polygon fill="black" stroke="black" points="304.191,-59.6544 312.578,-52.5889 309,-58.2857 313.809,-56.9171 313.809,-56.9171 313.809,-56.9171 309,-58.2857 315.041,-61.2452 304.191,-59.6544 304.191,-59.6544"/>
<text text-anchor="middle" x="372" y="-55.0715" font-family="Times,serif" font-size="14.00">secretary</text>
</g>
<!-- 54 -->
<g id="CatTheoryInstance/Employee[@roleName=&#39;c&#39;]" class="node"><title>54</title>
<ellipse fill="#f0f8ff" stroke="black" cx="57" cy="-131.872" rx="56.7833" ry="18"/>
<text text-anchor="middle" x="57" y="-127.672" font-family="Times,serif" font-size="14.00">c Employee</text>
</g>
<!-- 54&#45;&gt;54 -->
<g id="CatTheoryInstance_edge5" class="edge"><title>54&#45;&gt;54</title>
<path fill="none" stroke="black" d="M39.1472,-149.281C35.8147,-158.959 41.7656,-167.872 57,-167.872 66.5215,-167.872 72.4166,-164.39 74.6854,-159.416"/>
<polygon fill="black" stroke="black" points="74.8528,-149.281 79.187,-159.354 74.7702,-154.281 74.6876,-159.28 74.6876,-159.28 74.6876,-159.28 74.7702,-154.281 70.1882,-159.206 74.8528,-149.281 74.8528,-149.281"/>
<text text-anchor="middle" x="57" y="-172.072" font-family="Times,serif" font-size="14.00">manager</text>
</g>
<!-- 56 -->
<g id="CatTheoryInstance/Department[@roleName=&#39;s&#39;]" class="node"><title>56</title>
<ellipse fill="#f0f8ff" stroke="black" cx="265" cy="-163.872" rx="62.5788" ry="18"/>
<text text-anchor="middle" x="265" y="-159.672" font-family="Times,serif" font-size="14.00">s Department</text>
</g>
<!-- 54&#45;&gt;56 -->
<g id="CatTheoryInstance_edge6" class="edge"><title>54&#45;&gt;56</title>
<path fill="none" stroke="black" d="M106.924,-140.686C115.283,-142.129 123.885,-143.575 132,-144.872 153.416,-148.293 176.833,-151.755 197.919,-154.769"/>
<polygon fill="black" stroke="black" points="208.064,-156.21 197.53,-159.259 203.113,-155.507 198.163,-154.803 198.163,-154.803 198.163,-154.803 203.113,-155.507 198.796,-150.348 208.064,-156.21 208.064,-156.21"/>
<text text-anchor="middle" x="158" y="-157.072" font-family="Times,serif" font-size="14.00">worksIn</text>
</g>
<!-- 56&#45;&gt;54 -->
<g id="CatTheoryInstance_edge8" class="edge"><title>56&#45;&gt;54</title>
<path fill="none" stroke="black" d="M231.676,-148.592C222.077,-143.958 211.572,-138.79 202,-133.872 193.898,-129.709 192.827,-126.319 184,-124.072 161.906,-118.447 136.962,-118.681 115.133,-120.942"/>
<polygon fill="black" stroke="black" points="105.02,-122.153 114.414,-116.496 109.985,-121.558 114.949,-120.964 114.949,-120.964 114.949,-120.964 109.985,-121.558 115.485,-125.432 105.02,-122.153 105.02,-122.153"/>
<text text-anchor="middle" x="158" y="-129.072" font-family="Times,serif" font-size="14.00">secretary</text>
</g>
</g>
</svg>

