<?xml version="1.0" encoding="UTF-8" standalone="no"?>
<?xml-stylesheet href="Xholon.css" type="text/css"?>
<!DOCTYPE svg PUBLIC "-//W3C//DTD SVG 1.1//EN"
 "http://www.w3.org/Graphics/SVG/1.1/DTD/svg11.dtd">
<!-- Generated by graphviz version 2.38.0 (20140413.2041)
 -->
<!-- Title: 47 Pages: 1 -->
<svg width="1108pt" height="230pt"
 viewBox="0.00 0.00 1108.10 230.00" xmlns="http://www.w3.org/2000/svg" xmlns:xlink="http://www.w3.org/1999/xlink">
<g id="graph0" class="graph" transform="scale(1 1) rotate(0) translate(4 226)">
<title>47</title>
<polygon fill="white" stroke="none" points="-4,4 -4,-226 1104.1,-226 1104.1,4 -4,4"/>
<text text-anchor="middle" x="550.048" y="-7.8" font-family="Courier New" font-size="14.00">CatTheorySystem</text>
<g id="CatTheorySystem/Employees" class="cluster"><title>cluster50</title>
<polygon fill="none" stroke="black" points="190.096,-31 190.096,-214 749.096,-214 749.096,-31 190.096,-31"/>
<text text-anchor="middle" x="469.596" y="-198.8" font-family="Courier New" font-size="14.00">Employees</text>
</g>
<g id="CatTheorySystem/Departments" class="cluster"><title>cluster51</title>
<polygon fill="none" stroke="black" points="757.096,-31 757.096,-106 1092.1,-106 1092.1,-31 757.096,-31"/>
<text text-anchor="middle" x="924.596" y="-90.8" font-family="Courier New" font-size="14.00">Departments</text>
</g>
<!-- 48 -->
<g id="CatTheorySystem/strings" class="node"><title>48</title>
<ellipse fill="#f0f8ff" stroke="black" cx="48.0957" cy="-165" rx="48.1917" ry="18"/>
<text text-anchor="middle" x="48.0957" y="-161.3" font-family="Courier New" font-size="14.00">strings</text>
</g>
<!-- 49 -->
<g id="CatTheorySystem/nats" class="node"><title>49</title>
<ellipse fill="#f0f8ff" stroke="black" cx="147.096" cy="-165" rx="32.4942" ry="18"/>
<text text-anchor="middle" x="147.096" y="-161.3" font-family="Courier New" font-size="14.00">nats</text>
</g>
<!-- 52 -->
<g id="CatTheorySystem/Employees/Employee[@roleName=&#39;a&#39;]" class="node"><title>52</title>
<ellipse fill="#f0f8ff" stroke="black" cx="464.096" cy="-165" rx="64.189" ry="18"/>
<text text-anchor="middle" x="464.096" y="-161.3" font-family="Courier New" font-size="14.00">a Employee</text>
</g>
<!-- 53 -->
<g id="CatTheorySystem/Employees/Employee[@roleName=&#39;b&#39;]" class="node"><title>53</title>
<ellipse fill="#f0f8ff" stroke="black" cx="468.096" cy="-57" rx="64.189" ry="18"/>
<text text-anchor="middle" x="468.096" y="-53.3" font-family="Courier New" font-size="14.00">b Employee</text>
</g>
<!-- 52&#45;&gt;53 -->
<g id="edge1" class="edge"><title>52&#45;&gt;53</title>
<path fill="none" stroke="black" d="M464.738,-146.969C465.364,-130.378 466.327,-104.883 467.061,-85.4306"/>
<polygon fill="black" stroke="black" points="467.441,-75.3406 471.561,-85.5032 467.253,-80.3371 467.064,-85.3335 467.064,-85.3335 467.064,-85.3335 467.253,-80.3371 462.567,-85.1638 467.441,-75.3406 467.441,-75.3406"/>
<text text-anchor="middle" x="490.096" y="-117.8" font-family="Times,serif" font-size="14.00">manager</text>
</g>
<!-- 55 -->
<g id="CatTheorySystem/Departments/Department[@roleName=&#39;m&#39;]" class="node"><title>55</title>
<ellipse fill="#f0f8ff" stroke="black" cx="840.096" cy="-57" rx="75.2868" ry="18"/>
<text text-anchor="middle" x="840.096" y="-53.3" font-family="Courier New" font-size="14.00">m Department</text>
</g>
<!-- 52&#45;&gt;55 -->
<g id="edge7" class="edge"><title>52&#45;&gt;55</title>
<path fill="none" stroke="black" d="M500.473,-150.055C532.906,-138.282 581.943,-122.086 626.096,-114 681.727,-103.811 698.798,-121.822 753.096,-106 772.617,-100.312 792.605,-89.6863 808.492,-79.8756"/>
<polygon fill="black" stroke="black" points="817.337,-74.2369 811.324,-83.4069 813.121,-76.9246 808.905,-79.6123 808.905,-79.6123 808.905,-79.6123 813.121,-76.9246 806.486,-75.8177 817.337,-74.2369 817.337,-74.2369"/>
<text text-anchor="middle" x="648.596" y="-117.8" font-family="Times,serif" font-size="14.00">worksIn</text>
</g>
<!-- 53&#45;&gt;53 -->
<g id="edge2" class="edge"><title>53&#45;&gt;53</title>
<path fill="none" stroke="black" d="M516.307,-68.9531C534.947,-69.4844 550.44,-65.5 550.44,-57 550.44,-50.0938 540.212,-46.1685 526.378,-45.2243"/>
<polygon fill="black" stroke="black" points="516.307,-45.0469 526.384,-40.7238 521.306,-45.135 526.305,-45.2231 526.305,-45.2231 526.305,-45.2231 521.306,-45.135 526.226,-49.7224 516.307,-45.0469 516.307,-45.0469"/>
<text text-anchor="middle" x="574.44" y="-53.3" font-family="Times,serif" font-size="14.00">manager</text>
</g>
<!-- 53&#45;&gt;55 -->
<g id="edge8" class="edge"><title>53&#45;&gt;55</title>
<path fill="none" stroke="black" d="M532.468,-57C593.885,-57 686.806,-57 754.451,-57"/>
<polygon fill="black" stroke="black" points="764.661,-57 754.661,-61.5001 759.661,-57 754.661,-57.0001 754.661,-57.0001 754.661,-57.0001 759.661,-57 754.661,-52.5001 764.661,-57 764.661,-57"/>
<text text-anchor="middle" x="648.571" y="-63.8" font-family="Times,serif" font-size="14.00">worksIn</text>
</g>
<!-- 54 -->
<g id="CatTheorySystem/Employees/Employee[@roleName=&#39;c&#39;]" class="node"><title>54</title>
<ellipse fill="#f0f8ff" stroke="black" cx="611.096" cy="-165" rx="64.189" ry="18"/>
<text text-anchor="middle" x="611.096" y="-161.3" font-family="Courier New" font-size="14.00">c Employee</text>
</g>
<!-- 54&#45;&gt;54 -->
<g id="edge3" class="edge"><title>54&#45;&gt;54</title>
<path fill="none" stroke="black" d="M669.566,-172.719C683.304,-172.085 693.44,-169.512 693.44,-165 693.44,-161.687 687.974,-159.419 679.629,-158.197"/>
<polygon fill="black" stroke="black" points="669.566,-157.281 679.933,-153.706 674.545,-157.734 679.525,-158.187 679.525,-158.187 679.525,-158.187 674.545,-157.734 679.117,-162.669 669.566,-157.281 669.566,-157.281"/>
<text text-anchor="middle" x="717.44" y="-161.3" font-family="Times,serif" font-size="14.00">manager</text>
</g>
<!-- 56 -->
<g id="CatTheorySystem/Departments/Department[@roleName=&#39;s&#39;]" class="node"><title>56</title>
<ellipse fill="#f0f8ff" stroke="black" cx="1009.1" cy="-57" rx="75.2868" ry="18"/>
<text text-anchor="middle" x="1009.1" y="-53.3" font-family="Courier New" font-size="14.00">s Department</text>
</g>
<!-- 54&#45;&gt;56 -->
<g id="edge9" class="edge"><title>54&#45;&gt;56</title>
<path fill="none" stroke="black" d="M659.832,-153.026C709.696,-142.069 789.509,-125.28 859.096,-114 887.828,-109.343 896.451,-115.108 924.096,-106 942.799,-99.838 962.035,-89.3811 977.467,-79.7975"/>
<polygon fill="black" stroke="black" points="986.081,-74.2948 980.076,-83.4705 981.867,-76.9865 977.654,-79.6783 977.654,-79.6783 977.654,-79.6783 981.867,-76.9865 975.231,-75.886 986.081,-74.2948 986.081,-74.2948"/>
<text text-anchor="middle" x="881.596" y="-117.8" font-family="Times,serif" font-size="14.00">worksIn</text>
</g>
<!-- cluster50 -->
<g id="node6" class="node"><title>cluster50</title>
<ellipse fill="#f0f8ff" stroke="black" cx="257.096" cy="-165" rx="59.2899" ry="18"/>
<text text-anchor="middle" x="257.096" y="-161.3" font-family="Courier New" font-size="14.00">cluster50</text>
</g>
<!-- cluster50&#45;&gt;cluster50 -->
<g id="edge4" class="edge"><title>cluster50&#45;&gt;cluster50</title>
<path fill="none" stroke="black" d="M310.457,-172.781C324.042,-172.269 334.24,-169.676 334.24,-165 334.24,-161.566 328.74,-159.255 320.438,-158.067"/>
<polygon fill="black" stroke="black" points="310.457,-157.219 320.802,-153.582 315.439,-157.643 320.421,-158.066 320.421,-158.066 320.421,-158.066 315.439,-157.643 320.04,-162.55 310.457,-157.219 310.457,-157.219"/>
<text text-anchor="middle" x="358.24" y="-161.3" font-family="Times,serif" font-size="14.00">manager</text>
</g>
<!-- cluster51 -->
<g id="node7" class="node"><title>cluster51</title>
<ellipse fill="#f0f8ff" stroke="black" cx="292.096" cy="-57" rx="59.2899" ry="18"/>
<text text-anchor="middle" x="292.096" y="-53.3" font-family="Courier New" font-size="14.00">cluster51</text>
</g>
<!-- cluster50&#45;&gt;cluster51 -->
<g id="edge5" class="edge"><title>cluster50&#45;&gt;cluster51</title>
<path fill="none" stroke="black" d="M287.011,-149.311C294.619,-144.024 301.838,-137.273 306.096,-129 313.174,-115.246 310.206,-98.3 305.217,-84.413"/>
<polygon fill="black" stroke="black" points="301.343,-74.9313 309.291,-82.486 303.234,-79.5597 305.125,-84.1882 305.125,-84.1882 305.125,-84.1882 303.234,-79.5597 300.96,-85.8905 301.343,-74.9313 301.343,-74.9313"/>
<text text-anchor="middle" x="333.596" y="-117.8" font-family="Times,serif" font-size="14.00">worksIn</text>
</g>
<!-- cluster51&#45;&gt;cluster50 -->
<g id="edge6" class="edge"><title>cluster51&#45;&gt;cluster50</title>
<path fill="none" stroke="black" d="M276.405,-74.6643C267.694,-85.0938 257.709,-99.3051 253.096,-114 250.827,-121.228 250.562,-129.319 251.201,-136.85"/>
<polygon fill="black" stroke="black" points="252.592,-146.976 246.773,-137.682 251.912,-142.023 251.231,-137.069 251.231,-137.069 251.231,-137.069 251.912,-142.023 255.689,-136.457 252.592,-146.976 252.592,-146.976"/>
<text text-anchor="middle" x="277.596" y="-117.8" font-family="Times,serif" font-size="14.00">secretary</text>
</g>
<!-- 55&#45;&gt;53 -->
<g id="edge10" class="edge"><title>55&#45;&gt;53</title>
<path fill="none" stroke="black" d="M764.661,-57C699.894,-57 607.052,-57 542.566,-57"/>
<polygon fill="black" stroke="black" points="532.468,-57 542.469,-52.5001 537.468,-57 542.468,-57.0001 542.468,-57.0001 542.468,-57.0001 537.468,-57 542.468,-61.5001 532.468,-57 532.468,-57"/>
<text text-anchor="middle" x="648.571" y="-63.8" font-family="Times,serif" font-size="14.00">secretary</text>
</g>
<!-- 56&#45;&gt;54 -->
<g id="edge11" class="edge"><title>56&#45;&gt;54</title>
<path fill="none" stroke="black" d="M990.533,-74.6528C970.675,-91.4257 937.5,-116.551 904.096,-129 864.896,-143.609 756.462,-153.823 683.086,-159.304"/>
<polygon fill="black" stroke="black" points="672.976,-160.046 682.62,-154.826 677.963,-159.68 682.949,-159.314 682.949,-159.314 682.949,-159.314 677.963,-159.68 683.278,-163.801 672.976,-160.046 672.976,-160.046"/>
<text text-anchor="middle" x="959.596" y="-117.8" font-family="Times,serif" font-size="14.00">secretary</text>
</g>
</g>
</svg>
