<?xml version="1.0" encoding="UTF-8" standalone="no"?>
<?xml-stylesheet href="Xholon.css" type="text/css"?>
<!DOCTYPE svg PUBLIC "-//W3C//DTD SVG 1.1//EN"
 "http://www.w3.org/Graphics/SVG/1.1/DTD/svg11.dtd">
<!-- Generated by graphviz version 2.28.0 (20140111.2315)
 -->
<!-- Title: 47 Pages: 1 -->
<svg width="548pt" height="519pt"
 viewBox="0.00 0.00 548.43 518.80" xmlns="http://www.w3.org/2000/svg" xmlns:xlink="http://www.w3.org/1999/xlink">
<g id="CattSystem" class="graph" transform="scale(1 1) rotate(0) translate(4 514.8)">
<title>47</title>
<polygon fill="white" stroke="none" points="-4,4 -4,-514.8 544.429,-514.8 544.429,4 -4,4"/>
<text text-anchor="middle" x="270.215" y="-8.2" font-family="Times,serif" font-size="14.00">CattSystem</text>
<!-- 48 -->
<g id="CattSystem/CatTheorySchema/string" class="node"><title>48</title>
<ellipse fill="#f0f8ff" stroke="black" cx="317" cy="-42.8" rx="33.0468" ry="18"/>
<text text-anchor="middle" x="317" y="-38.6" font-family="Times,serif" font-size="14.00">string</text>
</g>
<!-- 49 -->
<g id="CattSystem/CatTheorySchema/nat" class="node"><title>49</title>
<ellipse fill="#f0f8ff" stroke="black" cx="496" cy="-132.8" rx="27" ry="18"/>
<text text-anchor="middle" x="496" y="-128.6" font-family="Times,serif" font-size="14.00">nat</text>
</g>
<!-- 50 -->
<g id="CattSystem/CatTheorySchema/Employee" class="node"><title>50</title>
<ellipse fill="#f0f8ff" stroke="black" cx="338" cy="-222.8" rx="50.2862" ry="18"/>
<text text-anchor="middle" x="338" y="-218.6" font-family="Times,serif" font-size="14.00">Employee</text>
</g>
<!-- 50&#45;&gt;48 -->
<g id="CattSystem_edge3" class="edge"><title>50&#45;&gt;48</title>
<path fill="none" stroke="black" d="M335.986,-204.733C332.333,-173.766 324.586,-108.099 320.201,-70.9292"/>
<polygon fill="black" stroke="black" points="319.007,-60.8157 324.648,-70.2196 319.593,-65.7813 320.179,-70.7468 320.179,-70.7468 320.179,-70.7468 319.593,-65.7813 315.71,-71.2741 319.007,-60.8157 319.007,-60.8157"/>
<text text-anchor="middle" x="344.774" y="-128.6" font-family="Times,serif" font-size="14.00">first_</text>
</g>
<!-- 50&#45;&gt;48 -->
<g id="CattSystem_edge4" class="edge"><title>50&#45;&gt;48</title>
<path fill="none" stroke="black" d="M346.695,-204.952C356.491,-183.729 369.95,-146.232 361,-114.8 356.16,-97.802 345.956,-80.8967 336.592,-67.8484"/>
<polygon fill="black" stroke="black" points="330.32,-59.4774 339.918,-64.7819 333.318,-63.4788 336.316,-67.4802 336.316,-67.4802 336.316,-67.4802 333.318,-63.4788 332.715,-70.1785 330.32,-59.4774 330.32,-59.4774"/>
<text text-anchor="middle" x="376.22" y="-128.6" font-family="Times,serif" font-size="14.00">last_</text>
</g>
<!-- 50&#45;&gt;49 -->
<g id="CattSystem_edge5" class="edge"><title>50&#45;&gt;49</title>
<path fill="none" stroke="black" d="M387.402,-219.012C434.589,-215.193 500.847,-206.417 517,-186.8 524.104,-178.172 520.855,-166.844 515.004,-156.876"/>
<polygon fill="black" stroke="black" points="509.387,-148.568 518.716,-154.332 512.188,-152.71 514.988,-156.852 514.988,-156.852 514.988,-156.852 512.188,-152.71 511.261,-159.373 509.387,-148.568 509.387,-148.568"/>
<text text-anchor="middle" x="530.715" y="-173.6" font-family="Times,serif" font-size="14.00">age</text>
</g>
<!-- 50&#45;&gt;49 -->
<g id="CattSystem_edge6" class="edge"><title>50&#45;&gt;49</title>
<path fill="none" stroke="black" d="M363.481,-207.261C373.294,-201.309 384.434,-194.108 394,-186.8 403.366,-179.645 403.574,-175.196 413.474,-168.8 428.594,-159.032 446.897,-150.946 462.421,-145.016"/>
<polygon fill="black" stroke="black" points="472.16,-141.434 464.328,-149.109 467.467,-143.16 462.774,-144.886 462.774,-144.886 462.774,-144.886 467.467,-143.16 461.221,-140.662 472.16,-141.434 472.16,-141.434"/>
<text text-anchor="middle" x="462.763" y="-173.6" font-family="Times,serif" font-size="14.00">cummulative_age</text>
</g>
<!-- 50&#45;&gt;50 -->
<g id="CattSystem_edge1" class="edge"><title>50&#45;&gt;50</title>
<path fill="none" stroke="black" d="M382.797,-231.025C395.872,-230.741 406,-227.999 406,-222.8 406,-219.063 400.768,-216.596 392.97,-215.398"/>
<polygon fill="black" stroke="black" points="382.797,-214.575 393.128,-210.896 387.781,-214.978 392.765,-215.381 392.765,-215.381 392.765,-215.381 387.781,-214.978 392.402,-219.867 382.797,-214.575 382.797,-214.575"/>
<text text-anchor="middle" x="430.097" y="-218.6" font-family="Times,serif" font-size="14.00">manager</text>
</g>
<!-- 51 -->
<g id="CattSystem/CatTheorySchema/Department" class="node"><title>51</title>
<ellipse fill="#f0f8ff" stroke="black" cx="203" cy="-132.8" rx="56.4284" ry="18"/>
<text text-anchor="middle" x="203" y="-128.6" font-family="Times,serif" font-size="14.00">Department</text>
</g>
<!-- 50&#45;&gt;51 -->
<g id="CattSystem_edge2" class="edge"><title>50&#45;&gt;51</title>
<path fill="none" stroke="black" d="M291.808,-215.706C257.585,-210.143 215.067,-200.66 204.128,-186.8 198.472,-179.634 197.03,-170.065 197.385,-161.031"/>
<polygon fill="black" stroke="black" points="198.482,-150.846 201.885,-161.271 197.946,-155.818 197.411,-160.789 197.411,-160.789 197.411,-160.789 197.946,-155.818 192.936,-160.306 198.482,-150.846 198.482,-150.846"/>
<text text-anchor="middle" x="227.936" y="-173.6" font-family="Times,serif" font-size="14.00">worksIn</text>
</g>
<!-- 51&#45;&gt;48 -->
<g id="CattSystem_edge8" class="edge"><title>51&#45;&gt;48</title>
<path fill="none" stroke="black" d="M221.237,-115.515C233.528,-104.757 250.254,-90.5326 265.68,-78.8 272.714,-73.4507 280.502,-67.9401 287.842,-62.9195"/>
<polygon fill="black" stroke="black" points="296.18,-57.2899 290.41,-66.6153 292.036,-60.0878 287.892,-62.8858 287.892,-62.8858 287.892,-62.8858 292.036,-60.0878 285.374,-59.1563 296.18,-57.2899 296.18,-57.2899"/>
<text text-anchor="middle" x="284.66" y="-83.6" font-family="Times,serif" font-size="14.00">name_</text>
</g>
<!-- 51&#45;&gt;50 -->
<g id="CattSystem_edge7" class="edge"><title>51&#45;&gt;50</title>
<path fill="none" stroke="black" d="M224.573,-149.768C232.577,-155.718 241.72,-162.545 250,-168.8 260.493,-176.728 262.453,-179.642 273.485,-186.8 282.144,-192.418 291.782,-197.984 300.913,-202.97"/>
<polygon fill="black" stroke="black" points="309.82,-207.742 298.88,-206.986 305.413,-205.381 301.005,-203.019 301.005,-203.019 301.005,-203.019 305.413,-205.381 303.131,-199.053 309.82,-207.742 309.82,-207.742"/>
<text text-anchor="middle" x="299.257" y="-173.6" font-family="Times,serif" font-size="14.00">secretary</text>
</g>
<!-- 52 -->
<g id="CattSystem/CatTheoryInstance/Employee[@roleName=&#39;a&#39;]" class="node"><title>52</title>
<ellipse fill="#f0f8ff" stroke="black" cx="338" cy="-492.8" rx="27" ry="18"/>
<text text-anchor="middle" x="338" y="-488.6" font-family="Times,serif" font-size="14.00">a</text>
</g>
<!-- 52&#45;&gt;50 -->
<g id="CattSystem_edge17" class="edge"><title>52&#45;&gt;50</title>
<path fill="none" stroke="black" d="M352.386,-477.247C364.535,-463.855 381.034,-442.79 388,-420.8 393.632,-403.02 399.57,-334.369 387,-294.8 381.532,-277.588 370.343,-260.837 360.036,-247.933"/>
<polygon fill="black" stroke="black" points="353.46,-240.042 363.319,-244.843 356.661,-243.883 359.862,-247.724 359.862,-247.724 359.862,-247.724 356.661,-243.883 356.405,-250.605 353.46,-240.042 353.46,-240.042"/>
<text text-anchor="middle" x="414.99" y="-353.6" font-family="Times,serif" font-size="14.00">schema</text>
</g>
<!-- 54 -->
<g id="CattSystem/CatTheoryInstance/Employee[@roleName=&#39;b&#39;]" class="node"><title>54</title>
<ellipse fill="#f0f8ff" stroke="black" cx="285" cy="-312.8" rx="27" ry="18"/>
<text text-anchor="middle" x="285" y="-308.6" font-family="Times,serif" font-size="14.00">b</text>
</g>
<!-- 52&#45;&gt;54 -->
<g id="CattSystem_edge9" class="edge"><title>52&#45;&gt;54</title>
<path fill="none" stroke="black" d="M338.417,-474.61C338.439,-446.814 335.741,-390.868 316,-348.8 313.773,-344.053 310.696,-339.474 307.34,-335.279"/>
<polygon fill="black" stroke="black" points="300.692,-327.745 310.682,-332.266 304,-331.494 307.308,-335.243 307.308,-335.243 307.308,-335.243 304,-331.494 303.934,-338.221 300.692,-327.745 300.692,-327.745"/>
<text text-anchor="middle" x="360.098" y="-398.6" font-family="Times,serif" font-size="14.00">manager</text>
</g>
<!-- 58 -->
<g id="CattSystem/CatTheoryInstance/Department[@roleName=&#39;m&#39;]" class="node"><title>58</title>
<ellipse fill="#f0f8ff" stroke="black" cx="239" cy="-402.8" rx="27" ry="18"/>
<text text-anchor="middle" x="239" y="-398.6" font-family="Times,serif" font-size="14.00">m</text>
</g>
<!-- 52&#45;&gt;58 -->
<g id="CattSystem_edge10" class="edge"><title>52&#45;&gt;58</title>
<path fill="none" stroke="black" d="M316.378,-481.88C304.327,-475.713 289.503,-467.019 278.128,-456.8 269.008,-448.607 260.666,-437.983 254.049,-428.401"/>
<polygon fill="black" stroke="black" points="248.484,-419.993 257.756,-425.848 251.243,-424.162 254.003,-428.332 254.003,-428.332 254.003,-428.332 251.243,-424.162 250.25,-430.816 248.484,-419.993 248.484,-419.993"/>
<text text-anchor="middle" x="301.936" y="-443.6" font-family="Times,serif" font-size="14.00">worksIn</text>
</g>
<!-- 54&#45;&gt;50 -->
<g id="CattSystem_edge18" class="edge"><title>54&#45;&gt;50</title>
<path fill="none" stroke="black" d="M294.721,-295.659C302.492,-282.757 313.533,-264.425 322.518,-249.507"/>
<polygon fill="black" stroke="black" points="327.799,-240.738 326.494,-251.626 325.219,-245.021 322.639,-249.304 322.639,-249.304 322.639,-249.304 325.219,-245.021 318.785,-246.983 327.799,-240.738 327.799,-240.738"/>
<text text-anchor="middle" x="337.99" y="-263.6" font-family="Times,serif" font-size="14.00">schema</text>
</g>
<!-- 54&#45;&gt;54 -->
<g id="CattSystem_edge11" class="edge"><title>54&#45;&gt;54</title>
<path fill="none" stroke="black" d="M309.532,-320.921C320.508,-321.695 330,-318.988 330,-312.8 330,-308.643 325.715,-306.057 319.574,-305.042"/>
<polygon fill="black" stroke="black" points="309.532,-304.679 319.688,-300.543 314.529,-304.859 319.526,-305.04 319.526,-305.04 319.526,-305.04 314.529,-304.859 319.363,-309.537 309.532,-304.679 309.532,-304.679"/>
<text text-anchor="middle" x="354.098" y="-308.6" font-family="Times,serif" font-size="14.00">manager</text>
</g>
<!-- 54&#45;&gt;58 -->
<g id="CattSystem_edge12" class="edge"><title>54&#45;&gt;58</title>
<path fill="none" stroke="black" d="M276.461,-330.136C269.666,-343.135 260.039,-361.552 252.245,-376.461"/>
<polygon fill="black" stroke="black" points="247.437,-385.659 248.082,-374.713 249.753,-381.228 252.07,-376.797 252.07,-376.797 252.07,-376.797 249.753,-381.228 256.058,-378.882 247.437,-385.659 247.437,-385.659"/>
<text text-anchor="middle" x="289.936" y="-353.6" font-family="Times,serif" font-size="14.00">worksIn</text>
</g>
<!-- 58&#45;&gt;51 -->
<g id="CattSystem_edge20" class="edge"><title>58&#45;&gt;51</title>
<path fill="none" stroke="black" d="M220.115,-389.747C211.995,-383.724 203.009,-375.799 197,-366.8 173.739,-331.964 175.31,-318.214 169.021,-276.8 162.75,-235.501 178.393,-188.547 190.488,-160.058"/>
<polygon fill="black" stroke="black" points="194.577,-150.79 194.657,-161.755 192.558,-155.364 190.54,-159.939 190.54,-159.939 190.54,-159.939 192.558,-155.364 186.423,-158.123 194.577,-150.79 194.577,-150.79"/>
<text text-anchor="middle" x="190.989" y="-263.6" font-family="Times,serif" font-size="14.00">schema</text>
</g>
<!-- 58&#45;&gt;54 -->
<g id="CattSystem_edge15" class="edge"><title>58&#45;&gt;54</title>
<path fill="none" stroke="black" d="M221.074,-389.2C208.108,-378.485 194.344,-362.673 203.485,-348.8 213.59,-333.464 231.969,-324.821 248.72,-319.963"/>
<polygon fill="black" stroke="black" points="258.852,-317.402 250.26,-324.216 254.004,-318.627 249.157,-319.853 249.157,-319.853 249.157,-319.853 254.004,-318.627 248.054,-315.49 258.852,-317.402 258.852,-317.402"/>
<text text-anchor="middle" x="229.257" y="-353.6" font-family="Times,serif" font-size="14.00">secretary</text>
</g>
<!-- 56 -->
<g id="CattSystem/CatTheoryInstance/Employee[@roleName=&#39;c&#39;]" class="node"><title>56</title>
<ellipse fill="#f0f8ff" stroke="black" cx="49" cy="-312.8" rx="27" ry="18"/>
<text text-anchor="middle" x="49" y="-308.6" font-family="Times,serif" font-size="14.00">c</text>
</g>
<!-- 56&#45;&gt;50 -->
<g id="CattSystem_edge19" class="edge"><title>56&#45;&gt;50</title>
<path fill="none" stroke="black" d="M75.2926,-307.918C108.377,-302.657 166.714,-292.125 215,-276.8 231.299,-271.627 269.471,-254.903 299.002,-241.609"/>
<polygon fill="black" stroke="black" points="308.247,-237.432 300.987,-245.65 303.691,-239.491 299.134,-241.549 299.134,-241.549 299.134,-241.549 303.691,-239.491 297.281,-237.448 308.247,-237.432 308.247,-237.432"/>
<text text-anchor="middle" x="278.99" y="-263.6" font-family="Times,serif" font-size="14.00">schema</text>
</g>
<!-- 56&#45;&gt;56 -->
<g id="CattSystem_edge13" class="edge"><title>56&#45;&gt;56</title>
<path fill="none" stroke="black" d="M73.5325,-320.921C84.5078,-321.695 94,-318.988 94,-312.8 94,-308.643 89.7151,-306.057 83.5743,-305.042"/>
<polygon fill="black" stroke="black" points="73.5325,-304.679 83.6885,-300.543 78.5292,-304.859 83.5259,-305.04 83.5259,-305.04 83.5259,-305.04 78.5292,-304.859 83.3634,-309.537 73.5325,-304.679 73.5325,-304.679"/>
<text text-anchor="middle" x="118.097" y="-308.6" font-family="Times,serif" font-size="14.00">manager</text>
</g>
<!-- 60 -->
<g id="CattSystem/CatTheoryInstance/Department[@roleName=&#39;s&#39;]" class="node"><title>60</title>
<ellipse fill="#f0f8ff" stroke="black" cx="27" cy="-402.8" rx="27" ry="18"/>
<text text-anchor="middle" x="27" y="-398.6" font-family="Times,serif" font-size="14.00">s</text>
</g>
<!-- 56&#45;&gt;60 -->
<g id="CattSystem_edge14" class="edge"><title>56&#45;&gt;60</title>
<path fill="none" stroke="black" d="M65.3104,-327.64C75.768,-338.271 86.1545,-353.36 79,-366.8 74.4185,-375.406 66.6747,-382.276 58.5432,-387.569"/>
<polygon fill="black" stroke="black" points="49.6989,-392.703 56.0884,-383.791 54.0232,-390.193 58.3475,-387.683 58.3475,-387.683 58.3475,-387.683 54.0232,-390.193 60.6066,-391.575 49.6989,-392.703 49.6989,-392.703"/>
<text text-anchor="middle" x="104.936" y="-353.6" font-family="Times,serif" font-size="14.00">worksIn</text>
</g>
<!-- 60&#45;&gt;51 -->
<g id="CattSystem_edge21" class="edge"><title>60&#45;&gt;51</title>
<path fill="none" stroke="black" d="M19.5423,-385.377C10.8195,-363.626 -0.784024,-324.547 13,-294.8 44.036,-227.821 118.188,-178.569 164.139,-153.192"/>
<polygon fill="black" stroke="black" points="173.211,-148.289 166.553,-157.002 168.812,-150.666 164.414,-153.044 164.414,-153.044 164.414,-153.044 168.812,-150.666 162.274,-149.085 173.211,-148.289 173.211,-148.289"/>
<text text-anchor="middle" x="55.9895" y="-263.6" font-family="Times,serif" font-size="14.00">schema</text>
</g>
<!-- 60&#45;&gt;56 -->
<g id="CattSystem_edge16" class="edge"><title>60&#45;&gt;56</title>
<path fill="none" stroke="black" d="M23.2273,-384.704C21.6108,-374.125 20.8279,-360.396 24.4852,-348.8 25.7299,-344.853 27.5961,-340.965 29.7538,-337.297"/>
<polygon fill="black" stroke="black" points="35.5302,-328.724 33.674,-339.532 32.7361,-332.871 29.9421,-337.017 29.9421,-337.017 29.9421,-337.017 32.7361,-332.871 26.2103,-334.503 35.5302,-328.724 35.5302,-328.724"/>
<text text-anchor="middle" x="50.2574" y="-353.6" font-family="Times,serif" font-size="14.00">secretary</text>
</g>
</g>
</svg>

