<?xml version="1.0" encoding="UTF-8" standalone="no"?>
<?xml-stylesheet href="Xholon.css" type="text/css"?>
<!DOCTYPE svg PUBLIC "-//W3C//DTD SVG 1.1//EN"
 "http://www.w3.org/Graphics/SVG/1.1/DTD/svg11.dtd">
<!-- Generated by graphviz version 2.38.0 (20140413.2041)
 -->
<!-- Title: 47 Pages: 1 -->
<svg width="705pt" height="241pt"
 viewBox="0.00 0.00 705.10 241.00" xmlns="http://www.w3.org/2000/svg" xmlns:xlink="http://www.w3.org/1999/xlink">
<g id="CatTheorySystem" class="graph" transform="scale(1 1) rotate(0) translate(4 237)">
<title>47</title>
<polygon fill="white" stroke="none" points="-4,4 -4,-237 701.096,-237 701.096,4 -4,4"/>
<text text-anchor="middle" x="348.548" y="-7.8" font-family="Courier New" font-size="14.00">CatTheorySystem</text>
<!-- 48 -->
<g id="CatTheorySystem/strings" class="node"><title>48</title>
<ellipse fill="#f0f8ff" stroke="black" cx="48.0957" cy="-215" rx="48.1917" ry="18"/>
<text text-anchor="middle" x="48.0957" y="-211.3" font-family="Courier New" font-size="14.00">strings</text>
</g>
<!-- 49 -->
<g id="CatTheorySystem/nats" class="node"><title>49</title>
<ellipse fill="#f0f8ff" stroke="black" cx="147.096" cy="-215" rx="32.4942" ry="18"/>
<text text-anchor="middle" x="147.096" y="-211.3" font-family="Courier New" font-size="14.00">nats</text>
</g>
<!-- 52 -->
<g id="CatTheorySystem/Employees/Employee[@roleName=&#39;a&#39;]" class="node"><title>52</title>
<ellipse fill="#f0f8ff" stroke="black" cx="262.096" cy="-215" rx="64.189" ry="18"/>
<text text-anchor="middle" x="262.096" y="-211.3" font-family="Courier New" font-size="14.00">a Employee</text>
</g>
<!-- 53 -->
<g id="CatTheorySystem/Employees/Employee[@roleName=&#39;b&#39;]" class="node"><title>53</title>
<ellipse fill="#f0f8ff" stroke="black" cx="100.096" cy="-128" rx="64.189" ry="18"/>
<text text-anchor="middle" x="100.096" y="-124.3" font-family="Courier New" font-size="14.00">b Employee</text>
</g>
<!-- 52&#45;&gt;53 -->
<g id="CatTheorySystem_edge1" class="edge"><title>52&#45;&gt;53</title>
<path fill="none" stroke="black" d="M233.133,-198.804C206.608,-184.886 167.171,-164.194 138.118,-148.95"/>
<polygon fill="black" stroke="black" points="129.08,-144.208 140.026,-144.869 133.508,-146.531 137.935,-148.854 137.935,-148.854 137.935,-148.854 133.508,-146.531 135.844,-152.839 129.08,-144.208 129.08,-144.208"/>
<text text-anchor="middle" x="214.096" y="-167.8" font-family="Times,serif" font-size="14.00">manager</text>
</g>
<!-- 55 -->
<g id="CatTheorySystem/Departments/Department[@roleName=&#39;m&#39;]" class="node"><title>55</title>
<ellipse fill="#f0f8ff" stroke="black" cx="168.096" cy="-41" rx="75.2868" ry="18"/>
<text text-anchor="middle" x="168.096" y="-37.3" font-family="Courier New" font-size="14.00">m Department</text>
</g>
<!-- 52&#45;&gt;55 -->
<g id="CatTheorySystem_edge7" class="edge"><title>52&#45;&gt;55</title>
<path fill="none" stroke="black" d="M261.161,-196.802C259.372,-175.326 254.172,-138.006 239.096,-110 229.628,-92.4118 213.978,-76.6934 199.777,-64.8109"/>
<polygon fill="black" stroke="black" points="191.642,-58.2728 202.255,-61.0291 195.539,-61.4048 199.437,-64.5369 199.437,-64.5369 199.437,-64.5369 195.539,-61.4048 196.618,-68.0446 191.642,-58.2728 191.642,-58.2728"/>
<text text-anchor="middle" x="274.596" y="-124.3" font-family="Times,serif" font-size="14.00">worksIn</text>
</g>
<!-- 53&#45;&gt;53 -->
<g id="CatTheorySystem_edge2" class="edge"><title>53&#45;&gt;53</title>
<path fill="none" stroke="black" d="M158.566,-135.719C172.304,-135.085 182.44,-132.512 182.44,-128 182.44,-124.687 176.974,-122.419 168.629,-121.197"/>
<polygon fill="black" stroke="black" points="158.566,-120.281 168.933,-116.706 163.545,-120.734 168.525,-121.187 168.525,-121.187 168.525,-121.187 163.545,-120.734 168.117,-125.669 158.566,-120.281 158.566,-120.281"/>
<text text-anchor="middle" x="206.44" y="-124.3" font-family="Times,serif" font-size="14.00">manager</text>
</g>
<!-- 53&#45;&gt;55 -->
<g id="CatTheorySystem_edge8" class="edge"><title>53&#45;&gt;55</title>
<path fill="none" stroke="black" d="M96.3237,-110.029C94.9823,-99.7312 95.0596,-86.7422 101.096,-77 104.992,-70.711 110.422,-65.4945 116.52,-61.1832"/>
<polygon fill="black" stroke="black" points="125.17,-55.8495 119.02,-64.9287 120.914,-58.4739 116.658,-61.0984 116.658,-61.0984 116.658,-61.0984 120.914,-58.4739 114.296,-57.2681 125.17,-55.8495 125.17,-55.8495"/>
<text text-anchor="middle" x="123.596" y="-80.8" font-family="Times,serif" font-size="14.00">worksIn</text>
</g>
<!-- 54 -->
<g id="CatTheorySystem/Employees/Employee[@roleName=&#39;c&#39;]" class="node"><title>54</title>
<ellipse fill="#f0f8ff" stroke="black" cx="409.096" cy="-215" rx="64.189" ry="18"/>
<text text-anchor="middle" x="409.096" y="-211.3" font-family="Courier New" font-size="14.00">c Employee</text>
</g>
<!-- 54&#45;&gt;54 -->
<g id="CatTheorySystem_edge3" class="edge"><title>54&#45;&gt;54</title>
<path fill="none" stroke="black" d="M467.566,-222.719C481.304,-222.085 491.44,-219.512 491.44,-215 491.44,-211.687 485.974,-209.419 477.629,-208.197"/>
<polygon fill="black" stroke="black" points="467.566,-207.281 477.933,-203.706 472.545,-207.734 477.525,-208.187 477.525,-208.187 477.525,-208.187 472.545,-207.734 477.117,-212.669 467.566,-207.281 467.566,-207.281"/>
<text text-anchor="middle" x="515.44" y="-211.3" font-family="Times,serif" font-size="14.00">manager</text>
</g>
<!-- 56 -->
<g id="CatTheorySystem/Departments/Department[@roleName=&#39;s&#39;]" class="node"><title>56</title>
<ellipse fill="#f0f8ff" stroke="black" cx="419.096" cy="-128" rx="75.2868" ry="18"/>
<text text-anchor="middle" x="419.096" y="-124.3" font-family="Courier New" font-size="14.00">s Department</text>
</g>
<!-- 54&#45;&gt;56 -->
<g id="CatTheorySystem_edge9" class="edge"><title>54&#45;&gt;56</title>
<path fill="none" stroke="black" d="M382.096,-198.461C369.736,-189.21 359.207,-176.805 366.096,-164 368.907,-158.774 372.878,-154.199 377.398,-150.232"/>
<polygon fill="black" stroke="black" points="385.413,-144.122 380.188,-153.763 381.437,-147.153 377.46,-150.184 377.46,-150.184 377.46,-150.184 381.437,-147.153 374.732,-146.606 385.413,-144.122 385.413,-144.122"/>
<text text-anchor="middle" x="388.596" y="-167.8" font-family="Times,serif" font-size="14.00">worksIn</text>
</g>
<!-- 50 -->
<g id="CatTheorySystem_node6" class="node"><title>50</title>
<ellipse fill="#f0f8ff" stroke="black" cx="604.096" cy="-215" rx="27" ry="18"/>
<text text-anchor="middle" x="604.096" y="-211.3" font-family="Courier New" font-size="14.00">50</text>
</g>
<!-- 50&#45;&gt;50 -->
<g id="CatTheorySystem_edge4" class="edge"><title>50&#45;&gt;50</title>
<path fill="none" stroke="black" d="M628.628,-222.752C639.604,-223.49 649.096,-220.906 649.096,-215 649.096,-211.032 644.811,-208.563 638.67,-207.594"/>
<polygon fill="black" stroke="black" points="628.628,-207.248 638.777,-203.096 633.625,-207.42 638.622,-207.593 638.622,-207.593 638.622,-207.593 633.625,-207.42 638.467,-212.09 628.628,-207.248 628.628,-207.248"/>
<text text-anchor="middle" x="673.096" y="-211.3" font-family="Times,serif" font-size="14.00">manager</text>
</g>
<!-- 51 -->
<g id="CatTheorySystem_node7" class="node"><title>51</title>
<ellipse fill="#f0f8ff" stroke="black" cx="566.096" cy="-128" rx="27" ry="18"/>
<text text-anchor="middle" x="566.096" y="-124.3" font-family="Courier New" font-size="14.00">51</text>
</g>
<!-- 50&#45;&gt;51 -->
<g id="CatTheorySystem_edge5" class="edge"><title>50&#45;&gt;51</title>
<path fill="none" stroke="black" d="M581.397,-204.903C570.437,-199.217 558.334,-190.719 552.096,-179 548.06,-171.42 548.967,-162.557 551.697,-154.416"/>
<polygon fill="black" stroke="black" points="555.72,-144.979 555.938,-155.942 553.759,-149.578 551.798,-154.177 551.798,-154.177 551.798,-154.177 553.759,-149.578 547.659,-152.413 555.72,-144.979 555.72,-144.979"/>
<text text-anchor="middle" x="574.596" y="-167.8" font-family="Times,serif" font-size="14.00">worksIn</text>
</g>
<!-- 51&#45;&gt;50 -->
<g id="CatTheorySystem_edge6" class="edge"><title>51&#45;&gt;50</title>
<path fill="none" stroke="black" d="M581.842,-142.919C587.559,-148.843 593.493,-156.186 597.096,-164 600.288,-170.925 602.12,-178.918 603.146,-186.453"/>
<polygon fill="black" stroke="black" points="604.119,-196.642 598.688,-187.115 603.643,-191.664 603.168,-186.687 603.168,-186.687 603.168,-186.687 603.643,-191.664 607.648,-186.259 604.119,-196.642 604.119,-196.642"/>
<text text-anchor="middle" x="625.596" y="-167.8" font-family="Times,serif" font-size="14.00">secretary</text>
</g>
<!-- 55&#45;&gt;53 -->
<g id="CatTheorySystem_edge10" class="edge"><title>55&#45;&gt;53</title>
<path fill="none" stroke="black" d="M162.899,-59.3769C159.281,-69.5745 153.727,-82.3169 146.096,-92 142.435,-96.6452 138.022,-101.007 133.396,-104.969"/>
<polygon fill="black" stroke="black" points="125.507,-111.239 130.535,-101.494 129.421,-108.128 133.336,-105.017 133.336,-105.017 133.336,-105.017 129.421,-108.128 136.136,-108.54 125.507,-111.239 125.507,-111.239"/>
<text text-anchor="middle" x="178.596" y="-80.8" font-family="Times,serif" font-size="14.00">secretary</text>
</g>
<!-- 56&#45;&gt;54 -->
<g id="CatTheorySystem_edge11" class="edge"><title>56&#45;&gt;54</title>
<path fill="none" stroke="black" d="M417.075,-146.175C415.707,-157.806 413.87,-173.419 412.304,-186.734"/>
<polygon fill="black" stroke="black" points="411.119,-196.799 407.819,-186.342 411.704,-191.833 412.288,-186.867 412.288,-186.867 412.288,-186.867 411.704,-191.833 416.757,-187.393 411.119,-196.799 411.119,-196.799"/>
<text text-anchor="middle" x="438.596" y="-167.8" font-family="Times,serif" font-size="14.00">secretary</text>
</g>
</g>
</svg>
