<?xml version="1.0" encoding="UTF-8" standalone="no"?>
<?xml-stylesheet href="Xholon.css" type="text/css"?>
<!DOCTYPE svg PUBLIC "-//W3C//DTD SVG 1.1//EN"
 "http://www.w3.org/Graphics/SVG/1.1/DTD/svg11.dtd">
<!-- Generated by graphviz version 2.28.0 (20140111.2315)
 -->
<!-- Title: 47 Pages: 1 -->
<svg width="725pt" height="249pt"
 viewBox="0.00 0.00 724.89 248.80" xmlns="http://www.w3.org/2000/svg" xmlns:xlink="http://www.w3.org/1999/xlink">
<g id="CatTheorySystem" class="graph" transform="scale(1 1) rotate(0) translate(4 244.8)">
<title>47</title>
<polygon fill="white" stroke="none" points="-4,4 -4,-244.8 720.893,-244.8 720.893,4 -4,4"/>
<text text-anchor="middle" x="358.447" y="-8.2" font-family="Times,serif" font-size="14.00">CatTheorySystem</text>
<!-- 48 -->
<g id="CatTheorySystem/strings" class="node"><title>48</title>
<ellipse fill="#f0f8ff" stroke="black" cx="55.6982" cy="-42.8" rx="36.1836" ry="18"/>
<text text-anchor="middle" x="55.6982" y="-38.6" font-family="Times,serif" font-size="14.00">strings</text>
</g>
<!-- 49 -->
<g id="CatTheorySystem/nats" class="node"><title>49</title>
<ellipse fill="#f0f8ff" stroke="black" cx="128.698" cy="-132.8" rx="27" ry="18"/>
<text text-anchor="middle" x="128.698" y="-128.6" font-family="Times,serif" font-size="14.00">nats</text>
</g>
<!-- 52 -->
<g id="CatTheorySystem/Employees/Employee[@roleName=&#39;a&#39;]" class="node"><title>52</title>
<ellipse fill="#f0f8ff" stroke="black" cx="436.698" cy="-222.8" rx="56.3384" ry="18"/>
<text text-anchor="middle" x="436.698" y="-218.6" font-family="Times,serif" font-size="14.00">a Employee</text>
</g>
<!-- 53 -->
<g id="CatTheorySystem/Employees/Employee[@roleName=&#39;b&#39;]" class="node"><title>53</title>
<ellipse fill="#f0f8ff" stroke="black" cx="355.698" cy="-132.8" rx="57.1503" ry="18"/>
<text text-anchor="middle" x="355.698" y="-128.6" font-family="Times,serif" font-size="14.00">b Employee</text>
</g>
<!-- 52&#45;&gt;53 -->
<g id="CatTheorySystem_edge1" class="edge"><title>52&#45;&gt;53</title>
<path fill="none" stroke="black" d="M421.463,-205.248C409.131,-191.85 391.596,-172.8 377.733,-157.739"/>
<polygon fill="black" stroke="black" points="370.865,-150.278 380.949,-154.588 374.252,-153.957 377.638,-157.636 377.638,-157.636 377.638,-157.636 374.252,-153.957 374.327,-160.683 370.865,-150.278 370.865,-150.278"/>
<text text-anchor="middle" x="427.796" y="-173.6" font-family="Times,serif" font-size="14.00">manager</text>
</g>
<!-- 55 -->
<g id="CatTheorySystem/Departments/Department[@roleName=&#39;m&#39;]" class="node"><title>55</title>
<ellipse fill="#f0f8ff" stroke="black" cx="424.698" cy="-42.8" rx="66.3182" ry="18"/>
<text text-anchor="middle" x="424.698" y="-38.6" font-family="Times,serif" font-size="14.00">m Department</text>
</g>
<!-- 52&#45;&gt;55 -->
<g id="CatTheorySystem_edge12" class="edge"><title>52&#45;&gt;55</title>
<path fill="none" stroke="black" d="M453.094,-205.422C465.275,-192.019 480.908,-171.892 487.698,-150.8 492.601,-135.57 491.712,-130.288 487.698,-114.8 483.107,-97.0818 479.452,-92.8303 467.698,-78.8 464.067,-74.4651 459.837,-70.2766 455.476,-66.3955"/>
<polygon fill="black" stroke="black" points="447.583,-59.7763 458.136,-62.754 451.414,-62.9892 455.245,-66.202 455.245,-66.202 455.245,-66.202 451.414,-62.9892 452.353,-69.6501 447.583,-59.7763 447.583,-59.7763"/>
<text text-anchor="middle" x="514.634" y="-128.6" font-family="Times,serif" font-size="14.00">worksIn</text>
</g>
<!-- 53&#45;&gt;53 -->
<g id="CatTheorySystem_edge2" class="edge"><title>53&#45;&gt;53</title>
<path fill="none" stroke="black" d="M406.878,-140.977C420.432,-140.51 430.698,-137.784 430.698,-132.8 430.698,-129.14 425.162,-126.697 416.852,-125.473"/>
<polygon fill="black" stroke="black" points="406.878,-124.623 417.224,-120.988 411.86,-125.047 416.841,-125.472 416.841,-125.472 416.841,-125.472 411.86,-125.047 416.459,-129.956 406.878,-124.623 406.878,-124.623"/>
<text text-anchor="middle" x="454.796" y="-128.6" font-family="Times,serif" font-size="14.00">manager</text>
</g>
<!-- 53&#45;&gt;55 -->
<g id="CatTheorySystem_edge13" class="edge"><title>53&#45;&gt;55</title>
<path fill="none" stroke="black" d="M351.841,-114.78C350.294,-103.713 350.199,-89.4183 356.826,-78.8 361.071,-71.9991 367.097,-66.4582 373.826,-61.9616"/>
<polygon fill="black" stroke="black" points="382.645,-56.8082 376.282,-65.7389 378.328,-59.3309 374.011,-61.8536 374.011,-61.8536 374.011,-61.8536 378.328,-59.3309 371.741,-57.9684 382.645,-56.8082 382.645,-56.8082"/>
<text text-anchor="middle" x="380.634" y="-83.6" font-family="Times,serif" font-size="14.00">worksIn</text>
</g>
<!-- 54 -->
<g id="CatTheorySystem/Employees/Employee[@roleName=&#39;c&#39;]" class="node"><title>54</title>
<ellipse fill="#f0f8ff" stroke="black" cx="594.698" cy="-222.8" rx="56.3384" ry="18"/>
<text text-anchor="middle" x="594.698" y="-218.6" font-family="Times,serif" font-size="14.00">c Employee</text>
</g>
<!-- 54&#45;&gt;54 -->
<g id="CatTheorySystem_edge3" class="edge"><title>54&#45;&gt;54</title>
<path fill="none" stroke="black" d="M645.195,-230.977C658.569,-230.51 668.698,-227.784 668.698,-222.8 668.698,-219.179 663.351,-216.749 655.297,-215.512"/>
<polygon fill="black" stroke="black" points="645.195,-214.623 655.552,-211.017 650.176,-215.061 655.157,-215.5 655.157,-215.5 655.157,-215.5 650.176,-215.061 654.762,-219.983 645.195,-214.623 645.195,-214.623"/>
<text text-anchor="middle" x="692.796" y="-218.6" font-family="Times,serif" font-size="14.00">manager</text>
</g>
<!-- 56 -->
<g id="CatTheorySystem/Departments/Department[@roleName=&#39;s&#39;]" class="node"><title>56</title>
<ellipse fill="#f0f8ff" stroke="black" cx="644.698" cy="-132.8" rx="62.1856" ry="18"/>
<text text-anchor="middle" x="644.698" y="-128.6" font-family="Times,serif" font-size="14.00">s Department</text>
</g>
<!-- 54&#45;&gt;56 -->
<g id="CatTheorySystem_edge14" class="edge"><title>54&#45;&gt;56</title>
<path fill="none" stroke="black" d="M584.333,-204.615C579.224,-193.747 575.396,-179.738 581.826,-168.8 585.656,-162.284 591.187,-156.893 597.402,-152.46"/>
<polygon fill="black" stroke="black" points="606.204,-146.991 600.084,-156.091 601.957,-149.63 597.709,-152.269 597.709,-152.269 597.709,-152.269 601.957,-149.63 595.335,-148.446 606.204,-146.991 606.204,-146.991"/>
<text text-anchor="middle" x="605.634" y="-173.6" font-family="Times,serif" font-size="14.00">worksIn</text>
</g>
<!-- 50 -->
<g id="CatTheorySystem_node6" class="node"><title>50</title>
<ellipse fill="#f0f8ff" stroke="black" cx="109.698" cy="-222.8" rx="27" ry="18"/>
<text text-anchor="middle" x="109.698" y="-218.6" font-family="Times,serif" font-size="14.00">50</text>
</g>
<!-- 50&#45;&gt;48 -->
<g id="CatTheorySystem_edge6" class="edge"><title>50&#45;&gt;48</title>
<path fill="none" stroke="black" d="M85.5446,-214.323C59.1289,-204.601 18.6223,-184.723 4.15119,-150.8 -8.45888,-121.24 13.3926,-88.012 32.4176,-66.5396"/>
<polygon fill="black" stroke="black" points="39.2299,-59.1891 35.7329,-69.5825 35.8311,-62.8563 32.4324,-66.5236 32.4324,-66.5236 32.4324,-66.5236 35.8311,-62.8563 29.1319,-63.4647 39.2299,-59.1891 39.2299,-59.1891"/>
<text text-anchor="middle" x="19.4717" y="-128.6" font-family="Times,serif" font-size="14.00">first_</text>
</g>
<!-- 50&#45;&gt;48 -->
<g id="CatTheorySystem_edge7" class="edge"><title>50&#45;&gt;48</title>
<path fill="none" stroke="black" d="M97.4013,-206.555C92.8358,-200.57 87.7795,-193.532 83.6982,-186.8 74.481,-171.597 71.0813,-167.912 66.2578,-150.8 58.806,-124.364 56.4318,-92.9688 55.7602,-71.0485"/>
<polygon fill="black" stroke="black" points="55.5493,-60.8192 60.2545,-70.7243 55.6524,-65.8182 55.7555,-70.8171 55.7555,-70.8171 55.7555,-70.8171 55.6524,-65.8182 51.2565,-70.9099 55.5493,-60.8192 55.5493,-60.8192"/>
<text text-anchor="middle" x="79.9184" y="-128.6" font-family="Times,serif" font-size="14.00">last_</text>
</g>
<!-- 50&#45;&gt;49 -->
<g id="CatTheorySystem_edge8" class="edge"><title>50&#45;&gt;49</title>
<path fill="none" stroke="black" d="M97.1221,-206.311C90.0623,-195.644 83.6899,-181.212 89.269,-168.8 92.0271,-162.664 96.4517,-157.166 101.358,-152.446"/>
<polygon fill="black" stroke="black" points="109.296,-145.689 104.598,-155.597 105.489,-148.93 101.681,-152.171 101.681,-152.171 101.681,-152.171 105.489,-148.93 98.7643,-148.744 109.296,-145.689 109.296,-145.689"/>
<text text-anchor="middle" x="99.4128" y="-173.6" font-family="Times,serif" font-size="14.00">age</text>
</g>
<!-- 50&#45;&gt;49 -->
<g id="CatTheorySystem_edge9" class="edge"><title>50&#45;&gt;49</title>
<path fill="none" stroke="black" d="M113.362,-204.833C116.069,-192.293 119.809,-174.972 122.918,-160.573"/>
<polygon fill="black" stroke="black" points="125.046,-150.715 127.334,-161.44 123.991,-155.603 122.936,-160.49 122.936,-160.49 122.936,-160.49 123.991,-155.603 118.537,-159.54 125.046,-150.715 125.046,-150.715"/>
<text text-anchor="middle" x="171.461" y="-173.6" font-family="Times,serif" font-size="14.00">cummulative_age</text>
</g>
<!-- 50&#45;&gt;50 -->
<g id="CatTheorySystem_edge4" class="edge"><title>50&#45;&gt;50</title>
<path fill="none" stroke="black" d="M134.231,-230.921C145.206,-231.695 154.698,-228.988 154.698,-222.8 154.698,-218.643 150.413,-216.057 144.273,-215.042"/>
<polygon fill="black" stroke="black" points="134.231,-214.679 144.387,-210.543 139.227,-214.859 144.224,-215.04 144.224,-215.04 144.224,-215.04 139.227,-214.859 144.062,-219.537 134.231,-214.679 134.231,-214.679"/>
<text text-anchor="middle" x="178.796" y="-218.6" font-family="Times,serif" font-size="14.00">manager</text>
</g>
<!-- 51 -->
<g id="CatTheorySystem_node7" class="node"><title>51</title>
<ellipse fill="#f0f8ff" stroke="black" cx="253.698" cy="-132.8" rx="27" ry="18"/>
<text text-anchor="middle" x="253.698" y="-128.6" font-family="Times,serif" font-size="14.00">51</text>
</g>
<!-- 50&#45;&gt;51 -->
<g id="CatTheorySystem_edge5" class="edge"><title>50&#45;&gt;51</title>
<path fill="none" stroke="black" d="M136.587,-219.421C161.785,-215.954 199.278,-207.473 224.698,-186.8 233.242,-179.851 239.656,-169.686 244.25,-160.113"/>
<polygon fill="black" stroke="black" points="248.249,-150.877 248.405,-161.842 246.262,-155.466 244.275,-160.054 244.275,-160.054 244.275,-160.054 246.262,-155.466 240.146,-158.266 248.249,-150.877 248.249,-150.877"/>
<text text-anchor="middle" x="262.634" y="-173.6" font-family="Times,serif" font-size="14.00">worksIn</text>
</g>
<!-- 51&#45;&gt;48 -->
<g id="CatTheorySystem_edge11" class="edge"><title>51&#45;&gt;48</title>
<path fill="none" stroke="black" d="M231.752,-122.046C197.729,-106.925 131.93,-77.681 91.1185,-59.5423"/>
<polygon fill="black" stroke="black" points="81.8139,-55.407 92.7797,-55.3563 86.383,-57.4377 90.9521,-59.4684 90.9521,-59.4684 90.9521,-59.4684 86.383,-57.4377 89.1244,-63.5806 81.8139,-55.407 81.8139,-55.407"/>
<text text-anchor="middle" x="191.358" y="-83.6" font-family="Times,serif" font-size="14.00">name_</text>
</g>
<!-- 51&#45;&gt;50 -->
<g id="CatTheorySystem_edge10" class="edge"><title>51&#45;&gt;50</title>
<path fill="none" stroke="black" d="M271.609,-146.528C285.016,-157.603 299.352,-173.861 288.698,-186.8 271.062,-208.219 193.689,-216.715 146.631,-219.943"/>
<polygon fill="black" stroke="black" points="136.513,-220.588 146.206,-215.461 141.503,-220.27 146.492,-219.952 146.492,-219.952 146.492,-219.952 141.503,-220.27 146.779,-224.443 136.513,-220.588 136.513,-220.588"/>
<text text-anchor="middle" x="317.956" y="-173.6" font-family="Times,serif" font-size="14.00">secretary</text>
</g>
<!-- 55&#45;&gt;53 -->
<g id="CatTheorySystem_edge15" class="edge"><title>55&#45;&gt;53</title>
<path fill="none" stroke="black" d="M420.219,-60.7746C416.716,-71.8235 411.028,-86.1136 402.698,-96.8 398.932,-101.632 394.337,-106.127 389.511,-110.177"/>
<polygon fill="black" stroke="black" points="381.278,-116.553 386.43,-106.872 385.232,-113.491 389.185,-110.43 389.185,-110.43 389.185,-110.43 385.232,-113.491 391.94,-113.988 381.278,-116.553 381.278,-116.553"/>
<text text-anchor="middle" x="438.956" y="-83.6" font-family="Times,serif" font-size="14.00">secretary</text>
</g>
<!-- 56&#45;&gt;54 -->
<g id="CatTheorySystem_edge16" class="edge"><title>56&#45;&gt;54</title>
<path fill="none" stroke="black" d="M641.28,-150.84C638.629,-161.65 634.28,-175.649 627.698,-186.8 625.391,-190.708 622.577,-194.535 619.574,-198.138"/>
<polygon fill="black" stroke="black" points="612.824,-205.613 616.186,-195.175 616.175,-201.902 619.526,-198.191 619.526,-198.191 619.526,-198.191 616.175,-201.902 622.866,-201.207 612.824,-205.613 612.824,-205.613"/>
<text text-anchor="middle" x="661.956" y="-173.6" font-family="Times,serif" font-size="14.00">secretary</text>
</g>
</g>
</svg>

