<?xml version="1.0" encoding="UTF-8" standalone="no"?>
<?xml-stylesheet href="Xholon.css" type="text/css"?>
<!DOCTYPE svg PUBLIC "-//W3C//DTD SVG 1.1//EN"
 "http://www.w3.org/Graphics/SVG/1.1/DTD/svg11.dtd">
<!-- Generated by graphviz version 2.28.0 (20140111.2315)
 -->
<!-- Title: 47 Pages: 1 -->
<svg width="350pt" height="249pt"
 viewBox="0.00 0.00 350.21 248.80" xmlns="http://www.w3.org/2000/svg" xmlns:xlink="http://www.w3.org/1999/xlink">
<g id="CatTheorySystem" class="graph" transform="scale(1 1) rotate(0) translate(4 244.8)">
<title>47</title>
<polygon fill="white" stroke="none" points="-4,4 -4,-244.8 346.213,-244.8 346.213,4 -4,4"/>
<text text-anchor="middle" x="171.106" y="-8.2" font-family="Times,serif" font-size="14.00">CatTheorySystem</text>
<!-- 48 -->
<g id="CatTheorySystem/strings" class="node"><title>48</title>
<ellipse fill="#f0f8ff" stroke="black" cx="55.6982" cy="-42.8" rx="36.1836" ry="18"/>
<text text-anchor="middle" x="55.6982" y="-38.6" font-family="Times,serif" font-size="14.00">strings</text>
</g>
<!-- 49 -->
<g id="CatTheorySystem/nats" class="node"><title>49</title>
<ellipse fill="#f0f8ff" stroke="black" cx="128.698" cy="-132.8" rx="27" ry="18"/>
<text text-anchor="middle" x="128.698" y="-128.6" font-family="Times,serif" font-size="14.00">nats</text>
</g>
<!-- 50 -->
<g id="CatTheorySystem/Employees" class="node"><title>50</title>
<ellipse fill="#f0f8ff" stroke="black" cx="109.698" cy="-222.8" rx="53.4198" ry="18"/>
<text text-anchor="middle" x="109.698" y="-218.6" font-family="Times,serif" font-size="14.00">Employees</text>
</g>
<!-- 50&#45;&gt;48 -->
<g id="CatTheorySystem_edge3" class="edge"><title>50&#45;&gt;48</title>
<path fill="none" stroke="black" d="M73.4019,-209.491C48.024,-198.598 16.5426,-179.848 4.15119,-150.8 -8.45888,-121.24 13.3926,-88.012 32.4176,-66.5396"/>
<polygon fill="black" stroke="black" points="39.2299,-59.1891 35.7329,-69.5825 35.8311,-62.8563 32.4324,-66.5236 32.4324,-66.5236 32.4324,-66.5236 35.8311,-62.8563 29.1319,-63.4647 39.2299,-59.1891 39.2299,-59.1891"/>
<text text-anchor="middle" x="19.4717" y="-128.6" font-family="Times,serif" font-size="14.00">first_</text>
</g>
<!-- 50&#45;&gt;48 -->
<g id="CatTheorySystem_edge4" class="edge"><title>50&#45;&gt;48</title>
<path fill="none" stroke="black" d="M96.3396,-205.156C92.0636,-199.489 87.4656,-193.014 83.6982,-186.8 74.481,-171.597 71.0813,-167.912 66.2578,-150.8 58.806,-124.364 56.4318,-92.9688 55.7602,-71.0485"/>
<polygon fill="black" stroke="black" points="55.5493,-60.8192 60.2545,-70.7243 55.6524,-65.8182 55.7555,-70.8171 55.7555,-70.8171 55.7555,-70.8171 55.6524,-65.8182 51.2565,-70.9099 55.5493,-60.8192 55.5493,-60.8192"/>
<text text-anchor="middle" x="79.9184" y="-128.6" font-family="Times,serif" font-size="14.00">last_</text>
</g>
<!-- 50&#45;&gt;49 -->
<g id="CatTheorySystem_edge5" class="edge"><title>50&#45;&gt;49</title>
<path fill="none" stroke="black" d="M96.2061,-204.898C89.5307,-194.393 83.9325,-180.673 89.269,-168.8 92.0271,-162.664 96.4517,-157.166 101.358,-152.446"/>
<polygon fill="black" stroke="black" points="109.296,-145.689 104.598,-155.597 105.489,-148.93 101.681,-152.171 101.681,-152.171 101.681,-152.171 105.489,-148.93 98.7643,-148.744 109.296,-145.689 109.296,-145.689"/>
<text text-anchor="middle" x="99.4128" y="-173.6" font-family="Times,serif" font-size="14.00">age</text>
</g>
<!-- 50&#45;&gt;49 -->
<g id="CatTheorySystem_edge6" class="edge"><title>50&#45;&gt;49</title>
<path fill="none" stroke="black" d="M113.362,-204.833C116.069,-192.293 119.809,-174.972 122.918,-160.573"/>
<polygon fill="black" stroke="black" points="125.046,-150.715 127.334,-161.44 123.991,-155.603 122.936,-160.49 122.936,-160.49 122.936,-160.49 123.991,-155.603 118.537,-159.54 125.046,-150.715 125.046,-150.715"/>
<text text-anchor="middle" x="171.461" y="-173.6" font-family="Times,serif" font-size="14.00">cummulative_age</text>
</g>
<!-- 50&#45;&gt;50 -->
<g id="CatTheorySystem_edge1" class="edge"><title>50&#45;&gt;50</title>
<path fill="none" stroke="black" d="M157.482,-231C170.642,-230.604 180.698,-227.87 180.698,-222.8 180.698,-219.156 175.503,-216.719 167.694,-215.489"/>
<polygon fill="black" stroke="black" points="157.482,-214.6 167.834,-210.984 162.463,-215.034 167.444,-215.467 167.444,-215.467 167.444,-215.467 162.463,-215.034 167.054,-219.951 157.482,-214.6 157.482,-214.6"/>
<text text-anchor="middle" x="204.796" y="-218.6" font-family="Times,serif" font-size="14.00">manager</text>
</g>
<!-- 51 -->
<g id="CatTheorySystem/Departments" class="node"><title>51</title>
<ellipse fill="#f0f8ff" stroke="black" cx="253.698" cy="-132.8" rx="60.0629" ry="18"/>
<text text-anchor="middle" x="253.698" y="-128.6" font-family="Times,serif" font-size="14.00">Departments</text>
</g>
<!-- 50&#45;&gt;51 -->
<g id="CatTheorySystem_edge2" class="edge"><title>50&#45;&gt;51</title>
<path fill="none" stroke="black" d="M158.696,-215.488C180.763,-210.618 205.998,-202.009 224.698,-186.8 233.242,-179.851 239.656,-169.686 244.25,-160.113"/>
<polygon fill="black" stroke="black" points="248.249,-150.877 248.405,-161.842 246.262,-155.466 244.275,-160.054 244.275,-160.054 244.275,-160.054 246.262,-155.466 240.146,-158.266 248.249,-150.877 248.249,-150.877"/>
<text text-anchor="middle" x="262.634" y="-173.6" font-family="Times,serif" font-size="14.00">worksIn</text>
</g>
<!-- 51&#45;&gt;48 -->
<g id="CatTheorySystem_edge8" class="edge"><title>51&#45;&gt;48</title>
<path fill="none" stroke="black" d="M221.445,-117.465C185.735,-101.594 128.337,-76.0839 91.3254,-59.6343"/>
<polygon fill="black" stroke="black" points="81.9216,-55.4548 92.8874,-55.4041 86.4907,-57.4856 91.0597,-59.5163 91.0597,-59.5163 91.0597,-59.5163 86.4907,-57.4856 89.2321,-63.6284 81.9216,-55.4548 81.9216,-55.4548"/>
<text text-anchor="middle" x="191.358" y="-83.6" font-family="Times,serif" font-size="14.00">name_</text>
</g>
<!-- 51&#45;&gt;50 -->
<g id="CatTheorySystem_edge7" class="edge"><title>51&#45;&gt;50</title>
<path fill="none" stroke="black" d="M275.317,-149.713C287.445,-160.57 298.371,-175.053 288.698,-186.8 274.009,-204.64 217.88,-213.514 172.342,-217.848"/>
<polygon fill="black" stroke="black" points="162.214,-218.755 171.772,-213.38 167.194,-218.309 172.174,-217.863 172.174,-217.863 172.174,-217.863 167.194,-218.309 172.575,-222.345 162.214,-218.755 162.214,-218.755"/>
<text text-anchor="middle" x="316.956" y="-173.6" font-family="Times,serif" font-size="14.00">secretary</text>
</g>
</g>
</svg>

