<?xml version="1.0" encoding="UTF-8" standalone="no"?>
<?xml-stylesheet href="Xholon.css" type="text/css"?>
<!DOCTYPE svg PUBLIC "-//W3C//DTD SVG 1.1//EN"
 "http://www.w3.org/Graphics/SVG/1.1/DTD/svg11.dtd">
<!-- Generated by graphviz version 2.28.0 (20140111.2315)
 -->
<!-- Title: 57 Pages: 1 -->
<svg width="350pt" height="249pt"
 viewBox="0.00 0.00 350.22 248.80" xmlns="http://www.w3.org/2000/svg" xmlns:xlink="http://www.w3.org/1999/xlink">
<g id="CatTheorySchema" class="graph" transform="scale(1 1) rotate(0) translate(4 244.8)">
<title>57</title>
<polygon fill="white" stroke="none" points="-4,4 -4,-244.8 346.224,-244.8 346.224,4 -4,4"/>
<text text-anchor="middle" x="171.112" y="-8.2" font-family="Times,serif" font-size="14.00">CatTheorySchema</text>
<!-- 48 -->
<g id="CatTheorySchema/string" class="node"><title>48</title>
<ellipse fill="#f0f8ff" stroke="black" cx="55.7095" cy="-42.8" rx="33.0468" ry="18"/>
<text text-anchor="middle" x="55.7095" y="-38.6" font-family="Times,serif" font-size="14.00">string</text>
</g>
<!-- 49 -->
<g id="CatTheorySchema/nat" class="node"><title>49</title>
<ellipse fill="#f0f8ff" stroke="black" cx="128.71" cy="-132.8" rx="27" ry="18"/>
<text text-anchor="middle" x="128.71" y="-128.6" font-family="Times,serif" font-size="14.00">nat</text>
</g>
<!-- 50 -->
<g id="CatTheorySchema/Employee" class="node"><title>50</title>
<ellipse fill="#f0f8ff" stroke="black" cx="109.71" cy="-222.8" rx="50.2862" ry="18"/>
<text text-anchor="middle" x="109.71" y="-218.6" font-family="Times,serif" font-size="14.00">Employee</text>
</g>
<!-- 50&#45;&gt;48 -->
<g id="CatTheorySchema_edge3" class="edge"><title>50&#45;&gt;48</title>
<path fill="none" stroke="black" d="M74.4743,-209.943C48.9197,-199.12 16.7273,-180.254 4.16253,-150.8 -8.5196,-121.071 13.6548,-87.6321 32.7548,-66.1726"/>
<polygon fill="black" stroke="black" points="39.5823,-58.8375 36.0629,-69.2233 36.1756,-62.4974 32.769,-66.1574 32.769,-66.1574 32.769,-66.1574 36.1756,-62.4974 29.4751,-63.0914 39.5823,-58.8375 39.5823,-58.8375"/>
<text text-anchor="middle" x="19.483" y="-128.6" font-family="Times,serif" font-size="14.00">first_</text>
</g>
<!-- 50&#45;&gt;48 -->
<g id="CatTheorySchema_edge4" class="edge"><title>50&#45;&gt;48</title>
<path fill="none" stroke="black" d="M96.351,-205.156C92.075,-199.489 87.4769,-193.014 83.7095,-186.8 74.4924,-171.597 71.0926,-167.912 66.2691,-150.8 58.8173,-124.364 56.4432,-92.9688 55.7715,-71.0485"/>
<polygon fill="black" stroke="black" points="55.5606,-60.8192 60.2659,-70.7243 55.6637,-65.8182 55.7668,-70.8171 55.7668,-70.8171 55.7668,-70.8171 55.6637,-65.8182 51.2678,-70.9099 55.5606,-60.8192 55.5606,-60.8192"/>
<text text-anchor="middle" x="79.9297" y="-128.6" font-family="Times,serif" font-size="14.00">last_</text>
</g>
<!-- 50&#45;&gt;49 -->
<g id="CatTheorySchema_edge5" class="edge"><title>50&#45;&gt;49</title>
<path fill="none" stroke="black" d="M96.5216,-205.374C89.7142,-194.809 83.863,-180.853 89.2803,-168.8 92.0384,-162.664 96.463,-157.166 101.37,-152.446"/>
<polygon fill="black" stroke="black" points="109.307,-145.689 104.61,-155.597 105.5,-148.93 101.693,-152.171 101.693,-152.171 101.693,-152.171 105.5,-148.93 98.7756,-148.744 109.307,-145.689 109.307,-145.689"/>
<text text-anchor="middle" x="99.4241" y="-173.6" font-family="Times,serif" font-size="14.00">age</text>
</g>
<!-- 50&#45;&gt;49 -->
<g id="CatTheorySchema_edge6" class="edge"><title>50&#45;&gt;49</title>
<path fill="none" stroke="black" d="M113.373,-204.833C116.08,-192.293 119.82,-174.972 122.929,-160.573"/>
<polygon fill="black" stroke="black" points="125.057,-150.715 127.345,-161.44 124.002,-155.603 122.947,-160.49 122.947,-160.49 122.947,-160.49 124.002,-155.603 118.548,-159.54 125.057,-150.715 125.057,-150.715"/>
<text text-anchor="middle" x="171.473" y="-173.6" font-family="Times,serif" font-size="14.00">cummulative_age</text>
</g>
<!-- 50&#45;&gt;50 -->
<g id="CatTheorySchema_edge1" class="edge"><title>50&#45;&gt;50</title>
<path fill="none" stroke="black" d="M154.507,-231.025C167.582,-230.741 177.71,-227.999 177.71,-222.8 177.71,-219.063 172.478,-216.596 164.68,-215.398"/>
<polygon fill="black" stroke="black" points="154.507,-214.575 164.837,-210.896 159.491,-214.978 164.474,-215.381 164.474,-215.381 164.474,-215.381 159.491,-214.978 164.111,-219.867 154.507,-214.575 154.507,-214.575"/>
<text text-anchor="middle" x="201.807" y="-218.6" font-family="Times,serif" font-size="14.00">manager</text>
</g>
<!-- 51 -->
<g id="CatTheorySchema/Department" class="node"><title>51</title>
<ellipse fill="#f0f8ff" stroke="black" cx="253.71" cy="-132.8" rx="56.4284" ry="18"/>
<text text-anchor="middle" x="253.71" y="-128.6" font-family="Times,serif" font-size="14.00">Department</text>
</g>
<!-- 50&#45;&gt;51 -->
<g id="CatTheorySchema_edge2" class="edge"><title>50&#45;&gt;51</title>
<path fill="none" stroke="black" d="M156.143,-216.04C178.798,-211.279 205.28,-202.601 224.71,-186.8 233.254,-179.851 239.668,-169.686 244.261,-160.113"/>
<polygon fill="black" stroke="black" points="248.26,-150.877 248.416,-161.842 246.273,-155.466 244.287,-160.054 244.287,-160.054 244.287,-160.054 246.273,-155.466 240.157,-158.266 248.26,-150.877 248.26,-150.877"/>
<text text-anchor="middle" x="262.646" y="-173.6" font-family="Times,serif" font-size="14.00">worksIn</text>
</g>
<!-- 51&#45;&gt;48 -->
<g id="CatTheorySchema_edge8" class="edge"><title>51&#45;&gt;48</title>
<path fill="none" stroke="black" d="M221.897,-117.661C185.772,-101.605 127.046,-75.5052 89.9451,-59.0158"/>
<polygon fill="black" stroke="black" points="80.5484,-54.8395 91.5141,-54.7888 85.1174,-56.8702 89.6865,-58.9009 89.6865,-58.9009 89.6865,-58.9009 85.1174,-56.8702 87.8588,-63.0131 80.5484,-54.8395 80.5484,-54.8395"/>
<text text-anchor="middle" x="191.369" y="-83.6" font-family="Times,serif" font-size="14.00">name_</text>
</g>
<!-- 51&#45;&gt;50 -->
<g id="CatTheorySchema_edge7" class="edge"><title>51&#45;&gt;50</title>
<path fill="none" stroke="black" d="M275.064,-149.478C287.296,-160.359 298.452,-174.968 288.71,-186.8 273.693,-205.037 215.369,-213.906 169.324,-218.131"/>
<polygon fill="black" stroke="black" points="159.112,-219.012 168.688,-213.669 164.093,-218.582 169.075,-218.152 169.075,-218.152 169.075,-218.152 164.093,-218.582 169.461,-222.635 159.112,-219.012 159.112,-219.012"/>
<text text-anchor="middle" x="316.967" y="-173.6" font-family="Times,serif" font-size="14.00">secretary</text>
</g>
</g>
</svg>

