<?xml version="1.0" encoding="UTF-8" standalone="no"?>
<?xml-stylesheet href="Xholon.css" type="text/css"?>
<!DOCTYPE svg PUBLIC "-//W3C//DTD SVG 1.1//EN"
 "http://www.w3.org/Graphics/SVG/1.1/DTD/svg11.dtd">
<!-- Generated by graphviz version 2.28.0 (20140111.2315)
 -->
<!-- Title: EntityComponentSystem_45 Pages: 1 -->
<svg width="634pt" height="1440pt"
 viewBox="0.00 0.00 633.85 1440.00" xmlns="http://www.w3.org/2000/svg" xmlns:xlink="http://www.w3.org/1999/xlink">
<g id="EntityComponentSystem" class="graph" transform="scale(0.756382 0.756382) rotate(0) translate(4 1899.8)">
<title>EntityComponentSystem_45</title>
<polygon fill="white" stroke="none" points="-4,4 -4,-1899.8 834,-1899.8 834,4 -4,4"/>
<text text-anchor="middle" x="415" y="-8.2" font-family="Courier New" font-size="14.00">EntityComponentSystem</text>
<!-- Entities_46 -->
<g id="EntityComponentSystem/Entities" class="node"><title>Entities_46</title>
<ellipse fill="#f0f8ff" stroke="black" cx="63" cy="-150.8" rx="57.2645" ry="18"/>
<text text-anchor="middle" x="63" y="-146.6" font-family="Courier New" font-size="14.00">Entities</text>
</g>
<!-- WalkS_66 -->
<g id="EntityComponentSystem/Systems/WalkS" class="node"><title>WalkS_66</title>
<ellipse fill="#f0f8ff" stroke="black" cx="63" cy="-204.8" rx="40.005" ry="18"/>
<text text-anchor="middle" x="63" y="-200.6" font-family="Courier New" font-size="14.00">WalkS</text>
</g>
<!-- Cat_49 -->
<g id="EntityComponentSystem/Universe/Place[1]/Cat[1]" class="node"><title>Cat_49</title>
<ellipse fill="#ff0000" stroke="black" cx="420" cy="-258.8" rx="28.3325" ry="18"/>
<text text-anchor="middle" x="420" y="-254.6" font-family="Courier New" font-size="14.00">Cat</text>
</g>
<!-- WalkS_66&#45;&gt;Cat_49 -->
<g id="EntityComponentSystem_edge10" class="edge"><title>WalkS_66&#45;&gt;Cat_49</title>
<path fill="none" stroke="black" d="M98.5132,-213.288C112.566,-216.555 129.002,-220.137 144,-222.8 228.447,-237.796 328.515,-249.352 381.583,-254.996"/>
<polygon fill="black" stroke="black" points="391.551,-256.045 381.135,-259.473 386.578,-255.521 381.606,-254.998 381.606,-254.998 381.606,-254.998 386.578,-255.521 382.077,-250.523 391.551,-256.045 391.551,-256.045"/>
<text text-anchor="middle" x="198" y="-244" font-family="Times,serif" font-size="14.00">ents</text>
</g>
<!-- Dog_59 -->
<g id="EntityComponentSystem/Universe/Place[1]/Dog" class="node"><title>Dog_59</title>
<ellipse fill="#ff8080" stroke="black" cx="420" cy="-366.8" rx="28.3325" ry="18"/>
<text text-anchor="middle" x="420" y="-362.6" font-family="Courier New" font-size="14.00">Dog</text>
</g>
<!-- WalkS_66&#45;&gt;Dog_59 -->
<g id="EntityComponentSystem_edge15" class="edge"><title>WalkS_66&#45;&gt;Dog_59</title>
<path fill="none" stroke="black" d="M73.7916,-222.399C86.9368,-244.422 112.341,-281.79 144,-302.8 182.963,-328.657 316.598,-351.521 382.147,-361.491"/>
<polygon fill="black" stroke="black" points="392.058,-362.979 381.501,-365.945 387.113,-362.237 382.169,-361.494 382.169,-361.494 382.169,-361.494 387.113,-362.237 382.837,-357.044 392.058,-362.979 392.058,-362.979"/>
<text text-anchor="middle" x="198" y="-342" font-family="Times,serif" font-size="14.00">ents</text>
</g>
<!-- Cat_51 -->
<g id="EntityComponentSystem/Universe/Place[1]/Cat[2]" class="node"><title>Cat_51</title>
<ellipse fill="#ff0000" stroke="black" cx="420" cy="-312.8" rx="28.3325" ry="18"/>
<text text-anchor="middle" x="420" y="-308.6" font-family="Courier New" font-size="14.00">Cat</text>
</g>
<!-- WalkS_66&#45;&gt;Cat_51 -->
<g id="EntityComponentSystem_edge11" class="edge"><title>WalkS_66&#45;&gt;Cat_51</title>
<path fill="none" stroke="black" d="M82.4488,-220.685C97.8998,-233.165 121.052,-250.02 144,-259.8 165.698,-269.048 312.494,-294.726 382.282,-306.614"/>
<polygon fill="black" stroke="black" points="392.394,-308.332 381.781,-311.093 387.464,-307.494 382.535,-306.657 382.535,-306.657 382.535,-306.657 387.464,-307.494 383.289,-302.22 392.394,-308.332 392.394,-308.332"/>
<text text-anchor="middle" x="198" y="-287" font-family="Times,serif" font-size="14.00">ents</text>
</g>
<!-- Cat_53 -->
<g id="EntityComponentSystem/Universe/Place[6]/Cat" class="node"><title>Cat_53</title>
<ellipse fill="#ff0000" stroke="black" cx="420" cy="-96.8" rx="28.3325" ry="18"/>
<text text-anchor="middle" x="420" y="-92.6" font-family="Courier New" font-size="14.00">Cat</text>
</g>
<!-- WalkS_66&#45;&gt;Cat_53 -->
<g id="EntityComponentSystem_edge12" class="edge"><title>WalkS_66&#45;&gt;Cat_53</title>
<path fill="none" stroke="black" d="M96.8285,-194.984C106.974,-190.835 117.662,-185.207 126,-177.8 137.854,-167.27 131.023,-156.109 144,-147 216.211,-96.315 324.533,-92.2997 381.27,-94.2315"/>
<polygon fill="black" stroke="black" points="391.574,-94.6682 381.393,-98.7406 386.579,-94.4564 381.583,-94.2446 381.583,-94.2446 381.583,-94.2446 386.579,-94.4564 381.774,-89.7487 391.574,-94.6682 391.574,-94.6682"/>
<text text-anchor="middle" x="198" y="-152" font-family="Times,serif" font-size="14.00">ents</text>
</g>
<!-- Licorice_57 -->
<g id="EntityComponentSystem/Universe/Place[8]/Cat" class="node"><title>Licorice_57</title>
<ellipse fill="#008000" stroke="black" cx="420" cy="-42.8" rx="57.2645" ry="18"/>
<text text-anchor="middle" x="420" y="-38.6" font-family="Courier New" font-size="14.00">Licorice</text>
</g>
<!-- WalkS_66&#45;&gt;Licorice_57 -->
<g id="EntityComponentSystem_edge14" class="edge"><title>WalkS_66&#45;&gt;Licorice_57</title>
<path fill="none" stroke="black" d="M98.7779,-196.4C108.914,-192.346 119.105,-186.417 126,-177.8 152.521,-144.655 113.376,-113.397 144,-84 200.661,-29.6095 296.372,-27.7114 358.614,-33.5533"/>
<polygon fill="black" stroke="black" points="368.686,-34.5932 358.276,-38.0422 363.712,-34.0796 358.739,-33.566 358.739,-33.566 358.739,-33.566 363.712,-34.0796 359.201,-29.0898 368.686,-34.5932 368.686,-34.5932"/>
<text text-anchor="middle" x="198" y="-89" font-family="Times,serif" font-size="14.00">ents</text>
</g>
<!-- Cat_47 -->
<g id="EntityComponentSystem/Universe/Place[22]/Cat" class="node"><title>Cat_47</title>
<ellipse fill="#ff0000" stroke="black" cx="420" cy="-204.8" rx="28.3325" ry="18"/>
<text text-anchor="middle" x="420" y="-200.6" font-family="Courier New" font-size="14.00">Cat</text>
</g>
<!-- WalkS_66&#45;&gt;Cat_47 -->
<g id="EntityComponentSystem_edge9" class="edge"><title>WalkS_66&#45;&gt;Cat_47</title>
<path fill="none" stroke="black" d="M103.007,-204.8C171.736,-204.8 313.538,-204.8 381.317,-204.8"/>
<polygon fill="black" stroke="black" points="391.537,-204.8 381.537,-209.3 386.537,-204.8 381.537,-204.8 381.537,-204.8 381.537,-204.8 386.537,-204.8 381.537,-200.3 391.537,-204.8 391.537,-204.8"/>
<text text-anchor="middle" x="198" y="-209" font-family="Times,serif" font-size="14.00">ents</text>
</g>
<!-- Cat_55 -->
<g id="EntityComponentSystem/Universe/Place[25]/Cat" class="node"><title>Cat_55</title>
<ellipse fill="#ff0000" stroke="black" cx="420" cy="-150.8" rx="28.3325" ry="18"/>
<text text-anchor="middle" x="420" y="-146.6" font-family="Courier New" font-size="14.00">Cat</text>
</g>
<!-- WalkS_66&#45;&gt;Cat_55 -->
<g id="EntityComponentSystem_edge13" class="edge"><title>WalkS_66&#45;&gt;Cat_55</title>
<path fill="none" stroke="black" d="M96.8588,-195.194C111.23,-191.27 128.349,-186.965 144,-184 228.162,-168.053 328.342,-158.225 381.504,-153.721"/>
<polygon fill="black" stroke="black" points="391.49,-152.89 381.897,-158.203 386.507,-153.305 381.525,-153.719 381.525,-153.719 381.525,-153.719 386.507,-153.305 381.152,-149.234 391.49,-152.89 391.49,-152.89"/>
<text text-anchor="middle" x="198" y="-189" font-family="Times,serif" font-size="14.00">ents</text>
</g>
<!-- HopS_67 -->
<g id="EntityComponentSystem/Systems/HopS" class="node"><title>HopS_67</title>
<ellipse fill="#f0f8ff" stroke="black" cx="63" cy="-473.8" rx="34.4199" ry="18"/>
<text text-anchor="middle" x="63" y="-469.6" font-family="Courier New" font-size="14.00">HopS</text>
</g>
<!-- Kangaroo_63 -->
<g id="EntityComponentSystem/Universe/Place[28]/Kangaroo" class="node"><title>Kangaroo_63</title>
<ellipse fill="#ff8000" stroke="black" cx="420" cy="-473.8" rx="57.2645" ry="18"/>
<text text-anchor="middle" x="420" y="-469.6" font-family="Courier New" font-size="14.00">Kangaroo</text>
</g>
<!-- HopS_67&#45;&gt;Kangaroo_63 -->
<g id="EntityComponentSystem_edge16" class="edge"><title>HopS_67&#45;&gt;Kangaroo_63</title>
<path fill="none" stroke="black" d="M97.3975,-473.8C155.507,-473.8 276.248,-473.8 352.129,-473.8"/>
<polygon fill="black" stroke="black" points="362.528,-473.8 352.528,-478.3 357.528,-473.8 352.528,-473.8 352.528,-473.8 352.528,-473.8 357.528,-473.8 352.528,-469.3 362.528,-473.8 362.528,-473.8"/>
<text text-anchor="middle" x="198" y="-478" font-family="Times,serif" font-size="14.00">ents</text>
</g>
<!-- SwimS_68 -->
<g id="EntityComponentSystem/Systems/SwimS" class="node"><title>SwimS_68</title>
<ellipse fill="#f0f8ff" stroke="black" cx="63" cy="-365.8" rx="40.005" ry="18"/>
<text text-anchor="middle" x="63" y="-361.6" font-family="Courier New" font-size="14.00">SwimS</text>
</g>
<!-- SwimS_68&#45;&gt;Dog_59 -->
<g id="EntityComponentSystem_edge17" class="edge"><title>SwimS_68&#45;&gt;Dog_59</title>
<path fill="none" stroke="black" d="M103.007,-365.91C171.736,-366.103 313.538,-366.503 381.317,-366.694"/>
<polygon fill="black" stroke="black" points="391.537,-366.723 381.524,-371.194 386.537,-366.709 381.537,-366.694 381.537,-366.694 381.537,-366.694 386.537,-366.709 381.55,-362.194 391.537,-366.723 391.537,-366.723"/>
<text text-anchor="middle" x="198" y="-371" font-family="Times,serif" font-size="14.00">ents</text>
</g>
<!-- InteractS_69 -->
<g id="EntityComponentSystem/Systems/InteractS" class="node"><title>InteractS_69</title>
<ellipse fill="#f0f8ff" stroke="black" cx="63" cy="-419.8" rx="63.3511" ry="18"/>
<text text-anchor="middle" x="63" y="-415.6" font-family="Courier New" font-size="14.00">InteractS</text>
</g>
<!-- InteractS_69&#45;&gt;Dog_59 -->
<g id="EntityComponentSystem_edge18" class="edge"><title>InteractS_69&#45;&gt;Dog_59</title>
<path fill="none" stroke="black" d="M119.469,-411.519C192.653,-400.593 319.48,-381.658 381.991,-372.325"/>
<polygon fill="black" stroke="black" points="392.172,-370.805 382.946,-376.733 387.227,-371.544 382.281,-372.282 382.281,-372.282 382.281,-372.282 387.227,-371.544 381.617,-367.831 392.172,-370.805 392.172,-370.805"/>
<text text-anchor="middle" x="198" y="-412" font-family="Times,serif" font-size="14.00">ents</text>
</g>
<!-- Place_71 -->
<g id="EntityComponentSystem_node9" class="node"><title>Place_71</title>
<ellipse fill="#f0f8ff" stroke="black" cx="772" cy="-312.8" rx="57.2645" ry="18"/>
<text text-anchor="middle" x="772" y="-308.6" font-family="Courier New" font-size="14.00">Place_71</text>
</g>
<!-- Cat_49&#45;&gt;Place_71 -->
<g id="EntityComponentSystem_edge1" class="edge"><title>Cat_49&#45;&gt;Place_71</title>
<path fill="none" stroke="black" d="M448.538,-260.746C498.301,-264.567 606.367,-274.265 696,-292 704.01,-293.585 712.418,-295.581 720.589,-297.705"/>
<polygon fill="black" stroke="black" points="730.396,-300.341 719.57,-302.091 725.567,-299.043 720.739,-297.745 720.739,-297.745 720.739,-297.745 725.567,-299.043 721.907,-293.399 730.396,-300.341 730.396,-300.341"/>
<text text-anchor="middle" x="642" y="-297" font-family="Times,serif" font-size="14.00">contextNode_1_g$</text>
</g>
<!-- Dog_59&#45;&gt;Place_71 -->
<g id="EntityComponentSystem_edge2" class="edge"><title>Dog_59&#45;&gt;Place_71</title>
<path fill="none" stroke="black" d="M448.519,-364.66C498.253,-360.513 606.274,-350.224 696,-332.8 703.72,-331.301 711.818,-329.446 719.72,-327.475"/>
<polygon fill="black" stroke="black" points="729.582,-324.935 721.021,-331.787 724.74,-326.182 719.898,-327.429 719.898,-327.429 719.898,-327.429 724.74,-326.182 718.776,-323.072 729.582,-324.935 729.582,-324.935"/>
<text text-anchor="middle" x="642" y="-354" font-family="Times,serif" font-size="14.00">contextNode_1_g$</text>
</g>
<!-- Cat_51&#45;&gt;Place_71 -->
<g id="EntityComponentSystem_edge3" class="edge"><title>Cat_51&#45;&gt;Place_71</title>
<path fill="none" stroke="black" d="M448.464,-312.8C503.137,-312.8 626.973,-312.8 704.307,-312.8"/>
<polygon fill="black" stroke="black" points="714.432,-312.8 704.432,-317.3 709.432,-312.8 704.432,-312.8 704.432,-312.8 704.432,-312.8 709.432,-312.8 704.432,-308.3 714.432,-312.8 714.432,-312.8"/>
<text text-anchor="middle" x="642" y="-317" font-family="Times,serif" font-size="14.00">contextNode_1_g$</text>
</g>
<!-- Place_72 -->
<g id="EntityComponentSystem/Universe/Place[2]" class="node"><title>Place_72</title>
<ellipse fill="green" stroke="black" cx="63" cy="-527.8" rx="40.005" ry="18"/>
<text text-anchor="middle" x="63" y="-523.6" font-family="Courier New" font-size="14.00">Place</text>
</g>
<!-- Place_73 -->
<g id="EntityComponentSystem/Universe/Place[3]" class="node"><title>Place_73</title>
<ellipse fill="green" stroke="black" cx="63" cy="-581.8" rx="40.005" ry="18"/>
<text text-anchor="middle" x="63" y="-577.6" font-family="Courier New" font-size="14.00">Place</text>
</g>
<!-- Place_74 -->
<g id="EntityComponentSystem/Universe/Place[4]" class="node"><title>Place_74</title>
<ellipse fill="green" stroke="black" cx="63" cy="-635.8" rx="40.005" ry="18"/>
<text text-anchor="middle" x="63" y="-631.6" font-family="Courier New" font-size="14.00">Place</text>
</g>
<!-- Place_75 -->
<g id="EntityComponentSystem/Universe/Place[5]" class="node"><title>Place_75</title>
<ellipse fill="green" stroke="black" cx="63" cy="-689.8" rx="40.005" ry="18"/>
<text text-anchor="middle" x="63" y="-685.6" font-family="Courier New" font-size="14.00">Place</text>
</g>
<!-- Place_76 -->
<g id="EntityComponentSystem_node15" class="node"><title>Place_76</title>
<ellipse fill="#f0f8ff" stroke="black" cx="772" cy="-96.8" rx="57.2645" ry="18"/>
<text text-anchor="middle" x="772" y="-92.6" font-family="Courier New" font-size="14.00">Place_76</text>
</g>
<!-- Cat_53&#45;&gt;Place_76 -->
<g id="EntityComponentSystem_edge4" class="edge"><title>Cat_53&#45;&gt;Place_76</title>
<path fill="none" stroke="black" d="M448.464,-96.8C503.137,-96.8 626.973,-96.8 704.307,-96.8"/>
<polygon fill="black" stroke="black" points="714.432,-96.8 704.432,-101.3 709.432,-96.8 704.432,-96.8001 704.432,-96.8001 704.432,-96.8001 709.432,-96.8 704.432,-92.3001 714.432,-96.8 714.432,-96.8"/>
<text text-anchor="middle" x="642" y="-101" font-family="Times,serif" font-size="14.00">contextNode_1_g$</text>
</g>
<!-- Place_77 -->
<g id="EntityComponentSystem/Universe/Place[7]" class="node"><title>Place_77</title>
<ellipse fill="green" stroke="black" cx="63" cy="-743.8" rx="40.005" ry="18"/>
<text text-anchor="middle" x="63" y="-739.6" font-family="Courier New" font-size="14.00">Place</text>
</g>
<!-- Place_78 -->
<g id="EntityComponentSystem_node18" class="node"><title>Place_78</title>
<ellipse fill="#f0f8ff" stroke="black" cx="772" cy="-42.8" rx="57.2645" ry="18"/>
<text text-anchor="middle" x="772" y="-38.6" font-family="Courier New" font-size="14.00">Place_78</text>
</g>
<!-- Licorice_57&#45;&gt;Place_78 -->
<g id="EntityComponentSystem_edge5" class="edge"><title>Licorice_57&#45;&gt;Place_78</title>
<path fill="none" stroke="black" d="M477.623,-42.8C539.512,-42.8 638.586,-42.8 704.223,-42.8"/>
<polygon fill="black" stroke="black" points="714.459,-42.8 704.459,-47.3001 709.459,-42.8 704.459,-42.8001 704.459,-42.8001 704.459,-42.8001 709.459,-42.8 704.459,-38.3001 714.459,-42.8 714.459,-42.8"/>
<text text-anchor="middle" x="642" y="-47" font-family="Times,serif" font-size="14.00">contextNode_1_g$</text>
</g>
<!-- Place_79 -->
<g id="EntityComponentSystem/Universe/Place[9]" class="node"><title>Place_79</title>
<ellipse fill="green" stroke="black" cx="63" cy="-797.8" rx="40.005" ry="18"/>
<text text-anchor="middle" x="63" y="-793.6" font-family="Courier New" font-size="14.00">Place</text>
</g>
<!-- Place_80 -->
<g id="EntityComponentSystem/Universe/Place[10]" class="node"><title>Place_80</title>
<ellipse fill="green" stroke="black" cx="63" cy="-851.8" rx="40.005" ry="18"/>
<text text-anchor="middle" x="63" y="-847.6" font-family="Courier New" font-size="14.00">Place</text>
</g>
<!-- Place_81 -->
<g id="EntityComponentSystem/Universe/Place[11]" class="node"><title>Place_81</title>
<ellipse fill="green" stroke="black" cx="63" cy="-905.8" rx="40.005" ry="18"/>
<text text-anchor="middle" x="63" y="-901.6" font-family="Courier New" font-size="14.00">Place</text>
</g>
<!-- Place_82 -->
<g id="EntityComponentSystem/Universe/Place[12]" class="node"><title>Place_82</title>
<ellipse fill="green" stroke="black" cx="63" cy="-959.8" rx="40.005" ry="18"/>
<text text-anchor="middle" x="63" y="-955.6" font-family="Courier New" font-size="14.00">Place</text>
</g>
<!-- Place_83 -->
<g id="EntityComponentSystem/Universe/Place[13]" class="node"><title>Place_83</title>
<ellipse fill="green" stroke="black" cx="63" cy="-1013.8" rx="40.005" ry="18"/>
<text text-anchor="middle" x="63" y="-1009.6" font-family="Courier New" font-size="14.00">Place</text>
</g>
<!-- Place_84 -->
<g id="EntityComponentSystem/Universe/Place[14]" class="node"><title>Place_84</title>
<ellipse fill="green" stroke="black" cx="63" cy="-1067.8" rx="40.005" ry="18"/>
<text text-anchor="middle" x="63" y="-1063.6" font-family="Courier New" font-size="14.00">Place</text>
</g>
<!-- Place_85 -->
<g id="EntityComponentSystem/Universe/Place[15]" class="node"><title>Place_85</title>
<ellipse fill="green" stroke="black" cx="63" cy="-1121.8" rx="40.005" ry="18"/>
<text text-anchor="middle" x="63" y="-1117.6" font-family="Courier New" font-size="14.00">Place</text>
</g>
<!-- Place_86 -->
<g id="EntityComponentSystem/Universe/Place[16]" class="node"><title>Place_86</title>
<ellipse fill="green" stroke="black" cx="63" cy="-1175.8" rx="40.005" ry="18"/>
<text text-anchor="middle" x="63" y="-1171.6" font-family="Courier New" font-size="14.00">Place</text>
</g>
<!-- Place_87 -->
<g id="EntityComponentSystem/Universe/Place[17]" class="node"><title>Place_87</title>
<ellipse fill="green" stroke="black" cx="63" cy="-1229.8" rx="40.005" ry="18"/>
<text text-anchor="middle" x="63" y="-1225.6" font-family="Courier New" font-size="14.00">Place</text>
</g>
<!-- Place_88 -->
<g id="EntityComponentSystem/Universe/Place[18]" class="node"><title>Place_88</title>
<ellipse fill="green" stroke="black" cx="63" cy="-1283.8" rx="40.005" ry="18"/>
<text text-anchor="middle" x="63" y="-1279.6" font-family="Courier New" font-size="14.00">Place</text>
</g>
<!-- Place_89 -->
<g id="EntityComponentSystem/Universe/Place[19]" class="node"><title>Place_89</title>
<ellipse fill="green" stroke="black" cx="63" cy="-1337.8" rx="40.005" ry="18"/>
<text text-anchor="middle" x="63" y="-1333.6" font-family="Courier New" font-size="14.00">Place</text>
</g>
<!-- Place_90 -->
<g id="EntityComponentSystem/Universe/Place[20]" class="node"><title>Place_90</title>
<ellipse fill="green" stroke="black" cx="63" cy="-1391.8" rx="40.005" ry="18"/>
<text text-anchor="middle" x="63" y="-1387.6" font-family="Courier New" font-size="14.00">Place</text>
</g>
<!-- Place_91 -->
<g id="EntityComponentSystem/Universe/Place[21]" class="node"><title>Place_91</title>
<ellipse fill="green" stroke="black" cx="63" cy="-1445.8" rx="40.005" ry="18"/>
<text text-anchor="middle" x="63" y="-1441.6" font-family="Courier New" font-size="14.00">Place</text>
</g>
<!-- Place_92 -->
<g id="EntityComponentSystem_node33" class="node"><title>Place_92</title>
<ellipse fill="#f0f8ff" stroke="black" cx="772" cy="-204.8" rx="57.2645" ry="18"/>
<text text-anchor="middle" x="772" y="-200.6" font-family="Courier New" font-size="14.00">Place_92</text>
</g>
<!-- Cat_47&#45;&gt;Place_92 -->
<g id="EntityComponentSystem_edge6" class="edge"><title>Cat_47&#45;&gt;Place_92</title>
<path fill="none" stroke="black" d="M448.464,-204.8C503.137,-204.8 626.973,-204.8 704.307,-204.8"/>
<polygon fill="black" stroke="black" points="714.432,-204.8 704.432,-209.3 709.432,-204.8 704.432,-204.8 704.432,-204.8 704.432,-204.8 709.432,-204.8 704.432,-200.3 714.432,-204.8 714.432,-204.8"/>
<text text-anchor="middle" x="642" y="-209" font-family="Times,serif" font-size="14.00">contextNode_1_g$</text>
</g>
<!-- Place_93 -->
<g id="EntityComponentSystem/Universe/Place[23]" class="node"><title>Place_93</title>
<ellipse fill="green" stroke="black" cx="63" cy="-1499.8" rx="40.005" ry="18"/>
<text text-anchor="middle" x="63" y="-1495.6" font-family="Courier New" font-size="14.00">Place</text>
</g>
<!-- Place_94 -->
<g id="EntityComponentSystem/Universe/Place[24]" class="node"><title>Place_94</title>
<ellipse fill="green" stroke="black" cx="63" cy="-1553.8" rx="40.005" ry="18"/>
<text text-anchor="middle" x="63" y="-1549.6" font-family="Courier New" font-size="14.00">Place</text>
</g>
<!-- Place_95 -->
<g id="EntityComponentSystem_node37" class="node"><title>Place_95</title>
<ellipse fill="#f0f8ff" stroke="black" cx="772" cy="-150.8" rx="57.2645" ry="18"/>
<text text-anchor="middle" x="772" y="-146.6" font-family="Courier New" font-size="14.00">Place_95</text>
</g>
<!-- Cat_55&#45;&gt;Place_95 -->
<g id="EntityComponentSystem_edge7" class="edge"><title>Cat_55&#45;&gt;Place_95</title>
<path fill="none" stroke="black" d="M448.464,-150.8C503.137,-150.8 626.973,-150.8 704.307,-150.8"/>
<polygon fill="black" stroke="black" points="714.432,-150.8 704.432,-155.3 709.432,-150.8 704.432,-150.8 704.432,-150.8 704.432,-150.8 709.432,-150.8 704.432,-146.3 714.432,-150.8 714.432,-150.8"/>
<text text-anchor="middle" x="642" y="-155" font-family="Times,serif" font-size="14.00">contextNode_1_g$</text>
</g>
<!-- Place_96 -->
<g id="EntityComponentSystem/Universe/Place[26]" class="node"><title>Place_96</title>
<ellipse fill="green" stroke="black" cx="63" cy="-1607.8" rx="40.005" ry="18"/>
<text text-anchor="middle" x="63" y="-1603.6" font-family="Courier New" font-size="14.00">Place</text>
</g>
<!-- Place_97 -->
<g id="EntityComponentSystem/Universe/Place[27]" class="node"><title>Place_97</title>
<ellipse fill="green" stroke="black" cx="63" cy="-1661.8" rx="40.005" ry="18"/>
<text text-anchor="middle" x="63" y="-1657.6" font-family="Courier New" font-size="14.00">Place</text>
</g>
<!-- Place_98 -->
<g id="EntityComponentSystem_node41" class="node"><title>Place_98</title>
<ellipse fill="#f0f8ff" stroke="black" cx="772" cy="-473.8" rx="57.2645" ry="18"/>
<text text-anchor="middle" x="772" y="-469.6" font-family="Courier New" font-size="14.00">Place_98</text>
</g>
<!-- Kangaroo_63&#45;&gt;Place_98 -->
<g id="EntityComponentSystem_edge8" class="edge"><title>Kangaroo_63&#45;&gt;Place_98</title>
<path fill="none" stroke="black" d="M477.623,-473.8C539.512,-473.8 638.586,-473.8 704.223,-473.8"/>
<polygon fill="black" stroke="black" points="714.459,-473.8 704.459,-478.3 709.459,-473.8 704.459,-473.8 704.459,-473.8 704.459,-473.8 709.459,-473.8 704.459,-469.3 714.459,-473.8 714.459,-473.8"/>
<text text-anchor="middle" x="642" y="-478" font-family="Times,serif" font-size="14.00">contextNode_1_g$</text>
</g>
<!-- Place_99 -->
<g id="EntityComponentSystem/Universe/Place[29]" class="node"><title>Place_99</title>
<ellipse fill="green" stroke="black" cx="63" cy="-1715.8" rx="40.005" ry="18"/>
<text text-anchor="middle" x="63" y="-1711.6" font-family="Courier New" font-size="14.00">Place</text>
</g>
<!-- Place_100 -->
<g id="EntityComponentSystem/Universe/Place[30]" class="node"><title>Place_100</title>
<ellipse fill="green" stroke="black" cx="63" cy="-1769.8" rx="40.005" ry="18"/>
<text text-anchor="middle" x="63" y="-1765.6" font-family="Courier New" font-size="14.00">Place</text>
</g>
<!-- InitS_101 -->
<g id="EntityComponentSystem/InitS" class="node"><title>InitS_101</title>
<ellipse fill="#f0f8ff" stroke="black" cx="63" cy="-1823.8" rx="40.005" ry="18"/>
<text text-anchor="middle" x="63" y="-1819.6" font-family="Courier New" font-size="14.00">InitS</text>
</g>
<!-- Animate_102 -->
<g id="EntityComponentSystem/Animate" class="node"><title>Animate_102</title>
<ellipse fill="#f0f8ff" stroke="black" cx="63" cy="-1877.8" rx="51.678" ry="18"/>
<text text-anchor="middle" x="63" y="-1873.6" font-family="Courier New" font-size="14.00">Animate</text>
</g>
<!-- EntityComponentSystem_45 -->
<g id="EntityComponentSystem_node46" class="node"><title>EntityComponentSystem_45</title>
<ellipse fill="#f0f8ff" stroke="black" cx="420" cy="-1877.8" rx="150.147" ry="18"/>
<text text-anchor="middle" x="420" y="-1873.6" font-family="Courier New" font-size="14.00">EntityComponentSystem_45</text>
</g>
<!-- Animate_102&#45;&gt;EntityComponentSystem_45 -->
<g id="EntityComponentSystem_edge19" class="edge"><title>Animate_102&#45;&gt;EntityComponentSystem_45</title>
<path fill="none" stroke="black" d="M114.863,-1877.8C152.957,-1877.8 207.288,-1877.8 259.516,-1877.8"/>
<polygon fill="black" stroke="black" points="269.583,-1877.8 259.583,-1882.3 264.583,-1877.8 259.583,-1877.8 259.583,-1877.8 259.583,-1877.8 264.583,-1877.8 259.583,-1873.3 269.583,-1877.8 269.583,-1877.8"/>
<text text-anchor="middle" x="198" y="-1882" font-family="Times,serif" font-size="14.00">xhAnimRoot_1_g$</text>
</g>
</g>
</svg>

