<?xml version="1.0" encoding="UTF-8" standalone="no"?>
<?xml-stylesheet href="Xholon.css" type="text/css"?>
<!DOCTYPE svg PUBLIC "-//W3C//DTD SVG 1.1//EN"
 "http://www.w3.org/Graphics/SVG/1.1/DTD/svg11.dtd">
<!-- Generated by graphviz version 2.28.0 (20140111.2315)
 -->
<!-- Title: EntityComponentSystem_45 Pages: 1 -->
<svg width="600pt" height="1440pt"
 viewBox="0.00 0.00 600.24 1440.00" xmlns="http://www.w3.org/2000/svg" xmlns:xlink="http://www.w3.org/1999/xlink">
<g id="EntityComponentSystem" class="graph" transform="scale(0.719712 0.719712) rotate(0) translate(4 1996.8)">
<title>EntityComponentSystem_45</title>
<polygon fill="white" stroke="none" points="-4,4 -4,-1996.8 830,-1996.8 830,4 -4,4"/>
<text text-anchor="middle" x="413" y="-8.2" font-family="Georgia" font-size="14.00">EntityComponentSystem</text>
<g id="EntityComponentSystem/Systems" class="cluster"><title>clusterSystems_65</title>
<polygon fill="none" stroke="black" points="8,-1181.8 8,-1878.8 134,-1878.8 134,-1181.8 8,-1181.8"/>
<text text-anchor="middle" x="71" y="-1862.2" font-family="Georgia" font-size="14.00">Systems</text>
</g>
<g id="EntityComponentSystem/Systems/WalkS" class="cluster"><title>clusterWalkS_66</title>
<polygon fill="none" stroke="black" points="24,-1444.8 24,-1845.8 118,-1845.8 118,-1444.8 24,-1444.8"/>
<text text-anchor="middle" x="71" y="-1829.2" font-family="Georgia" font-size="14.00">WalkS</text>
</g>
<g id="EntityComponentSystem/Systems/HopS" class="cluster"><title>clusterHopS_67</title>
<polygon fill="none" stroke="black" points="29,-1359.8 29,-1436.8 113,-1436.8 113,-1359.8 29,-1359.8"/>
<text text-anchor="middle" x="71" y="-1420.2" font-family="Georgia" font-size="14.00">HopS</text>
</g>
<g id="EntityComponentSystem/Systems/SwimS" class="cluster"><title>clusterSwimS_68</title>
<polygon fill="none" stroke="black" points="23,-1274.8 23,-1351.8 119,-1351.8 119,-1274.8 23,-1274.8"/>
<text text-anchor="middle" x="71" y="-1335.2" font-family="Georgia" font-size="14.00">SwimS</text>
</g>
<g id="EntityComponentSystem/Systems/InteractS" class="cluster"><title>clusterInteractS_69</title>
<polygon fill="none" stroke="black" points="16,-1189.8 16,-1266.8 126,-1266.8 126,-1189.8 16,-1189.8"/>
<text text-anchor="middle" x="71" y="-1250.2" font-family="Georgia" font-size="14.00">InteractS</text>
</g>
<g id="EntityComponentSystem/Universe" class="cluster"><title>clusterUniverse_70</title>
<polygon fill="none" stroke="black" points="326,-32.8 326,-1948.8 818,-1948.8 818,-32.8 326,-32.8"/>
<text text-anchor="middle" x="572" y="-1932.2" font-family="Georgia" font-size="14.00">Universe</text>
</g>
<g id="EntityComponentSystem/Universe/Place[8]" class="cluster"><title>clusterPlace_78</title>
<polygon fill="none" stroke="black" points="356,-1838.8 356,-1915.8 810,-1915.8 810,-1838.8 356,-1838.8"/>
<text text-anchor="middle" x="583" y="-1899.2" font-family="Georgia" font-size="14.00">Place</text>
</g>
<g id="EntityComponentSystem/Universe/Place[10]" class="cluster"><title>clusterPlace_80</title>
<polygon fill="none" stroke="black" points="356,-1583.8 356,-1660.8 810,-1660.8 810,-1583.8 356,-1583.8"/>
<text text-anchor="middle" x="583" y="-1644.2" font-family="Georgia" font-size="14.00">Place</text>
</g>
<g id="EntityComponentSystem/Universe/Place[14]" class="cluster"><title>clusterPlace_84</title>
<polygon fill="none" stroke="black" points="356,-1668.8 356,-1745.8 810,-1745.8 810,-1668.8 356,-1668.8"/>
<text text-anchor="middle" x="583" y="-1729.2" font-family="Georgia" font-size="14.00">Place</text>
</g>
<g id="EntityComponentSystem/Universe/Place[20]" class="cluster"><title>clusterPlace_90</title>
<polygon fill="none" stroke="black" points="334,-1359.8 334,-1436.8 810,-1436.8 810,-1359.8 334,-1359.8"/>
<text text-anchor="middle" x="572" y="-1420.2" font-family="Georgia" font-size="14.00">Place</text>
</g>
<g id="EntityComponentSystem/Universe/Place[24]" class="cluster"><title>clusterPlace_94</title>
<polygon fill="none" stroke="black" points="355,-1274.8 355,-1351.8 810,-1351.8 810,-1274.8 355,-1274.8"/>
<text text-anchor="middle" x="582.5" y="-1335.2" font-family="Georgia" font-size="14.00">Place</text>
</g>
<g id="EntityComponentSystem/Universe/Place[27]" class="cluster"><title>clusterPlace_97</title>
<polygon fill="none" stroke="black" points="340,-1444.8 340,-1575.8 810,-1575.8 810,-1444.8 340,-1444.8"/>
<text text-anchor="middle" x="575" y="-1559.2" font-family="Georgia" font-size="14.00">Place</text>
</g>
<g id="EntityComponentSystem/Universe/Place[29]" class="cluster"><title>clusterPlace_99</title>
<polygon fill="none" stroke="black" points="356,-1753.8 356,-1830.8 810,-1830.8 810,-1753.8 356,-1753.8"/>
<text text-anchor="middle" x="583" y="-1814.2" font-family="Georgia" font-size="14.00">Place</text>
</g>
<!-- Entities_46 -->
<g id="EntityComponentSystem/Entities" class="node"><title>Entities_46</title>
<ellipse fill="#f0f8ff" stroke="black" cx="71" cy="-1155.8" rx="40.5828" ry="18"/>
<text text-anchor="middle" x="71" y="-1151.6" font-family="Georgia" font-size="14.00">Entities</text>
</g>
<!-- WalkC_48 -->
<g id="EntityComponentSystem/Systems/WalkS/WalkC[1]" class="node"><title>WalkC_48</title>
<ellipse fill="#f0f8ff" stroke="black" cx="71" cy="-1794.8" rx="38.2818" ry="18"/>
<text text-anchor="middle" x="71" y="-1790.6" font-family="Georgia" font-size="14.00">WalkC</text>
</g>
<!-- Cat_47 -->
<g id="EntityComponentSystem/Universe/Place[8]/Cat" class="node"><title>Cat_47</title>
<ellipse fill="#ff0000" stroke="black" cx="391" cy="-1864.8" rx="27" ry="18"/>
<text text-anchor="middle" x="391" y="-1860.6" font-family="Georgia" font-size="14.00">Cat</text>
</g>
<!-- WalkC_48&#45;&gt;Cat_47 -->
<g id="EntityComponentSystem_edge9" class="edge"><title>WalkC_48&#45;&gt;Cat_47</title>
<path fill="none" stroke="black" d="M106.032,-1802.29C166.92,-1815.69 293.858,-1843.64 355.257,-1857.15"/>
<polygon fill="black" stroke="black" points="365.229,-1859.35 354.495,-1861.59 360.346,-1858.27 355.463,-1857.2 355.463,-1857.2 355.463,-1857.2 360.346,-1858.27 356.43,-1852.8 365.229,-1859.35 365.229,-1859.35"/>
<text text-anchor="middle" x="196" y="-1837" font-family="Times,serif" font-size="14.00">port</text>
</g>
<!-- WalkC_50 -->
<g id="EntityComponentSystem/Systems/WalkS/WalkC[2]" class="node"><title>WalkC_50</title>
<ellipse fill="#f0f8ff" stroke="black" cx="71" cy="-1740.8" rx="38.2818" ry="18"/>
<text text-anchor="middle" x="71" y="-1736.6" font-family="Georgia" font-size="14.00">WalkC</text>
</g>
<!-- Cat_49 -->
<g id="EntityComponentSystem/Universe/Place[29]/Cat" class="node"><title>Cat_49</title>
<ellipse fill="#ff0000" stroke="black" cx="391" cy="-1779.8" rx="27" ry="18"/>
<text text-anchor="middle" x="391" y="-1775.6" font-family="Georgia" font-size="14.00">Cat</text>
</g>
<!-- WalkC_50&#45;&gt;Cat_49 -->
<g id="EntityComponentSystem_edge10" class="edge"><title>WalkC_50&#45;&gt;Cat_49</title>
<path fill="none" stroke="black" d="M108.479,-1745.27C169.858,-1752.8 293.046,-1767.91 354.061,-1775.39"/>
<polygon fill="black" stroke="black" points="364.002,-1776.61 353.529,-1779.86 359.039,-1776 354.076,-1775.39 354.076,-1775.39 354.076,-1775.39 359.039,-1776 354.624,-1770.93 364.002,-1776.61 364.002,-1776.61"/>
<text text-anchor="middle" x="196" y="-1766" font-family="Times,serif" font-size="14.00">port</text>
</g>
<!-- WalkC_52 -->
<g id="EntityComponentSystem/Systems/WalkS/WalkC[3]" class="node"><title>WalkC_52</title>
<ellipse fill="#f0f8ff" stroke="black" cx="71" cy="-1686.8" rx="38.2818" ry="18"/>
<text text-anchor="middle" x="71" y="-1682.6" font-family="Georgia" font-size="14.00">WalkC</text>
</g>
<!-- Cat_51 -->
<g id="EntityComponentSystem/Universe/Place[14]/Cat" class="node"><title>Cat_51</title>
<ellipse fill="#ff0000" stroke="black" cx="391" cy="-1694.8" rx="27" ry="18"/>
<text text-anchor="middle" x="391" y="-1690.6" font-family="Georgia" font-size="14.00">Cat</text>
</g>
<!-- WalkC_52&#45;&gt;Cat_51 -->
<g id="EntityComponentSystem_edge11" class="edge"><title>WalkC_52&#45;&gt;Cat_51</title>
<path fill="none" stroke="black" d="M109.414,-1687.74C170.902,-1689.29 292.564,-1692.35 353.47,-1693.88"/>
<polygon fill="black" stroke="black" points="363.758,-1694.14 353.647,-1698.39 358.759,-1694.01 353.761,-1693.89 353.761,-1693.89 353.761,-1693.89 358.759,-1694.01 353.874,-1689.39 363.758,-1694.14 363.758,-1694.14"/>
<text text-anchor="middle" x="196" y="-1696" font-family="Times,serif" font-size="14.00">port</text>
</g>
<!-- WalkC_54 -->
<g id="EntityComponentSystem/Systems/WalkS/WalkC[4]" class="node"><title>WalkC_54</title>
<ellipse fill="#f0f8ff" stroke="black" cx="71" cy="-1632.8" rx="38.2818" ry="18"/>
<text text-anchor="middle" x="71" y="-1628.6" font-family="Georgia" font-size="14.00">WalkC</text>
</g>
<!-- Cat_53 -->
<g id="EntityComponentSystem/Universe/Place[10]/Cat" class="node"><title>Cat_53</title>
<ellipse fill="#ff0000" stroke="black" cx="391" cy="-1609.8" rx="27" ry="18"/>
<text text-anchor="middle" x="391" y="-1605.6" font-family="Georgia" font-size="14.00">Cat</text>
</g>
<!-- WalkC_54&#45;&gt;Cat_53 -->
<g id="EntityComponentSystem_edge12" class="edge"><title>WalkC_54&#45;&gt;Cat_53</title>
<path fill="none" stroke="black" d="M109.101,-1630.12C170.615,-1625.67 292.964,-1616.82 353.847,-1612.41"/>
<polygon fill="black" stroke="black" points="364.122,-1611.67 354.473,-1616.88 359.135,-1612.03 354.148,-1612.39 354.148,-1612.39 354.148,-1612.39 359.135,-1612.03 353.823,-1607.9 364.122,-1611.67 364.122,-1611.67"/>
<text text-anchor="middle" x="196" y="-1632" font-family="Times,serif" font-size="14.00">port</text>
</g>
<!-- WalkC_56 -->
<g id="EntityComponentSystem/Systems/WalkS/WalkC[5]" class="node"><title>WalkC_56</title>
<ellipse fill="#f0f8ff" stroke="black" cx="71" cy="-1578.8" rx="38.2818" ry="18"/>
<text text-anchor="middle" x="71" y="-1574.6" font-family="Georgia" font-size="14.00">WalkC</text>
</g>
<!-- Cat_55 -->
<g id="EntityComponentSystem/Universe/Place[27]/Cat[@roleName=&#39;null&#39;]" class="node"><title>Cat_55</title>
<ellipse fill="#ff0000" stroke="black" cx="391" cy="-1524.8" rx="27" ry="18"/>
<text text-anchor="middle" x="391" y="-1520.6" font-family="Georgia" font-size="14.00">Cat</text>
</g>
<!-- WalkC_56&#45;&gt;Cat_55 -->
<g id="EntityComponentSystem_edge13" class="edge"><title>WalkC_56&#45;&gt;Cat_55</title>
<path fill="none" stroke="black" d="M107.247,-1572.81C168.393,-1562.43 293.442,-1541.2 354.656,-1530.8"/>
<polygon fill="black" stroke="black" points="364.615,-1529.11 355.509,-1535.22 359.685,-1529.95 354.756,-1530.78 354.756,-1530.78 354.756,-1530.78 359.685,-1529.95 354.002,-1526.35 364.615,-1529.11 364.615,-1529.11"/>
<text text-anchor="middle" x="196" y="-1570" font-family="Times,serif" font-size="14.00">port</text>
</g>
<!-- WalkC_58 -->
<g id="EntityComponentSystem/Systems/WalkS/WalkC[6]" class="node"><title>WalkC_58</title>
<ellipse fill="#f0f8ff" stroke="black" cx="71" cy="-1524.8" rx="38.2818" ry="18"/>
<text text-anchor="middle" x="71" y="-1520.6" font-family="Georgia" font-size="14.00">WalkC</text>
</g>
<!-- Licorice_57 -->
<g id="EntityComponentSystem/Universe/Place[27]/Cat[@roleName=&#39;Licorice&#39;]" class="node"><title>Licorice_57</title>
<ellipse fill="#008000" stroke="black" cx="391" cy="-1470.8" rx="43.4144" ry="18"/>
<text text-anchor="middle" x="391" y="-1466.6" font-family="Georgia" font-size="14.00">Licorice</text>
</g>
<!-- WalkC_58&#45;&gt;Licorice_57 -->
<g id="EntityComponentSystem_edge14" class="edge"><title>WalkC_58&#45;&gt;Licorice_57</title>
<path fill="none" stroke="black" d="M107.247,-1518.81C164.041,-1509.17 275.965,-1490.16 340.661,-1479.18"/>
<polygon fill="black" stroke="black" points="350.623,-1477.49 341.518,-1483.6 345.694,-1478.32 340.764,-1479.16 340.764,-1479.16 340.764,-1479.16 345.694,-1478.32 340.011,-1474.72 350.623,-1477.49 350.623,-1477.49"/>
<text text-anchor="middle" x="196" y="-1516" font-family="Times,serif" font-size="14.00">port</text>
</g>
<!-- WalkC_60 -->
<g id="EntityComponentSystem/Systems/WalkS/WalkC[7]" class="node"><title>WalkC_60</title>
<ellipse fill="#f0f8ff" stroke="black" cx="71" cy="-1470.8" rx="38.2818" ry="18"/>
<text text-anchor="middle" x="71" y="-1466.6" font-family="Georgia" font-size="14.00">WalkC</text>
</g>
<!-- Dog_59 -->
<g id="EntityComponentSystem/Universe/Place[24]/Dog" class="node"><title>Dog_59</title>
<ellipse fill="#ff8080" stroke="black" cx="391" cy="-1300.8" rx="27.8306" ry="18"/>
<text text-anchor="middle" x="391" y="-1296.6" font-family="Georgia" font-size="14.00">Dog</text>
</g>
<!-- WalkC_60&#45;&gt;Dog_59 -->
<g id="EntityComponentSystem_edge15" class="edge"><title>WalkC_60&#45;&gt;Dog_59</title>
<path fill="none" stroke="black" d="M108.606,-1466.64C148.448,-1460.25 211.588,-1444.39 250,-1405.8 266.663,-1389.06 251.963,-1373.14 268,-1355.8 290.941,-1331 327.186,-1316.62 354.218,-1308.84"/>
<polygon fill="black" stroke="black" points="364.08,-1306.17 355.604,-1313.12 359.254,-1307.47 354.428,-1308.78 354.428,-1308.78 354.428,-1308.78 359.254,-1307.47 353.251,-1304.44 364.08,-1306.17 364.08,-1306.17"/>
<text text-anchor="middle" x="196" y="-1464" font-family="Times,serif" font-size="14.00">port</text>
</g>
<!-- HopC_64 -->
<g id="EntityComponentSystem/Systems/HopS/HopC" class="node"><title>HopC_64</title>
<ellipse fill="#f0f8ff" stroke="black" cx="71" cy="-1385.8" rx="34.2104" ry="18"/>
<text text-anchor="middle" x="71" y="-1381.6" font-family="Georgia" font-size="14.00">HopC</text>
</g>
<!-- Kangaroo_63 -->
<g id="EntityComponentSystem/Universe/Place[20]/Kangaroo" class="node"><title>Kangaroo_63</title>
<ellipse fill="#ff8000" stroke="black" cx="391" cy="-1385.8" rx="49.2202" ry="18"/>
<text text-anchor="middle" x="391" y="-1381.6" font-family="Georgia" font-size="14.00">Kangaroo</text>
</g>
<!-- HopC_64&#45;&gt;Kangaroo_63 -->
<g id="EntityComponentSystem_edge16" class="edge"><title>HopC_64&#45;&gt;Kangaroo_63</title>
<path fill="none" stroke="black" d="M105.132,-1385.8C158.661,-1385.8 264.875,-1385.8 331.402,-1385.8"/>
<polygon fill="black" stroke="black" points="341.724,-1385.8 331.724,-1390.3 336.724,-1385.8 331.724,-1385.8 331.724,-1385.8 331.724,-1385.8 336.724,-1385.8 331.724,-1381.3 341.724,-1385.8 341.724,-1385.8"/>
<text text-anchor="middle" x="196" y="-1390" font-family="Times,serif" font-size="14.00">port</text>
</g>
<!-- SwimC_61 -->
<g id="EntityComponentSystem/Systems/SwimS/SwimC" class="node"><title>SwimC_61</title>
<ellipse fill="#f0f8ff" stroke="black" cx="71" cy="-1300.8" rx="40.0243" ry="18"/>
<text text-anchor="middle" x="71" y="-1296.6" font-family="Georgia" font-size="14.00">SwimC</text>
</g>
<!-- SwimC_61&#45;&gt;Dog_59 -->
<g id="EntityComponentSystem_edge17" class="edge"><title>SwimC_61&#45;&gt;Dog_59</title>
<path fill="none" stroke="black" d="M111.312,-1300.8C173.233,-1300.8 292.637,-1300.8 353.056,-1300.8"/>
<polygon fill="black" stroke="black" points="363.275,-1300.8 353.275,-1305.3 358.275,-1300.8 353.275,-1300.8 353.275,-1300.8 353.275,-1300.8 358.275,-1300.8 353.275,-1296.3 363.275,-1300.8 363.275,-1300.8"/>
<text text-anchor="middle" x="196" y="-1305" font-family="Times,serif" font-size="14.00">port</text>
</g>
<!-- InteractC_62 -->
<g id="EntityComponentSystem/Systems/InteractS/InteractC" class="node"><title>InteractC_62</title>
<ellipse fill="#f0f8ff" stroke="black" cx="71" cy="-1215.8" rx="46.9246" ry="18"/>
<text text-anchor="middle" x="71" y="-1211.6" font-family="Georgia" font-size="14.00">InteractC</text>
</g>
<!-- InteractC_62&#45;&gt;Dog_59 -->
<g id="EntityComponentSystem_edge18" class="edge"><title>InteractC_62&#45;&gt;Dog_59</title>
<path fill="none" stroke="black" d="M105.599,-1228.11C144.325,-1241.94 210.088,-1264.34 268,-1278.8 296.503,-1285.92 329.295,-1291.7 353.699,-1295.55"/>
<polygon fill="black" stroke="black" points="363.608,-1297.08 353.038,-1300 358.666,-1296.31 353.725,-1295.55 353.725,-1295.55 353.725,-1295.55 358.666,-1296.31 354.411,-1291.1 363.608,-1297.08 363.608,-1297.08"/>
<text text-anchor="middle" x="196" y="-1278" font-family="Times,serif" font-size="14.00">port</text>
</g>
<!-- Place_71 -->
<g id="EntityComponentSystem/Universe/Place[1]" class="node"><title>Place_71</title>
<ellipse fill="green" stroke="black" cx="391" cy="-1246.8" rx="31.8973" ry="18"/>
<text text-anchor="middle" x="391" y="-1242.6" font-family="Georgia" font-size="14.00">Place</text>
</g>
<!-- Place_72 -->
<g id="EntityComponentSystem/Universe/Place[2]" class="node"><title>Place_72</title>
<ellipse fill="green" stroke="black" cx="391" cy="-1192.8" rx="31.8973" ry="18"/>
<text text-anchor="middle" x="391" y="-1188.6" font-family="Georgia" font-size="14.00">Place</text>
</g>
<!-- Place_73 -->
<g id="EntityComponentSystem/Universe/Place[3]" class="node"><title>Place_73</title>
<ellipse fill="green" stroke="black" cx="391" cy="-1138.8" rx="31.8973" ry="18"/>
<text text-anchor="middle" x="391" y="-1134.6" font-family="Georgia" font-size="14.00">Place</text>
</g>
<!-- Place_74 -->
<g id="EntityComponentSystem/Universe/Place[4]" class="node"><title>Place_74</title>
<ellipse fill="green" stroke="black" cx="391" cy="-1084.8" rx="31.8973" ry="18"/>
<text text-anchor="middle" x="391" y="-1080.6" font-family="Georgia" font-size="14.00">Place</text>
</g>
<!-- Place_75 -->
<g id="EntityComponentSystem/Universe/Place[5]" class="node"><title>Place_75</title>
<ellipse fill="green" stroke="black" cx="391" cy="-1030.8" rx="31.8973" ry="18"/>
<text text-anchor="middle" x="391" y="-1026.6" font-family="Georgia" font-size="14.00">Place</text>
</g>
<!-- Place_76 -->
<g id="EntityComponentSystem/Universe/Place[6]" class="node"><title>Place_76</title>
<ellipse fill="green" stroke="black" cx="391" cy="-976.8" rx="31.8973" ry="18"/>
<text text-anchor="middle" x="391" y="-972.6" font-family="Georgia" font-size="14.00">Place</text>
</g>
<!-- Place_77 -->
<g id="EntityComponentSystem/Universe/Place[7]" class="node"><title>Place_77</title>
<ellipse fill="green" stroke="black" cx="391" cy="-922.8" rx="31.8973" ry="18"/>
<text text-anchor="middle" x="391" y="-918.6" font-family="Georgia" font-size="14.00">Place</text>
</g>
<!-- clusterPlace_78 -->
<g id="EntityComponentSystem_node20" class="node"><title>clusterPlace_78</title>
<ellipse fill="#f0f8ff" stroke="black" cx="730" cy="-1864.8" rx="72.3477" ry="18"/>
<text text-anchor="middle" x="730" y="-1860.6" font-family="Georgia" font-size="14.00">clusterPlace_78</text>
</g>
<!-- Cat_47&#45;&gt;clusterPlace_78 -->
<g id="EntityComponentSystem_edge1" class="edge"><title>Cat_47&#45;&gt;clusterPlace_78</title>
<path fill="none" stroke="black" d="M418.163,-1864.8C466.757,-1864.8 572.78,-1864.8 647.44,-1864.8"/>
<polygon fill="black" stroke="black" points="657.757,-1864.8 647.757,-1869.3 652.757,-1864.8 647.757,-1864.8 647.757,-1864.8 647.757,-1864.8 652.757,-1864.8 647.757,-1860.3 657.757,-1864.8 657.757,-1864.8"/>
<text text-anchor="middle" x="586" y="-1869" font-family="Times,serif" font-size="14.00">contextNode_1_g$</text>
</g>
<!-- Place_79 -->
<g id="EntityComponentSystem/Universe/Place[9]" class="node"><title>Place_79</title>
<ellipse fill="green" stroke="black" cx="391" cy="-868.8" rx="31.8973" ry="18"/>
<text text-anchor="middle" x="391" y="-864.6" font-family="Georgia" font-size="14.00">Place</text>
</g>
<!-- clusterPlace_80 -->
<g id="EntityComponentSystem_node23" class="node"><title>clusterPlace_80</title>
<ellipse fill="#f0f8ff" stroke="black" cx="730" cy="-1609.8" rx="72.3477" ry="18"/>
<text text-anchor="middle" x="730" y="-1605.6" font-family="Georgia" font-size="14.00">clusterPlace_80</text>
</g>
<!-- Cat_53&#45;&gt;clusterPlace_80 -->
<g id="EntityComponentSystem_edge2" class="edge"><title>Cat_53&#45;&gt;clusterPlace_80</title>
<path fill="none" stroke="black" d="M418.163,-1609.8C466.757,-1609.8 572.78,-1609.8 647.44,-1609.8"/>
<polygon fill="black" stroke="black" points="657.757,-1609.8 647.757,-1614.3 652.757,-1609.8 647.757,-1609.8 647.757,-1609.8 647.757,-1609.8 652.757,-1609.8 647.757,-1605.3 657.757,-1609.8 657.757,-1609.8"/>
<text text-anchor="middle" x="586" y="-1614" font-family="Times,serif" font-size="14.00">contextNode_1_g$</text>
</g>
<!-- Place_81 -->
<g id="EntityComponentSystem/Universe/Place[11]" class="node"><title>Place_81</title>
<ellipse fill="green" stroke="black" cx="391" cy="-814.8" rx="31.8973" ry="18"/>
<text text-anchor="middle" x="391" y="-810.6" font-family="Georgia" font-size="14.00">Place</text>
</g>
<!-- Place_82 -->
<g id="EntityComponentSystem/Universe/Place[12]" class="node"><title>Place_82</title>
<ellipse fill="green" stroke="black" cx="391" cy="-760.8" rx="31.8973" ry="18"/>
<text text-anchor="middle" x="391" y="-756.6" font-family="Georgia" font-size="14.00">Place</text>
</g>
<!-- Place_83 -->
<g id="EntityComponentSystem/Universe/Place[13]" class="node"><title>Place_83</title>
<ellipse fill="green" stroke="black" cx="391" cy="-706.8" rx="31.8973" ry="18"/>
<text text-anchor="middle" x="391" y="-702.6" font-family="Georgia" font-size="14.00">Place</text>
</g>
<!-- clusterPlace_84 -->
<g id="EntityComponentSystem_node28" class="node"><title>clusterPlace_84</title>
<ellipse fill="#f0f8ff" stroke="black" cx="730" cy="-1694.8" rx="72.3477" ry="18"/>
<text text-anchor="middle" x="730" y="-1690.6" font-family="Georgia" font-size="14.00">clusterPlace_84</text>
</g>
<!-- Cat_51&#45;&gt;clusterPlace_84 -->
<g id="EntityComponentSystem_edge3" class="edge"><title>Cat_51&#45;&gt;clusterPlace_84</title>
<path fill="none" stroke="black" d="M418.163,-1694.8C466.757,-1694.8 572.78,-1694.8 647.44,-1694.8"/>
<polygon fill="black" stroke="black" points="657.757,-1694.8 647.757,-1699.3 652.757,-1694.8 647.757,-1694.8 647.757,-1694.8 647.757,-1694.8 652.757,-1694.8 647.757,-1690.3 657.757,-1694.8 657.757,-1694.8"/>
<text text-anchor="middle" x="586" y="-1699" font-family="Times,serif" font-size="14.00">contextNode_1_g$</text>
</g>
<!-- Place_85 -->
<g id="EntityComponentSystem/Universe/Place[15]" class="node"><title>Place_85</title>
<ellipse fill="green" stroke="black" cx="391" cy="-652.8" rx="31.8973" ry="18"/>
<text text-anchor="middle" x="391" y="-648.6" font-family="Georgia" font-size="14.00">Place</text>
</g>
<!-- Place_86 -->
<g id="EntityComponentSystem/Universe/Place[16]" class="node"><title>Place_86</title>
<ellipse fill="green" stroke="black" cx="391" cy="-598.8" rx="31.8973" ry="18"/>
<text text-anchor="middle" x="391" y="-594.6" font-family="Georgia" font-size="14.00">Place</text>
</g>
<!-- Place_87 -->
<g id="EntityComponentSystem/Universe/Place[17]" class="node"><title>Place_87</title>
<ellipse fill="green" stroke="black" cx="391" cy="-544.8" rx="31.8973" ry="18"/>
<text text-anchor="middle" x="391" y="-540.6" font-family="Georgia" font-size="14.00">Place</text>
</g>
<!-- Place_88 -->
<g id="EntityComponentSystem/Universe/Place[18]" class="node"><title>Place_88</title>
<ellipse fill="green" stroke="black" cx="391" cy="-490.8" rx="31.8973" ry="18"/>
<text text-anchor="middle" x="391" y="-486.6" font-family="Georgia" font-size="14.00">Place</text>
</g>
<!-- Place_89 -->
<g id="EntityComponentSystem/Universe/Place[19]" class="node"><title>Place_89</title>
<ellipse fill="green" stroke="black" cx="391" cy="-436.8" rx="31.8973" ry="18"/>
<text text-anchor="middle" x="391" y="-432.6" font-family="Georgia" font-size="14.00">Place</text>
</g>
<!-- clusterPlace_90 -->
<g id="EntityComponentSystem_node35" class="node"><title>clusterPlace_90</title>
<ellipse fill="#f0f8ff" stroke="black" cx="730" cy="-1385.8" rx="72.3477" ry="18"/>
<text text-anchor="middle" x="730" y="-1381.6" font-family="Georgia" font-size="14.00">clusterPlace_90</text>
</g>
<!-- Kangaroo_63&#45;&gt;clusterPlace_90 -->
<g id="EntityComponentSystem_edge4" class="edge"><title>Kangaroo_63&#45;&gt;clusterPlace_90</title>
<path fill="none" stroke="black" d="M440.284,-1385.8C494.27,-1385.8 582.611,-1385.8 647.378,-1385.8"/>
<polygon fill="black" stroke="black" points="657.562,-1385.8 647.562,-1390.3 652.562,-1385.8 647.562,-1385.8 647.562,-1385.8 647.562,-1385.8 652.562,-1385.8 647.562,-1381.3 657.562,-1385.8 657.562,-1385.8"/>
<text text-anchor="middle" x="586" y="-1390" font-family="Times,serif" font-size="14.00">contextNode_1_g$</text>
</g>
<!-- Place_91 -->
<g id="EntityComponentSystem/Universe/Place[21]" class="node"><title>Place_91</title>
<ellipse fill="green" stroke="black" cx="391" cy="-382.8" rx="31.8973" ry="18"/>
<text text-anchor="middle" x="391" y="-378.6" font-family="Georgia" font-size="14.00">Place</text>
</g>
<!-- Place_92 -->
<g id="EntityComponentSystem/Universe/Place[22]" class="node"><title>Place_92</title>
<ellipse fill="green" stroke="black" cx="391" cy="-328.8" rx="31.8973" ry="18"/>
<text text-anchor="middle" x="391" y="-324.6" font-family="Georgia" font-size="14.00">Place</text>
</g>
<!-- Place_93 -->
<g id="EntityComponentSystem/Universe/Place[23]" class="node"><title>Place_93</title>
<ellipse fill="green" stroke="black" cx="391" cy="-274.8" rx="31.8973" ry="18"/>
<text text-anchor="middle" x="391" y="-270.6" font-family="Georgia" font-size="14.00">Place</text>
</g>
<!-- clusterPlace_94 -->
<g id="EntityComponentSystem_node40" class="node"><title>clusterPlace_94</title>
<ellipse fill="#f0f8ff" stroke="black" cx="730" cy="-1300.8" rx="72.3477" ry="18"/>
<text text-anchor="middle" x="730" y="-1296.6" font-family="Georgia" font-size="14.00">clusterPlace_94</text>
</g>
<!-- Dog_59&#45;&gt;clusterPlace_94 -->
<g id="EntityComponentSystem_edge5" class="edge"><title>Dog_59&#45;&gt;clusterPlace_94</title>
<path fill="none" stroke="black" d="M418.726,-1300.8C467.569,-1300.8 573.059,-1300.8 647.432,-1300.8"/>
<polygon fill="black" stroke="black" points="657.711,-1300.8 647.711,-1305.3 652.711,-1300.8 647.711,-1300.8 647.711,-1300.8 647.711,-1300.8 652.711,-1300.8 647.711,-1296.3 657.711,-1300.8 657.711,-1300.8"/>
<text text-anchor="middle" x="586" y="-1305" font-family="Times,serif" font-size="14.00">contextNode_1_g$</text>
</g>
<!-- Place_95 -->
<g id="EntityComponentSystem/Universe/Place[25]" class="node"><title>Place_95</title>
<ellipse fill="green" stroke="black" cx="391" cy="-220.8" rx="31.8973" ry="18"/>
<text text-anchor="middle" x="391" y="-216.6" font-family="Georgia" font-size="14.00">Place</text>
</g>
<!-- Place_96 -->
<g id="EntityComponentSystem/Universe/Place[26]" class="node"><title>Place_96</title>
<ellipse fill="green" stroke="black" cx="391" cy="-166.8" rx="31.8973" ry="18"/>
<text text-anchor="middle" x="391" y="-162.6" font-family="Georgia" font-size="14.00">Place</text>
</g>
<!-- clusterPlace_97 -->
<g id="EntityComponentSystem_node45" class="node"><title>clusterPlace_97</title>
<ellipse fill="#f0f8ff" stroke="black" cx="730" cy="-1473.8" rx="72.3477" ry="18"/>
<text text-anchor="middle" x="730" y="-1469.6" font-family="Georgia" font-size="14.00">clusterPlace_97</text>
</g>
<!-- Cat_55&#45;&gt;clusterPlace_97 -->
<g id="EntityComponentSystem_edge6" class="edge"><title>Cat_55&#45;&gt;clusterPlace_97</title>
<path fill="none" stroke="black" d="M417.827,-1522.4C463.049,-1518.02 559.425,-1507.86 640,-1493.8 648.937,-1492.24 658.33,-1490.38 667.528,-1488.43"/>
<polygon fill="black" stroke="black" points="677.401,-1486.28 668.584,-1492.8 672.515,-1487.34 667.629,-1488.4 667.629,-1488.4 667.629,-1488.4 672.515,-1487.34 666.674,-1484.01 677.401,-1486.28 677.401,-1486.28"/>
<text text-anchor="middle" x="586" y="-1514" font-family="Times,serif" font-size="14.00">contextNode_1_g$</text>
</g>
<!-- Licorice_57&#45;&gt;clusterPlace_97 -->
<g id="EntityComponentSystem_edge7" class="edge"><title>Licorice_57&#45;&gt;clusterPlace_97</title>
<path fill="none" stroke="black" d="M434.34,-1471.18C487.643,-1471.65 580.357,-1472.48 647.577,-1473.08"/>
<polygon fill="black" stroke="black" points="657.718,-1473.17 647.679,-1477.58 652.719,-1473.12 647.719,-1473.08 647.719,-1473.08 647.719,-1473.08 652.719,-1473.12 647.759,-1468.58 657.718,-1473.17 657.718,-1473.17"/>
<text text-anchor="middle" x="586" y="-1478" font-family="Times,serif" font-size="14.00">contextNode_1_g$</text>
</g>
<!-- Place_98 -->
<g id="EntityComponentSystem/Universe/Place[28]" class="node"><title>Place_98</title>
<ellipse fill="green" stroke="black" cx="391" cy="-112.8" rx="31.8973" ry="18"/>
<text text-anchor="middle" x="391" y="-108.6" font-family="Georgia" font-size="14.00">Place</text>
</g>
<!-- clusterPlace_99 -->
<g id="EntityComponentSystem_node48" class="node"><title>clusterPlace_99</title>
<ellipse fill="#f0f8ff" stroke="black" cx="730" cy="-1779.8" rx="72.3477" ry="18"/>
<text text-anchor="middle" x="730" y="-1775.6" font-family="Georgia" font-size="14.00">clusterPlace_99</text>
</g>
<!-- Cat_49&#45;&gt;clusterPlace_99 -->
<g id="EntityComponentSystem_edge8" class="edge"><title>Cat_49&#45;&gt;clusterPlace_99</title>
<path fill="none" stroke="black" d="M418.163,-1779.8C466.757,-1779.8 572.78,-1779.8 647.44,-1779.8"/>
<polygon fill="black" stroke="black" points="657.757,-1779.8 647.757,-1784.3 652.757,-1779.8 647.757,-1779.8 647.757,-1779.8 647.757,-1779.8 652.757,-1779.8 647.757,-1775.3 657.757,-1779.8 657.757,-1779.8"/>
<text text-anchor="middle" x="586" y="-1784" font-family="Times,serif" font-size="14.00">contextNode_1_g$</text>
</g>
<!-- Place_100 -->
<g id="EntityComponentSystem/Universe/Place[30]" class="node"><title>Place_100</title>
<ellipse fill="green" stroke="black" cx="391" cy="-58.8" rx="31.8973" ry="18"/>
<text text-anchor="middle" x="391" y="-54.6" font-family="Georgia" font-size="14.00">Place</text>
</g>
<!-- InitS_101 -->
<g id="EntityComponentSystem/InitS" class="node"><title>InitS_101</title>
<ellipse fill="#f0f8ff" stroke="black" cx="71" cy="-1912.8" rx="29.6319" ry="18"/>
<text text-anchor="middle" x="71" y="-1908.6" font-family="Georgia" font-size="14.00">InitS</text>
</g>
<!-- Animate_102 -->
<g id="EntityComponentSystem/Animate" class="node"><title>Animate_102</title>
<ellipse fill="#f0f8ff" stroke="black" cx="71" cy="-1974.8" rx="44.0795" ry="18"/>
<text text-anchor="middle" x="71" y="-1970.6" font-family="Georgia" font-size="14.00">Animate</text>
</g>
<!-- EntityComponentSystem_45 -->
<g id="EntityComponentSystem_node52" class="node"><title>EntityComponentSystem_45</title>
<ellipse fill="#f0f8ff" stroke="black" cx="391" cy="-1974.8" rx="122.759" ry="18"/>
<text text-anchor="middle" x="391" y="-1970.6" font-family="Georgia" font-size="14.00">EntityComponentSystem_45</text>
</g>
<!-- Animate_102&#45;&gt;EntityComponentSystem_45 -->
<g id="EntityComponentSystem_edge19" class="edge"><title>Animate_102&#45;&gt;EntityComponentSystem_45</title>
<path fill="none" stroke="black" d="M115.55,-1974.8C152.387,-1974.8 207.163,-1974.8 258.112,-1974.8"/>
<polygon fill="black" stroke="black" points="268.245,-1974.8 258.245,-1979.3 263.245,-1974.8 258.245,-1974.8 258.245,-1974.8 258.245,-1974.8 263.245,-1974.8 258.245,-1970.3 268.245,-1974.8 268.245,-1974.8"/>
<text text-anchor="middle" x="196" y="-1979" font-family="Times,serif" font-size="14.00">xhAnimRoot_1_g$</text>
</g>
</g>
</svg>

