<?xml version="1.0" encoding="UTF-8" standalone="no"?>
<!DOCTYPE svg PUBLIC "-//W3C//DTD SVG 1.1//EN"
 "http://www.w3.org/Graphics/SVG/1.1/DTD/svg11.dtd">
<!-- Generated by graphviz version 2.38.0 (20140413.2041)
 -->
<!-- Title: G Pages: 1 -->
<svg width="32pt" height="214pt"
 viewBox="0.00 0.00 32.00 214.00" xmlns="http://www.w3.org/2000/svg" xmlns:xlink="http://www.w3.org/1999/xlink">
<g id="graph0" class="graph" transform="scale(1 1) rotate(0) translate(4 210)">
<title>G</title>
<polygon fill="white" stroke="none" points="-4,4 -4,-210 28,-210 28,4 -4,4"/>
<!-- n1p1 -->
<!-- n3 -->
<!-- f -->
<g id="n3" class="node"><title>n3</title>
<polygon fill="none" stroke="black" points="0,-120.5 0,-145.5 24,-145.5 24,-120.5 0,-120.5"/>
<text text-anchor="start" x="9" y="-129.3" font-family="Serif" font-size="14.00">f</text>
</g>
<!-- n1p1&#45;&gt;n3 -->
<!-- A -->
<g id="e1" class="edge"><title>n1p1:s&#45;&gt;n3:in1:n</title>
<path fill="none" stroke="black" d="M12,-182C12,-167.875 12,-163.102 12,-151.169"/>
<polygon fill="black" stroke="black" points="13.7501,-151 12,-146 10.2501,-151 13.7501,-151"/>
</g>
<!-- n2p1 -->
<!-- n4 -->
<!-- g -->
<g id="n4" class="node"><title>n4</title>
<polygon fill="none" stroke="black" points="0,-59.5 0,-84.5 24,-84.5 24,-59.5 0,-59.5"/>
<text text-anchor="start" x="7" y="-68.3" font-family="Serif" font-size="14.00">g</text>
</g>
<!-- n3&#45;&gt;n4 -->
<!-- B -->
<g id="e2" class="edge"><title>n3:out1:s&#45;&gt;n4:in1:n</title>
<path fill="none" stroke="black" d="M12,-121C12,-106.875 12,-102.102 12,-90.1692"/>
<polygon fill="black" stroke="black" points="13.7501,-90 12,-85 10.2501,-90 13.7501,-90"/>
</g>
<!-- n4&#45;&gt;n2p1 -->
<!-- A -->
<g id="e3" class="edge"><title>n4:out1:s&#45;&gt;n2p1:n</title>
<path fill="none" stroke="black" d="M12,-60C12,-45.875 12,-41.1023 12,-29.1692"/>
<polygon fill="black" stroke="black" points="13.7501,-29 12,-24 10.2501,-29 13.7501,-29"/>
</g>
</g>
</svg>
