<?xml version="1.0" encoding="UTF-8" standalone="no"?>
<?xml-stylesheet href="Xholon.css" type="text/css"?>
<!DOCTYPE svg PUBLIC "-//W3C//DTD SVG 1.1//EN"
 "http://www.w3.org/Graphics/SVG/1.1/DTD/svg11.dtd">
<!-- Generated by graphviz version 2.38.0 (20140413.2041)
 -->
<!-- Title: 45 Pages: 1 -->
<svg width="1022pt" height="862pt"
 viewBox="0.00 0.00 1021.50 862.00" xmlns="http://www.w3.org/2000/svg" xmlns:xlink="http://www.w3.org/1999/xlink">
<g id="PhysicalSystem" class="graph" transform="scale(1 1) rotate(0) translate(424 415)">
<title>45</title>
<polygon fill="white" stroke="none" points="-424,447 -424,-415 597.5,-415 597.5,447 -424,447"/>
<text text-anchor="middle" x="86.75" y="435.2" font-family="Courier New" font-size="14.00">PhysicalSystem</text>
<!-- 68 -->
<g id="PhysicalSystem/DfdProcesses/DfdProcess[@roleName=&#39;Manage Repository&#39;]/DfdProcess[@roleName=&#39;Virtualize a Source&#39;]/DfdProcess/DfdProcess[@roleName=&#39;Determine Source Specs&#39;]" class="node"><title>68</title>
<polygon fill="red" stroke="black" points="-132,294 -330,294 -330,330 -132,330 -132,294"/>
<text text-anchor="middle" x="-231" y="315.7" font-family="Courier New" font-size="14.00">Determine Source Specs</text>
</g>
<!-- 69 -->
<g id="PhysicalSystem/DfdProcesses/DfdProcess[@roleName=&#39;Manage Repository&#39;]/DfdProcess[@roleName=&#39;Virtualize a Source&#39;]/DfdProcess/DfdProcess[@roleName=&#39;ID Existing or Create New Adapter&#39;]" class="node"><title>69</title>
<polygon fill="red" stroke="black" points="78.5,174 -210.5,174 -210.5,210 78.5,210 78.5,174"/>
<text text-anchor="middle" x="-66" y="195.7" font-family="Courier New" font-size="14.00">ID Existing or Create New Adapter</text>
</g>
<!-- 70 -->
<g id="PhysicalSystem/DfdProcesses/DfdProcess[@roleName=&#39;Manage Repository&#39;]/DfdProcess[@roleName=&#39;Virtualize a Source&#39;]/DfdProcess/DfdProcess[@roleName=&#39;Register Adapter&#39;]" class="node"><title>70</title>
<polygon fill="red" stroke="black" points="-226.5,-351 -375.5,-351 -375.5,-315 -226.5,-315 -226.5,-351"/>
<text text-anchor="middle" x="-301" y="-329.3" font-family="Courier New" font-size="14.00">Register Adapter</text>
</g>
<!-- 71 -->
<g id="PhysicalSystem/DfdProcesses/DfdProcess[@roleName=&#39;Manage Repository&#39;]/DfdProcess[@roleName=&#39;Virtualize a Source&#39;]/DfdProcess/DfdProcess[@roleName=&#39;Register Source&#39;]" class="node"><title>71</title>
<polygon fill="red" stroke="black" points="-220,-231 -360,-231 -360,-195 -220,-195 -220,-231"/>
<text text-anchor="middle" x="-290" y="-209.3" font-family="Courier New" font-size="14.00">Register Source</text>
</g>
<!-- 74 -->
<g id="PhysicalSystem/DfdProcesses/DfdProcess[@roleName=&#39;Manage Repository&#39;]/DfdProcess[@roleName=&#39;Register a Source&#39;]/DfdProcess/DfdProcess[@roleName=&#39;Request Access&#39;]" class="node"><title>74</title>
<polygon fill="red" stroke="black" points="-78,354 -210,354 -210,390 -78,390 -78,354"/>
<text text-anchor="middle" x="-144" y="375.7" font-family="Courier New" font-size="14.00">Request Access</text>
</g>
<!-- 76 -->
<g id="PhysicalSystem/DfdProcesses/DfdProcess[@roleName=&#39;Manage Repository&#39;]/DfdProcess[@roleName=&#39;Register a Source&#39;]/DfdProcess/DfdProcess[@roleName=&#39;Profile Source&#39;]" class="node"><title>76</title>
<polygon fill="red" stroke="black" points="132,384 0,384 0,420 132,420 132,384"/>
<text text-anchor="middle" x="66" y="405.7" font-family="Courier New" font-size="14.00">Profile Source</text>
</g>
<!-- 91 -->
<g id="PhysicalSystem/DfdProcesses/DfdProcess[@roleName=&#39;Manage Repository&#39;]/DfdProcess[@roleName=&#39;Register a Source&#39;]/DfdProcess/DfdProcess[@roleName=&#39;Identify Candidate Source&#39;]/DfdProcess[@roleName=&#39;Interview SMEs&#39;]" class="node"><title>91</title>
<polygon fill="red" stroke="black" points="119.194,-122.914 -12.806,-122.914 -12.806,-86.9139 119.194,-86.9139 119.194,-122.914"/>
<text text-anchor="middle" x="53.194" y="-101.214" font-family="Courier New" font-size="14.00">Interview SMEs</text>
</g>
<!-- 116 -->
<g id="PhysicalSystem/DfdDataStores/DfdDataStore[@roleName=&#39;SME Input&#39;]" class="node"><title>116</title>
<polygon fill="blue" stroke="black" points="9.27377,-114.101 -81.7262,-114.101 -81.7262,-78.1011 9.27377,-78.1011 9.27377,-114.101"/>
<text text-anchor="middle" x="-36.2262" y="-92.4011" font-family="Courier New" font-size="14.00">SME Input</text>
</g>
<!-- 91&#45;&gt;116 -->
<g id="PhysicalSystem_edge11" class="edge"><title>91&#45;&gt;116</title>
<path fill="none" stroke="black" d="M-13.1983,-98.3706C-13.2497,-98.3656 -13.3011,-98.3605 -13.3525,-98.3554"/>
<polygon fill="black" stroke="black" points="-13.5064,-98.3403 -3.11056,-94.8486 -8.53045,-98.8336 -3.55454,-99.3269 -3.55454,-99.3269 -3.55454,-99.3269 -8.53045,-98.8336 -3.99853,-103.805 -13.5064,-98.3403 -13.5064,-98.3403"/>
</g>
<!-- 132 -->
<g id="PhysicalSystem/DfdExternalEntities/DfdExternalEntity[@roleName=&#39;Reporting Requirements&#39;]" class="node"><title>132</title>
<polygon fill="#f0f8ff" stroke="black" points="194.975,-45.7217 -3.0251,-45.7217 -3.0251,-9.72168 194.975,-9.72168 194.975,-45.7217"/>
<text text-anchor="middle" x="95.9749" y="-24.0217" font-family="Courier New" font-size="14.00">Reporting Requirements</text>
</g>
<!-- 91&#45;&gt;132 -->
<g id="PhysicalSystem_edge10" class="edge"><title>91&#45;&gt;132</title>
<path fill="none" stroke="black" d="M63.3325,-86.6204C68.607,-77.1032 75.1576,-65.2836 81.0033,-54.7359"/>
<polygon fill="black" stroke="black" points="85.9092,-45.8839 84.9976,-56.8118 83.4854,-50.2571 81.0617,-54.6304 81.0617,-54.6304 81.0617,-54.6304 83.4854,-50.2571 77.1257,-52.449 85.9092,-45.8839 85.9092,-45.8839"/>
</g>
<!-- 92 -->
<g id="PhysicalSystem/DfdProcesses/DfdProcess[@roleName=&#39;Manage Repository&#39;]/DfdProcess[@roleName=&#39;Register a Source&#39;]/DfdProcess/DfdProcess[@roleName=&#39;Identify Candidate Source&#39;]/DfdProcess[@roleName=&#39;Run Enterprise Search&#39;]" class="node"><title>92</title>
<polygon fill="red" stroke="black" points="267.201,-24.2158 77.2005,-24.2158 77.2005,11.7842 267.201,11.7842 267.201,-24.2158"/>
<text text-anchor="middle" x="172.201" y="-2.51584" font-family="Courier New" font-size="14.00">Run Enterprise Search</text>
</g>
<!-- 121 -->
<g id="PhysicalSystem/DfdDataStores/DfdDataStore[@roleName=&#39;Digital Exhaust&#39;]" class="node"><title>121</title>
<polygon fill="blue" stroke="black" points="195.367,41.949 55.367,41.949 55.367,77.949 195.367,77.949 195.367,41.949"/>
<text text-anchor="middle" x="125.367" y="63.649" font-family="Courier New" font-size="14.00">Digital Exhaust</text>
</g>
<!-- 92&#45;&gt;121 -->
<g id="PhysicalSystem_edge13" class="edge"><title>92&#45;&gt;121</title>
<path fill="none" stroke="black" d="M159.403,11.864C154.653,18.5742 149.164,26.3292 143.999,33.6259"/>
<polygon fill="black" stroke="black" points="138.149,41.891 147.599,36.3287 141.038,37.8099 143.927,33.7288 143.927,33.7288 143.927,33.7288 141.038,37.8099 140.254,31.129 138.149,41.891 138.149,41.891"/>
</g>
<!-- 92&#45;&gt;132 -->
<g id="PhysicalSystem_edge12" class="edge"><title>92&#45;&gt;132</title>
<path fill="none" stroke="black" d="M108.222,-24.2664C108.165,-24.2826 108.107,-24.2987 108.05,-24.3148"/>
<polygon fill="black" stroke="black" points="107.88,-24.3629 116.281,-17.3124 112.692,-23.0031 117.504,-21.6434 117.504,-21.6434 117.504,-21.6434 112.692,-23.0031 118.728,-25.9745 107.88,-24.3629 107.88,-24.3629"/>
</g>
<!-- 93 -->
<g id="PhysicalSystem/DfdProcesses/DfdProcess[@roleName=&#39;Manage Repository&#39;]/DfdProcess[@roleName=&#39;Register a Source&#39;]/DfdProcess/DfdProcess[@roleName=&#39;Identify Candidate Source&#39;]/DfdProcess[@roleName=&#39;Query Source Catalog&#39;]" class="node"><title>93</title>
<polygon fill="red" stroke="black" points="-148,99 -330,99 -330,135 -148,135 -148,99"/>
<text text-anchor="middle" x="-239" y="120.7" font-family="Courier New" font-size="14.00">Query Source Catalog</text>
</g>
<!-- 95 -->
<g id="PhysicalSystem/DfdProcesses/DfdProcess[@roleName=&#39;Manage Repository&#39;]/DfdProcess[@roleName=&#39;Register a Source&#39;]/DfdProcess/DfdProcess[@roleName=&#39;Create Std Src Ifc&#39;]/DfdProcess[@roleName=&#39;Determine Src Specs&#39;]" class="node"><title>95</title>
<polygon fill="red" stroke="black" points="23.5,-411 -149.5,-411 -149.5,-375 23.5,-375 23.5,-411"/>
<text text-anchor="middle" x="-63" y="-389.3" font-family="Courier New" font-size="14.00">Determine Src Specs</text>
</g>
<!-- 96 -->
<g id="PhysicalSystem/DfdProcesses/DfdProcess[@roleName=&#39;Manage Repository&#39;]/DfdProcess[@roleName=&#39;Register a Source&#39;]/DfdProcess/DfdProcess[@roleName=&#39;Create Std Src Ifc&#39;]/DfdProcess[@roleName=&#39;Id Existing or Create New Adapter&#39;]" class="node"><title>96</title>
<polygon fill="red" stroke="black" points="513.5,84 224.5,84 224.5,120 513.5,120 513.5,84"/>
<text text-anchor="middle" x="369" y="105.7" font-family="Courier New" font-size="14.00">Id Existing or Create New Adapter</text>
</g>
<!-- 97 -->
<g id="PhysicalSystem/DfdProcesses/DfdProcess[@roleName=&#39;Manage Repository&#39;]/DfdProcess[@roleName=&#39;Register a Source&#39;]/DfdProcess/DfdProcess[@roleName=&#39;Create Std Src Ifc&#39;]/DfdProcess[@roleName=&#39;Register Adapter&#39;]" class="node"><title>97</title>
<polygon fill="red" stroke="black" points="538.5,-291 389.5,-291 389.5,-255 538.5,-255 538.5,-291"/>
<text text-anchor="middle" x="464" y="-269.3" font-family="Courier New" font-size="14.00">Register Adapter</text>
</g>
<!-- 98 -->
<g id="PhysicalSystem/DfdProcesses/DfdProcess[@roleName=&#39;Manage Repository&#39;]/DfdProcess[@roleName=&#39;Register a Source&#39;]/DfdProcess/DfdProcess[@roleName=&#39;Create Std Src Ifc&#39;]/DfdProcess[@roleName=&#39;Register Source&#39;]" class="node"><title>98</title>
<polygon fill="red" stroke="black" points="352.271,-327.761 212.271,-327.761 212.271,-291.761 352.271,-291.761 352.271,-327.761"/>
<text text-anchor="middle" x="282.271" y="-306.061" font-family="Courier New" font-size="14.00">Register Source</text>
</g>
<!-- 113 -->
<g id="PhysicalSystem/DfdDataStores/DfdDataStore[@roleName=&#39;Service Account, Authentication and Authorization&#39;]" class="node"><title>113</title>
<polygon fill="blue" stroke="black" points="480.575,-399.629 59.5751,-399.629 59.5751,-363.629 480.575,-363.629 480.575,-399.629"/>
<text text-anchor="middle" x="270.075" y="-377.929" font-family="Courier New" font-size="14.00">Service Account, Authentication and Authorization</text>
</g>
<!-- 98&#45;&gt;113 -->
<g id="PhysicalSystem_edge14" class="edge"><title>98&#45;&gt;113</title>
<path fill="none" stroke="black" d="M279.193,-327.896C277.889,-335.583 276.338,-344.722 274.888,-353.264"/>
<polygon fill="black" stroke="black" points="273.194,-363.249 270.431,-352.637 274.031,-358.32 274.867,-353.39 274.867,-353.39 274.867,-353.39 274.031,-358.32 279.304,-354.143 273.194,-363.249 273.194,-363.249"/>
</g>
<!-- 119 -->
<g id="PhysicalSystem/DfdDataStores/DfdDataStore[@roleName=&#39;Source Interface&#39;]" class="node"><title>119</title>
<polygon fill="blue" stroke="black" points="363.254,-253.655 214.254,-253.655 214.254,-217.655 363.254,-217.655 363.254,-253.655"/>
<text text-anchor="middle" x="288.754" y="-231.955" font-family="Courier New" font-size="14.00">Source Interface</text>
</g>
<!-- 98&#45;&gt;119 -->
<g id="PhysicalSystem_edge15" class="edge"><title>98&#45;&gt;119</title>
<path fill="none" stroke="black" d="M283.873,-291.443C284.604,-283.097 285.484,-273.03 286.295,-263.758"/>
<polygon fill="black" stroke="black" points="287.17,-253.762 290.781,-264.116 286.734,-258.743 286.298,-263.724 286.298,-263.724 286.298,-263.724 286.734,-258.743 281.815,-263.332 287.17,-253.762 287.17,-253.762"/>
</g>
<!-- 78 -->
<g id="PhysicalSystem/DfdProcesses/DfdProcess[@roleName=&#39;Manage Repository&#39;]/DfdProcess[@roleName=&#39;Virtualize a Data Extract&#39;]/DfdProcess/DfdDataStore" class="node"><title>78</title>
<polygon fill="blue" stroke="black" points="422.601,-162.547 323.601,-162.547 323.601,-126.547 422.601,-126.547 422.601,-162.547"/>
<text text-anchor="middle" x="373.101" y="-140.847" font-family="Courier New" font-size="14.00">Connection</text>
</g>
<!-- 79 -->
<g id="PhysicalSystem/DfdProcesses/DfdProcess[@roleName=&#39;Manage Repository&#39;]/DfdProcess[@roleName=&#39;Virtualize a Data Extract&#39;]/DfdProcess/DfdProcess[@roleName=&#39;Connect&#39;]" class="node"><title>79</title>
<polygon fill="red" stroke="black" points="-31,294 -105,294 -105,330 -31,330 -31,294"/>
<text text-anchor="middle" x="-68" y="315.7" font-family="Courier New" font-size="14.00">Connect</text>
</g>
<!-- 80 -->
<g id="PhysicalSystem/DfdProcesses/DfdProcess[@roleName=&#39;Manage Repository&#39;]/DfdProcess[@roleName=&#39;Virtualize a Data Extract&#39;]/DfdProcess/DfdProcess[@roleName=&#39;Construct Query&#39;]" class="node"><title>80</title>
<polygon fill="red" stroke="black" points="362.303,-174.599 222.303,-174.599 222.303,-138.599 362.303,-138.599 362.303,-174.599"/>
<text text-anchor="middle" x="292.303" y="-152.899" font-family="Courier New" font-size="14.00">Construct Query</text>
</g>
<!-- 80&#45;&gt;78 -->
<g id="PhysicalSystem_edge1" class="edge"><title>80&#45;&gt;78</title>
<path fill="none" stroke="black" d="M362.538,-146.122C362.589,-146.115 362.638,-146.107 362.688,-146.1"/>
<polygon fill="black" stroke="black" points="362.837,-146.078 353.613,-152.009 357.892,-146.818 352.947,-147.559 352.947,-147.559 352.947,-147.559 357.892,-146.818 352.28,-143.108 362.837,-146.078 362.837,-146.078"/>
</g>
<!-- 80&#45;&gt;119 -->
<g id="PhysicalSystem_edge18" class="edge"><title>80&#45;&gt;119</title>
<path fill="none" stroke="black" d="M291.48,-174.935C291.05,-184.513 290.514,-196.449 290.031,-207.197"/>
<polygon fill="black" stroke="black" points="289.573,-217.418 285.526,-207.227 289.797,-212.423 290.021,-207.428 290.021,-207.428 290.021,-207.428 289.797,-212.423 294.517,-207.63 289.573,-217.418 289.573,-217.418"/>
</g>
<!-- 122 -->
<g id="PhysicalSystem/DfdDataStores/DfdDataStore[@roleName=&#39;Query Template&#39;]" class="node"><title>122</title>
<polygon fill="blue" stroke="black" points="279.335,-153.871 147.335,-153.871 147.335,-117.871 279.335,-117.871 279.335,-153.871"/>
<text text-anchor="middle" x="213.335" y="-132.171" font-family="Courier New" font-size="14.00">Query Template</text>
</g>
<!-- 80&#45;&gt;122 -->
<g id="PhysicalSystem_edge16" class="edge"><title>80&#45;&gt;122</title>
<path fill="none" stroke="black" d="M223.659,-138.581C223.61,-138.568 223.561,-138.555 223.512,-138.542"/>
<polygon fill="black" stroke="black" points="223.366,-138.504 234.184,-136.695 228.203,-139.776 233.039,-141.048 233.039,-141.048 233.039,-141.048 228.203,-139.776 231.894,-145.401 223.366,-138.504 223.366,-138.504"/>
</g>
<!-- 124 -->
<g id="PhysicalSystem/DfdDataStores/DfdDataStore[@roleName=&#39;Source Profile&#39;]" class="node"><title>124</title>
<polygon fill="blue" stroke="black" points="362.161,-95.939 230.161,-95.939 230.161,-59.939 362.161,-59.939 362.161,-95.939"/>
<text text-anchor="middle" x="296.161" y="-74.239" font-family="Courier New" font-size="14.00">Source Profile</text>
</g>
<!-- 80&#45;&gt;124 -->
<g id="PhysicalSystem_edge17" class="edge"><title>80&#45;&gt;124</title>
<path fill="none" stroke="black" d="M293.198,-138.355C293.665,-128.824 294.248,-116.948 294.772,-106.254"/>
<polygon fill="black" stroke="black" points="295.271,-96.084 299.276,-106.292 295.026,-101.078 294.781,-106.072 294.781,-106.072 294.781,-106.072 295.026,-101.078 290.286,-105.851 295.271,-96.084 295.271,-96.084"/>
</g>
<!-- 59 -->
<g id="PhysicalSystem/DfdProcesses/DfdProcess[@roleName=&#39;Manage Repository&#39;]/DfdProcess[@roleName=&#39;Cache Data in Repository&#39;]" class="node"><title>59</title>
<polygon fill="red" stroke="black" points="500.5,264 285.5,264 285.5,300 500.5,300 500.5,264"/>
<text text-anchor="middle" x="393" y="285.7" font-family="Courier New" font-size="14.00">Cache Data in Repository</text>
</g>
<!-- 63 -->
<g id="PhysicalSystem/DfdProcesses/DfdProcess[@roleName=&#39;Manage Repository&#39;]/DfdProcess[@roleName=&#39;Integrate Data&#39;]/DfdDataStore[@roleName=&#39;Relevant Standards&#39;]" class="node"><title>63</title>
<polygon fill="blue" stroke="black" points="42.507,63.8853 -122.493,63.8853 -122.493,99.8853 42.507,99.8853 42.507,63.8853"/>
<text text-anchor="middle" x="-39.993" y="85.5853" font-family="Courier New" font-size="14.00">Relevant Standards</text>
</g>
<!-- 64 -->
<g id="PhysicalSystem/DfdProcesses/DfdProcess[@roleName=&#39;Manage Repository&#39;]/DfdProcess[@roleName=&#39;Integrate Data&#39;]/DfdDataStore[@roleName=&#39;Relevant Documents&#39;]" class="node"><title>64</title>
<polygon fill="blue" stroke="black" points="83.6641,-40.6836 -81.3359,-40.6836 -81.3359,-4.68356 83.6641,-4.68356 83.6641,-40.6836"/>
<text text-anchor="middle" x="1.16412" y="-18.9836" font-family="Courier New" font-size="14.00">Relevant Documents</text>
</g>
<!-- 65 -->
<g id="PhysicalSystem/DfdProcesses/DfdProcess[@roleName=&#39;Manage Repository&#39;]/DfdProcess[@roleName=&#39;Integrate Data&#39;]/DfdDataStore[@roleName=&#39;Relevant Semistructured Data&#39;]" class="node"><title>65</title>
<polygon fill="blue" stroke="black" points="108.74,-0.300441 -139.26,-0.300441 -139.26,35.6996 108.74,35.6996 108.74,-0.300441"/>
<text text-anchor="middle" x="-15.2605" y="21.3996" font-family="Courier New" font-size="14.00">Relevant Semistructured Data</text>
</g>
<!-- 66 -->
<g id="PhysicalSystem/DfdProcesses/DfdProcess[@roleName=&#39;Manage Repository&#39;]/DfdProcess[@roleName=&#39;Integrate Data&#39;]/DfdDataStore[@roleName=&#39;Relevant Structured Data&#39;]" class="node"><title>66</title>
<polygon fill="blue" stroke="black" points="68.4438,35.7876 -146.556,35.7876 -146.556,71.7876 68.4438,71.7876 68.4438,35.7876"/>
<text text-anchor="middle" x="-39.0562" y="57.4876" font-family="Courier New" font-size="14.00">Relevant Structured Data</text>
</g>
<!-- 82 -->
<g id="PhysicalSystem/DfdProcesses/DfdProcess[@roleName=&#39;Manage Repository&#39;]/DfdProcess[@roleName=&#39;Integrate Data&#39;]/DfdProcess[@roleName=&#39;Extract Relevant Data&#39;]/DfdProcess[@roleName=&#39;Id and Extract Standards&#39;]" class="node"><title>82</title>
<polygon fill="red" stroke="black" points="515.5,24 300.5,24 300.5,60 515.5,60 515.5,24"/>
<text text-anchor="middle" x="408" y="45.7" font-family="Courier New" font-size="14.00">Id and Extract Standards</text>
</g>
<!-- 83 -->
<g id="PhysicalSystem/DfdProcesses/DfdProcess[@roleName=&#39;Manage Repository&#39;]/DfdProcess[@roleName=&#39;Integrate Data&#39;]/DfdProcess[@roleName=&#39;Extract Relevant Data&#39;]/DfdProcess[@roleName=&#39;Id and Extract Documents&#39;]" class="node"><title>83</title>
<polygon fill="red" stroke="black" points="515.5,-36 300.5,-36 300.5,-0 515.5,-0 515.5,-36"/>
<text text-anchor="middle" x="408" y="-14.3" font-family="Courier New" font-size="14.00">Id and Extract Documents</text>
</g>
<!-- 84 -->
<g id="PhysicalSystem/DfdProcesses/DfdProcess[@roleName=&#39;Manage Repository&#39;]/DfdProcess[@roleName=&#39;Integrate Data&#39;]/DfdProcess[@roleName=&#39;Extract Relevant Data&#39;]/DfdProcess[@roleName=&#39;Id and Extract Semistructured Data&#39;]" class="node"><title>84</title>
<polygon fill="red" stroke="black" points="402.5,204 105.5,204 105.5,240 402.5,240 402.5,204"/>
<text text-anchor="middle" x="254" y="225.7" font-family="Courier New" font-size="14.00">Id and Extract Semistructured Data</text>
</g>
<!-- 85 -->
<g id="PhysicalSystem/DfdProcesses/DfdProcess[@roleName=&#39;Manage Repository&#39;]/DfdProcess[@roleName=&#39;Integrate Data&#39;]/DfdProcess[@roleName=&#39;Extract Relevant Data&#39;]/DfdProcess[@roleName=&#39;Id and Extract Structured Data&#39;]" class="node"><title>85</title>
<polygon fill="red" stroke="black" points="174,-291 -90,-291 -90,-255 174,-255 174,-291"/>
<text text-anchor="middle" x="42" y="-269.3" font-family="Courier New" font-size="14.00">Id and Extract Structured Data</text>
</g>
<!-- 81 -->
<g id="PhysicalSystem_node26" class="node"><title>81</title>
<polygon fill="#f0f8ff" stroke="black" points="71.1765,31.2467 17.1765,31.2467 17.1765,67.2467 71.1765,67.2467 71.1765,31.2467"/>
<text text-anchor="middle" x="44.1765" y="52.9467" font-family="Courier New" font-size="14.00">81</text>
</g>
<!-- 81&#45;&gt;63 -->
<g id="PhysicalSystem_edge2" class="edge"><title>81&#45;&gt;63</title>
<path fill="none" stroke="black" d="M17.0814,59.7534C16.766,59.8757 16.4494,59.9985 16.1315,60.1217"/>
<polygon fill="black" stroke="black" points="6.65147,63.7978 17.602,64.378 11.3133,61.9901 15.975,60.1824 15.975,60.1824 15.975,60.1824 11.3133,61.9901 14.3481,55.9868 6.65147,63.7978 6.65147,63.7978"/>
</g>
<!-- 81&#45;&gt;64 -->
<g id="PhysicalSystem_edge3" class="edge"><title>81&#45;&gt;64</title>
<path fill="none" stroke="black" d="M33.3226,31.0956C28.4697,22.98 22.6486,13.2453 17.3008,4.30205"/>
<polygon fill="black" stroke="black" points="12.1641,-4.28814 13.4341,6.60397 14.7302,0.00316866 17.2963,4.29447 17.2963,4.29447 17.2963,4.29447 14.7302,0.00316866 21.1585,1.98498 12.1641,-4.28814 12.1641,-4.28814"/>
</g>
<!-- 81&#45;&gt;65 -->
<g id="PhysicalSystem_edge4" class="edge"><title>81&#45;&gt;65</title>
<path fill="none" stroke="black" d="M16.8934,34.7658C16.8324,34.7334 16.7713,34.701 16.7102,34.6685"/>
<polygon fill="black" stroke="black" points="16.527,34.5713 23.2497,43.2371 20.9438,36.9167 25.3605,39.2621 25.3605,39.2621 25.3605,39.2621 20.9438,36.9167 27.4714,35.287 16.527,34.5713 16.527,34.5713"/>
</g>
<!-- 81&#45;&gt;66 -->
<g id="PhysicalSystem_edge5" class="edge"><title>81&#45;&gt;66</title>
<path fill="none" stroke="black" d="M16.923,50.7335C16.8756,50.7361 16.8281,50.7387 16.7807,50.7413"/>
<polygon fill="black" stroke="black" points="16.6382,50.7491 26.8715,54.691 21.6308,50.4734 26.6233,50.1977 26.6233,50.1977 26.6233,50.1977 21.6308,50.4734 26.3752,45.7044 16.6382,50.7491 16.6382,50.7491"/>
</g>
<!-- 117 -->
<g id="PhysicalSystem/DfdDataStores/DfdDataStore[@roleName=&#39;Central Repository&#39;]" class="node"><title>117</title>
<polygon fill="blue" stroke="black" points="146.663,113.593 -18.3369,113.593 -18.3369,149.593 146.663,149.593 146.663,113.593"/>
<text text-anchor="middle" x="64.1631" y="135.293" font-family="Courier New" font-size="14.00">Central Repository</text>
</g>
<!-- 81&#45;&gt;117 -->
<g id="PhysicalSystem_edge21" class="edge"><title>81&#45;&gt;117</title>
<path fill="none" stroke="black" d="M48.6121,67.522C51.1739,78.0764 54.45,91.5743 57.3341,103.457"/>
<polygon fill="black" stroke="black" points="59.7398,113.369 61.7541,102.589 58.5604,108.51 57.3811,103.651 57.3811,103.651 57.3811,103.651 58.5604,108.51 53.008,104.712 59.7398,113.369 59.7398,113.369"/>
</g>
<!-- 81&#45;&gt;121 -->
<g id="PhysicalSystem_edge20" class="edge"><title>81&#45;&gt;121</title>
<path fill="none" stroke="black" d="M71.2117,52.8104C71.2579,52.8165 71.304,52.8226 71.3502,52.8286"/>
<polygon fill="black" stroke="black" points="71.4888,52.8469 62.1654,47.0724 66.5317,52.1904 61.5745,51.5338 61.5745,51.5338 61.5745,51.5338 66.5317,52.1904 60.9837,55.9953 71.4888,52.8469 71.4888,52.8469"/>
</g>
<!-- 81&#45;&gt;132 -->
<g id="PhysicalSystem_edge19" class="edge"><title>81&#45;&gt;132</title>
<path fill="none" stroke="black" d="M56.452,31.0062C62.9028,21.4208 70.93,9.49298 78.0618,-1.10418"/>
<polygon fill="black" stroke="black" points="83.7875,-9.61219 74.4709,-3.82841 80.9959,-5.46406 78.2042,-1.31594 78.2042,-1.31594 78.2042,-1.31594 80.9959,-5.46406 81.9375,1.19654 83.7875,-9.61219 83.7875,-9.61219"/>
</g>
<!-- 89 -->
<g id="PhysicalSystem/DfdProcesses/DfdProcess[@roleName=&#39;Manage Repository&#39;]/DfdProcess[@roleName=&#39;Integrate Data&#39;]/DfdProcess[@roleName=&#39;Manage DQ SnS&#39;]/DfdProcess[@roleName=&#39;Merge Overlap and Sources&#39;]" class="node"><title>89</title>
<polygon fill="red" stroke="black" points="27.5,-351 -195.5,-351 -195.5,-315 27.5,-315 27.5,-351"/>
<text text-anchor="middle" x="-84" y="-329.3" font-family="Courier New" font-size="14.00">Merge Overlap and Sources</text>
</g>
<!-- 100 -->
<g id="PhysicalSystem/DfdProcesses/DfdProcess[@roleName=&#39;Manage Repository&#39;]/DfdProcess[@roleName=&#39;Integrate Data&#39;]/DfdProcess[@roleName=&#39;Manage DQ SnS&#39;]/DfdProcess[@roleName=&#39;Resolve Entities&#39;]/DfdProcess[@roleName=&#39;Extract Subjects, Properties and Property Values&#39;]" class="node"><title>100</title>
<polygon fill="red" stroke="black" points="593.5,144 180.5,144 180.5,180 593.5,180 593.5,144"/>
<text text-anchor="middle" x="387" y="165.7" font-family="Courier New" font-size="14.00">Extract Subjects, Properties and Property Values</text>
</g>
<!-- 101 -->
<g id="PhysicalSystem/DfdProcesses/DfdProcess[@roleName=&#39;Manage Repository&#39;]/DfdProcess[@roleName=&#39;Integrate Data&#39;]/DfdProcess[@roleName=&#39;Manage DQ SnS&#39;]/DfdProcess[@roleName=&#39;Resolve Entities&#39;]/DfdProcess[@roleName=&#39;Identify Classes and Functional Dependencies&#39;]" class="node"><title>101</title>
<polygon fill="red" stroke="black" points="185,-231 -195,-231 -195,-195 185,-195 185,-231"/>
<text text-anchor="middle" x="-5" y="-209.3" font-family="Courier New" font-size="14.00">Identify Classes and Functional Dependencies</text>
</g>
<!-- 102 -->
<g id="PhysicalSystem/DfdProcesses/DfdProcess[@roleName=&#39;Manage Repository&#39;]/DfdProcess[@roleName=&#39;Integrate Data&#39;]/DfdProcess[@roleName=&#39;Manage DQ SnS&#39;]/DfdProcess[@roleName=&#39;Resolve Entities&#39;]/DfdProcess[@roleName=&#39;Standardize Entities&#39;]" class="node"><title>102</title>
<polygon fill="red" stroke="black" points="422,324 240,324 240,360 422,360 422,324"/>
<text text-anchor="middle" x="331" y="345.7" font-family="Courier New" font-size="14.00">Standardize Entities</text>
</g>
<!-- 104 -->
<g id="PhysicalSystem/DfdProcesses/DfdProcess[@roleName=&#39;Manage Repository&#39;]/DfdProcess[@roleName=&#39;Integrate Data&#39;]/DfdProcess[@roleName=&#39;Manage DQ SnS&#39;]/DfdProcess[@roleName=&#39;Standardize Instance Data&#39;]/DfdProcess[@roleName=&#39;Identify Overlap&#39;]" class="node"><title>104</title>
<polygon fill="red" stroke="black" points="-241.5,-111 -390.5,-111 -390.5,-75 -241.5,-75 -241.5,-111"/>
<text text-anchor="middle" x="-316" y="-89.3" font-family="Courier New" font-size="14.00">Identify Overlap</text>
</g>
<!-- 105 -->
<g id="PhysicalSystem/DfdProcesses/DfdProcess[@roleName=&#39;Manage Repository&#39;]/DfdProcess[@roleName=&#39;Integrate Data&#39;]/DfdProcess[@roleName=&#39;Manage DQ SnS&#39;]/DfdProcess[@roleName=&#39;Standardize Instance Data&#39;]/DfdProcess[@roleName=&#39;Pull Sources into Overlap&#39;]" class="node"><title>105</title>
<polygon fill="red" stroke="black" points="-107.5,-171 -330.5,-171 -330.5,-135 -107.5,-135 -107.5,-171"/>
<text text-anchor="middle" x="-219" y="-149.3" font-family="Courier New" font-size="14.00">Pull Sources into Overlap</text>
</g>
<!-- 106 -->
<g id="PhysicalSystem/DfdProcesses/DfdProcess[@roleName=&#39;Manage Repository&#39;]/DfdProcess[@roleName=&#39;Integrate Data&#39;]/DfdProcess[@roleName=&#39;Manage DQ SnS&#39;]/DfdProcess[@roleName=&#39;Standardize Instance Data&#39;]/DfdProcess[@roleName=&#39;Normalize Class Members&#39;]" class="node"><title>106</title>
<polygon fill="red" stroke="black" points="206,324 0,324 0,360 206,360 206,324"/>
<text text-anchor="middle" x="103" y="345.7" font-family="Courier New" font-size="14.00">Normalize Class Members</text>
</g>
<!-- 86 -->
<g id="PhysicalSystem_node34" class="node"><title>86</title>
<polygon fill="#f0f8ff" stroke="black" points="-49.7243,-28.75 -103.724,-28.75 -103.724,7.25004 -49.7243,7.25004 -49.7243,-28.75"/>
<text text-anchor="middle" x="-76.7243" y="-7.04996" font-family="Courier New" font-size="14.00">86</text>
</g>
<!-- 86&#45;&gt;63 -->
<g id="PhysicalSystem_edge6" class="edge"><title>86&#45;&gt;63</title>
<path fill="none" stroke="black" d="M-69.4674,7.55179C-64.185,20.8738 -56.9386,39.1489 -50.9529,54.2447"/>
<polygon fill="black" stroke="black" points="-47.2348,63.6216 -46.7377,52.667 -49.0778,58.9736 -50.9209,54.3257 -50.9209,54.3257 -50.9209,54.3257 -49.0778,58.9736 -55.104,55.9844 -47.2348,63.6216 -47.2348,63.6216"/>
</g>
<!-- 86&#45;&gt;64 -->
<g id="PhysicalSystem_edge7" class="edge"><title>86&#45;&gt;64</title>
<path fill="none" stroke="black" d="M-49.4827,-14.9238C-49.4389,-14.9305 -49.395,-14.9372 -49.3511,-14.9439"/>
<polygon fill="black" stroke="black" points="-49.2193,-14.9641 -59.7884,-17.8914 -54.1616,-14.2037 -59.104,-13.4433 -59.104,-13.4433 -59.104,-13.4433 -54.1616,-14.2037 -58.4196,-8.99516 -49.2193,-14.9641 -49.2193,-14.9641"/>
</g>
<!-- 86&#45;&gt;65 -->
<g id="PhysicalSystem_edge8" class="edge"><title>86&#45;&gt;65</title>
<path fill="none" stroke="black" d="M-49.5865,1.81123C-49.5222,1.841 -49.4578,1.87078 -49.3935,1.90057"/>
<polygon fill="black" stroke="black" points="-49.2003,1.98996 -56.3843,-6.29722 -53.738,-0.111653 -58.2758,-2.21327 -58.2758,-2.21327 -58.2758,-2.21327 -53.738,-0.111653 -60.1672,1.87068 -49.2003,1.98996 -49.2003,1.98996"/>
</g>
<!-- 86&#45;&gt;66 -->
<g id="PhysicalSystem_edge9" class="edge"><title>86&#45;&gt;66</title>
<path fill="none" stroke="black" d="M-66.0309,7.57129C-62.5821,13.4803 -58.6822,20.1619 -54.9416,26.5709"/>
<polygon fill="black" stroke="black" points="-49.646,35.6439 -50.8004,24.739 -52.1664,31.3256 -54.6868,27.0074 -54.6868,27.0074 -54.6868,27.0074 -52.1664,31.3256 -58.5733,29.2757 -49.646,35.6439 -49.646,35.6439"/>
</g>
<!-- 86&#45;&gt;116 -->
<g id="PhysicalSystem_edge23" class="edge"><title>86&#45;&gt;116</title>
<path fill="none" stroke="black" d="M-68.1357,-28.8507C-62.6054,-40.5061 -55.3147,-55.8715 -49.0984,-68.9725"/>
<polygon fill="black" stroke="black" points="-44.8025,-78.0264 -53.1549,-70.9209 -46.9459,-73.5091 -49.0893,-68.9918 -49.0893,-68.9918 -49.0893,-68.9918 -46.9459,-73.5091 -45.0237,-67.0628 -44.8025,-78.0264 -44.8025,-78.0264"/>
</g>
<!-- 126 -->
<g id="PhysicalSystem/DfdDataStores/DfdDataStore[@roleName=&#39;Integrated Structured Data&#39;]" class="node"><title>126</title>
<polygon fill="blue" stroke="black" points="-38.7127,1.53725 -269.713,1.53725 -269.713,37.5372 -38.7127,37.5372 -38.7127,1.53725"/>
<text text-anchor="middle" x="-154.213" y="23.2372" font-family="Courier New" font-size="14.00">Integrated Structured Data</text>
</g>
<!-- 86&#45;&gt;126 -->
<g id="PhysicalSystem_edge24" class="edge"><title>86&#45;&gt;126</title>
<path fill="none" stroke="black" d="M-103.826,-0.156964C-103.913,-0.122847 -104.001,-0.0886958 -104.088,-0.0545116"/>
<polygon fill="black" stroke="black" points="-108.074,1.50352 -97.1222,2.05419 -103.417,-0.31676 -98.7604,-2.13704 -98.7604,-2.13704 -98.7604,-2.13704 -103.417,-0.31676 -100.399,-6.32827 -108.074,1.50352 -108.074,1.50352"/>
</g>
<!-- 131 -->
<g id="PhysicalSystem/DfdExternalEntities/DfdExternalEntity[@roleName=&#39;Pattern Library&#39;]" class="node"><title>131</title>
<polygon fill="#f0f8ff" stroke="black" points="-68.7673,-79.3122 -208.767,-79.3122 -208.767,-43.3122 -68.7673,-43.3122 -68.7673,-79.3122"/>
<text text-anchor="middle" x="-138.767" y="-57.6122" font-family="Courier New" font-size="14.00">Pattern Library</text>
</g>
<!-- 86&#45;&gt;131 -->
<g id="PhysicalSystem_edge22" class="edge"><title>86&#45;&gt;131</title>
<path fill="none" stroke="black" d="M-99.1233,-29.0041C-102.236,-31.5411 -105.475,-34.1806 -108.7,-36.8089"/>
<polygon fill="black" stroke="black" points="-116.609,-43.2544 -111.7,-33.4486 -112.733,-40.0956 -108.857,-36.9369 -108.857,-36.9369 -108.857,-36.9369 -112.733,-40.0956 -106.015,-40.4253 -116.609,-43.2544 -116.609,-43.2544"/>
</g>
<!-- 108 -->
<g id="PhysicalSystem/DfdProcesses/DfdProcess[@roleName=&#39;COMMON DATA&#39;]/DfdProcess[@roleName=&#39;Expose Data&#39;]" class="node"><title>108</title>
<polygon fill="red" stroke="black" points="-298.5,9 -405.5,9 -405.5,45 -298.5,45 -298.5,9"/>
<text text-anchor="middle" x="-352" y="30.7" font-family="Courier New" font-size="14.00">Expose Data</text>
</g>
<!-- 109 -->
<g id="PhysicalSystem/DfdProcesses/DfdProcess[@roleName=&#39;COMMON DATA&#39;]/DfdProcess[@roleName=&#39;Bind Variables&#39;]" class="node"><title>109</title>
<polygon fill="red" stroke="black" points="297,384 165,384 165,420 297,420 297,384"/>
<text text-anchor="middle" x="231" y="405.7" font-family="Courier New" font-size="14.00">Bind Variables</text>
</g>
<!-- 110 -->
<g id="PhysicalSystem/DfdProcesses/DfdProcess[@roleName=&#39;COMMON DATA&#39;]/DfdProcess[@roleName=&#39;Implement Query&#39;]" class="node"><title>110</title>
<polygon fill="red" stroke="black" points="-235,159 -375,159 -375,195 -235,195 -235,159"/>
<text text-anchor="middle" x="-305" y="180.7" font-family="Courier New" font-size="14.00">Implement Query</text>
</g>
<!-- 111 -->
<g id="PhysicalSystem/DfdProcesses/DfdProcess[@roleName=&#39;COMMON DATA&#39;]/DfdProcess[@roleName=&#39;Execute Query&#39;]" class="node"><title>111</title>
<polygon fill="red" stroke="black" points="454,384 330,384 330,420 454,420 454,384"/>
<text text-anchor="middle" x="392" y="405.7" font-family="Courier New" font-size="14.00">Execute Query</text>
</g>
<!-- 114 -->
<g id="PhysicalSystem/DfdDataStores/DfdDataStore[@roleName=&#39;Data and Application Landscape&#39;]" class="node"><title>114</title>
<polygon fill="blue" stroke="black" points="-6,234 -270,234 -270,270 -6,270 -6,234"/>
<text text-anchor="middle" x="-138" y="255.7" font-family="Courier New" font-size="14.00">Data and Application Landscape</text>
</g>
<!-- 115 -->
<g id="PhysicalSystem/DfdDataStores/DfdDataStore[@roleName=&#39;Identified Source&#39;]" class="node"><title>115</title>
<polygon fill="blue" stroke="black" points="547.5,-231 390.5,-231 390.5,-195 547.5,-195 547.5,-231"/>
<text text-anchor="middle" x="469" y="-209.3" font-family="Courier New" font-size="14.00">Identified Source</text>
</g>
<!-- 118 -->
<g id="PhysicalSystem/DfdDataStores/DfdDataStore[@roleName=&#39;Registered Adapter&#39;]" class="node"><title>118</title>
<polygon fill="blue" stroke="black" points="-179.5,-411 -344.5,-411 -344.5,-375 -179.5,-375 -179.5,-411"/>
<text text-anchor="middle" x="-262" y="-389.3" font-family="Courier New" font-size="14.00">Registered Adapter</text>
</g>
<!-- 120 -->
<g id="PhysicalSystem/DfdDataStores/DfdDataStore[@roleName=&#39;Source Catalog Interface&#39;]" class="node"><title>120</title>
<polygon fill="blue" stroke="black" points="-114.5,-291 -329.5,-291 -329.5,-255 -114.5,-255 -114.5,-291"/>
<text text-anchor="middle" x="-222" y="-269.3" font-family="Courier New" font-size="14.00">Source Catalog Interface</text>
</g>
<!-- 123 -->
<g id="PhysicalSystem/DfdDataStores/DfdDataStore[@roleName=&#39;Data Extract&#39;]" class="node"><title>123</title>
<polygon fill="blue" stroke="black" points="-304,219 -420,219 -420,255 -304,255 -304,219"/>
<text text-anchor="middle" x="-362" y="240.7" font-family="Courier New" font-size="14.00">Data Extract</text>
</g>
<!-- 125 -->
<g id="PhysicalSystem/DfdDataStores/DfdDataStore[@roleName=&#39;Cached Source Data&#39;]" class="node"><title>125</title>
<polygon fill="blue" stroke="black" points="555.5,-96 390.5,-96 390.5,-60 555.5,-60 555.5,-96"/>
<text text-anchor="middle" x="473" y="-74.3" font-family="Courier New" font-size="14.00">Cached Source Data</text>
</g>
<!-- 127 -->
<g id="PhysicalSystem/DfdDataStores/DfdDataStore[@roleName=&#39;Data Source Specifications&#39;]" class="node"><title>127</title>
<polygon fill="blue" stroke="black" points="260.5,264 29.5,264 29.5,300 260.5,300 260.5,264"/>
<text text-anchor="middle" x="145" y="285.7" font-family="Courier New" font-size="14.00">Data Source Specifications</text>
</g>
<!-- 128 -->
<g id="PhysicalSystem/DfdDataStores/DfdDataStore[@roleName=&#39;Adapter&#39;]" class="node"><title>128</title>
<polygon fill="blue" stroke="black" points="509,204 435,204 435,240 509,240 509,204"/>
<text text-anchor="middle" x="472" y="225.7" font-family="Courier New" font-size="14.00">Adapter</text>
</g>
<!-- 129 -->
<g id="PhysicalSystem/DfdDataStores/DfdDataStore[@roleName=&#39;TODO more ...&#39;]" class="node"><title>129</title>
<polygon fill="blue" stroke="black" points="-296,-51 -420,-51 -420,-15 -296,-15 -296,-51"/>
<text text-anchor="middle" x="-358" y="-29.3" font-family="Courier New" font-size="14.00">TODO more ...</text>
</g>
<!-- 134 -->
<g id="PhysicalSystem/DfdDataFlows/Attribute_String" class="node"><title>134</title>
<polygon fill="#f0f8ff" stroke="black" points="-241.5,354 -390.5,354 -390.5,390 -241.5,390 -241.5,354"/>
<text text-anchor="middle" x="-316" y="375.7" font-family="Courier New" font-size="14.00">Attribute_String</text>
</g>
</g>
</svg>
