<?xml version="1.0" encoding="UTF-8" standalone="no"?>
<?xml-stylesheet href="Xholon.css" type="text/css"?>
<!DOCTYPE svg PUBLIC "-//W3C//DTD SVG 1.1//EN"
 "http://www.w3.org/Graphics/SVG/1.1/DTD/svg11.dtd">
<!-- Generated by graphviz version 2.38.0 (20140413.2041)
 -->
<!-- Title: 45 Pages: 1 -->
<svg width="1166pt" height="968pt"
 viewBox="0.00 0.00 1166.00 968.00" xmlns="http://www.w3.org/2000/svg" xmlns:xlink="http://www.w3.org/1999/xlink">
<g id="PhysicalSystem" class="graph" transform="scale(1 1) rotate(0) translate(4 941)">
<title>45</title>
<polygon fill="white" stroke="none" points="-4,27 -4,-941 1162,-941 1162,27 -4,27"/>
<text text-anchor="middle" x="579" y="15.2" font-family="Courier New" font-size="14.00">PhysicalSystem</text>
<!-- 68 -->
<g id="PhysicalSystem/DfdProcesses/DfdProcess[@roleName=&#39;Manage Repository&#39;]/DfdProcess[@roleName=&#39;Virtualize a Source&#39;]/DfdProcess/DfdProcess[@roleName=&#39;Determine Source Specs&#39;]" class="node"><title>68</title>
<polygon fill="red" stroke="black" points="657.238,-103.641 459.238,-103.641 459.238,-67.6409 657.238,-67.6409 657.238,-103.641"/>
<text text-anchor="middle" x="558.238" y="-81.9409" font-family="Courier New" font-size="14.00">Determine Source Specs</text>
</g>
<!-- 69 -->
<g id="PhysicalSystem/DfdProcesses/DfdProcess[@roleName=&#39;Manage Repository&#39;]/DfdProcess[@roleName=&#39;Virtualize a Source&#39;]/DfdProcess/DfdProcess[@roleName=&#39;ID Existing or Create New Adapter&#39;]" class="node"><title>69</title>
<polygon fill="red" stroke="black" points="747.738,-698.641 458.738,-698.641 458.738,-662.641 747.738,-662.641 747.738,-698.641"/>
<text text-anchor="middle" x="603.238" y="-676.941" font-family="Courier New" font-size="14.00">ID Existing or Create New Adapter</text>
</g>
<!-- 70 -->
<g id="PhysicalSystem/DfdProcesses/DfdProcess[@roleName=&#39;Manage Repository&#39;]/DfdProcess[@roleName=&#39;Virtualize a Source&#39;]/DfdProcess/DfdProcess[@roleName=&#39;Register Adapter&#39;]" class="node"><title>70</title>
<polygon fill="red" stroke="black" points="182.738,-494.641 33.7381,-494.641 33.7381,-458.641 182.738,-458.641 182.738,-494.641"/>
<text text-anchor="middle" x="108.238" y="-472.941" font-family="Courier New" font-size="14.00">Register Adapter</text>
</g>
<!-- 71 -->
<g id="PhysicalSystem/DfdProcesses/DfdProcess[@roleName=&#39;Manage Repository&#39;]/DfdProcess[@roleName=&#39;Virtualize a Source&#39;]/DfdProcess/DfdProcess[@roleName=&#39;Register Source&#39;]" class="node"><title>71</title>
<polygon fill="red" stroke="black" points="157.238,-936.641 17.2381,-936.641 17.2381,-900.641 157.238,-900.641 157.238,-936.641"/>
<text text-anchor="middle" x="87.2381" y="-914.941" font-family="Courier New" font-size="14.00">Register Source</text>
</g>
<!-- 74 -->
<g id="PhysicalSystem/DfdProcesses/DfdProcess[@roleName=&#39;Manage Repository&#39;]/DfdProcess[@roleName=&#39;Register a Source&#39;]/DfdProcess/DfdProcess[@roleName=&#39;Request Access&#39;]" class="node"><title>74</title>
<polygon fill="red" stroke="black" points="149.238,-426.641 17.2381,-426.641 17.2381,-390.641 149.238,-390.641 149.238,-426.641"/>
<text text-anchor="middle" x="83.2381" y="-404.941" font-family="Courier New" font-size="14.00">Request Access</text>
</g>
<!-- 76 -->
<g id="PhysicalSystem/DfdProcesses/DfdProcess[@roleName=&#39;Manage Repository&#39;]/DfdProcess[@roleName=&#39;Register a Source&#39;]/DfdProcess/DfdProcess[@roleName=&#39;Profile Source&#39;]" class="node"><title>76</title>
<polygon fill="red" stroke="black" points="591.238,-35.6409 459.238,-35.6409 459.238,0.359112 591.238,0.359112 591.238,-35.6409"/>
<text text-anchor="middle" x="525.238" y="-13.9409" font-family="Courier New" font-size="14.00">Profile Source</text>
</g>
<!-- 91 -->
<g id="PhysicalSystem/DfdProcesses/DfdProcess[@roleName=&#39;Manage Repository&#39;]/DfdProcess[@roleName=&#39;Register a Source&#39;]/DfdProcess/DfdProcess[@roleName=&#39;Identify Candidate Source&#39;]/DfdProcess[@roleName=&#39;Interview SMEs&#39;]" class="node"><title>91</title>
<polygon fill="red" stroke="black" points="608.384,-632.368 476.384,-632.368 476.384,-596.368 608.384,-596.368 608.384,-632.368"/>
<text text-anchor="middle" x="542.384" y="-610.668" font-family="Courier New" font-size="14.00">Interview SMEs</text>
</g>
<!-- 116 -->
<g id="PhysicalSystem/DfdDataStores/DfdDataStore[@roleName=&#39;SME Input&#39;]" class="node"><title>116</title>
<polygon fill="blue" stroke="black" points="431.128,-671.819 340.128,-671.819 340.128,-635.819 431.128,-635.819 431.128,-671.819"/>
<text text-anchor="middle" x="385.628" y="-650.119" font-family="Courier New" font-size="14.00">SME Input</text>
</g>
<!-- 91&#45;&gt;116 -->
<g id="PhysicalSystem_edge11" class="edge"><title>91&#45;&gt;116</title>
<path fill="none" stroke="black" d="M476.36,-630.985C464.581,-633.949 452.421,-637.009 440.98,-639.889"/>
<polygon fill="black" stroke="black" points="431.138,-642.366 439.737,-635.561 435.987,-641.146 440.835,-639.925 440.835,-639.925 440.835,-639.925 435.987,-641.146 441.934,-644.289 431.138,-642.366 431.138,-642.366"/>
</g>
<!-- 132 -->
<g id="PhysicalSystem/DfdExternalEntities/DfdExternalEntity[@roleName=&#39;Reporting Requirements&#39;]" class="node"><title>132</title>
<polygon fill="#f0f8ff" stroke="black" points="657.88,-585.848 459.88,-585.848 459.88,-549.848 657.88,-549.848 657.88,-585.848"/>
<text text-anchor="middle" x="558.88" y="-564.148" font-family="Courier New" font-size="14.00">Reporting Requirements</text>
</g>
<!-- 91&#45;&gt;132 -->
<g id="PhysicalSystem_edge10" class="edge"><title>91&#45;&gt;132</title>
<path fill="none" stroke="black" d="M548.809,-596.249C548.884,-596.039 548.958,-595.828 549.033,-595.616"/>
<polygon fill="black" stroke="black" points="552.445,-585.994 553.344,-596.923 550.774,-590.707 549.103,-595.419 549.103,-595.419 549.103,-595.419 550.774,-590.707 544.862,-593.915 552.445,-585.994 552.445,-585.994"/>
</g>
<!-- 92 -->
<g id="PhysicalSystem/DfdProcesses/DfdProcess[@roleName=&#39;Manage Repository&#39;]/DfdProcess[@roleName=&#39;Register a Source&#39;]/DfdProcess/DfdProcess[@roleName=&#39;Identify Candidate Source&#39;]/DfdProcess[@roleName=&#39;Run Enterprise Search&#39;]" class="node"><title>92</title>
<polygon fill="red" stroke="black" points="902.212,-535.172 712.212,-535.172 712.212,-499.172 902.212,-499.172 902.212,-535.172"/>
<text text-anchor="middle" x="807.212" y="-513.472" font-family="Courier New" font-size="14.00">Run Enterprise Search</text>
</g>
<!-- 121 -->
<g id="PhysicalSystem/DfdDataStores/DfdDataStore[@roleName=&#39;Digital Exhaust&#39;]" class="node"><title>121</title>
<polygon fill="blue" stroke="black" points="688.606,-427.905 548.606,-427.905 548.606,-391.905 688.606,-391.905 688.606,-427.905"/>
<text text-anchor="middle" x="618.606" y="-406.205" font-family="Courier New" font-size="14.00">Digital Exhaust</text>
</g>
<!-- 92&#45;&gt;121 -->
<g id="PhysicalSystem_edge13" class="edge"><title>92&#45;&gt;121</title>
<path fill="none" stroke="black" d="M775.217,-498.975C743.284,-480.814 694.096,-452.839 659.38,-433.095"/>
<polygon fill="black" stroke="black" points="650.442,-428.012 661.359,-429.044 654.788,-430.483 659.135,-432.955 659.135,-432.955 659.135,-432.955 654.788,-430.483 656.91,-436.867 650.442,-428.012 650.442,-428.012"/>
</g>
<!-- 92&#45;&gt;132 -->
<g id="PhysicalSystem_edge12" class="edge"><title>92&#45;&gt;132</title>
<path fill="none" stroke="black" d="M718.96,-535.181C698.953,-539.264 677.584,-543.625 657.189,-547.786"/>
<polygon fill="black" stroke="black" points="647.266,-549.812 656.164,-543.403 652.165,-548.812 657.064,-547.812 657.064,-547.812 657.064,-547.812 652.165,-548.812 657.964,-552.221 647.266,-549.812 647.266,-549.812"/>
</g>
<!-- 93 -->
<g id="PhysicalSystem/DfdProcesses/DfdProcess[@roleName=&#39;Manage Repository&#39;]/DfdProcess[@roleName=&#39;Register a Source&#39;]/DfdProcess/DfdProcess[@roleName=&#39;Identify Candidate Source&#39;]/DfdProcess[@roleName=&#39;Query Source Catalog&#39;]" class="node"><title>93</title>
<polygon fill="red" stroke="black" points="233.238,-562.641 51.2381,-562.641 51.2381,-526.641 233.238,-526.641 233.238,-562.641"/>
<text text-anchor="middle" x="142.238" y="-540.941" font-family="Courier New" font-size="14.00">Query Source Catalog</text>
</g>
<!-- 95 -->
<g id="PhysicalSystem/DfdProcesses/DfdProcess[@roleName=&#39;Manage Repository&#39;]/DfdProcess[@roleName=&#39;Register a Source&#39;]/DfdProcess/DfdProcess[@roleName=&#39;Create Std Src Ifc&#39;]/DfdProcess[@roleName=&#39;Determine Src Specs&#39;]" class="node"><title>95</title>
<polygon fill="red" stroke="black" points="359.738,-919.641 186.738,-919.641 186.738,-883.641 359.738,-883.641 359.738,-919.641"/>
<text text-anchor="middle" x="273.238" y="-897.941" font-family="Courier New" font-size="14.00">Determine Src Specs</text>
</g>
<!-- 96 -->
<g id="PhysicalSystem/DfdProcesses/DfdProcess[@roleName=&#39;Manage Repository&#39;]/DfdProcess[@roleName=&#39;Register a Source&#39;]/DfdProcess/DfdProcess[@roleName=&#39;Create Std Src Ifc&#39;]/DfdProcess[@roleName=&#39;Id Existing or Create New Adapter&#39;]" class="node"><title>96</title>
<polygon fill="red" stroke="black" points="1002.74,-375.641 713.738,-375.641 713.738,-339.641 1002.74,-339.641 1002.74,-375.641"/>
<text text-anchor="middle" x="858.238" y="-353.941" font-family="Courier New" font-size="14.00">Id Existing or Create New Adapter</text>
</g>
<!-- 97 -->
<g id="PhysicalSystem/DfdProcesses/DfdProcess[@roleName=&#39;Manage Repository&#39;]/DfdProcess[@roleName=&#39;Register a Source&#39;]/DfdProcess/DfdProcess[@roleName=&#39;Create Std Src Ifc&#39;]/DfdProcess[@roleName=&#39;Register Adapter&#39;]" class="node"><title>97</title>
<polygon fill="red" stroke="black" points="182.738,-69.6409 33.7381,-69.6409 33.7381,-33.6409 182.738,-33.6409 182.738,-69.6409"/>
<text text-anchor="middle" x="108.238" y="-47.9409" font-family="Courier New" font-size="14.00">Register Adapter</text>
</g>
<!-- 98 -->
<g id="PhysicalSystem/DfdProcesses/DfdProcess[@roleName=&#39;Manage Repository&#39;]/DfdProcess[@roleName=&#39;Register a Source&#39;]/DfdProcess/DfdProcess[@roleName=&#39;Create Std Src Ifc&#39;]/DfdProcess[@roleName=&#39;Register Source&#39;]" class="node"><title>98</title>
<polygon fill="red" stroke="black" points="742.32,-754.393 602.32,-754.393 602.32,-718.393 742.32,-718.393 742.32,-754.393"/>
<text text-anchor="middle" x="672.32" y="-732.693" font-family="Courier New" font-size="14.00">Register Source</text>
</g>
<!-- 113 -->
<g id="PhysicalSystem/DfdDataStores/DfdDataStore[@roleName=&#39;Service Account, Authentication and Authorization&#39;]" class="node"><title>113</title>
<polygon fill="blue" stroke="black" points="879.785,-807.379 458.785,-807.379 458.785,-771.379 879.785,-771.379 879.785,-807.379"/>
<text text-anchor="middle" x="669.285" y="-785.679" font-family="Courier New" font-size="14.00">Service Account, Authentication and Authorization</text>
</g>
<!-- 98&#45;&gt;113 -->
<g id="PhysicalSystem_edge14" class="edge"><title>98&#45;&gt;113</title>
<path fill="none" stroke="black" d="M671.275,-754.628C671.155,-756.733 671.03,-758.915 670.904,-761.113"/>
<polygon fill="black" stroke="black" points="670.321,-771.29 666.4,-761.049 670.607,-766.299 670.893,-761.307 670.893,-761.307 670.893,-761.307 670.607,-766.299 675.385,-761.564 670.321,-771.29 670.321,-771.29"/>
</g>
<!-- 119 -->
<g id="PhysicalSystem/DfdDataStores/DfdDataStore[@roleName=&#39;Source Interface&#39;]" class="node"><title>119</title>
<polygon fill="blue" stroke="black" points="937.412,-691.07 788.412,-691.07 788.412,-655.07 937.412,-655.07 937.412,-691.07"/>
<text text-anchor="middle" x="862.912" y="-669.37" font-family="Courier New" font-size="14.00">Source Interface</text>
</g>
<!-- 98&#45;&gt;119 -->
<g id="PhysicalSystem_edge15" class="edge"><title>98&#45;&gt;119</title>
<path fill="none" stroke="black" d="M726.681,-718.332C749.213,-710.846 775.514,-702.108 798.965,-694.316"/>
<polygon fill="black" stroke="black" points="808.478,-691.155 800.407,-698.579 803.733,-692.732 798.989,-694.308 798.989,-694.308 798.989,-694.308 803.733,-692.732 797.57,-690.038 808.478,-691.155 808.478,-691.155"/>
</g>
<!-- 78 -->
<g id="PhysicalSystem/DfdProcesses/DfdProcess[@roleName=&#39;Manage Repository&#39;]/DfdProcess[@roleName=&#39;Virtualize a Data Extract&#39;]/DfdProcess/DfdDataStore" class="node"><title>78</title>
<polygon fill="blue" stroke="black" points="1066.3,-495.13 967.299,-495.13 967.299,-459.13 1066.3,-459.13 1066.3,-495.13"/>
<text text-anchor="middle" x="1016.8" y="-473.43" font-family="Courier New" font-size="14.00">Connection</text>
</g>
<!-- 79 -->
<g id="PhysicalSystem/DfdProcesses/DfdProcess[@roleName=&#39;Manage Repository&#39;]/DfdProcess[@roleName=&#39;Virtualize a Data Extract&#39;]/DfdProcess/DfdProcess[@roleName=&#39;Connect&#39;]" class="node"><title>79</title>
<polygon fill="red" stroke="black" points="482.238,-528.641 408.238,-528.641 408.238,-492.641 482.238,-492.641 482.238,-528.641"/>
<text text-anchor="middle" x="445.238" y="-506.941" font-family="Courier New" font-size="14.00">Connect</text>
</g>
<!-- 80 -->
<g id="PhysicalSystem/DfdProcesses/DfdProcess[@roleName=&#39;Manage Repository&#39;]/DfdProcess[@roleName=&#39;Virtualize a Data Extract&#39;]/DfdProcess/DfdProcess[@roleName=&#39;Construct Query&#39;]" class="node"><title>80</title>
<polygon fill="red" stroke="black" points="975.404,-643.267 835.404,-643.267 835.404,-607.267 975.404,-607.267 975.404,-643.267"/>
<text text-anchor="middle" x="905.404" y="-621.567" font-family="Courier New" font-size="14.00">Construct Query</text>
</g>
<!-- 80&#45;&gt;78 -->
<g id="PhysicalSystem_edge1" class="edge"><title>80&#45;&gt;78</title>
<path fill="none" stroke="black" d="M919.063,-607.102C938.522,-581.225 974.348,-533.583 996.799,-503.727"/>
<polygon fill="black" stroke="black" points="1003.03,-495.443 1000.61,-506.14 1000.02,-499.439 997.018,-503.435 997.018,-503.435 997.018,-503.435 1000.02,-499.439 993.421,-500.731 1003.03,-495.443 1003.03,-495.443"/>
</g>
<!-- 80&#45;&gt;119 -->
<g id="PhysicalSystem_edge18" class="edge"><title>80&#45;&gt;119</title>
<path fill="none" stroke="black" d="M889.339,-643.339C888.176,-644.648 886.991,-645.982 885.798,-647.323"/>
<polygon fill="black" stroke="black" points="878.999,-654.972 882.279,-644.509 882.321,-651.235 885.643,-647.498 885.643,-647.498 885.643,-647.498 882.321,-651.235 889.006,-650.488 878.999,-654.972 878.999,-654.972"/>
</g>
<!-- 122 -->
<g id="PhysicalSystem/DfdDataStores/DfdDataStore[@roleName=&#39;Query Template&#39;]" class="node"><title>122</title>
<polygon fill="blue" stroke="black" points="1158.36,-724.051 1026.36,-724.051 1026.36,-688.051 1158.36,-688.051 1158.36,-724.051"/>
<text text-anchor="middle" x="1092.36" y="-702.351" font-family="Courier New" font-size="14.00">Query Template</text>
</g>
<!-- 80&#45;&gt;122 -->
<g id="PhysicalSystem_edge16" class="edge"><title>80&#45;&gt;122</title>
<path fill="none" stroke="black" d="M947.361,-643.396C975.144,-655.401 1011.76,-671.222 1041.24,-683.962"/>
<polygon fill="black" stroke="black" points="1050.54,-687.982 1039.58,-688.146 1045.95,-685.998 1041.36,-684.015 1041.36,-684.015 1041.36,-684.015 1045.95,-685.998 1043.15,-679.884 1050.54,-687.982 1050.54,-687.982"/>
</g>
<!-- 124 -->
<g id="PhysicalSystem/DfdDataStores/DfdDataStore[@roleName=&#39;Source Profile&#39;]" class="node"><title>124</title>
<polygon fill="blue" stroke="black" points="929.955,-598.745 797.955,-598.745 797.955,-562.745 929.955,-562.745 929.955,-598.745"/>
<text text-anchor="middle" x="863.955" y="-577.045" font-family="Courier New" font-size="14.00">Source Profile</text>
</g>
<!-- 80&#45;&gt;124 -->
<g id="PhysicalSystem_edge17" class="edge"><title>80&#45;&gt;124</title>
<path fill="none" stroke="black" d="M888.545,-607.158C888.31,-606.905 888.074,-606.652 887.837,-606.398"/>
<polygon fill="black" stroke="black" points="880.933,-598.982 891.041,-603.235 884.34,-602.642 887.747,-606.302 887.747,-606.302 887.747,-606.302 884.34,-602.642 884.454,-609.368 880.933,-598.982 880.933,-598.982"/>
</g>
<!-- 59 -->
<g id="PhysicalSystem/DfdProcesses/DfdProcess[@roleName=&#39;Manage Repository&#39;]/DfdProcess[@roleName=&#39;Cache Data in Repository&#39;]" class="node"><title>59</title>
<polygon fill="red" stroke="black" points="350.738,-273.641 135.738,-273.641 135.738,-237.641 350.738,-237.641 350.738,-273.641"/>
<text text-anchor="middle" x="243.238" y="-251.941" font-family="Courier New" font-size="14.00">Cache Data in Repository</text>
</g>
<!-- 63 -->
<g id="PhysicalSystem/DfdProcesses/DfdProcess[@roleName=&#39;Manage Repository&#39;]/DfdProcess[@roleName=&#39;Integrate Data&#39;]/DfdDataStore[@roleName=&#39;Relevant Standards&#39;]" class="node"><title>63</title>
<polygon fill="blue" stroke="black" points="366.342,-502.008 201.342,-502.008 201.342,-466.008 366.342,-466.008 366.342,-502.008"/>
<text text-anchor="middle" x="283.842" y="-480.308" font-family="Courier New" font-size="14.00">Relevant Standards</text>
</g>
<!-- 64 -->
<g id="PhysicalSystem/DfdProcesses/DfdProcess[@roleName=&#39;Manage Repository&#39;]/DfdProcess[@roleName=&#39;Integrate Data&#39;]/DfdDataStore[@roleName=&#39;Relevant Documents&#39;]" class="node"><title>64</title>
<polygon fill="blue" stroke="black" points="338.652,-405.006 173.652,-405.006 173.652,-369.006 338.652,-369.006 338.652,-405.006"/>
<text text-anchor="middle" x="256.152" y="-383.306" font-family="Courier New" font-size="14.00">Relevant Documents</text>
</g>
<!-- 65 -->
<g id="PhysicalSystem/DfdProcesses/DfdProcess[@roleName=&#39;Manage Repository&#39;]/DfdProcess[@roleName=&#39;Integrate Data&#39;]/DfdDataStore[@roleName=&#39;Relevant Semistructured Data&#39;]" class="node"><title>65</title>
<polygon fill="blue" stroke="black" points="639.913,-379.417 391.913,-379.417 391.913,-343.417 639.913,-343.417 639.913,-379.417"/>
<text text-anchor="middle" x="515.913" y="-357.717" font-family="Courier New" font-size="14.00">Relevant Semistructured Data</text>
</g>
<!-- 66 -->
<g id="PhysicalSystem/DfdProcesses/DfdProcess[@roleName=&#39;Manage Repository&#39;]/DfdProcess[@roleName=&#39;Integrate Data&#39;]/DfdDataStore[@roleName=&#39;Relevant Structured Data&#39;]" class="node"><title>66</title>
<polygon fill="blue" stroke="black" points="368.361,-340.464 153.361,-340.464 153.361,-304.464 368.361,-304.464 368.361,-340.464"/>
<text text-anchor="middle" x="260.861" y="-318.764" font-family="Courier New" font-size="14.00">Relevant Structured Data</text>
</g>
<!-- 82 -->
<g id="PhysicalSystem/DfdProcesses/DfdProcess[@roleName=&#39;Manage Repository&#39;]/DfdProcess[@roleName=&#39;Integrate Data&#39;]/DfdProcess[@roleName=&#39;Extract Relevant Data&#39;]/DfdProcess[@roleName=&#39;Id and Extract Standards&#39;]" class="node"><title>82</title>
<polygon fill="red" stroke="black" points="350.738,-205.641 135.738,-205.641 135.738,-169.641 350.738,-169.641 350.738,-205.641"/>
<text text-anchor="middle" x="243.238" y="-183.941" font-family="Courier New" font-size="14.00">Id and Extract Standards</text>
</g>
<!-- 83 -->
<g id="PhysicalSystem/DfdProcesses/DfdProcess[@roleName=&#39;Manage Repository&#39;]/DfdProcess[@roleName=&#39;Integrate Data&#39;]/DfdProcess[@roleName=&#39;Extract Relevant Data&#39;]/DfdProcess[@roleName=&#39;Id and Extract Documents&#39;]" class="node"><title>83</title>
<polygon fill="red" stroke="black" points="435.738,-851.641 220.738,-851.641 220.738,-815.641 435.738,-815.641 435.738,-851.641"/>
<text text-anchor="middle" x="328.238" y="-829.941" font-family="Courier New" font-size="14.00">Id and Extract Documents</text>
</g>
<!-- 84 -->
<g id="PhysicalSystem/DfdProcesses/DfdProcess[@roleName=&#39;Manage Repository&#39;]/DfdProcess[@roleName=&#39;Integrate Data&#39;]/DfdProcess[@roleName=&#39;Extract Relevant Data&#39;]/DfdProcess[@roleName=&#39;Id and Extract Semistructured Data&#39;]" class="node"><title>84</title>
<polygon fill="red" stroke="black" points="755.738,-171.641 458.738,-171.641 458.738,-135.641 755.738,-135.641 755.738,-171.641"/>
<text text-anchor="middle" x="607.238" y="-149.941" font-family="Courier New" font-size="14.00">Id and Extract Semistructured Data</text>
</g>
<!-- 85 -->
<g id="PhysicalSystem/DfdProcesses/DfdProcess[@roleName=&#39;Manage Repository&#39;]/DfdProcess[@roleName=&#39;Integrate Data&#39;]/DfdProcess[@roleName=&#39;Extract Relevant Data&#39;]/DfdProcess[@roleName=&#39;Id and Extract Structured Data&#39;]" class="node"><title>85</title>
<polygon fill="red" stroke="black" points="434.238,-783.641 170.238,-783.641 170.238,-747.641 434.238,-747.641 434.238,-783.641"/>
<text text-anchor="middle" x="302.238" y="-761.941" font-family="Courier New" font-size="14.00">Id and Extract Structured Data</text>
</g>
<!-- 81 -->
<g id="PhysicalSystem_node26" class="node"><title>81</title>
<polygon fill="#f0f8ff" stroke="black" points="460.612,-425.433 406.612,-425.433 406.612,-389.433 460.612,-389.433 460.612,-425.433"/>
<text text-anchor="middle" x="433.612" y="-403.733" font-family="Courier New" font-size="14.00">81</text>
</g>
<!-- 81&#45;&gt;63 -->
<g id="PhysicalSystem_edge2" class="edge"><title>81&#45;&gt;63</title>
<path fill="none" stroke="black" d="M406.49,-421.3C384.718,-432.432 353.701,-448.29 328.307,-461.274"/>
<polygon fill="black" stroke="black" points="319.233,-465.913 326.088,-457.354 323.685,-463.637 328.137,-461.361 328.137,-461.361 328.137,-461.361 323.685,-463.637 330.185,-465.367 319.233,-465.913 319.233,-465.913"/>
</g>
<!-- 81&#45;&gt;64 -->
<g id="PhysicalSystem_edge3" class="edge"><title>81&#45;&gt;64</title>
<path fill="none" stroke="black" d="M406.273,-404.286C390.577,-402.479 369.855,-400.094 348.837,-397.675"/>
<polygon fill="black" stroke="black" points="338.847,-396.525 349.296,-393.198 343.814,-397.097 348.782,-397.668 348.782,-397.668 348.782,-397.668 343.814,-397.097 348.267,-402.139 338.847,-396.525 338.847,-396.525"/>
</g>
<!-- 81&#45;&gt;65 -->
<g id="PhysicalSystem_edge4" class="edge"><title>81&#45;&gt;65</title>
<path fill="none" stroke="black" d="M461.017,-392.11C465.405,-389.657 470.029,-387.072 474.655,-384.485"/>
<polygon fill="black" stroke="black" points="483.491,-379.545 476.958,-388.353 479.126,-381.985 474.762,-384.425 474.762,-384.425 474.762,-384.425 479.126,-381.985 472.566,-380.497 483.491,-379.545 483.491,-379.545"/>
</g>
<!-- 81&#45;&gt;66 -->
<g id="PhysicalSystem_edge5" class="edge"><title>81&#45;&gt;66</title>
<path fill="none" stroke="black" d="M406.239,-393.969C379.569,-380.851 338.523,-360.662 306.838,-345.078"/>
<polygon fill="black" stroke="black" points="297.752,-340.609 308.711,-340.984 302.239,-342.815 306.725,-345.022 306.725,-345.022 306.725,-345.022 302.239,-342.815 304.739,-349.06 297.752,-340.609 297.752,-340.609"/>
</g>
<!-- 117 -->
<g id="PhysicalSystem/DfdDataStores/DfdDataStore[@roleName=&#39;Central Repository&#39;]" class="node"><title>117</title>
<polygon fill="blue" stroke="black" points="538.449,-240.009 373.449,-240.009 373.449,-204.009 538.449,-204.009 538.449,-240.009"/>
<text text-anchor="middle" x="455.949" y="-218.309" font-family="Courier New" font-size="14.00">Central Repository</text>
</g>
<!-- 81&#45;&gt;117 -->
<g id="PhysicalSystem_edge21" class="edge"><title>81&#45;&gt;117</title>
<path fill="none" stroke="black" d="M435.794,-389.316C439.698,-356.914 447.9,-288.825 452.547,-250.244"/>
<polygon fill="black" stroke="black" points="453.757,-240.199 457.029,-250.665 453.159,-245.163 452.561,-250.127 452.561,-250.127 452.561,-250.127 453.159,-245.163 448.094,-249.589 453.757,-240.199 453.757,-240.199"/>
</g>
<!-- 81&#45;&gt;121 -->
<g id="PhysicalSystem_edge20" class="edge"><title>81&#45;&gt;121</title>
<path fill="none" stroke="black" d="M460.909,-407.798C481.407,-408.072 510.598,-408.462 538.303,-408.832"/>
<polygon fill="black" stroke="black" points="548.424,-408.967 538.365,-413.333 543.425,-408.901 538.425,-408.834 538.425,-408.834 538.425,-408.834 543.425,-408.901 538.486,-404.334 548.424,-408.967 548.424,-408.967"/>
</g>
<!-- 81&#45;&gt;132 -->
<g id="PhysicalSystem_edge19" class="edge"><title>81&#45;&gt;132</title>
<path fill="none" stroke="black" d="M447.738,-425.523C469.824,-453.804 512.641,-508.636 538.201,-541.368"/>
<polygon fill="black" stroke="black" points="544.613,-549.578 534.912,-544.466 541.536,-545.638 538.459,-541.697 538.459,-541.697 538.459,-541.697 541.536,-545.638 542.005,-538.927 544.613,-549.578 544.613,-549.578"/>
</g>
<!-- 89 -->
<g id="PhysicalSystem/DfdProcesses/DfdProcess[@roleName=&#39;Manage Repository&#39;]/DfdProcess[@roleName=&#39;Integrate Data&#39;]/DfdProcess[@roleName=&#39;Manage DQ SnS&#39;]/DfdProcess[@roleName=&#39;Merge Overlap and Sources&#39;]" class="node"><title>89</title>
<polygon fill="red" stroke="black" points="324.738,-137.641 101.738,-137.641 101.738,-101.641 324.738,-101.641 324.738,-137.641"/>
<text text-anchor="middle" x="213.238" y="-115.941" font-family="Courier New" font-size="14.00">Merge Overlap and Sources</text>
</g>
<!-- 100 -->
<g id="PhysicalSystem/DfdProcesses/DfdProcess[@roleName=&#39;Manage Repository&#39;]/DfdProcess[@roleName=&#39;Integrate Data&#39;]/DfdProcess[@roleName=&#39;Manage DQ SnS&#39;]/DfdProcess[@roleName=&#39;Resolve Entities&#39;]/DfdProcess[@roleName=&#39;Extract Subjects, Properties and Property Values&#39;]" class="node"><title>100</title>
<polygon fill="red" stroke="black" points="905.738,-307.641 492.738,-307.641 492.738,-271.641 905.738,-271.641 905.738,-307.641"/>
<text text-anchor="middle" x="699.238" y="-285.941" font-family="Courier New" font-size="14.00">Extract Subjects, Properties and Property Values</text>
</g>
<!-- 101 -->
<g id="PhysicalSystem/DfdProcesses/DfdProcess[@roleName=&#39;Manage Repository&#39;]/DfdProcess[@roleName=&#39;Integrate Data&#39;]/DfdProcess[@roleName=&#39;Manage DQ SnS&#39;]/DfdProcess[@roleName=&#39;Resolve Entities&#39;]/DfdProcess[@roleName=&#39;Identify Classes and Functional Dependencies&#39;]" class="node"><title>101</title>
<polygon fill="red" stroke="black" points="941.238,-239.641 561.238,-239.641 561.238,-203.641 941.238,-203.641 941.238,-239.641"/>
<text text-anchor="middle" x="751.238" y="-217.941" font-family="Courier New" font-size="14.00">Identify Classes and Functional Dependencies</text>
</g>
<!-- 102 -->
<g id="PhysicalSystem/DfdProcesses/DfdProcess[@roleName=&#39;Manage Repository&#39;]/DfdProcess[@roleName=&#39;Integrate Data&#39;]/DfdProcess[@roleName=&#39;Manage DQ SnS&#39;]/DfdProcess[@roleName=&#39;Resolve Entities&#39;]/DfdProcess[@roleName=&#39;Standardize Entities&#39;]" class="node"><title>102</title>
<polygon fill="red" stroke="black" points="573.238,-919.641 391.238,-919.641 391.238,-883.641 573.238,-883.641 573.238,-919.641"/>
<text text-anchor="middle" x="482.238" y="-897.941" font-family="Courier New" font-size="14.00">Standardize Entities</text>
</g>
<!-- 104 -->
<g id="PhysicalSystem/DfdProcesses/DfdProcess[@roleName=&#39;Manage Repository&#39;]/DfdProcess[@roleName=&#39;Integrate Data&#39;]/DfdProcess[@roleName=&#39;Manage DQ SnS&#39;]/DfdProcess[@roleName=&#39;Standardize Instance Data&#39;]/DfdProcess[@roleName=&#39;Identify Overlap&#39;]" class="node"><title>104</title>
<polygon fill="red" stroke="black" points="352.738,-69.6409 203.738,-69.6409 203.738,-33.6409 352.738,-33.6409 352.738,-69.6409"/>
<text text-anchor="middle" x="278.238" y="-47.9409" font-family="Courier New" font-size="14.00">Identify Overlap</text>
</g>
<!-- 105 -->
<g id="PhysicalSystem/DfdProcesses/DfdProcess[@roleName=&#39;Manage Repository&#39;]/DfdProcess[@roleName=&#39;Integrate Data&#39;]/DfdProcess[@roleName=&#39;Manage DQ SnS&#39;]/DfdProcess[@roleName=&#39;Standardize Instance Data&#39;]/DfdProcess[@roleName=&#39;Pull Sources into Overlap&#39;]" class="node"><title>105</title>
<polygon fill="red" stroke="black" points="1055.74,-868.641 832.738,-868.641 832.738,-832.641 1055.74,-832.641 1055.74,-868.641"/>
<text text-anchor="middle" x="944.238" y="-846.941" font-family="Courier New" font-size="14.00">Pull Sources into Overlap</text>
</g>
<!-- 106 -->
<g id="PhysicalSystem/DfdProcesses/DfdProcess[@roleName=&#39;Manage Repository&#39;]/DfdProcess[@roleName=&#39;Integrate Data&#39;]/DfdProcess[@roleName=&#39;Manage DQ SnS&#39;]/DfdProcess[@roleName=&#39;Standardize Instance Data&#39;]/DfdProcess[@roleName=&#39;Normalize Class Members&#39;]" class="node"><title>106</title>
<polygon fill="red" stroke="black" points="886.238,-103.641 680.238,-103.641 680.238,-67.6409 886.238,-67.6409 886.238,-103.641"/>
<text text-anchor="middle" x="783.238" y="-81.9409" font-family="Courier New" font-size="14.00">Normalize Class Members</text>
</g>
<!-- 86 -->
<g id="PhysicalSystem_node34" class="node"><title>86</title>
<polygon fill="#f0f8ff" stroke="black" points="352.218,-549.802 298.218,-549.802 298.218,-513.802 352.218,-513.802 352.218,-549.802"/>
<text text-anchor="middle" x="325.218" y="-528.102" font-family="Courier New" font-size="14.00">86</text>
</g>
<!-- 86&#45;&gt;63 -->
<g id="PhysicalSystem_edge6" class="edge"><title>86&#45;&gt;63</title>
<path fill="none" stroke="black" d="M309.575,-513.733C308.442,-512.425 307.288,-511.091 306.127,-509.75"/>
<polygon fill="black" stroke="black" points="299.506,-502.102 309.454,-506.718 302.779,-505.883 306.051,-509.663 306.051,-509.663 306.051,-509.663 302.779,-505.883 302.649,-512.608 299.506,-502.102 299.506,-502.102"/>
</g>
<!-- 86&#45;&gt;64 -->
<g id="PhysicalSystem_edge7" class="edge"><title>86&#45;&gt;64</title>
<path fill="none" stroke="black" d="M316.61,-513.756C304.719,-488.828 283.164,-443.638 269.263,-414.495"/>
<polygon fill="black" stroke="black" points="264.868,-405.279 273.235,-412.368 267.02,-409.792 269.173,-414.305 269.173,-414.305 269.173,-414.305 267.02,-409.792 265.111,-416.242 264.868,-405.279 264.868,-405.279"/>
</g>
<!-- 86&#45;&gt;65 -->
<g id="PhysicalSystem_edge8" class="edge"><title>86&#45;&gt;65</title>
<path fill="none" stroke="black" d="M345.625,-513.568C379.892,-482.952 449.042,-421.166 487.854,-386.488"/>
<polygon fill="black" stroke="black" points="495.652,-379.52 491.193,-389.539 491.923,-382.852 488.195,-386.183 488.195,-386.183 488.195,-386.183 491.923,-382.852 485.196,-382.827 495.652,-379.52 495.652,-379.52"/>
</g>
<!-- 86&#45;&gt;66 -->
<g id="PhysicalSystem_edge9" class="edge"><title>86&#45;&gt;66</title>
<path fill="none" stroke="black" d="M319.619,-513.591C308.323,-476.847 282.743,-393.639 269.369,-350.136"/>
<polygon fill="black" stroke="black" points="266.401,-340.484 273.641,-348.72 267.871,-345.263 269.34,-350.042 269.34,-350.042 269.34,-350.042 267.871,-345.263 265.039,-351.365 266.401,-340.484 266.401,-340.484"/>
</g>
<!-- 86&#45;&gt;116 -->
<g id="PhysicalSystem_edge23" class="edge"><title>86&#45;&gt;116</title>
<path fill="none" stroke="black" d="M334.131,-549.806C344.17,-570.082 360.592,-603.252 372.189,-626.674"/>
<polygon fill="black" stroke="black" points="376.678,-635.742 368.208,-628.776 374.459,-631.261 372.241,-626.78 372.241,-626.78 372.241,-626.78 374.459,-631.261 376.274,-624.783 376.678,-635.742 376.678,-635.742"/>
</g>
<!-- 126 -->
<g id="PhysicalSystem/DfdDataStores/DfdDataStore[@roleName=&#39;Integrated Structured Data&#39;]" class="node"><title>126</title>
<polygon fill="blue" stroke="black" points="231.255,-629.582 0.255243,-629.582 0.255243,-593.582 231.255,-593.582 231.255,-629.582"/>
<text text-anchor="middle" x="115.755" y="-607.882" font-family="Courier New" font-size="14.00">Integrated Structured Data</text>
</g>
<!-- 86&#45;&gt;126 -->
<g id="PhysicalSystem_edge24" class="edge"><title>86&#45;&gt;126</title>
<path fill="none" stroke="black" d="M297.834,-542.232C266.214,-554.276 213.341,-574.414 172.694,-589.896"/>
<polygon fill="black" stroke="black" points="163.171,-593.523 170.914,-585.758 167.844,-591.743 172.516,-589.963 172.516,-589.963 172.516,-589.963 167.844,-591.743 174.118,-594.169 163.171,-593.523 163.171,-593.523"/>
</g>
<!-- 131 -->
<g id="PhysicalSystem/DfdExternalEntities/DfdExternalEntity[@roleName=&#39;Pattern Library&#39;]" class="node"><title>131</title>
<polygon fill="#f0f8ff" stroke="black" points="312.109,-696.909 172.109,-696.909 172.109,-660.909 312.109,-660.909 312.109,-696.909"/>
<text text-anchor="middle" x="242.109" y="-675.209" font-family="Courier New" font-size="14.00">Pattern Library</text>
</g>
<!-- 86&#45;&gt;131 -->
<g id="PhysicalSystem_edge22" class="edge"><title>86&#45;&gt;131</title>
<path fill="none" stroke="black" d="M315.027,-549.84C300.634,-575.317 274.239,-622.038 257.464,-651.73"/>
<polygon fill="black" stroke="black" points="252.384,-660.724 253.384,-649.803 254.843,-656.37 257.302,-652.017 257.302,-652.017 257.302,-652.017 254.843,-656.37 261.22,-654.23 252.384,-660.724 252.384,-660.724"/>
</g>
<!-- 108 -->
<g id="PhysicalSystem/DfdProcesses/DfdProcess[@roleName=&#39;COMMON DATA&#39;]/DfdProcess[@roleName=&#39;Expose Data&#39;]" class="node"><title>108</title>
<polygon fill="red" stroke="black" points="701.738,-936.641 594.738,-936.641 594.738,-900.641 701.738,-900.641 701.738,-936.641"/>
<text text-anchor="middle" x="648.238" y="-914.941" font-family="Courier New" font-size="14.00">Expose Data</text>
</g>
<!-- 109 -->
<g id="PhysicalSystem/DfdProcesses/DfdProcess[@roleName=&#39;COMMON DATA&#39;]/DfdProcess[@roleName=&#39;Bind Variables&#39;]" class="node"><title>109</title>
<polygon fill="red" stroke="black" points="761.238,-35.6409 629.238,-35.6409 629.238,0.359112 761.238,0.359112 761.238,-35.6409"/>
<text text-anchor="middle" x="695.238" y="-13.9409" font-family="Courier New" font-size="14.00">Bind Variables</text>
</g>
<!-- 110 -->
<g id="PhysicalSystem/DfdProcesses/DfdProcess[@roleName=&#39;COMMON DATA&#39;]/DfdProcess[@roleName=&#39;Implement Query&#39;]" class="node"><title>110</title>
<polygon fill="red" stroke="black" points="939.238,-35.6409 799.238,-35.6409 799.238,0.359112 939.238,0.359112 939.238,-35.6409"/>
<text text-anchor="middle" x="869.238" y="-13.9409" font-family="Courier New" font-size="14.00">Implement Query</text>
</g>
<!-- 111 -->
<g id="PhysicalSystem/DfdProcesses/DfdProcess[@roleName=&#39;COMMON DATA&#39;]/DfdProcess[@roleName=&#39;Execute Query&#39;]" class="node"><title>111</title>
<polygon fill="red" stroke="black" points="685.238,-511.641 561.238,-511.641 561.238,-475.641 685.238,-475.641 685.238,-511.641"/>
<text text-anchor="middle" x="623.238" y="-489.941" font-family="Courier New" font-size="14.00">Execute Query</text>
</g>
<!-- 114 -->
<g id="PhysicalSystem/DfdDataStores/DfdDataStore[@roleName=&#39;Data and Application Landscape&#39;]" class="node"><title>114</title>
<polygon fill="blue" stroke="black" points="1046.24,-171.641 782.238,-171.641 782.238,-135.641 1046.24,-135.641 1046.24,-171.641"/>
<text text-anchor="middle" x="914.238" y="-149.941" font-family="Courier New" font-size="14.00">Data and Application Landscape</text>
</g>
<!-- 115 -->
<g id="PhysicalSystem/DfdDataStores/DfdDataStore[@roleName=&#39;Identified Source&#39;]" class="node"><title>115</title>
<polygon fill="blue" stroke="black" points="1057.74,-936.641 900.738,-936.641 900.738,-900.641 1057.74,-900.641 1057.74,-936.641"/>
<text text-anchor="middle" x="979.238" y="-914.941" font-family="Courier New" font-size="14.00">Identified Source</text>
</g>
<!-- 118 -->
<g id="PhysicalSystem/DfdDataStores/DfdDataStore[@roleName=&#39;Registered Adapter&#39;]" class="node"><title>118</title>
<polygon fill="blue" stroke="black" points="1014.74,-749.641 849.738,-749.641 849.738,-713.641 1014.74,-713.641 1014.74,-749.641"/>
<text text-anchor="middle" x="932.238" y="-727.941" font-family="Courier New" font-size="14.00">Registered Adapter</text>
</g>
<!-- 120 -->
<g id="PhysicalSystem/DfdDataStores/DfdDataStore[@roleName=&#39;Source Catalog Interface&#39;]" class="node"><title>120</title>
<polygon fill="blue" stroke="black" points="809.738,-868.641 594.738,-868.641 594.738,-832.641 809.738,-832.641 809.738,-868.641"/>
<text text-anchor="middle" x="702.238" y="-846.941" font-family="Courier New" font-size="14.00">Source Catalog Interface</text>
</g>
<!-- 123 -->
<g id="PhysicalSystem/DfdDataStores/DfdDataStore[@roleName=&#39;Data Extract&#39;]" class="node"><title>123</title>
<polygon fill="blue" stroke="black" points="133.238,-783.641 17.2381,-783.641 17.2381,-747.641 133.238,-747.641 133.238,-783.641"/>
<text text-anchor="middle" x="75.2381" y="-761.941" font-family="Courier New" font-size="14.00">Data Extract</text>
</g>
<!-- 125 -->
<g id="PhysicalSystem/DfdDataStores/DfdDataStore[@roleName=&#39;Cached Source Data&#39;]" class="node"><title>125</title>
<polygon fill="blue" stroke="black" points="198.738,-851.641 33.7381,-851.641 33.7381,-815.641 198.738,-815.641 198.738,-851.641"/>
<text text-anchor="middle" x="116.238" y="-829.941" font-family="Courier New" font-size="14.00">Cached Source Data</text>
</g>
<!-- 127 -->
<g id="PhysicalSystem/DfdDataStores/DfdDataStore[@roleName=&#39;Data Source Specifications&#39;]" class="node"><title>127</title>
<polygon fill="blue" stroke="black" points="944.738,-443.641 713.738,-443.641 713.738,-407.641 944.738,-407.641 944.738,-443.641"/>
<text text-anchor="middle" x="829.238" y="-421.941" font-family="Courier New" font-size="14.00">Data Source Specifications</text>
</g>
<!-- 128 -->
<g id="PhysicalSystem/DfdDataStores/DfdDataStore[@roleName=&#39;Adapter&#39;]" class="node"><title>128</title>
<polygon fill="blue" stroke="black" points="754.238,-613.641 680.238,-613.641 680.238,-577.641 754.238,-577.641 754.238,-613.641"/>
<text text-anchor="middle" x="717.238" y="-591.941" font-family="Courier New" font-size="14.00">Adapter</text>
</g>
<!-- 129 -->
<g id="PhysicalSystem/DfdDataStores/DfdDataStore[@roleName=&#39;TODO more ...&#39;]" class="node"><title>129</title>
<polygon fill="blue" stroke="black" points="141.238,-715.641 17.2381,-715.641 17.2381,-679.641 141.238,-679.641 141.238,-715.641"/>
<text text-anchor="middle" x="79.2381" y="-693.941" font-family="Courier New" font-size="14.00">TODO more ...</text>
</g>
<!-- 134 -->
<g id="PhysicalSystem/DfdDataFlows/Attribute_String" class="node"><title>134</title>
<polygon fill="#f0f8ff" stroke="black" points="879.738,-936.641 730.738,-936.641 730.738,-900.641 879.738,-900.641 879.738,-936.641"/>
<text text-anchor="middle" x="805.238" y="-914.941" font-family="Courier New" font-size="14.00">Attribute_String</text>
</g>
</g>
</svg>
