<?xml version="1.0" encoding="UTF-8" standalone="no"?>
<?xml-stylesheet href="Xholon.css" type="text/css"?>
<!DOCTYPE svg PUBLIC "-//W3C//DTD SVG 1.1//EN"
 "http://www.w3.org/Graphics/SVG/1.1/DTD/svg11.dtd">
<!-- Generated by graphviz version 2.28.0 (20140111.2315)
 -->
<!-- Title: R Pages: 1 -->
<svg width="405pt" height="388pt"
 viewBox="0.00 0.00 405.47 388.32" xmlns="http://www.w3.org/2000/svg" xmlns:xlink="http://www.w3.org/1999/xlink">
<g id="Pack" class="graph" transform="scale(1 1) rotate(0) translate(4 384.321)">
<title>R</title>
<polygon fill="white" stroke="none" points="-4,4 -4,-384.321 401.469,-384.321 401.469,4 -4,4"/>
<text text-anchor="middle" x="198.734" y="-8.2" font-family="Courier New" font-size="14.00">R</text>
<!-- P1 -->
<g id="Pack/Pack[@roleName=&#39;P1&#39;]" class="node"><title>P1</title>
<ellipse fill="none" stroke="black" cx="87.8682" cy="-185.923" rx="22.7465" ry="22.7465"/>
<text text-anchor="middle" x="87.8682" y="-181.723" font-family="Courier New" font-size="14.00">P1</text>
</g>
<!-- 1 -->
<g id="Pack/Cable[@roleName=&#39;1&#39;]" class="node"><title>1</title>
<ellipse fill="#000000" stroke="black" cx="10.1986" cy="-184.305" rx="1.8" ry="1.8"/>
<text text-anchor="middle" x="4.1993" y="-190.305" font-family="Courier New" font-size="14.00">1</text>
</g>
<!-- P1&#45;&#45;1 -->
<g id="Pack_edge1" class="edge"><title>P1&#45;&#45;1</title>
<path fill="none" stroke="black" d="M64.9849,-185.446C45.654,-185.044 19.9409,-184.508 12.3774,-184.351"/>
<text text-anchor="middle" x="46.1635" y="-172.298" font-family="Times,serif" font-size="14.00">a1﻿</text>
</g>
<!-- 2 -->
<g id="Pack/Cable[@roleName=&#39;2&#39;]" class="node"><title>2</title>
<ellipse fill="#000000" stroke="black" cx="136.847" cy="-120.342" rx="1.8" ry="1.8"/>
<text text-anchor="middle" x="130.848" y="-126.342" font-family="Courier New" font-size="14.00">2</text>
</g>
<!-- P1&#45;&#45;2 -->
<g id="Pack_edge2" class="edge"><title>P1&#45;&#45;2</title>
<path fill="none" stroke="black" d="M101.511,-167.655C113.966,-150.979 131.11,-128.023 135.686,-121.897"/>
<text text-anchor="middle" x="103.241" y="-148.976" font-family="Times,serif" font-size="14.00">b1﻿</text>
</g>
<!-- 6 -->
<g id="Pack/Cable[@roleName=&#39;6&#39;]" class="node"><title>6</title>
<ellipse fill="#000000" stroke="black" cx="125.593" cy="-259.533" rx="1.8" ry="1.8"/>
<text text-anchor="middle" x="119.593" y="-265.533" font-family="Courier New" font-size="14.00">6</text>
</g>
<!-- P1&#45;&#45;6 -->
<g id="Pack_edge3" class="edge"><title>P1&#45;&#45;6</title>
<path fill="none" stroke="black" d="M98.3765,-206.427C107.969,-225.145 121.174,-250.911 124.698,-257.788"/>
<text text-anchor="middle" x="97.3498" y="-236.308" font-family="Times,serif" font-size="14.00">f1﻿</text>
</g>
<!-- P2 -->
<g id="Pack/Pack[@roleName=&#39;P2&#39;]" class="node"><title>P2</title>
<ellipse fill="none" stroke="black" cx="218.907" cy="-107.56" rx="22.7465" ry="22.7465"/>
<text text-anchor="middle" x="218.907" y="-103.36" font-family="Courier New" font-size="14.00">P2</text>
</g>
<!-- P2&#45;&#45;2 -->
<g id="Pack_edge4" class="edge"><title>P2&#45;&#45;2</title>
<path fill="none" stroke="black" d="M196.484,-111.053C175.604,-114.305 146.568,-118.828 138.814,-120.036"/>
<text text-anchor="middle" x="152.292" y="-102.944" font-family="Times,serif" font-size="14.00">b2﻿</text>
</g>
<!-- 3 -->
<g id="Pack/Cable[@roleName=&#39;3&#39;]" class="node"><title>3</title>
<ellipse fill="#000000" stroke="black" cx="212.892" cy="-26.6" rx="1.8" ry="1.8"/>
<text text-anchor="middle" x="206.893" y="-32.6" font-family="Courier New" font-size="14.00">3</text>
</g>
<!-- P2&#45;&#45;3 -->
<g id="Pack_edge5" class="edge"><title>P2&#45;&#45;3</title>
<path fill="none" stroke="black" d="M217.199,-84.5766C215.671,-64.0072 213.588,-35.9743 213.033,-28.4968"/>
<text text-anchor="middle" x="200.151" y="-60.7367" font-family="Times,serif" font-size="14.00">c2﻿</text>
</g>
<!-- 4 -->
<g id="Pack/Cable[@roleName=&#39;4&#39;]" class="node"><title>4</title>
<ellipse fill="#000000" stroke="black" cx="295.806" cy="-83.6859" rx="1.8" ry="1.8"/>
<text text-anchor="middle" x="289.807" y="-69.2859" font-family="Courier New" font-size="14.00">4</text>
</g>
<!-- P2&#45;&#45;4 -->
<g id="Pack_edge6" class="edge"><title>P2&#45;&#45;4</title>
<path fill="none" stroke="black" d="M240.737,-100.782C260.275,-94.7168 286.902,-86.4502 294.005,-84.2452"/>
<text text-anchor="middle" x="282.728" y="-96.7138" font-family="Times,serif" font-size="14.00">d2﻿</text>
</g>
<!-- 5 -->
<g id="Pack/Cable[@roleName=&#39;5&#39;]" class="node"><title>5</title>
<ellipse fill="#000000" stroke="black" cx="247.734" cy="-186.408" rx="1.8" ry="1.8"/>
<text text-anchor="middle" x="241.734" y="-192.408" font-family="Courier New" font-size="14.00">5</text>
</g>
<!-- P2&#45;&#45;5 -->
<g id="Pack_edge7" class="edge"><title>P2&#45;&#45;5</title>
<path fill="none" stroke="black" d="M226.784,-129.105C234.119,-149.168 244.319,-177.067 247.042,-184.517"/>
<text text-anchor="middle" x="221.949" y="-161.011" font-family="Times,serif" font-size="14.00">e2﻿</text>
</g>
<!-- P3 -->
<g id="Pack/Pack[@roleName=&#39;P3&#39;]" class="node"><title>P3</title>
<ellipse fill="none" stroke="black" cx="206.401" cy="-255.634" rx="22.7465" ry="22.7465"/>
<text text-anchor="middle" x="206.401" y="-251.434" font-family="Courier New" font-size="14.00">P3</text>
</g>
<!-- P3&#45;&#45;6 -->
<g id="Pack_edge9" class="edge"><title>P3&#45;&#45;6</title>
<path fill="none" stroke="black" d="M183.46,-256.741C162.93,-257.731 134.949,-259.081 127.486,-259.441"/>
<text text-anchor="middle" x="141.286" y="-262.291" font-family="Times,serif" font-size="14.00">f3﻿</text>
</g>
<!-- P3&#45;&#45;5 -->
<g id="Pack_edge8" class="edge"><title>P3&#45;&#45;5</title>
<path fill="none" stroke="black" d="M218.135,-235.981C228.636,-218.393 242.948,-194.423 246.765,-188.03"/>
<text text-anchor="middle" x="217.485" y="-216.206" font-family="Times,serif" font-size="14.00">e3﻿</text>
</g>
<!-- Q -->
<g id="Pack/Pack[@roleName=&#39;Q&#39;]" class="node"><title>Q</title>
<ellipse fill="none" stroke="black" cx="331.018" cy="-142.177" rx="18" ry="18"/>
<text text-anchor="middle" x="331.018" y="-137.977" font-family="Courier New" font-size="14.00">Q</text>
</g>
<!-- 7 -->
<g id="Pack/Cable[@roleName=&#39;7&#39;]" class="node"><title>7</title>
<ellipse fill="#000000" stroke="black" cx="393.954" cy="-106.6" rx="1.8" ry="1.8"/>
<text text-anchor="middle" x="387.955" y="-112.6" font-family="Courier New" font-size="14.00">7</text>
</g>
<!-- Q&#45;&#45;7 -->
<g id="Pack_edge10" class="edge"><title>Q&#45;&#45;7</title>
<path fill="none" stroke="black" d="M346.9,-133.2C362.922,-124.142 386.157,-111.008 392.375,-107.493"/>
<text text-anchor="middle" x="350.78" y="-107.746" font-family="Times,serif" font-size="14.00">ddd﻿</text>
</g>
<!-- 8 -->
<g id="Pack/Cable[@roleName=&#39;8&#39;]" class="node"><title>8</title>
<ellipse fill="#000000" stroke="black" cx="282.199" cy="-195.471" rx="1.8" ry="1.8"/>
<text text-anchor="middle" x="276.199" y="-201.471" font-family="Courier New" font-size="14.00">8</text>
</g>
<!-- Q&#45;&#45;8 -->
<g id="Pack_edge11" class="edge"><title>Q&#45;&#45;8</title>
<path fill="none" stroke="black" d="M318.699,-155.626C306.27,-169.193 288.247,-188.869 283.424,-194.134"/>
<text text-anchor="middle" x="282.204" y="-179.08" font-family="Times,serif" font-size="14.00">ggg﻿</text>
</g>
<!-- 9 -->
<g id="Pack/Cable[@roleName=&#39;9&#39;]" class="node"><title>9</title>
<ellipse fill="#000000" stroke="black" cx="395.669" cy="-264.346" rx="1.8" ry="1.8"/>
<text text-anchor="middle" x="389.67" y="-270.346" font-family="Courier New" font-size="14.00">9</text>
</g>
<!-- 10 -->
<g id="Pack/Cable[@roleName=&#39;10&#39;]" class="node"><title>10</title>
<ellipse fill="#000000" stroke="black" cx="170.199" cy="-154.6" rx="1.8" ry="1.8"/>
<text text-anchor="middle" x="160" y="-160.6" font-family="Courier New" font-size="14.00">10</text>
</g>
<!-- 11 -->
<g id="Pack/Cable[@roleName=&#39;11&#39;]" class="node"><title>11</title>
<ellipse fill="#000000" stroke="black" cx="304.696" cy="-361.721" rx="1.8" ry="1.8"/>
<text text-anchor="middle" x="294.497" y="-367.721" font-family="Courier New" font-size="14.00">11</text>
</g>
<!-- 12 -->
<g id="Pack/Cable[@roleName=&#39;12&#39;]" class="node"><title>12</title>
<ellipse fill="#000000" stroke="black" cx="266.199" cy="-234.6" rx="1.8" ry="1.8"/>
<text text-anchor="middle" x="256" y="-240.6" font-family="Courier New" font-size="14.00">12</text>
</g>
<!-- 13 -->
<g id="Pack/Cable[@roleName=&#39;13&#39;]" class="node"><title>13</title>
<ellipse fill="#000000" stroke="black" cx="202.199" cy="-170.6" rx="1.8" ry="1.8"/>
<text text-anchor="middle" x="192" y="-176.6" font-family="Courier New" font-size="14.00">13</text>
</g>
<!-- R -->
<g id="Pack_node18" class="node"><title>R</title>
<ellipse fill="none" stroke="black" cx="322.323" cy="-287.003" rx="18" ry="18"/>
<text text-anchor="middle" x="322.323" y="-282.803" font-family="Courier New" font-size="14.00">R</text>
</g>
<!-- R&#45;&#45;9 -->
<g id="Pack_edge12" class="edge"><title>R&#45;&#45;9</title>
<path fill="none" stroke="black" d="M339.705,-281.634C358.344,-275.876 386.278,-267.247 393.766,-264.934"/>
<text text-anchor="middle" x="366.735" y="-260.684" font-family="Times,serif" font-size="14.00">aR﻿</text>
</g>
<!-- R&#45;&#45;11 -->
<g id="Pack_edge13" class="edge"><title>R&#45;&#45;11</title>
<path fill="none" stroke="black" d="M318.145,-304.71C313.666,-323.698 306.953,-352.155 305.153,-359.783"/>
<text text-anchor="middle" x="296.293" y="-336.446" font-family="Times,serif" font-size="14.00">fR﻿</text>
</g>
<!-- R&#45;&#45;12 -->
<g id="Pack_edge14" class="edge"><title>R&#45;&#45;12</title>
<path fill="none" stroke="black" d="M309.022,-274.584C294.759,-261.267 273.384,-241.309 267.655,-235.96"/>
<text text-anchor="middle" x="271.813" y="-259.472" font-family="Times,serif" font-size="14.00">gR﻿</text>
</g>
</g>
</svg>

