<?xml version="1.0" encoding="UTF-8" standalone="no"?>
<?xml-stylesheet href="Xholon.css" type="text/css"?>
<!DOCTYPE svg PUBLIC "-//W3C//DTD SVG 1.1//EN"
 "http://www.w3.org/Graphics/SVG/1.1/DTD/svg11.dtd">
<!-- Generated by graphviz version 2.28.0 (20140111.2315)
 -->
<!-- Title: R Pages: 1 -->
<svg width="415pt" height="427pt"
 viewBox="0.00 0.00 415.39 426.83" xmlns="http://www.w3.org/2000/svg" xmlns:xlink="http://www.w3.org/1999/xlink">
<g id="Pack" class="graph" transform="scale(1 1) rotate(0) translate(4 422.832)">
<title>R</title>
<polygon fill="white" stroke="none" points="-4,4 -4,-422.832 411.388,-422.832 411.388,4 -4,4"/>
<text text-anchor="middle" x="203.694" y="-8.2" font-family="Courier New" font-size="14.00">R</text>
<!-- P1 -->
<g id="Pack/Pack[@roleName=&#39;P1&#39;]" class="node"><title>P1</title>
<ellipse fill="none" stroke="black" cx="103.355" cy="-254.669" rx="22.7465" ry="22.7465"/>
<text text-anchor="middle" x="103.355" y="-250.469" font-family="Courier New" font-size="14.00">P1</text>
</g>
<!-- 1 -->
<g id="Pack/Cable[@roleName=&#39;1&#39;]" class="node"><title>1</title>
<ellipse fill="none" stroke="black" cx="107.329" cy="-332.223" rx="18" ry="18"/>
<text text-anchor="middle" x="107.329" y="-328.023" font-family="Courier New" font-size="14.00">1</text>
</g>
<!-- P1&#45;&#45;1 -->
<g id="Pack_edge1" class="edge"><title>P1&#45;&#45;1</title>
<path fill="none" stroke="black" d="M104.526,-277.518C105.126,-289.225 105.846,-303.275 106.406,-314.205"/>
<text text-anchor="middle" x="90.5013" y="-300.062" font-family="Times,serif" font-size="14.00">a1﻿</text>
</g>
<!-- 2 -->
<g id="Pack/Cable[@roleName=&#39;2&#39;]" class="node"><title>2</title>
<ellipse fill="none" stroke="black" cx="166.411" cy="-202.702" rx="18" ry="18"/>
<text text-anchor="middle" x="166.411" y="-198.502" font-family="Courier New" font-size="14.00">2</text>
</g>
<!-- P1&#45;&#45;2 -->
<g id="Pack_edge2" class="edge"><title>P1&#45;&#45;2</title>
<path fill="none" stroke="black" d="M120.92,-240.193C130.832,-232.024 143.051,-221.954 152.329,-214.308"/>
<text text-anchor="middle" x="121.267" y="-214.65" font-family="Times,serif" font-size="14.00">b1﻿</text>
</g>
<!-- 6 -->
<g id="Pack/Cable[@roleName=&#39;6&#39;]" class="node"><title>6</title>
<ellipse fill="none" stroke="black" cx="28.1877" cy="-220.031" rx="18" ry="18"/>
<text text-anchor="middle" x="28.1877" y="-215.831" font-family="Courier New" font-size="14.00">6</text>
</g>
<!-- P1&#45;&#45;6 -->
<g id="Pack_edge3" class="edge"><title>P1&#45;&#45;6</title>
<path fill="none" stroke="black" d="M82.4168,-245.02C70.601,-239.575 56.0346,-232.863 44.9749,-227.767"/>
<text text-anchor="middle" x="63.6958" y="-223.793" font-family="Times,serif" font-size="14.00">f1﻿</text>
</g>
<!-- P2 -->
<g id="Pack/Pack[@roleName=&#39;P2&#39;]" class="node"><title>P2</title>
<ellipse fill="none" stroke="black" cx="175.729" cy="-120.171" rx="22.7465" ry="22.7465"/>
<text text-anchor="middle" x="175.729" y="-115.971" font-family="Courier New" font-size="14.00">P2</text>
</g>
<!-- P2&#45;&#45;2 -->
<g id="Pack_edge4" class="edge"><title>P2&#45;&#45;2</title>
<path fill="none" stroke="black" d="M173.183,-142.723C171.696,-155.896 169.844,-172.296 168.453,-184.616"/>
<text text-anchor="middle" x="155.461" y="-167.869" font-family="Times,serif" font-size="14.00">b2﻿</text>
</g>
<!-- 3 -->
<g id="Pack/Cable[@roleName=&#39;3&#39;]" class="node"><title>3</title>
<ellipse fill="none" stroke="black" cx="197.737" cy="-42.8" rx="18" ry="18"/>
<text text-anchor="middle" x="197.737" y="-38.6" font-family="Courier New" font-size="14.00">3</text>
</g>
<!-- P2&#45;&#45;3 -->
<g id="Pack_edge5" class="edge"><title>P2&#45;&#45;3</title>
<path fill="none" stroke="black" d="M181.977,-98.2068C185.408,-86.1442 189.603,-71.3957 192.803,-60.1486"/>
<text text-anchor="middle" x="172.425" y="-83.3777" font-family="Times,serif" font-size="14.00">c2﻿</text>
</g>
<!-- 4 -->
<g id="Pack/Cable[@roleName=&#39;4&#39;]" class="node"><title>4</title>
<ellipse fill="none" stroke="black" cx="256.946" cy="-124.023" rx="18" ry="18"/>
<text text-anchor="middle" x="256.946" y="-119.823" font-family="Courier New" font-size="14.00">4</text>
</g>
<!-- P2&#45;&#45;4 -->
<g id="Pack_edge6" class="edge"><title>P2&#45;&#45;4</title>
<path fill="none" stroke="black" d="M198.353,-121.244C211.119,-121.85 226.858,-122.596 238.808,-123.163"/>
<text text-anchor="middle" x="218.58" y="-109.604" font-family="Times,serif" font-size="14.00">d2﻿</text>
</g>
<!-- 5 -->
<g id="Pack/Cable[@roleName=&#39;5&#39;]" class="node"><title>5</title>
<ellipse fill="none" stroke="black" cx="95.8226" cy="-94.4664" rx="18" ry="18"/>
<text text-anchor="middle" x="95.8226" y="-90.2664" font-family="Courier New" font-size="14.00">5</text>
</g>
<!-- P2&#45;&#45;5 -->
<g id="Pack_edge7" class="edge"><title>P2&#45;&#45;5</title>
<path fill="none" stroke="black" d="M153.895,-113.147C141.048,-109.015 125.032,-103.863 113.075,-100.016"/>
<text text-anchor="middle" x="133.485" y="-93.9819" font-family="Times,serif" font-size="14.00">e2﻿</text>
</g>
<!-- P3 -->
<g id="Pack/Pack[@roleName=&#39;P3&#39;]" class="node"><title>P3</title>
<ellipse fill="none" stroke="black" cx="28.5865" cy="-139.129" rx="22.7465" ry="22.7465"/>
<text text-anchor="middle" x="28.5865" y="-134.929" font-family="Courier New" font-size="14.00">P3</text>
</g>
<!-- P3&#45;&#45;6 -->
<g id="Pack_edge9" class="edge"><title>P3&#45;&#45;6</title>
<path fill="none" stroke="black" d="M28.4733,-162.096C28.4111,-174.709 28.3351,-190.13 28.2771,-201.891"/>
<text text-anchor="middle" x="14.1876" y="-186.193" font-family="Times,serif" font-size="14.00">f3﻿</text>
</g>
<!-- P3&#45;&#45;5 -->
<g id="Pack_edge8" class="edge"><title>P3&#45;&#45;5</title>
<path fill="none" stroke="black" d="M47.6738,-126.45C58.0787,-119.538 70.7831,-111.099 80.5289,-104.625"/>
<text text-anchor="middle" x="49.1368" y="-102.938" font-family="Times,serif" font-size="14.00">e3﻿</text>
</g>
<!-- Q -->
<g id="Pack/Pack[@roleName=&#39;Q&#39;]" class="node"><title>Q</title>
<ellipse fill="none" stroke="black" cx="323.636" cy="-148.897" rx="18" ry="18"/>
<text text-anchor="middle" x="323.636" y="-144.697" font-family="Courier New" font-size="14.00">Q</text>
</g>
<!-- 7 -->
<g id="Pack/Cable[@roleName=&#39;7&#39;]" class="node"><title>7</title>
<ellipse fill="none" stroke="black" cx="270.964" cy="-198.417" rx="18" ry="18"/>
<text text-anchor="middle" x="270.964" y="-194.217" font-family="Courier New" font-size="14.00">7</text>
</g>
<!-- Q&#45;&#45;7 -->
<g id="Pack_edge10" class="edge"><title>Q&#45;&#45;7</title>
<path fill="none" stroke="black" d="M310.345,-161.393C302.421,-168.842 292.389,-178.273 284.434,-185.753"/>
<text text-anchor="middle" x="278.532" y="-160.973" font-family="Times,serif" font-size="14.00">ddd﻿</text>
</g>
<!-- 8 -->
<g id="Pack/Cable[@roleName=&#39;8&#39;]" class="node"><title>8</title>
<ellipse fill="none" stroke="black" cx="389.388" cy="-118.8" rx="18" ry="18"/>
<text text-anchor="middle" x="389.388" y="-114.6" font-family="Courier New" font-size="14.00">8</text>
</g>
<!-- Q&#45;&#45;8 -->
<g id="Pack_edge11" class="edge"><title>Q&#45;&#45;8</title>
<path fill="none" stroke="black" d="M340.228,-141.302C350.12,-136.775 362.642,-131.043 372.573,-126.497"/>
<text text-anchor="middle" x="346.972" y="-121.3" font-family="Times,serif" font-size="14.00">ggg﻿</text>
</g>
<!-- 9 -->
<g id="Pack/Cable[@roleName=&#39;9&#39;]" class="node"><title>9</title>
<ellipse fill="none" stroke="black" cx="213.964" cy="-270.8" rx="18" ry="18"/>
<text text-anchor="middle" x="213.964" y="-266.6" font-family="Courier New" font-size="14.00">9</text>
</g>
<!-- 10 -->
<g id="Pack/Cable[@roleName=&#39;10&#39;]" class="node"><title>10</title>
<ellipse fill="none" stroke="black" cx="104.586" cy="-180.423" rx="22.7465" ry="22.7465"/>
<text text-anchor="middle" x="104.586" y="-176.223" font-family="Courier New" font-size="14.00">10</text>
</g>
<!-- 11 -->
<g id="Pack/Cable[@roleName=&#39;11&#39;]" class="node"><title>11</title>
<ellipse fill="none" stroke="black" cx="344.571" cy="-295.127" rx="22.7465" ry="22.7465"/>
<text text-anchor="middle" x="344.571" y="-290.927" font-family="Courier New" font-size="14.00">11</text>
</g>
<!-- 12 -->
<g id="Pack/Cable[@roleName=&#39;12&#39;]" class="node"><title>12</title>
<ellipse fill="none" stroke="black" cx="257.788" cy="-396.209" rx="22.7465" ry="22.7465"/>
<text text-anchor="middle" x="257.788" y="-392.009" font-family="Courier New" font-size="14.00">12</text>
</g>
<!-- 13 -->
<g id="Pack/Cable[@roleName=&#39;13&#39;]" class="node"><title>13</title>
<ellipse fill="none" stroke="black" cx="180.586" cy="-351.423" rx="22.7465" ry="22.7465"/>
<text text-anchor="middle" x="180.586" y="-347.223" font-family="Courier New" font-size="14.00">13</text>
</g>
<!-- R -->
<g id="Pack_node18" class="node"><title>R</title>
<ellipse fill="none" stroke="black" cx="272.228" cy="-320.81" rx="18" ry="18"/>
<text text-anchor="middle" x="272.228" y="-316.61" font-family="Courier New" font-size="14.00">R</text>
</g>
<!-- R&#45;&#45;9 -->
<g id="Pack_edge12" class="edge"><title>R&#45;&#45;9</title>
<path fill="none" stroke="black" d="M258.42,-308.959C249.132,-300.987 236.939,-290.521 227.672,-282.567"/>
<text text-anchor="middle" x="226.913" y="-299.963" font-family="Times,serif" font-size="14.00">aR﻿</text>
</g>
<!-- R&#45;&#45;11 -->
<g id="Pack_edge13" class="edge"><title>R&#45;&#45;11</title>
<path fill="none" stroke="black" d="M289.372,-314.724C299.484,-311.134 312.368,-306.56 323.146,-302.734"/>
<text text-anchor="middle" x="306.259" y="-296.129" font-family="Times,serif" font-size="14.00">fR﻿</text>
</g>
<!-- R&#45;&#45;12 -->
<g id="Pack_edge14" class="edge"><title>R&#45;&#45;12</title>
<path fill="none" stroke="black" d="M268.806,-338.679C266.788,-349.217 264.216,-362.646 262.065,-373.879"/>
<text text-anchor="middle" x="248.91" y="-360.479" font-family="Times,serif" font-size="14.00">gR﻿</text>
</g>
</g>
</svg>

