<?xml version="1.0" encoding="UTF-8" standalone="no"?>
<?xml-stylesheet href="Xholon.css" type="text/css"?>
<!DOCTYPE svg PUBLIC "-//W3C//DTD SVG 1.1//EN"
 "http://www.w3.org/Graphics/SVG/1.1/DTD/svg11.dtd">
<!-- Generated by graphviz version 2.28.0 (20140111.2315)
 -->
<!-- Title: R Pages: 1 -->
<svg width="318pt" height="304pt"
 viewBox="0.00 0.00 318.14 303.52" xmlns="http://www.w3.org/2000/svg" xmlns:xlink="http://www.w3.org/1999/xlink">
<g id="Pack" class="graph" transform="scale(1 1) rotate(0) translate(4 299.522)">
<title>R</title>
<polygon fill="white" stroke="none" points="-4,4 -4,-299.522 314.145,-299.522 314.145,4 -4,4"/>
<text text-anchor="middle" x="155.072" y="-8.2" font-family="Courier New" font-size="14.00">R</text>
<!-- P1 -->
<g id="Pack/Pack[@roleName=&#39;P1&#39;]" class="node"><title>P1</title>
<ellipse fill="none" stroke="black" cx="241.741" cy="-106.014" rx="22.7465" ry="22.7465"/>
<text text-anchor="middle" x="241.741" y="-101.814" font-family="Courier New" font-size="14.00">P1</text>
</g>
<!-- 1 -->
<g id="Pack/Cable[@roleName=&#39;1&#39;]" class="node"><title>1</title>
<ellipse fill="#000000" stroke="black" cx="308.345" cy="-175.715" rx="1.8" ry="1.8"/>
<text text-anchor="middle" x="302.346" y="-181.715" font-family="Courier New" font-size="14.00">1</text>
</g>
<!-- P1&#45;&#45;1 -->
<g id="Pack_edge1" class="edge"><title>P1&#45;&#45;1</title>
<path fill="none" stroke="black" d="M257.525,-122.532C274.759,-140.567 300.742,-167.759 306.969,-174.275"/>
<text text-anchor="middle" x="267.282" y="-152.604" font-family="Times,serif" font-size="14.00">a1﻿</text>
</g>
<!-- 2 -->
<g id="Pack/Cable[@roleName=&#39;2&#39;]" class="node"><title>2</title>
<ellipse fill="#000000" stroke="black" cx="156.32" cy="-115.026" rx="1.8" ry="1.8"/>
<text text-anchor="middle" x="150.321" y="-121.026" font-family="Courier New" font-size="14.00">2</text>
</g>
<!-- P1&#45;&#45;2 -->
<g id="Pack_edge2" class="edge"><title>P1&#45;&#45;2</title>
<path fill="none" stroke="black" d="M218.85,-108.429C197.105,-110.723 166.554,-113.947 158.392,-114.808"/>
<text text-anchor="middle" x="173.264" y="-115.819" font-family="Times,serif" font-size="14.00">b1﻿</text>
</g>
<!-- 6 -->
<g id="Pack/Cable[@roleName=&#39;6&#39;]" class="node"><title>6</title>
<ellipse fill="#000000" stroke="black" cx="262.561" cy="-139.08" rx="1.8" ry="1.8"/>
<text text-anchor="middle" x="268.56" y="-124.68" font-family="Courier New" font-size="14.00">6</text>
</g>
<!-- P1&#45;&#45;6 -->
<g id="Pack_edge3" class="edge"><title>P1&#45;&#45;6</title>
<path fill="none" stroke="black" d="M253.852,-125.248C257.001,-130.249 259.936,-134.911 261.464,-137.337"/>
<text text-anchor="middle" x="243.47" y="-135.493" font-family="Times,serif" font-size="14.00">f1﻿</text>
</g>
<!-- P2 -->
<g id="Pack/Pack[@roleName=&#39;P2&#39;]" class="node"><title>P2</title>
<ellipse fill="none" stroke="black" cx="81.4327" cy="-108.28" rx="22.7465" ry="22.7465"/>
<text text-anchor="middle" x="81.4327" y="-104.08" font-family="Courier New" font-size="14.00">P2</text>
</g>
<!-- P2&#45;&#45;2 -->
<g id="Pack_edge4" class="edge"><title>P2&#45;&#45;2</title>
<path fill="none" stroke="black" d="M104.308,-110.341C122.89,-112.015 147.143,-114.2 154.268,-114.842"/>
<text text-anchor="middle" x="136.967" y="-99.9912" font-family="Times,serif" font-size="14.00">b2﻿</text>
</g>
<!-- 3 -->
<g id="Pack/Cable[@roleName=&#39;3&#39;]" class="node"><title>3</title>
<ellipse fill="#000000" stroke="black" cx="10.1986" cy="-73.9345" rx="1.8" ry="1.8"/>
<text text-anchor="middle" x="4.1993" y="-59.5345" font-family="Courier New" font-size="14.00">3</text>
</g>
<!-- P2&#45;&#45;3 -->
<g id="Pack_edge5" class="edge"><title>P2&#45;&#45;3</title>
<path fill="none" stroke="black" d="M60.8289,-98.3459C42.7492,-89.6288 18.3522,-77.8658 11.8481,-74.7298"/>
<text text-anchor="middle" x="21.3739" y="-90.7378" font-family="Times,serif" font-size="14.00">c2﻿</text>
</g>
<!-- 4 -->
<g id="Pack/Cable[@roleName=&#39;4&#39;]" class="node"><title>4</title>
<ellipse fill="#000000" stroke="black" cx="63.1241" cy="-193.549" rx="1.8" ry="1.8"/>
<text text-anchor="middle" x="57.1248" y="-199.549" font-family="Courier New" font-size="14.00">4</text>
</g>
<!-- P2&#45;&#45;4 -->
<g id="Pack_edge6" class="edge"><title>P2&#45;&#45;4</title>
<path fill="none" stroke="black" d="M76.6224,-130.683C71.9607,-152.394 65.3424,-183.217 63.5733,-191.457"/>
<text text-anchor="middle" x="54.7405" y="-165.27" font-family="Times,serif" font-size="14.00">d2﻿</text>
</g>
<!-- 5 -->
<g id="Pack/Cable[@roleName=&#39;5&#39;]" class="node"><title>5</title>
<ellipse fill="#000000" stroke="black" cx="128.302" cy="-36.8579" rx="1.8" ry="1.8"/>
<text text-anchor="middle" x="122.303" y="-42.8579" font-family="Courier New" font-size="14.00">5</text>
</g>
<!-- P2&#45;&#45;5 -->
<g id="Pack_edge7" class="edge"><title>P2&#45;&#45;5</title>
<path fill="none" stroke="black" d="M93.9928,-89.1402C105.924,-70.9592 122.687,-45.415 127.165,-38.5902"/>
<text text-anchor="middle" x="95.6144" y="-68.0652" font-family="Times,serif" font-size="14.00">e2﻿</text>
</g>
<!-- P3 -->
<g id="Pack/Pack[@roleName=&#39;P3&#39;]" class="node"><title>P3</title>
<ellipse fill="none" stroke="black" cx="215.583" cy="-47.4229" rx="22.7465" ry="22.7465"/>
<text text-anchor="middle" x="215.583" y="-43.2229" font-family="Courier New" font-size="14.00">P3</text>
</g>
<!-- P3&#45;&#45;6 -->
<g id="Pack_edge9" class="edge"><title>P3&#45;&#45;6</title>
<path fill="none" stroke="black" d="M226.009,-67.7645C238.119,-91.3919 257.022,-128.272 261.558,-137.123"/>
<text text-anchor="middle" x="257.971" y="-106.644" font-family="Times,serif" font-size="14.00">f3﻿</text>
</g>
<!-- P3&#45;&#45;5 -->
<g id="Pack_edge8" class="edge"><title>P3&#45;&#45;5</title>
<path fill="none" stroke="black" d="M193.106,-44.7022C170.882,-42.012 138.996,-38.1524 130.468,-37.12"/>
<text text-anchor="middle" x="146.822" y="-45.1111" font-family="Times,serif" font-size="14.00">e3﻿</text>
</g>
<!-- Q -->
<g id="Pack/Pack[@roleName=&#39;Q&#39;]" class="node"><title>Q</title>
<ellipse fill="none" stroke="black" cx="109.156" cy="-264.305" rx="18" ry="18"/>
<text text-anchor="middle" x="109.156" y="-260.105" font-family="Courier New" font-size="14.00">Q</text>
</g>
<!-- Q&#45;&#45;4 -->
<g id="Pack_edge10" class="edge"><title>Q&#45;&#45;4</title>
<path fill="none" stroke="black" d="M99.1676,-248.952C87.3216,-230.743 68.6103,-201.982 64.1176,-195.076"/>
<text text-anchor="middle" x="62.7853" y="-226.214" font-family="Times,serif" font-size="14.00">ddd﻿</text>
</g>
<!-- 7 -->
<g id="Pack/Cable[@roleName=&#39;7&#39;]" class="node"><title>7</title>
<ellipse fill="#000000" stroke="black" cx="192.887" cy="-276.922" rx="1.8" ry="1.8"/>
<text text-anchor="middle" x="186.888" y="-282.922" font-family="Courier New" font-size="14.00">7</text>
</g>
<!-- Q&#45;&#45;7 -->
<g id="Pack_edge11" class="edge"><title>Q&#45;&#45;7</title>
<path fill="none" stroke="black" d="M127.324,-267.043C148.872,-270.29 182.908,-275.419 191.08,-276.65"/>
<text text-anchor="middle" x="178.06" y="-259.247" font-family="Times,serif" font-size="14.00">ggg﻿</text>
</g>
<!-- R -->
<g id="Pack_node12" class="node"><title>R</title>
<ellipse fill="none" stroke="black" cx="258.148" cy="-225.128" rx="18" ry="18"/>
<text text-anchor="middle" x="258.148" y="-220.928" font-family="Courier New" font-size="14.00">R</text>
</g>
<!-- R&#45;&#45;1 -->
<g id="Pack_edge12" class="edge"><title>R&#45;&#45;1</title>
<path fill="none" stroke="black" d="M271.075,-212.403C283.624,-200.05 301.529,-182.424 306.819,-177.217"/>
<text text-anchor="middle" x="272.814" y="-182.21" font-family="Times,serif" font-size="14.00">aR﻿</text>
</g>
<!-- R&#45;&#45;6 -->
<g id="Pack_edge13" class="edge"><title>R&#45;&#45;6</title>
<path fill="none" stroke="black" d="M259.084,-206.879C260.217,-184.778 262.029,-149.445 262.465,-140.957"/>
<text text-anchor="middle" x="245.418" y="-178.118" font-family="Times,serif" font-size="14.00">fR﻿</text>
</g>
<!-- R&#45;&#45;7 -->
<g id="Pack_edge14" class="edge"><title>R&#45;&#45;7</title>
<path fill="none" stroke="black" d="M243.987,-236.366C227.493,-249.457 201.61,-270 194.656,-275.519"/>
<text text-anchor="middle" x="235.847" y="-260.142" font-family="Times,serif" font-size="14.00">gR﻿</text>
</g>
</g>
</svg>

