<?xml version="1.0" encoding="UTF-8" standalone="no"?>
<?xml-stylesheet href="Xholon.css" type="text/css"?>
<!DOCTYPE svg PUBLIC "-//W3C//DTD SVG 1.1//EN"
 "http://www.w3.org/Graphics/SVG/1.1/DTD/svg11.dtd">
<!-- Generated by graphviz version 2.28.0 (20140111.2315)
 -->
<!-- Title: R Pages: 1 -->
<svg width="416pt" height="552pt"
 viewBox="0.00 0.00 416.00 552.03" xmlns="http://www.w3.org/2000/svg" xmlns:xlink="http://www.w3.org/1999/xlink">
<g id="Pack" class="graph" transform="scale(1 1) rotate(0) translate(4 548.031)">
<title>R</title>
<polygon fill="white" stroke="none" points="-4,4 -4,-548.031 411.999,-548.031 411.999,4 -4,4"/>
<text text-anchor="middle" x="203.999" y="-8.2" font-family="Courier New" font-size="14.00">R</text>
<!-- P1 -->
<g id="Pack/Pack[@roleName=&#39;P1&#39;]" class="node"><title>P1</title>
<ellipse fill="none" stroke="black" cx="298.199" cy="-338.369" rx="22.7465" ry="22.7465"/>
<text text-anchor="middle" x="298.199" y="-334.169" font-family="Courier New" font-size="14.00">P1</text>
</g>
<!-- 1 -->
<g id="Pack/Cable[@roleName=&#39;1&#39;]" class="node"><title>1</title>
<ellipse fill="#000000" stroke="black" cx="262.199" cy="-276.015" rx="1.8" ry="1.8"/>
<text text-anchor="middle" x="256.199" y="-282.015" font-family="Courier New" font-size="14.00">1</text>
</g>
<!-- P1&#45;&#45;1 -->
<g id="Pack_edge1" class="edge"><title>P1&#45;&#45;1</title>
<path fill="none" stroke="black" d="M286.808,-318.64C277.909,-303.227 266.507,-283.478 263.162,-277.683"/>
<text text-anchor="middle" x="260.02" y="-302.362" font-family="Times,serif" font-size="14.00">a1﻿</text>
</g>
<!-- 2 -->
<g id="Pack/Cable[@roleName=&#39;2&#39;]" class="node"><title>2</title>
<ellipse fill="#000000" stroke="black" cx="334.199" cy="-400.723" rx="1.8" ry="1.8"/>
<text text-anchor="middle" x="328.199" y="-406.723" font-family="Courier New" font-size="14.00">2</text>
</g>
<!-- P1&#45;&#45;2 -->
<g id="Pack_edge2" class="edge"><title>P1&#45;&#45;2</title>
<path fill="none" stroke="black" d="M309.589,-358.098C318.488,-373.512 329.89,-393.26 333.236,-399.055"/>
<text text-anchor="middle" x="306.055" y="-382.777" font-family="Times,serif" font-size="14.00">b1﻿</text>
</g>
<!-- 6 -->
<g id="Pack/Cable[@roleName=&#39;6&#39;]" class="node"><title>6</title>
<ellipse fill="#000000" stroke="black" cx="154.199" cy="-213.661" rx="1.8" ry="1.8"/>
<text text-anchor="middle" x="148.199" y="-219.661" font-family="Courier New" font-size="14.00">6</text>
</g>
<!-- P1&#45;&#45;6 -->
<g id="Pack_edge3" class="edge"><title>P1&#45;&#45;6</title>
<path fill="none" stroke="black" d="M280.829,-323.326C245.521,-292.749 167.695,-225.35 155.75,-215.005"/>
<text text-anchor="middle" x="204.102" y="-273.366" font-family="Times,serif" font-size="14.00">f1﻿</text>
</g>
<!-- P2 -->
<g id="Pack/Pack[@roleName=&#39;P2&#39;]" class="node"><title>P2</title>
<ellipse fill="none" stroke="black" cx="370.199" cy="-463.077" rx="22.7465" ry="22.7465"/>
<text text-anchor="middle" x="370.199" y="-458.877" font-family="Courier New" font-size="14.00">P2</text>
</g>
<!-- P2&#45;&#45;2 -->
<g id="Pack_edge4" class="edge"><title>P2&#45;&#45;2</title>
<path fill="none" stroke="black" d="M358.808,-443.348C349.909,-427.934 338.507,-408.186 335.162,-402.391"/>
<text text-anchor="middle" x="331.627" y="-427.069" font-family="Times,serif" font-size="14.00">b2﻿</text>
</g>
<!-- 3 -->
<g id="Pack/Cable[@roleName=&#39;3&#39;]" class="node"><title>3</title>
<ellipse fill="#000000" stroke="black" cx="406.199" cy="-525.431" rx="1.8" ry="1.8"/>
<text text-anchor="middle" x="400.199" y="-531.431" font-family="Courier New" font-size="14.00">3</text>
</g>
<!-- P2&#45;&#45;3 -->
<g id="Pack_edge5" class="edge"><title>P2&#45;&#45;3</title>
<path fill="none" stroke="black" d="M381.589,-482.806C390.488,-498.219 401.89,-517.968 405.236,-523.763"/>
<text text-anchor="middle" x="378.448" y="-507.484" font-family="Times,serif" font-size="14.00">c2﻿</text>
</g>
<!-- 4 -->
<g id="Pack/Cable[@roleName=&#39;4&#39;]" class="node"><title>4</title>
<ellipse fill="#000000" stroke="black" cx="334.199" cy="-26.6" rx="1.8" ry="1.8"/>
<text text-anchor="middle" x="328.199" y="-32.6" font-family="Courier New" font-size="14.00">4</text>
</g>
<!-- P2&#45;&#45;4 -->
<g id="Pack_edge6" class="edge"><title>P2&#45;&#45;4</title>
<path fill="none" stroke="black" d="M368.339,-440.529C361.313,-355.34 336.666,-56.5099 334.37,-28.6817"/>
<text text-anchor="middle" x="335.997" y="-238.805" font-family="Times,serif" font-size="14.00">d2﻿</text>
</g>
<!-- 5 -->
<g id="Pack/Cable[@roleName=&#39;5&#39;]" class="node"><title>5</title>
<ellipse fill="#000000" stroke="black" cx="10.1986" cy="-213.661" rx="1.8" ry="1.8"/>
<text text-anchor="middle" x="4.1993" y="-219.661" font-family="Courier New" font-size="14.00">5</text>
</g>
<!-- P2&#45;&#45;5 -->
<g id="Pack_edge7" class="edge"><title>P2&#45;&#45;5</title>
<path fill="none" stroke="black" d="M351.602,-450.192C281.339,-401.513 34.8679,-230.753 11.9156,-214.851"/>
<text text-anchor="middle" x="166.794" y="-336.722" font-family="Times,serif" font-size="14.00">e2﻿</text>
</g>
<!-- P3 -->
<g id="Pack/Pack[@roleName=&#39;P3&#39;]" class="node"><title>P3</title>
<ellipse fill="none" stroke="black" cx="82.1986" cy="-213.661" rx="22.7465" ry="22.7465"/>
<text text-anchor="middle" x="82.1986" y="-209.461" font-family="Courier New" font-size="14.00">P3</text>
</g>
<!-- P3&#45;&#45;6 -->
<g id="Pack_edge9" class="edge"><title>P3&#45;&#45;6</title>
<path fill="none" stroke="black" d="M104.98,-213.661C122.778,-213.661 145.581,-213.661 152.273,-213.661"/>
<text text-anchor="middle" x="135.72" y="-201.061" font-family="Times,serif" font-size="14.00">f3﻿</text>
</g>
<!-- P3&#45;&#45;5 -->
<g id="Pack_edge8" class="edge"><title>P3&#45;&#45;5</title>
<path fill="none" stroke="black" d="M59.4173,-213.661C41.6195,-213.661 18.816,-213.661 12.1244,-213.661"/>
<text text-anchor="middle" x="43.2532" y="-201.061" font-family="Times,serif" font-size="14.00">e3﻿</text>
</g>
<!-- Q -->
<g id="Pack/Pack[@roleName=&#39;Q&#39;]" class="node"><title>Q</title>
<ellipse fill="none" stroke="black" cx="298.199" cy="-88.9538" rx="18" ry="18"/>
<text text-anchor="middle" x="298.199" y="-84.7538" font-family="Courier New" font-size="14.00">Q</text>
</g>
<!-- Q&#45;&#45;4 -->
<g id="Pack_edge10" class="edge"><title>Q&#45;&#45;4</title>
<path fill="none" stroke="black" d="M307.283,-73.2193C316.448,-57.3451 329.738,-34.3251 333.295,-28.1647"/>
<text text-anchor="middle" x="301.432" y="-54.892" font-family="Times,serif" font-size="14.00">ddd﻿</text>
</g>
<!-- 7 -->
<g id="Pack/Cable[@roleName=&#39;7&#39;]" class="node"><title>7</title>
<ellipse fill="#000000" stroke="black" cx="262.199" cy="-151.308" rx="1.8" ry="1.8"/>
<text text-anchor="middle" x="256.199" y="-157.308" font-family="Courier New" font-size="14.00">7</text>
</g>
<!-- Q&#45;&#45;7 -->
<g id="Pack_edge11" class="edge"><title>Q&#45;&#45;7</title>
<path fill="none" stroke="black" d="M289.114,-104.688C279.949,-120.563 266.659,-143.583 263.102,-149.743"/>
<text text-anchor="middle" x="257.251" y="-131.416" font-family="Times,serif" font-size="14.00">ggg﻿</text>
</g>
<!-- R -->
<g id="Pack_node12" class="node"><title>R</title>
<ellipse fill="none" stroke="black" cx="226.199" cy="-213.661" rx="18" ry="18"/>
<text text-anchor="middle" x="226.199" y="-209.461" font-family="Courier New" font-size="14.00">R</text>
</g>
<!-- R&#45;&#45;1 -->
<g id="Pack_edge12" class="edge"><title>R&#45;&#45;1</title>
<path fill="none" stroke="black" d="M235.283,-229.396C244.448,-245.27 257.738,-268.29 261.295,-274.451"/>
<text text-anchor="middle" x="232.156" y="-256.123" font-family="Times,serif" font-size="14.00">aR﻿</text>
</g>
<!-- R&#45;&#45;6 -->
<g id="Pack_edge13" class="edge"><title>R&#45;&#45;6</title>
<path fill="none" stroke="black" d="M208.03,-213.661C189.7,-213.661 163.119,-213.661 156.005,-213.661"/>
<text text-anchor="middle" x="189.696" y="-201.061" font-family="Times,serif" font-size="14.00">fR﻿</text>
</g>
<!-- R&#45;&#45;7 -->
<g id="Pack_edge14" class="edge"><title>R&#45;&#45;7</title>
<path fill="none" stroke="black" d="M235.283,-197.927C244.448,-182.053 257.738,-159.033 261.295,-152.872"/>
<text text-anchor="middle" x="231.763" y="-179.6" font-family="Times,serif" font-size="14.00">gR﻿</text>
</g>
</g>
</svg>

